  0
SECTION
  2
HEADER
  9
$ANGBASE
  50
0.0
  9
$ANGDIR
  70
1
  9
$MEASUREMENT
  70
1
  0
ENDSEC
  0
SECTION
  2
TABLES
  0
TABLE
  2
LTYPE
  70
4
  0
LTYPE
  5
40F
  2
CONTINUOUS
  70
0
  3
Solid line
  72
65
  73
0
  40
0.0
  0
LTYPE
  5
410
  2
DASHDOT
 70
0
  3
Dash Dot ____ _ ____ _
 72
65
 73
4
 40
2.0
 49
1.25
 49
-0.25
 49
0.25
 49
-0.25
  0
LTYPE
  5
411
  2
DASHED
 70
0
  3
Dashed __ __ __ __ __
 72
65
 73
2
 40
0.75
 49
0.5
 49
-0.25
  0
LTYPE
  5
43B
  2
DOTTED
 70
0
  3
Dotted .  .  .  .
 72
65
 73
2
 40
0.2
 49
0.0
 49
-0.2
  0
ENDTAB
  0
TABLE
  2
STYLE
  70
4
  0
STYLE
  2
KICAD
  70
0
  40
0
  41
1
  42
1
  50
0
  71
0
  3
isocp.shx
  0
STYLE
  2
KICADB
  70
0
  40
0
  41
1
  42
1
  50
0
  71
0
  3
isocp.shx
  0
STYLE
  2
KICADI
  70
0
  40
0
  41
1
  42
1
  50
15
  71
0
  3
isocp.shx
  0
STYLE
  2
KICADBI
  70
0
  40
0
  41
1
  42
1
  50
15
  71
0
  3
isocp.shx
  0
ENDTAB
  0
TABLE
  2
LAYER
  70
1
  0
LAYER
  2
BLACK
  70
0
  62
7
  6
CONTINUOUS
  0
ENDTAB
  0
ENDSEC
  0
SECTION
  2
ENTITIES
0
LINE
8
BLACK
6
CONTINUOUS
10
259.589
20
-26.391
11
259.589
21
-26.391
0
LINE
8
BLACK
6
CONTINUOUS
10
259.589
20
-26.391
11
259.593
21
-26.3914
0
LINE
8
BLACK
6
CONTINUOUS
10
259.593
20
-26.3914
11
259.598
21
-26.3928
0
LINE
8
BLACK
6
CONTINUOUS
10
259.598
20
-26.3928
11
259.602
21
-26.3951
0
LINE
8
BLACK
6
CONTINUOUS
10
259.602
20
-26.3951
11
259.606
21
-26.3982
0
LINE
8
BLACK
6
CONTINUOUS
10
259.606
20
-26.3982
11
259.609
21
-26.402
0
LINE
8
BLACK
6
CONTINUOUS
10
259.609
20
-26.402
11
259.611
21
-26.4064
0
LINE
8
BLACK
6
CONTINUOUS
10
259.611
20
-26.4064
11
259.613
21
-26.4111
0
LINE
8
BLACK
6
CONTINUOUS
10
259.613
20
-26.4111
11
259.613
21
-26.416
0
LINE
8
BLACK
6
CONTINUOUS
10
259.613
20
-26.416
11
259.613
21
-26.4172
0
LINE
8
BLACK
6
CONTINUOUS
10
259.613
20
-26.4172
11
259.613
21
-138.81
0
LINE
8
BLACK
6
CONTINUOUS
10
259.613
20
-138.81
11
259.613
21
-138.811
0
LINE
8
BLACK
6
CONTINUOUS
10
259.613
20
-138.811
11
259.613
21
-138.812
0
LINE
8
BLACK
6
CONTINUOUS
10
259.613
20
-138.812
11
259.613
21
-138.812
0
LINE
8
BLACK
6
CONTINUOUS
10
259.613
20
-138.812
11
259.613
21
-138.816
0
LINE
8
BLACK
6
CONTINUOUS
10
259.613
20
-138.816
11
259.611
21
-138.821
0
LINE
8
BLACK
6
CONTINUOUS
10
259.611
20
-138.821
11
259.609
21
-138.825
0
LINE
8
BLACK
6
CONTINUOUS
10
259.609
20
-138.825
11
259.606
21
-138.829
0
LINE
8
BLACK
6
CONTINUOUS
10
259.606
20
-138.829
11
259.602
21
-138.832
0
LINE
8
BLACK
6
CONTINUOUS
10
259.602
20
-138.832
11
259.598
21
-138.834
0
LINE
8
BLACK
6
CONTINUOUS
10
259.598
20
-138.834
11
259.593
21
-138.836
0
LINE
8
BLACK
6
CONTINUOUS
10
259.593
20
-138.836
11
259.588
21
-138.836
0
LINE
8
BLACK
6
CONTINUOUS
10
259.588
20
-138.836
11
259.587
21
-138.836
0
LINE
8
BLACK
6
CONTINUOUS
10
259.587
20
-138.836
11
26.9252
21
-138.836
0
LINE
8
BLACK
6
CONTINUOUS
10
26.9252
20
-138.836
11
26.924
21
-138.836
0
LINE
8
BLACK
6
CONTINUOUS
10
26.924
20
-138.836
11
26.9191
21
-138.836
0
LINE
8
BLACK
6
CONTINUOUS
10
26.9191
20
-138.836
11
26.9144
21
-138.834
0
LINE
8
BLACK
6
CONTINUOUS
10
26.9144
20
-138.834
11
26.91
21
-138.832
0
LINE
8
BLACK
6
CONTINUOUS
10
26.91
20
-138.832
11
26.9062
21
-138.829
0
LINE
8
BLACK
6
CONTINUOUS
10
26.9062
20
-138.829
11
26.9031
21
-138.825
0
LINE
8
BLACK
6
CONTINUOUS
10
26.9031
20
-138.825
11
26.9008
21
-138.821
0
LINE
8
BLACK
6
CONTINUOUS
10
26.9008
20
-138.821
11
26.8994
21
-138.816
0
LINE
8
BLACK
6
CONTINUOUS
10
26.8994
20
-138.816
11
26.8989
21
-138.811
0
LINE
8
BLACK
6
CONTINUOUS
10
26.8989
20
-138.811
11
26.899
21
-138.81
0
LINE
8
BLACK
6
CONTINUOUS
10
26.899
20
-138.81
11
26.899
21
-26.4172
0
LINE
8
BLACK
6
CONTINUOUS
10
26.899
20
-26.4172
11
26.8989
21
-26.416
0
LINE
8
BLACK
6
CONTINUOUS
10
26.8989
20
-26.416
11
26.8994
21
-26.4111
0
LINE
8
BLACK
6
CONTINUOUS
10
26.8994
20
-26.4111
11
26.9008
21
-26.4064
0
LINE
8
BLACK
6
CONTINUOUS
10
26.9008
20
-26.4064
11
26.9031
21
-26.402
0
LINE
8
BLACK
6
CONTINUOUS
10
26.9031
20
-26.402
11
26.9062
21
-26.3982
0
LINE
8
BLACK
6
CONTINUOUS
10
26.9062
20
-26.3982
11
26.91
21
-26.3951
0
LINE
8
BLACK
6
CONTINUOUS
10
26.91
20
-26.3951
11
26.9144
21
-26.3928
0
LINE
8
BLACK
6
CONTINUOUS
10
26.9144
20
-26.3928
11
26.9191
21
-26.3914
0
LINE
8
BLACK
6
CONTINUOUS
10
26.9191
20
-26.3914
11
26.9228
21
-26.391
0
LINE
8
BLACK
6
CONTINUOUS
10
26.9228
20
-26.391
11
26.9228
21
-26.391
0
LINE
8
BLACK
6
CONTINUOUS
10
26.9228
20
-26.391
11
26.924
21
-26.3909
0
LINE
8
BLACK
6
CONTINUOUS
10
26.924
20
-26.3909
11
26.9252
21
-26.391
0
LINE
8
BLACK
6
CONTINUOUS
10
26.9252
20
-26.391
11
259.587
21
-26.391
0
LINE
8
BLACK
6
CONTINUOUS
10
259.587
20
-26.391
11
259.588
21
-26.3909
0
LINE
8
BLACK
6
CONTINUOUS
10
259.588
20
-26.3909
11
259.589
21
-26.391
0
LINE
8
BLACK
6
CONTINUOUS
10
26.949
20
-26.441
11
26.949
21
-138.786
0
LINE
8
BLACK
6
CONTINUOUS
10
26.949
20
-138.786
11
259.563
21
-138.786
0
LINE
8
BLACK
6
CONTINUOUS
10
259.563
20
-138.786
11
259.563
21
-26.441
0
LINE
8
BLACK
6
CONTINUOUS
10
259.563
20
-26.441
11
26.949
21
-26.441
0
LINE
8
BLACK
6
CONTINUOUS
10
329.207
20
-123.649
11
329.235
21
-123.652
0
LINE
8
BLACK
6
CONTINUOUS
10
329.235
20
-123.652
11
329.271
21
-123.663
0
LINE
8
BLACK
6
CONTINUOUS
10
329.271
20
-123.663
11
329.304
21
-123.681
0
LINE
8
BLACK
6
CONTINUOUS
10
329.304
20
-123.681
11
329.333
21
-123.705
0
LINE
8
BLACK
6
CONTINUOUS
10
329.333
20
-123.705
11
329.357
21
-123.734
0
LINE
8
BLACK
6
CONTINUOUS
10
329.357
20
-123.734
11
329.375
21
-123.767
0
LINE
8
BLACK
6
CONTINUOUS
10
329.375
20
-123.767
11
329.386
21
-123.803
0
LINE
8
BLACK
6
CONTINUOUS
10
329.386
20
-123.803
11
329.389
21
-123.84
0
LINE
8
BLACK
6
CONTINUOUS
10
329.389
20
-123.84
11
329.388
21
-123.849
0
LINE
8
BLACK
6
CONTINUOUS
10
329.388
20
-123.849
11
329.388
21
-137.831
0
LINE
8
BLACK
6
CONTINUOUS
10
329.388
20
-137.831
11
329.389
21
-137.84
0
LINE
8
BLACK
6
CONTINUOUS
10
329.389
20
-137.84
11
329.386
21
-137.877
0
LINE
8
BLACK
6
CONTINUOUS
10
329.386
20
-137.877
11
329.375
21
-137.913
0
LINE
8
BLACK
6
CONTINUOUS
10
329.375
20
-137.913
11
329.357
21
-137.946
0
LINE
8
BLACK
6
CONTINUOUS
10
329.357
20
-137.946
11
329.333
21
-137.975
0
LINE
8
BLACK
6
CONTINUOUS
10
329.333
20
-137.975
11
329.304
21
-137.999
0
LINE
8
BLACK
6
CONTINUOUS
10
329.304
20
-137.999
11
329.271
21
-138.017
0
LINE
8
BLACK
6
CONTINUOUS
10
329.271
20
-138.017
11
329.235
21
-138.028
0
LINE
8
BLACK
6
CONTINUOUS
10
329.235
20
-138.028
11
329.207
21
-138.03
0
LINE
8
BLACK
6
CONTINUOUS
10
329.207
20
-138.03
11
329.198
21
-138.031
0
LINE
8
BLACK
6
CONTINUOUS
10
329.198
20
-138.031
11
329.189
21
-138.03
0
LINE
8
BLACK
6
CONTINUOUS
10
329.189
20
-138.03
11
318.207
21
-138.03
0
LINE
8
BLACK
6
CONTINUOUS
10
318.207
20
-138.03
11
318.198
21
-138.031
0
LINE
8
BLACK
6
CONTINUOUS
10
318.198
20
-138.031
11
318.161
21
-138.028
0
LINE
8
BLACK
6
CONTINUOUS
10
318.161
20
-138.028
11
318.125
21
-138.017
0
LINE
8
BLACK
6
CONTINUOUS
10
318.125
20
-138.017
11
318.092
21
-137.999
0
LINE
8
BLACK
6
CONTINUOUS
10
318.092
20
-137.999
11
318.063
21
-137.975
0
LINE
8
BLACK
6
CONTINUOUS
10
318.063
20
-137.975
11
318.039
21
-137.946
0
LINE
8
BLACK
6
CONTINUOUS
10
318.039
20
-137.946
11
318.021
21
-137.913
0
LINE
8
BLACK
6
CONTINUOUS
10
318.021
20
-137.913
11
318.01
21
-137.877
0
LINE
8
BLACK
6
CONTINUOUS
10
318.01
20
-137.877
11
318.007
21
-137.84
0
LINE
8
BLACK
6
CONTINUOUS
10
318.007
20
-137.84
11
318.007
21
-137.831
0
LINE
8
BLACK
6
CONTINUOUS
10
318.007
20
-137.831
11
318.008
21
-123.849
0
LINE
8
BLACK
6
CONTINUOUS
10
318.008
20
-123.849
11
318.007
21
-123.84
0
LINE
8
BLACK
6
CONTINUOUS
10
318.007
20
-123.84
11
318.01
21
-123.803
0
LINE
8
BLACK
6
CONTINUOUS
10
318.01
20
-123.803
11
318.021
21
-123.767
0
LINE
8
BLACK
6
CONTINUOUS
10
318.021
20
-123.767
11
318.039
21
-123.734
0
LINE
8
BLACK
6
CONTINUOUS
10
318.039
20
-123.734
11
318.063
21
-123.705
0
LINE
8
BLACK
6
CONTINUOUS
10
318.063
20
-123.705
11
318.092
21
-123.681
0
LINE
8
BLACK
6
CONTINUOUS
10
318.092
20
-123.681
11
318.125
21
-123.663
0
LINE
8
BLACK
6
CONTINUOUS
10
318.125
20
-123.663
11
318.161
21
-123.652
0
LINE
8
BLACK
6
CONTINUOUS
10
318.161
20
-123.652
11
318.189
21
-123.649
0
LINE
8
BLACK
6
CONTINUOUS
10
318.189
20
-123.649
11
318.198
21
-123.649
0
LINE
8
BLACK
6
CONTINUOUS
10
318.198
20
-123.649
11
318.207
21
-123.649
0
LINE
8
BLACK
6
CONTINUOUS
10
318.207
20
-123.649
11
329.189
21
-123.649
0
LINE
8
BLACK
6
CONTINUOUS
10
329.189
20
-123.649
11
329.198
21
-123.649
0
LINE
8
BLACK
6
CONTINUOUS
10
329.198
20
-123.649
11
329.207
21
-123.649
0
LINE
8
BLACK
6
CONTINUOUS
10
318.388
20
-124.03
11
318.388
21
-137.649
0
LINE
8
BLACK
6
CONTINUOUS
10
318.388
20
-137.649
11
329.008
21
-137.649
0
LINE
8
BLACK
6
CONTINUOUS
10
329.008
20
-137.649
11
329.007
21
-124.03
0
LINE
8
BLACK
6
CONTINUOUS
10
329.007
20
-124.03
11
318.388
21
-124.03
0
LINE
8
BLACK
6
CONTINUOUS
10
346.257
20
-90.7495
11
346.285
21
-90.7523
0
LINE
8
BLACK
6
CONTINUOUS
10
346.285
20
-90.7523
11
346.321
21
-90.7631
0
LINE
8
BLACK
6
CONTINUOUS
10
346.321
20
-90.7631
11
346.354
21
-90.7808
0
LINE
8
BLACK
6
CONTINUOUS
10
346.354
20
-90.7808
11
346.383
21
-90.8046
0
LINE
8
BLACK
6
CONTINUOUS
10
346.383
20
-90.8046
11
346.407
21
-90.8337
0
LINE
8
BLACK
6
CONTINUOUS
10
346.407
20
-90.8337
11
346.425
21
-90.8667
0
LINE
8
BLACK
6
CONTINUOUS
10
346.425
20
-90.8667
11
346.436
21
-90.9027
0
LINE
8
BLACK
6
CONTINUOUS
10
346.436
20
-90.9027
11
346.439
21
-90.94
0
LINE
8
BLACK
6
CONTINUOUS
10
346.439
20
-90.94
11
346.438
21
-90.9494
0
LINE
8
BLACK
6
CONTINUOUS
10
346.438
20
-90.9494
11
346.438
21
-104.931
0
LINE
8
BLACK
6
CONTINUOUS
10
346.438
20
-104.931
11
346.439
21
-104.94
0
LINE
8
BLACK
6
CONTINUOUS
10
346.439
20
-104.94
11
346.436
21
-104.977
0
LINE
8
BLACK
6
CONTINUOUS
10
346.436
20
-104.977
11
346.425
21
-105.013
0
LINE
8
BLACK
6
CONTINUOUS
10
346.425
20
-105.013
11
346.407
21
-105.046
0
LINE
8
BLACK
6
CONTINUOUS
10
346.407
20
-105.046
11
346.383
21
-105.075
0
LINE
8
BLACK
6
CONTINUOUS
10
346.383
20
-105.075
11
346.354
21
-105.099
0
LINE
8
BLACK
6
CONTINUOUS
10
346.354
20
-105.099
11
346.321
21
-105.117
0
LINE
8
BLACK
6
CONTINUOUS
10
346.321
20
-105.117
11
346.285
21
-105.128
0
LINE
8
BLACK
6
CONTINUOUS
10
346.285
20
-105.128
11
346.257
21
-105.13
0
LINE
8
BLACK
6
CONTINUOUS
10
346.257
20
-105.13
11
346.248
21
-105.131
0
LINE
8
BLACK
6
CONTINUOUS
10
346.248
20
-105.131
11
346.239
21
-105.13
0
LINE
8
BLACK
6
CONTINUOUS
10
346.239
20
-105.13
11
335.257
21
-105.13
0
LINE
8
BLACK
6
CONTINUOUS
10
335.257
20
-105.13
11
335.248
21
-105.131
0
LINE
8
BLACK
6
CONTINUOUS
10
335.248
20
-105.131
11
335.211
21
-105.128
0
LINE
8
BLACK
6
CONTINUOUS
10
335.211
20
-105.128
11
335.175
21
-105.117
0
LINE
8
BLACK
6
CONTINUOUS
10
335.175
20
-105.117
11
335.142
21
-105.099
0
LINE
8
BLACK
6
CONTINUOUS
10
335.142
20
-105.099
11
335.113
21
-105.075
0
LINE
8
BLACK
6
CONTINUOUS
10
335.113
20
-105.075
11
335.089
21
-105.046
0
LINE
8
BLACK
6
CONTINUOUS
10
335.089
20
-105.046
11
335.071
21
-105.013
0
LINE
8
BLACK
6
CONTINUOUS
10
335.071
20
-105.013
11
335.06
21
-104.977
0
LINE
8
BLACK
6
CONTINUOUS
10
335.06
20
-104.977
11
335.057
21
-104.94
0
LINE
8
BLACK
6
CONTINUOUS
10
335.057
20
-104.94
11
335.058
21
-104.931
0
LINE
8
BLACK
6
CONTINUOUS
10
335.058
20
-104.931
11
335.058
21
-90.9494
0
LINE
8
BLACK
6
CONTINUOUS
10
335.058
20
-90.9494
11
335.057
21
-90.94
0
LINE
8
BLACK
6
CONTINUOUS
10
335.057
20
-90.94
11
335.06
21
-90.9027
0
LINE
8
BLACK
6
CONTINUOUS
10
335.06
20
-90.9027
11
335.071
21
-90.8667
0
LINE
8
BLACK
6
CONTINUOUS
10
335.071
20
-90.8667
11
335.089
21
-90.8337
0
LINE
8
BLACK
6
CONTINUOUS
10
335.089
20
-90.8337
11
335.113
21
-90.8046
0
LINE
8
BLACK
6
CONTINUOUS
10
335.113
20
-90.8046
11
335.142
21
-90.7808
0
LINE
8
BLACK
6
CONTINUOUS
10
335.142
20
-90.7808
11
335.175
21
-90.7631
0
LINE
8
BLACK
6
CONTINUOUS
10
335.175
20
-90.7631
11
335.211
21
-90.7523
0
LINE
8
BLACK
6
CONTINUOUS
10
335.211
20
-90.7523
11
335.239
21
-90.7495
0
LINE
8
BLACK
6
CONTINUOUS
10
335.239
20
-90.7495
11
335.248
21
-90.7486
0
LINE
8
BLACK
6
CONTINUOUS
10
335.248
20
-90.7486
11
335.257
21
-90.7495
0
LINE
8
BLACK
6
CONTINUOUS
10
335.257
20
-90.7495
11
346.239
21
-90.7495
0
LINE
8
BLACK
6
CONTINUOUS
10
346.239
20
-90.7495
11
346.248
21
-90.7486
0
LINE
8
BLACK
6
CONTINUOUS
10
346.248
20
-90.7486
11
346.257
21
-90.7495
0
LINE
8
BLACK
6
CONTINUOUS
10
335.438
20
-91.1305
11
335.438
21
-104.749
0
LINE
8
BLACK
6
CONTINUOUS
10
335.438
20
-104.749
11
346.058
21
-104.749
0
LINE
8
BLACK
6
CONTINUOUS
10
346.058
20
-104.749
11
346.058
21
-91.1305
0
LINE
8
BLACK
6
CONTINUOUS
10
346.058
20
-91.1305
11
335.438
21
-91.1305
0
LINE
8
BLACK
6
CONTINUOUS
10
322.379
20
-68.7535
11
322.407
21
-68.7563
0
LINE
8
BLACK
6
CONTINUOUS
10
322.407
20
-68.7563
11
322.443
21
-68.7672
0
LINE
8
BLACK
6
CONTINUOUS
10
322.443
20
-68.7672
11
322.476
21
-68.7848
0
LINE
8
BLACK
6
CONTINUOUS
10
322.476
20
-68.7848
11
322.505
21
-68.8086
0
LINE
8
BLACK
6
CONTINUOUS
10
322.505
20
-68.8086
11
322.529
21
-68.8377
0
LINE
8
BLACK
6
CONTINUOUS
10
322.529
20
-68.8377
11
322.547
21
-68.8707
0
LINE
8
BLACK
6
CONTINUOUS
10
322.547
20
-68.8707
11
322.558
21
-68.9067
0
LINE
8
BLACK
6
CONTINUOUS
10
322.558
20
-68.9067
11
322.561
21
-68.944
0
LINE
8
BLACK
6
CONTINUOUS
10
322.561
20
-68.944
11
322.56
21
-68.9534
0
LINE
8
BLACK
6
CONTINUOUS
10
322.56
20
-68.9534
11
322.56
21
-82.9346
0
LINE
8
BLACK
6
CONTINUOUS
10
322.56
20
-82.9346
11
322.561
21
-82.944
0
LINE
8
BLACK
6
CONTINUOUS
10
322.561
20
-82.944
11
322.558
21
-82.9813
0
LINE
8
BLACK
6
CONTINUOUS
10
322.558
20
-82.9813
11
322.547
21
-83.0173
0
LINE
8
BLACK
6
CONTINUOUS
10
322.547
20
-83.0173
11
322.529
21
-83.0503
0
LINE
8
BLACK
6
CONTINUOUS
10
322.529
20
-83.0503
11
322.505
21
-83.0794
0
LINE
8
BLACK
6
CONTINUOUS
10
322.505
20
-83.0794
11
322.476
21
-83.1032
0
LINE
8
BLACK
6
CONTINUOUS
10
322.476
20
-83.1032
11
322.443
21
-83.1208
0
LINE
8
BLACK
6
CONTINUOUS
10
322.443
20
-83.1208
11
322.407
21
-83.1317
0
LINE
8
BLACK
6
CONTINUOUS
10
322.407
20
-83.1317
11
322.379
21
-83.1345
0
LINE
8
BLACK
6
CONTINUOUS
10
322.379
20
-83.1345
11
322.37
21
-83.1354
0
LINE
8
BLACK
6
CONTINUOUS
10
322.37
20
-83.1354
11
322.361
21
-83.1345
0
LINE
8
BLACK
6
CONTINUOUS
10
322.361
20
-83.1345
11
311.379
21
-83.1345
0
LINE
8
BLACK
6
CONTINUOUS
10
311.379
20
-83.1345
11
311.37
21
-83.1354
0
LINE
8
BLACK
6
CONTINUOUS
10
311.37
20
-83.1354
11
311.333
21
-83.1317
0
LINE
8
BLACK
6
CONTINUOUS
10
311.333
20
-83.1317
11
311.297
21
-83.1208
0
LINE
8
BLACK
6
CONTINUOUS
10
311.297
20
-83.1208
11
311.264
21
-83.1032
0
LINE
8
BLACK
6
CONTINUOUS
10
311.264
20
-83.1032
11
311.235
21
-83.0794
0
LINE
8
BLACK
6
CONTINUOUS
10
311.235
20
-83.0794
11
311.211
21
-83.0503
0
LINE
8
BLACK
6
CONTINUOUS
10
311.211
20
-83.0503
11
311.193
21
-83.0173
0
LINE
8
BLACK
6
CONTINUOUS
10
311.193
20
-83.0173
11
311.182
21
-82.9813
0
LINE
8
BLACK
6
CONTINUOUS
10
311.182
20
-82.9813
11
311.179
21
-82.944
0
LINE
8
BLACK
6
CONTINUOUS
10
311.179
20
-82.944
11
311.179
21
-82.9346
0
LINE
8
BLACK
6
CONTINUOUS
10
311.179
20
-82.9346
11
311.18
21
-68.9534
0
LINE
8
BLACK
6
CONTINUOUS
10
311.18
20
-68.9534
11
311.179
21
-68.944
0
LINE
8
BLACK
6
CONTINUOUS
10
311.179
20
-68.944
11
311.182
21
-68.9067
0
LINE
8
BLACK
6
CONTINUOUS
10
311.182
20
-68.9067
11
311.193
21
-68.8707
0
LINE
8
BLACK
6
CONTINUOUS
10
311.193
20
-68.8707
11
311.211
21
-68.8377
0
LINE
8
BLACK
6
CONTINUOUS
10
311.211
20
-68.8377
11
311.235
21
-68.8086
0
LINE
8
BLACK
6
CONTINUOUS
10
311.235
20
-68.8086
11
311.264
21
-68.7848
0
LINE
8
BLACK
6
CONTINUOUS
10
311.264
20
-68.7848
11
311.297
21
-68.7672
0
LINE
8
BLACK
6
CONTINUOUS
10
311.297
20
-68.7672
11
311.333
21
-68.7563
0
LINE
8
BLACK
6
CONTINUOUS
10
311.333
20
-68.7563
11
311.361
21
-68.7535
0
LINE
8
BLACK
6
CONTINUOUS
10
311.361
20
-68.7535
11
311.37
21
-68.7526
0
LINE
8
BLACK
6
CONTINUOUS
10
311.37
20
-68.7526
11
311.379
21
-68.7535
0
LINE
8
BLACK
6
CONTINUOUS
10
311.379
20
-68.7535
11
322.361
21
-68.7535
0
LINE
8
BLACK
6
CONTINUOUS
10
322.361
20
-68.7535
11
322.37
21
-68.7526
0
LINE
8
BLACK
6
CONTINUOUS
10
322.37
20
-68.7526
11
322.379
21
-68.7535
0
LINE
8
BLACK
6
CONTINUOUS
10
311.56
20
-69.1345
11
311.56
21
-82.7535
0
LINE
8
BLACK
6
CONTINUOUS
10
311.56
20
-82.7535
11
322.18
21
-82.7535
0
LINE
8
BLACK
6
CONTINUOUS
10
322.18
20
-82.7535
11
322.179
21
-69.1345
0
LINE
8
BLACK
6
CONTINUOUS
10
322.179
20
-69.1345
11
311.56
21
-69.1345
  0
ENDSEC
  0
EOF
