%TF.GenerationSoftware,KiCad,Pcbnew,(5.1.10)-1*%
%TF.CreationDate,2022-02-15T22:19:51+02:00*%
%TF.ProjectId,SEM,53454d2e-6b69-4636-9164-5f7063625858,rev?*%
%TF.SameCoordinates,Original*%
%TF.FileFunction,Legend,Top*%
%TF.FilePolarity,Positive*%
%FSLAX46Y46*%
G04 Gerber Fmt 4.6, Leading zero omitted, Abs format (unit mm)*
G04 Created by KiCad (PCBNEW (5.1.10)-1) date 2022-02-15 22:19:51*
%MOMM*%
%LPD*%
G01*
G04 APERTURE LIST*
%ADD10C,0.375000*%
%ADD11C,0.120000*%
%ADD12C,0.150000*%
G04 APERTURE END LIST*
D10*
X53142380Y-214113809D02*
X53856666Y-214351904D01*
X55047142Y-214351904D01*
X55523333Y-214113809D01*
X55761428Y-213875714D01*
X55999523Y-213399523D01*
X55999523Y-212923333D01*
X55761428Y-212447142D01*
X55523333Y-212209047D01*
X55047142Y-211970952D01*
X54094761Y-211732857D01*
X53618571Y-211494761D01*
X53380476Y-211256666D01*
X53142380Y-210780476D01*
X53142380Y-210304285D01*
X53380476Y-209828095D01*
X53618571Y-209590000D01*
X54094761Y-209351904D01*
X55285238Y-209351904D01*
X55999523Y-209590000D01*
X58142380Y-211732857D02*
X59809047Y-211732857D01*
X60523333Y-214351904D02*
X58142380Y-214351904D01*
X58142380Y-209351904D01*
X60523333Y-209351904D01*
X62666190Y-214351904D02*
X62666190Y-209351904D01*
X64332857Y-212923333D01*
X65999523Y-209351904D01*
X65999523Y-214351904D01*
D11*
%TO.C,J10*%
X85150000Y-168970000D02*
X85150000Y-166310000D01*
X74930000Y-168970000D02*
X85150000Y-168970000D01*
X74930000Y-166310000D02*
X85150000Y-166310000D01*
X74930000Y-168970000D02*
X74930000Y-166310000D01*
X73660000Y-168970000D02*
X72330000Y-168970000D01*
X72330000Y-168970000D02*
X72330000Y-167640000D01*
%TO.C,C33*%
X125471000Y-192932000D02*
X124075000Y-192932000D01*
X128717000Y-192932000D02*
X127321000Y-192932000D01*
X125471000Y-186692000D02*
X124075000Y-186692000D01*
X128717000Y-186692000D02*
X127321000Y-186692000D01*
X124075000Y-186692000D02*
X124075000Y-192932000D01*
X128717000Y-186692000D02*
X128717000Y-192932000D01*
%TO.C,D2*%
X168561000Y-202682000D02*
X168561000Y-197282000D01*
X171861000Y-202682000D02*
X171861000Y-197282000D01*
X168561000Y-202682000D02*
X171861000Y-202682000D01*
%TO.C,R7*%
X124766000Y-176609064D02*
X124766000Y-175154936D01*
X122946000Y-176609064D02*
X122946000Y-175154936D01*
%TO.C,R19*%
X156783936Y-182507000D02*
X158238064Y-182507000D01*
X156783936Y-180687000D02*
X158238064Y-180687000D01*
%TO.C,J12*%
X134591000Y-169592000D02*
X134591000Y-168262000D01*
X135921000Y-169592000D02*
X134591000Y-169592000D01*
X137191000Y-169592000D02*
X137191000Y-166932000D01*
X137191000Y-166932000D02*
X152491000Y-166932000D01*
X137191000Y-169592000D02*
X152491000Y-169592000D01*
X152491000Y-169592000D02*
X152491000Y-166932000D01*
%TO.C,R10*%
X78863064Y-196604000D02*
X77408936Y-196604000D01*
X78863064Y-194784000D02*
X77408936Y-194784000D01*
%TO.C,C16*%
X141731000Y-174957000D02*
X141731000Y-173561000D01*
X141731000Y-178203000D02*
X141731000Y-176807000D01*
X147971000Y-174957000D02*
X147971000Y-173561000D01*
X147971000Y-178203000D02*
X147971000Y-176807000D01*
X147971000Y-173561000D02*
X141731000Y-173561000D01*
X147971000Y-178203000D02*
X141731000Y-178203000D01*
%TO.C,C31*%
X93666000Y-193757000D02*
X95062000Y-193757000D01*
X90420000Y-193757000D02*
X91816000Y-193757000D01*
X93666000Y-199997000D02*
X95062000Y-199997000D01*
X90420000Y-199997000D02*
X91816000Y-199997000D01*
X95062000Y-199997000D02*
X95062000Y-193757000D01*
X90420000Y-199997000D02*
X90420000Y-193757000D01*
%TO.C,C32*%
X169921000Y-192932000D02*
X168525000Y-192932000D01*
X173167000Y-192932000D02*
X171771000Y-192932000D01*
X169921000Y-186692000D02*
X168525000Y-186692000D01*
X173167000Y-186692000D02*
X171771000Y-186692000D01*
X168525000Y-186692000D02*
X168525000Y-192932000D01*
X173167000Y-186692000D02*
X173167000Y-192932000D01*
%TO.C,C30*%
X136211000Y-195662000D02*
X137607000Y-195662000D01*
X132965000Y-195662000D02*
X134361000Y-195662000D01*
X136211000Y-201902000D02*
X137607000Y-201902000D01*
X132965000Y-201902000D02*
X134361000Y-201902000D01*
X137607000Y-201902000D02*
X137607000Y-195662000D01*
X132965000Y-201902000D02*
X132965000Y-195662000D01*
%TO.C,C17*%
X101726000Y-174957000D02*
X101726000Y-173561000D01*
X101726000Y-178203000D02*
X101726000Y-176807000D01*
X107966000Y-174957000D02*
X107966000Y-173561000D01*
X107966000Y-178203000D02*
X107966000Y-176807000D01*
X107966000Y-173561000D02*
X101726000Y-173561000D01*
X107966000Y-178203000D02*
X101726000Y-178203000D01*
%TO.C,R14*%
X170118936Y-182507000D02*
X171573064Y-182507000D01*
X170118936Y-180687000D02*
X171573064Y-180687000D01*
%TO.C,C7*%
X60451000Y-174322000D02*
X60451000Y-172926000D01*
X60451000Y-177568000D02*
X60451000Y-176172000D01*
X66691000Y-174322000D02*
X66691000Y-172926000D01*
X66691000Y-177568000D02*
X66691000Y-176172000D01*
X66691000Y-172926000D02*
X60451000Y-172926000D01*
X66691000Y-177568000D02*
X60451000Y-177568000D01*
%TO.C,J5*%
X125470000Y-215720000D02*
X125970000Y-215720000D01*
X125470000Y-214980000D02*
X125470000Y-215720000D01*
X142043000Y-211843000D02*
X141996000Y-211889000D01*
X144340000Y-209545000D02*
X144305000Y-209581000D01*
X142236000Y-212059000D02*
X142201000Y-212094000D01*
X144545000Y-209751000D02*
X144498000Y-209797000D01*
X137043000Y-211843000D02*
X136996000Y-211889000D01*
X139340000Y-209545000D02*
X139305000Y-209581000D01*
X137236000Y-212059000D02*
X137201000Y-212094000D01*
X139545000Y-209751000D02*
X139498000Y-209797000D01*
X132043000Y-211843000D02*
X131996000Y-211889000D01*
X134340000Y-209545000D02*
X134305000Y-209581000D01*
X132236000Y-212059000D02*
X132201000Y-212094000D01*
X134545000Y-209751000D02*
X134498000Y-209797000D01*
X145831000Y-205559000D02*
X145831000Y-215480000D01*
X125710000Y-205559000D02*
X125710000Y-215480000D01*
X125710000Y-215480000D02*
X145831000Y-215480000D01*
X125710000Y-205559000D02*
X145831000Y-205559000D01*
X125710000Y-208519000D02*
X145831000Y-208519000D01*
X125710000Y-213420000D02*
X145831000Y-213420000D01*
X125710000Y-214920000D02*
X145831000Y-214920000D01*
X144950000Y-210820000D02*
G75*
G03*
X144950000Y-210820000I-1680000J0D01*
G01*
X139950000Y-210820000D02*
G75*
G03*
X139950000Y-210820000I-1680000J0D01*
G01*
X134950000Y-210820000D02*
G75*
G03*
X134950000Y-210820000I-1680000J0D01*
G01*
X128953318Y-212354756D02*
G75*
G02*
X128270000Y-212500000I-683318J1534756D01*
G01*
X129805426Y-210136958D02*
G75*
G02*
X129805000Y-211504000I-1535426J-683042D01*
G01*
X127586958Y-209284574D02*
G75*
G02*
X128954000Y-209285000I683042J-1535426D01*
G01*
X126734574Y-211503042D02*
G75*
G02*
X126735000Y-210136000I1535426J683042D01*
G01*
X128298805Y-212500253D02*
G75*
G02*
X127586000Y-212355000I-28805J1680253D01*
G01*
%TO.C,R5*%
X140006000Y-176609064D02*
X140006000Y-175154936D01*
X138186000Y-176609064D02*
X138186000Y-175154936D01*
%TO.C,C6*%
X53152000Y-187327000D02*
X53152000Y-193567000D01*
X48510000Y-187327000D02*
X48510000Y-193567000D01*
X53152000Y-187327000D02*
X51756000Y-187327000D01*
X49906000Y-187327000D02*
X48510000Y-187327000D01*
X53152000Y-193567000D02*
X51756000Y-193567000D01*
X49906000Y-193567000D02*
X48510000Y-193567000D01*
%TO.C,R12*%
X122043064Y-195927000D02*
X120588936Y-195927000D01*
X122043064Y-197747000D02*
X120588936Y-197747000D01*
%TO.C,C29*%
X121801000Y-193432000D02*
X119561000Y-193432000D01*
X121801000Y-186192000D02*
X119561000Y-186192000D01*
X119561000Y-186192000D02*
X119561000Y-193432000D01*
X121801000Y-186192000D02*
X121801000Y-193432000D01*
%TO.C,J8*%
X78480000Y-215720000D02*
X78980000Y-215720000D01*
X78480000Y-214980000D02*
X78480000Y-215720000D01*
X95053000Y-211843000D02*
X95006000Y-211889000D01*
X97350000Y-209545000D02*
X97315000Y-209581000D01*
X95246000Y-212059000D02*
X95211000Y-212094000D01*
X97555000Y-209751000D02*
X97508000Y-209797000D01*
X90053000Y-211843000D02*
X90006000Y-211889000D01*
X92350000Y-209545000D02*
X92315000Y-209581000D01*
X90246000Y-212059000D02*
X90211000Y-212094000D01*
X92555000Y-209751000D02*
X92508000Y-209797000D01*
X85053000Y-211843000D02*
X85006000Y-211889000D01*
X87350000Y-209545000D02*
X87315000Y-209581000D01*
X85246000Y-212059000D02*
X85211000Y-212094000D01*
X87555000Y-209751000D02*
X87508000Y-209797000D01*
X98841000Y-205559000D02*
X98841000Y-215480000D01*
X78720000Y-205559000D02*
X78720000Y-215480000D01*
X78720000Y-215480000D02*
X98841000Y-215480000D01*
X78720000Y-205559000D02*
X98841000Y-205559000D01*
X78720000Y-208519000D02*
X98841000Y-208519000D01*
X78720000Y-213420000D02*
X98841000Y-213420000D01*
X78720000Y-214920000D02*
X98841000Y-214920000D01*
X97960000Y-210820000D02*
G75*
G03*
X97960000Y-210820000I-1680000J0D01*
G01*
X92960000Y-210820000D02*
G75*
G03*
X92960000Y-210820000I-1680000J0D01*
G01*
X87960000Y-210820000D02*
G75*
G03*
X87960000Y-210820000I-1680000J0D01*
G01*
X81963318Y-212354756D02*
G75*
G02*
X81280000Y-212500000I-683318J1534756D01*
G01*
X82815426Y-210136958D02*
G75*
G02*
X82815000Y-211504000I-1535426J-683042D01*
G01*
X80596958Y-209284574D02*
G75*
G02*
X81964000Y-209285000I683042J-1535426D01*
G01*
X79744574Y-211503042D02*
G75*
G02*
X79745000Y-210136000I1535426J683042D01*
G01*
X81308805Y-212500253D02*
G75*
G02*
X80596000Y-212355000I-28805J1680253D01*
G01*
%TO.C,R2*%
X58726000Y-175974064D02*
X58726000Y-174519936D01*
X56906000Y-175974064D02*
X56906000Y-174519936D01*
%TO.C,J9*%
X114875000Y-169605000D02*
X114875000Y-168275000D01*
X116205000Y-169605000D02*
X114875000Y-169605000D01*
X117475000Y-169605000D02*
X117475000Y-166945000D01*
X117475000Y-166945000D02*
X127695000Y-166945000D01*
X117475000Y-169605000D02*
X127695000Y-169605000D01*
X127695000Y-169605000D02*
X127695000Y-166945000D01*
%TO.C,R16*%
X62993936Y-180602000D02*
X64448064Y-180602000D01*
X62993936Y-178782000D02*
X64448064Y-178782000D01*
%TO.C,R17*%
X141512936Y-182507000D02*
X142967064Y-182507000D01*
X141512936Y-180687000D02*
X142967064Y-180687000D01*
%TO.C,C25*%
X86172000Y-185549000D02*
X86172000Y-191789000D01*
X81530000Y-185549000D02*
X81530000Y-191789000D01*
X86172000Y-185549000D02*
X84776000Y-185549000D01*
X82926000Y-185549000D02*
X81530000Y-185549000D01*
X86172000Y-191789000D02*
X84776000Y-191789000D01*
X82926000Y-191789000D02*
X81530000Y-191789000D01*
%TO.C,R15*%
X128843936Y-182507000D02*
X130298064Y-182507000D01*
X128843936Y-180687000D02*
X130298064Y-180687000D01*
%TO.C,R20*%
X116143936Y-182507000D02*
X117598064Y-182507000D01*
X116143936Y-180687000D02*
X117598064Y-180687000D01*
%TO.C,R22*%
X74868936Y-180602000D02*
X76323064Y-180602000D01*
X74868936Y-178782000D02*
X76323064Y-178782000D01*
%TO.C,C23*%
X113791000Y-174957000D02*
X113791000Y-173561000D01*
X113791000Y-178203000D02*
X113791000Y-176807000D01*
X120031000Y-174957000D02*
X120031000Y-173561000D01*
X120031000Y-178203000D02*
X120031000Y-176807000D01*
X120031000Y-173561000D02*
X113791000Y-173561000D01*
X120031000Y-178203000D02*
X113791000Y-178203000D01*
%TO.C,J13*%
X108676000Y-168957000D02*
X108676000Y-166297000D01*
X93376000Y-168957000D02*
X108676000Y-168957000D01*
X93376000Y-166297000D02*
X108676000Y-166297000D01*
X93376000Y-168957000D02*
X93376000Y-166297000D01*
X92106000Y-168957000D02*
X90776000Y-168957000D01*
X90776000Y-168957000D02*
X90776000Y-167627000D01*
%TO.C,U3*%
X107871000Y-203882000D02*
X109521000Y-203882000D01*
X107871000Y-185982000D02*
X107871000Y-203882000D01*
X113171000Y-185982000D02*
X107871000Y-185982000D01*
X113171000Y-203882000D02*
X113171000Y-185982000D01*
X111521000Y-203882000D02*
X113171000Y-203882000D01*
X109521000Y-203882000D02*
G75*
G02*
X111521000Y-203882000I1000000J0D01*
G01*
%TO.C,C9*%
X91816000Y-191662000D02*
X90420000Y-191662000D01*
X95062000Y-191662000D02*
X93666000Y-191662000D01*
X91816000Y-185422000D02*
X90420000Y-185422000D01*
X95062000Y-185422000D02*
X93666000Y-185422000D01*
X90420000Y-185422000D02*
X90420000Y-191662000D01*
X95062000Y-185422000D02*
X95062000Y-191662000D01*
%TO.C,J11*%
X67370000Y-168957000D02*
X67370000Y-166297000D01*
X52070000Y-168957000D02*
X67370000Y-168957000D01*
X52070000Y-166297000D02*
X67370000Y-166297000D01*
X52070000Y-168957000D02*
X52070000Y-166297000D01*
X50800000Y-168957000D02*
X49470000Y-168957000D01*
X49470000Y-168957000D02*
X49470000Y-167627000D01*
%TO.C,C21*%
X154431000Y-174957000D02*
X154431000Y-173561000D01*
X154431000Y-178203000D02*
X154431000Y-176807000D01*
X160671000Y-174957000D02*
X160671000Y-173561000D01*
X160671000Y-178203000D02*
X160671000Y-176807000D01*
X160671000Y-173561000D02*
X154431000Y-173561000D01*
X160671000Y-178203000D02*
X154431000Y-178203000D01*
%TO.C,U2*%
X152290000Y-207070000D02*
X153940000Y-207070000D01*
X152290000Y-189170000D02*
X152290000Y-207070000D01*
X157590000Y-189170000D02*
X152290000Y-189170000D01*
X157590000Y-207070000D02*
X157590000Y-189170000D01*
X155940000Y-207070000D02*
X157590000Y-207070000D01*
X153940000Y-207070000D02*
G75*
G02*
X155940000Y-207070000I1000000J0D01*
G01*
%TO.C,C3*%
X141486000Y-193432000D02*
X139246000Y-193432000D01*
X141486000Y-186192000D02*
X139246000Y-186192000D01*
X139246000Y-186192000D02*
X139246000Y-193432000D01*
X141486000Y-186192000D02*
X141486000Y-193432000D01*
%TO.C,C2*%
X57666000Y-186827000D02*
X57666000Y-194067000D01*
X55426000Y-186827000D02*
X55426000Y-194067000D01*
X57666000Y-186827000D02*
X55426000Y-186827000D01*
X57666000Y-194067000D02*
X55426000Y-194067000D01*
%TO.C,C28*%
X48510000Y-202537000D02*
X48510000Y-196297000D01*
X53152000Y-202537000D02*
X53152000Y-196297000D01*
X48510000Y-202537000D02*
X49906000Y-202537000D01*
X51756000Y-202537000D02*
X53152000Y-202537000D01*
X48510000Y-196297000D02*
X49906000Y-196297000D01*
X51756000Y-196297000D02*
X53152000Y-196297000D01*
%TO.C,C11*%
X166465000Y-174970000D02*
X166465000Y-173574000D01*
X166465000Y-178216000D02*
X166465000Y-176820000D01*
X172705000Y-174970000D02*
X172705000Y-173574000D01*
X172705000Y-178216000D02*
X172705000Y-176820000D01*
X172705000Y-173574000D02*
X166465000Y-173574000D01*
X172705000Y-178216000D02*
X166465000Y-178216000D01*
%TO.C,C26*%
X96701000Y-193257000D02*
X98941000Y-193257000D01*
X96701000Y-200497000D02*
X98941000Y-200497000D01*
X98941000Y-200497000D02*
X98941000Y-193257000D01*
X96701000Y-200497000D02*
X96701000Y-193257000D01*
%TO.C,R8*%
X100001000Y-176609064D02*
X100001000Y-175154936D01*
X98181000Y-176609064D02*
X98181000Y-175154936D01*
%TO.C,C27*%
X166251000Y-193432000D02*
X164011000Y-193432000D01*
X166251000Y-186192000D02*
X164011000Y-186192000D01*
X164011000Y-186192000D02*
X164011000Y-193432000D01*
X166251000Y-186192000D02*
X166251000Y-193432000D01*
%TO.C,C12*%
X126491000Y-174957000D02*
X126491000Y-173561000D01*
X126491000Y-178203000D02*
X126491000Y-176807000D01*
X132731000Y-174957000D02*
X132731000Y-173561000D01*
X132731000Y-178203000D02*
X132731000Y-176807000D01*
X132731000Y-173561000D02*
X126491000Y-173561000D01*
X132731000Y-178203000D02*
X126491000Y-178203000D01*
%TO.C,R13*%
X86933936Y-180602000D02*
X88388064Y-180602000D01*
X86933936Y-178782000D02*
X88388064Y-178782000D01*
%TO.C,J4*%
X159325000Y-169605000D02*
X159325000Y-168275000D01*
X160655000Y-169605000D02*
X159325000Y-169605000D01*
X161925000Y-169605000D02*
X161925000Y-166945000D01*
X161925000Y-166945000D02*
X172145000Y-166945000D01*
X161925000Y-169605000D02*
X172145000Y-169605000D01*
X172145000Y-169605000D02*
X172145000Y-166945000D01*
%TO.C,C19*%
X79256000Y-185049000D02*
X79256000Y-192289000D01*
X77016000Y-185049000D02*
X77016000Y-192289000D01*
X79256000Y-185049000D02*
X77016000Y-185049000D01*
X79256000Y-192289000D02*
X77016000Y-192289000D01*
%TO.C,D4*%
X125381000Y-202777000D02*
X125381000Y-197377000D01*
X128681000Y-202777000D02*
X128681000Y-197377000D01*
X125381000Y-202777000D02*
X128681000Y-202777000D01*
%TO.C,R1*%
X82856000Y-175974064D02*
X82856000Y-174519936D01*
X81036000Y-175974064D02*
X81036000Y-174519936D01*
%TO.C,C8*%
X134361000Y-192932000D02*
X132965000Y-192932000D01*
X137607000Y-192932000D02*
X136211000Y-192932000D01*
X134361000Y-186692000D02*
X132965000Y-186692000D01*
X137607000Y-186692000D02*
X136211000Y-186692000D01*
X132965000Y-186692000D02*
X132965000Y-192932000D01*
X137607000Y-186692000D02*
X137607000Y-192932000D01*
%TO.C,R18*%
X100237936Y-181885000D02*
X101692064Y-181885000D01*
X100237936Y-180065000D02*
X101692064Y-180065000D01*
%TO.C,R9*%
X112066000Y-176609064D02*
X112066000Y-175154936D01*
X110246000Y-176609064D02*
X110246000Y-175154936D01*
%TO.C,C13*%
X72516000Y-174322000D02*
X72516000Y-172926000D01*
X72516000Y-177568000D02*
X72516000Y-176172000D01*
X78756000Y-174322000D02*
X78756000Y-172926000D01*
X78756000Y-177568000D02*
X78756000Y-176172000D01*
X78756000Y-172926000D02*
X72516000Y-172926000D01*
X78756000Y-177568000D02*
X72516000Y-177568000D01*
%TO.C,C24*%
X139246000Y-195162000D02*
X141486000Y-195162000D01*
X139246000Y-202402000D02*
X141486000Y-202402000D01*
X141486000Y-202402000D02*
X141486000Y-195162000D01*
X139246000Y-202402000D02*
X139246000Y-195162000D01*
%TO.C,R3*%
X70791000Y-176164064D02*
X70791000Y-174709936D01*
X68971000Y-176164064D02*
X68971000Y-174709936D01*
%TO.C,U1*%
X69611000Y-203882000D02*
X71261000Y-203882000D01*
X71261000Y-203882000D02*
X71261000Y-185982000D01*
X71261000Y-185982000D02*
X65961000Y-185982000D01*
X65961000Y-185982000D02*
X65961000Y-203882000D01*
X65961000Y-203882000D02*
X67611000Y-203882000D01*
X67611000Y-203882000D02*
G75*
G02*
X69611000Y-203882000I1000000J0D01*
G01*
%TO.C,C4*%
X84581000Y-174322000D02*
X84581000Y-172926000D01*
X84581000Y-177568000D02*
X84581000Y-176172000D01*
X90821000Y-174322000D02*
X90821000Y-172926000D01*
X90821000Y-177568000D02*
X90821000Y-176172000D01*
X90821000Y-172926000D02*
X84581000Y-172926000D01*
X90821000Y-177568000D02*
X84581000Y-177568000D01*
%TO.C,D1*%
X82836000Y-200999000D02*
X86136000Y-200999000D01*
X86136000Y-200999000D02*
X86136000Y-195599000D01*
X82836000Y-200999000D02*
X82836000Y-195599000D01*
%TO.C,R6*%
X152706000Y-176609064D02*
X152706000Y-175154936D01*
X150886000Y-176609064D02*
X150886000Y-175154936D01*
%TO.C,R11*%
X164780564Y-198480000D02*
X163326436Y-198480000D01*
X164780564Y-200300000D02*
X163326436Y-200300000D01*
%TO.C,C22*%
X55426000Y-202957000D02*
X55426000Y-195717000D01*
X57666000Y-202957000D02*
X57666000Y-195717000D01*
X55426000Y-202957000D02*
X57666000Y-202957000D01*
X55426000Y-195717000D02*
X57666000Y-195717000D01*
%TO.C,C5*%
X98941000Y-192162000D02*
X96701000Y-192162000D01*
X98941000Y-184922000D02*
X96701000Y-184922000D01*
X96701000Y-184922000D02*
X96701000Y-192162000D01*
X98941000Y-184922000D02*
X98941000Y-192162000D01*
%TO.C,R4*%
X165406000Y-176416564D02*
X165406000Y-174962436D01*
X163586000Y-176416564D02*
X163586000Y-174962436D01*
%TO.C,J10*%
D12*
X70782380Y-168449523D02*
X71496666Y-168449523D01*
X71639523Y-168497142D01*
X71734761Y-168592380D01*
X71782380Y-168735238D01*
X71782380Y-168830476D01*
X71782380Y-167449523D02*
X71782380Y-168020952D01*
X71782380Y-167735238D02*
X70782380Y-167735238D01*
X70925238Y-167830476D01*
X71020476Y-167925714D01*
X71068095Y-168020952D01*
X70782380Y-166830476D02*
X70782380Y-166735238D01*
X70830000Y-166640000D01*
X70877619Y-166592380D01*
X70972857Y-166544761D01*
X71163333Y-166497142D01*
X71401428Y-166497142D01*
X71591904Y-166544761D01*
X71687142Y-166592380D01*
X71734761Y-166640000D01*
X71782380Y-166735238D01*
X71782380Y-166830476D01*
X71734761Y-166925714D01*
X71687142Y-166973333D01*
X71591904Y-167020952D01*
X71401428Y-167068571D01*
X71163333Y-167068571D01*
X70972857Y-167020952D01*
X70877619Y-166973333D01*
X70830000Y-166925714D01*
X70782380Y-166830476D01*
%TO.C,C33*%
X130203142Y-190454857D02*
X130250761Y-190502476D01*
X130298380Y-190645333D01*
X130298380Y-190740571D01*
X130250761Y-190883428D01*
X130155523Y-190978666D01*
X130060285Y-191026285D01*
X129869809Y-191073904D01*
X129726952Y-191073904D01*
X129536476Y-191026285D01*
X129441238Y-190978666D01*
X129346000Y-190883428D01*
X129298380Y-190740571D01*
X129298380Y-190645333D01*
X129346000Y-190502476D01*
X129393619Y-190454857D01*
X129298380Y-190121523D02*
X129298380Y-189502476D01*
X129679333Y-189835809D01*
X129679333Y-189692952D01*
X129726952Y-189597714D01*
X129774571Y-189550095D01*
X129869809Y-189502476D01*
X130107904Y-189502476D01*
X130203142Y-189550095D01*
X130250761Y-189597714D01*
X130298380Y-189692952D01*
X130298380Y-189978666D01*
X130250761Y-190073904D01*
X130203142Y-190121523D01*
X129298380Y-189169142D02*
X129298380Y-188550095D01*
X129679333Y-188883428D01*
X129679333Y-188740571D01*
X129726952Y-188645333D01*
X129774571Y-188597714D01*
X129869809Y-188550095D01*
X130107904Y-188550095D01*
X130203142Y-188597714D01*
X130250761Y-188645333D01*
X130298380Y-188740571D01*
X130298380Y-189026285D01*
X130250761Y-189121523D01*
X130203142Y-189169142D01*
%TO.C,D2*%
X168163380Y-200020095D02*
X167163380Y-200020095D01*
X167163380Y-199782000D01*
X167211000Y-199639142D01*
X167306238Y-199543904D01*
X167401476Y-199496285D01*
X167591952Y-199448666D01*
X167734809Y-199448666D01*
X167925285Y-199496285D01*
X168020523Y-199543904D01*
X168115761Y-199639142D01*
X168163380Y-199782000D01*
X168163380Y-200020095D01*
X167258619Y-199067714D02*
X167211000Y-199020095D01*
X167163380Y-198924857D01*
X167163380Y-198686761D01*
X167211000Y-198591523D01*
X167258619Y-198543904D01*
X167353857Y-198496285D01*
X167449095Y-198496285D01*
X167591952Y-198543904D01*
X168163380Y-199115333D01*
X168163380Y-198496285D01*
%TO.C,R7*%
X122488380Y-176048666D02*
X122012190Y-176382000D01*
X122488380Y-176620095D02*
X121488380Y-176620095D01*
X121488380Y-176239142D01*
X121536000Y-176143904D01*
X121583619Y-176096285D01*
X121678857Y-176048666D01*
X121821714Y-176048666D01*
X121916952Y-176096285D01*
X121964571Y-176143904D01*
X122012190Y-176239142D01*
X122012190Y-176620095D01*
X121488380Y-175715333D02*
X121488380Y-175048666D01*
X122488380Y-175477238D01*
%TO.C,R19*%
X156868142Y-180229380D02*
X156534809Y-179753190D01*
X156296714Y-180229380D02*
X156296714Y-179229380D01*
X156677666Y-179229380D01*
X156772904Y-179277000D01*
X156820523Y-179324619D01*
X156868142Y-179419857D01*
X156868142Y-179562714D01*
X156820523Y-179657952D01*
X156772904Y-179705571D01*
X156677666Y-179753190D01*
X156296714Y-179753190D01*
X157820523Y-180229380D02*
X157249095Y-180229380D01*
X157534809Y-180229380D02*
X157534809Y-179229380D01*
X157439571Y-179372238D01*
X157344333Y-179467476D01*
X157249095Y-179515095D01*
X158296714Y-180229380D02*
X158487190Y-180229380D01*
X158582428Y-180181761D01*
X158630047Y-180134142D01*
X158725285Y-179991285D01*
X158772904Y-179800809D01*
X158772904Y-179419857D01*
X158725285Y-179324619D01*
X158677666Y-179277000D01*
X158582428Y-179229380D01*
X158391952Y-179229380D01*
X158296714Y-179277000D01*
X158249095Y-179324619D01*
X158201476Y-179419857D01*
X158201476Y-179657952D01*
X158249095Y-179753190D01*
X158296714Y-179800809D01*
X158391952Y-179848428D01*
X158582428Y-179848428D01*
X158677666Y-179800809D01*
X158725285Y-179753190D01*
X158772904Y-179657952D01*
%TO.C,J12*%
X133043380Y-169071523D02*
X133757666Y-169071523D01*
X133900523Y-169119142D01*
X133995761Y-169214380D01*
X134043380Y-169357238D01*
X134043380Y-169452476D01*
X134043380Y-168071523D02*
X134043380Y-168642952D01*
X134043380Y-168357238D02*
X133043380Y-168357238D01*
X133186238Y-168452476D01*
X133281476Y-168547714D01*
X133329095Y-168642952D01*
X133138619Y-167690571D02*
X133091000Y-167642952D01*
X133043380Y-167547714D01*
X133043380Y-167309619D01*
X133091000Y-167214380D01*
X133138619Y-167166761D01*
X133233857Y-167119142D01*
X133329095Y-167119142D01*
X133471952Y-167166761D01*
X134043380Y-167738190D01*
X134043380Y-167119142D01*
%TO.C,R10*%
X77493142Y-197966380D02*
X77159809Y-197490190D01*
X76921714Y-197966380D02*
X76921714Y-196966380D01*
X77302666Y-196966380D01*
X77397904Y-197014000D01*
X77445523Y-197061619D01*
X77493142Y-197156857D01*
X77493142Y-197299714D01*
X77445523Y-197394952D01*
X77397904Y-197442571D01*
X77302666Y-197490190D01*
X76921714Y-197490190D01*
X78445523Y-197966380D02*
X77874095Y-197966380D01*
X78159809Y-197966380D02*
X78159809Y-196966380D01*
X78064571Y-197109238D01*
X77969333Y-197204476D01*
X77874095Y-197252095D01*
X79064571Y-196966380D02*
X79159809Y-196966380D01*
X79255047Y-197014000D01*
X79302666Y-197061619D01*
X79350285Y-197156857D01*
X79397904Y-197347333D01*
X79397904Y-197585428D01*
X79350285Y-197775904D01*
X79302666Y-197871142D01*
X79255047Y-197918761D01*
X79159809Y-197966380D01*
X79064571Y-197966380D01*
X78969333Y-197918761D01*
X78921714Y-197871142D01*
X78874095Y-197775904D01*
X78826476Y-197585428D01*
X78826476Y-197347333D01*
X78874095Y-197156857D01*
X78921714Y-197061619D01*
X78969333Y-197014000D01*
X79064571Y-196966380D01*
%TO.C,C16*%
X144208142Y-179689142D02*
X144160523Y-179736761D01*
X144017666Y-179784380D01*
X143922428Y-179784380D01*
X143779571Y-179736761D01*
X143684333Y-179641523D01*
X143636714Y-179546285D01*
X143589095Y-179355809D01*
X143589095Y-179212952D01*
X143636714Y-179022476D01*
X143684333Y-178927238D01*
X143779571Y-178832000D01*
X143922428Y-178784380D01*
X144017666Y-178784380D01*
X144160523Y-178832000D01*
X144208142Y-178879619D01*
X145160523Y-179784380D02*
X144589095Y-179784380D01*
X144874809Y-179784380D02*
X144874809Y-178784380D01*
X144779571Y-178927238D01*
X144684333Y-179022476D01*
X144589095Y-179070095D01*
X146017666Y-178784380D02*
X145827190Y-178784380D01*
X145731952Y-178832000D01*
X145684333Y-178879619D01*
X145589095Y-179022476D01*
X145541476Y-179212952D01*
X145541476Y-179593904D01*
X145589095Y-179689142D01*
X145636714Y-179736761D01*
X145731952Y-179784380D01*
X145922428Y-179784380D01*
X146017666Y-179736761D01*
X146065285Y-179689142D01*
X146112904Y-179593904D01*
X146112904Y-179355809D01*
X146065285Y-179260571D01*
X146017666Y-179212952D01*
X145922428Y-179165333D01*
X145731952Y-179165333D01*
X145636714Y-179212952D01*
X145589095Y-179260571D01*
X145541476Y-179355809D01*
%TO.C,C31*%
X89648142Y-197519857D02*
X89695761Y-197567476D01*
X89743380Y-197710333D01*
X89743380Y-197805571D01*
X89695761Y-197948428D01*
X89600523Y-198043666D01*
X89505285Y-198091285D01*
X89314809Y-198138904D01*
X89171952Y-198138904D01*
X88981476Y-198091285D01*
X88886238Y-198043666D01*
X88791000Y-197948428D01*
X88743380Y-197805571D01*
X88743380Y-197710333D01*
X88791000Y-197567476D01*
X88838619Y-197519857D01*
X88743380Y-197186523D02*
X88743380Y-196567476D01*
X89124333Y-196900809D01*
X89124333Y-196757952D01*
X89171952Y-196662714D01*
X89219571Y-196615095D01*
X89314809Y-196567476D01*
X89552904Y-196567476D01*
X89648142Y-196615095D01*
X89695761Y-196662714D01*
X89743380Y-196757952D01*
X89743380Y-197043666D01*
X89695761Y-197138904D01*
X89648142Y-197186523D01*
X89743380Y-195615095D02*
X89743380Y-196186523D01*
X89743380Y-195900809D02*
X88743380Y-195900809D01*
X88886238Y-195996047D01*
X88981476Y-196091285D01*
X89029095Y-196186523D01*
%TO.C,C32*%
X174653142Y-190454857D02*
X174700761Y-190502476D01*
X174748380Y-190645333D01*
X174748380Y-190740571D01*
X174700761Y-190883428D01*
X174605523Y-190978666D01*
X174510285Y-191026285D01*
X174319809Y-191073904D01*
X174176952Y-191073904D01*
X173986476Y-191026285D01*
X173891238Y-190978666D01*
X173796000Y-190883428D01*
X173748380Y-190740571D01*
X173748380Y-190645333D01*
X173796000Y-190502476D01*
X173843619Y-190454857D01*
X173748380Y-190121523D02*
X173748380Y-189502476D01*
X174129333Y-189835809D01*
X174129333Y-189692952D01*
X174176952Y-189597714D01*
X174224571Y-189550095D01*
X174319809Y-189502476D01*
X174557904Y-189502476D01*
X174653142Y-189550095D01*
X174700761Y-189597714D01*
X174748380Y-189692952D01*
X174748380Y-189978666D01*
X174700761Y-190073904D01*
X174653142Y-190121523D01*
X173843619Y-189121523D02*
X173796000Y-189073904D01*
X173748380Y-188978666D01*
X173748380Y-188740571D01*
X173796000Y-188645333D01*
X173843619Y-188597714D01*
X173938857Y-188550095D01*
X174034095Y-188550095D01*
X174176952Y-188597714D01*
X174748380Y-189169142D01*
X174748380Y-188550095D01*
%TO.C,C30*%
X132193142Y-199424857D02*
X132240761Y-199472476D01*
X132288380Y-199615333D01*
X132288380Y-199710571D01*
X132240761Y-199853428D01*
X132145523Y-199948666D01*
X132050285Y-199996285D01*
X131859809Y-200043904D01*
X131716952Y-200043904D01*
X131526476Y-199996285D01*
X131431238Y-199948666D01*
X131336000Y-199853428D01*
X131288380Y-199710571D01*
X131288380Y-199615333D01*
X131336000Y-199472476D01*
X131383619Y-199424857D01*
X131288380Y-199091523D02*
X131288380Y-198472476D01*
X131669333Y-198805809D01*
X131669333Y-198662952D01*
X131716952Y-198567714D01*
X131764571Y-198520095D01*
X131859809Y-198472476D01*
X132097904Y-198472476D01*
X132193142Y-198520095D01*
X132240761Y-198567714D01*
X132288380Y-198662952D01*
X132288380Y-198948666D01*
X132240761Y-199043904D01*
X132193142Y-199091523D01*
X131288380Y-197853428D02*
X131288380Y-197758190D01*
X131336000Y-197662952D01*
X131383619Y-197615333D01*
X131478857Y-197567714D01*
X131669333Y-197520095D01*
X131907428Y-197520095D01*
X132097904Y-197567714D01*
X132193142Y-197615333D01*
X132240761Y-197662952D01*
X132288380Y-197758190D01*
X132288380Y-197853428D01*
X132240761Y-197948666D01*
X132193142Y-197996285D01*
X132097904Y-198043904D01*
X131907428Y-198091523D01*
X131669333Y-198091523D01*
X131478857Y-198043904D01*
X131383619Y-197996285D01*
X131336000Y-197948666D01*
X131288380Y-197853428D01*
%TO.C,C17*%
X104203142Y-179689142D02*
X104155523Y-179736761D01*
X104012666Y-179784380D01*
X103917428Y-179784380D01*
X103774571Y-179736761D01*
X103679333Y-179641523D01*
X103631714Y-179546285D01*
X103584095Y-179355809D01*
X103584095Y-179212952D01*
X103631714Y-179022476D01*
X103679333Y-178927238D01*
X103774571Y-178832000D01*
X103917428Y-178784380D01*
X104012666Y-178784380D01*
X104155523Y-178832000D01*
X104203142Y-178879619D01*
X105155523Y-179784380D02*
X104584095Y-179784380D01*
X104869809Y-179784380D02*
X104869809Y-178784380D01*
X104774571Y-178927238D01*
X104679333Y-179022476D01*
X104584095Y-179070095D01*
X105488857Y-178784380D02*
X106155523Y-178784380D01*
X105726952Y-179784380D01*
%TO.C,R14*%
X170203142Y-180229380D02*
X169869809Y-179753190D01*
X169631714Y-180229380D02*
X169631714Y-179229380D01*
X170012666Y-179229380D01*
X170107904Y-179277000D01*
X170155523Y-179324619D01*
X170203142Y-179419857D01*
X170203142Y-179562714D01*
X170155523Y-179657952D01*
X170107904Y-179705571D01*
X170012666Y-179753190D01*
X169631714Y-179753190D01*
X171155523Y-180229380D02*
X170584095Y-180229380D01*
X170869809Y-180229380D02*
X170869809Y-179229380D01*
X170774571Y-179372238D01*
X170679333Y-179467476D01*
X170584095Y-179515095D01*
X172012666Y-179562714D02*
X172012666Y-180229380D01*
X171774571Y-179181761D02*
X171536476Y-179896047D01*
X172155523Y-179896047D01*
%TO.C,C7*%
X63404333Y-179054142D02*
X63356714Y-179101761D01*
X63213857Y-179149380D01*
X63118619Y-179149380D01*
X62975761Y-179101761D01*
X62880523Y-179006523D01*
X62832904Y-178911285D01*
X62785285Y-178720809D01*
X62785285Y-178577952D01*
X62832904Y-178387476D01*
X62880523Y-178292238D01*
X62975761Y-178197000D01*
X63118619Y-178149380D01*
X63213857Y-178149380D01*
X63356714Y-178197000D01*
X63404333Y-178244619D01*
X63737666Y-178149380D02*
X64404333Y-178149380D01*
X63975761Y-179149380D01*
%TO.C,J5*%
X135436666Y-204012380D02*
X135436666Y-204726666D01*
X135389047Y-204869523D01*
X135293809Y-204964761D01*
X135150952Y-205012380D01*
X135055714Y-205012380D01*
X136389047Y-204012380D02*
X135912857Y-204012380D01*
X135865238Y-204488571D01*
X135912857Y-204440952D01*
X136008095Y-204393333D01*
X136246190Y-204393333D01*
X136341428Y-204440952D01*
X136389047Y-204488571D01*
X136436666Y-204583809D01*
X136436666Y-204821904D01*
X136389047Y-204917142D01*
X136341428Y-204964761D01*
X136246190Y-205012380D01*
X136008095Y-205012380D01*
X135912857Y-204964761D01*
X135865238Y-204917142D01*
%TO.C,R5*%
X137728380Y-176048666D02*
X137252190Y-176382000D01*
X137728380Y-176620095D02*
X136728380Y-176620095D01*
X136728380Y-176239142D01*
X136776000Y-176143904D01*
X136823619Y-176096285D01*
X136918857Y-176048666D01*
X137061714Y-176048666D01*
X137156952Y-176096285D01*
X137204571Y-176143904D01*
X137252190Y-176239142D01*
X137252190Y-176620095D01*
X136728380Y-175143904D02*
X136728380Y-175620095D01*
X137204571Y-175667714D01*
X137156952Y-175620095D01*
X137109333Y-175524857D01*
X137109333Y-175286761D01*
X137156952Y-175191523D01*
X137204571Y-175143904D01*
X137299809Y-175096285D01*
X137537904Y-175096285D01*
X137633142Y-175143904D01*
X137680761Y-175191523D01*
X137728380Y-175286761D01*
X137728380Y-175524857D01*
X137680761Y-175620095D01*
X137633142Y-175667714D01*
%TO.C,C6*%
X54638142Y-190613666D02*
X54685761Y-190661285D01*
X54733380Y-190804142D01*
X54733380Y-190899380D01*
X54685761Y-191042238D01*
X54590523Y-191137476D01*
X54495285Y-191185095D01*
X54304809Y-191232714D01*
X54161952Y-191232714D01*
X53971476Y-191185095D01*
X53876238Y-191137476D01*
X53781000Y-191042238D01*
X53733380Y-190899380D01*
X53733380Y-190804142D01*
X53781000Y-190661285D01*
X53828619Y-190613666D01*
X53733380Y-189756523D02*
X53733380Y-189947000D01*
X53781000Y-190042238D01*
X53828619Y-190089857D01*
X53971476Y-190185095D01*
X54161952Y-190232714D01*
X54542904Y-190232714D01*
X54638142Y-190185095D01*
X54685761Y-190137476D01*
X54733380Y-190042238D01*
X54733380Y-189851761D01*
X54685761Y-189756523D01*
X54638142Y-189708904D01*
X54542904Y-189661285D01*
X54304809Y-189661285D01*
X54209571Y-189708904D01*
X54161952Y-189756523D01*
X54114333Y-189851761D01*
X54114333Y-190042238D01*
X54161952Y-190137476D01*
X54209571Y-190185095D01*
X54304809Y-190232714D01*
%TO.C,R12*%
X120673142Y-199109380D02*
X120339809Y-198633190D01*
X120101714Y-199109380D02*
X120101714Y-198109380D01*
X120482666Y-198109380D01*
X120577904Y-198157000D01*
X120625523Y-198204619D01*
X120673142Y-198299857D01*
X120673142Y-198442714D01*
X120625523Y-198537952D01*
X120577904Y-198585571D01*
X120482666Y-198633190D01*
X120101714Y-198633190D01*
X121625523Y-199109380D02*
X121054095Y-199109380D01*
X121339809Y-199109380D02*
X121339809Y-198109380D01*
X121244571Y-198252238D01*
X121149333Y-198347476D01*
X121054095Y-198395095D01*
X122006476Y-198204619D02*
X122054095Y-198157000D01*
X122149333Y-198109380D01*
X122387428Y-198109380D01*
X122482666Y-198157000D01*
X122530285Y-198204619D01*
X122577904Y-198299857D01*
X122577904Y-198395095D01*
X122530285Y-198537952D01*
X121958857Y-199109380D01*
X122577904Y-199109380D01*
%TO.C,C29*%
X123288142Y-190454857D02*
X123335761Y-190502476D01*
X123383380Y-190645333D01*
X123383380Y-190740571D01*
X123335761Y-190883428D01*
X123240523Y-190978666D01*
X123145285Y-191026285D01*
X122954809Y-191073904D01*
X122811952Y-191073904D01*
X122621476Y-191026285D01*
X122526238Y-190978666D01*
X122431000Y-190883428D01*
X122383380Y-190740571D01*
X122383380Y-190645333D01*
X122431000Y-190502476D01*
X122478619Y-190454857D01*
X122478619Y-190073904D02*
X122431000Y-190026285D01*
X122383380Y-189931047D01*
X122383380Y-189692952D01*
X122431000Y-189597714D01*
X122478619Y-189550095D01*
X122573857Y-189502476D01*
X122669095Y-189502476D01*
X122811952Y-189550095D01*
X123383380Y-190121523D01*
X123383380Y-189502476D01*
X123383380Y-189026285D02*
X123383380Y-188835809D01*
X123335761Y-188740571D01*
X123288142Y-188692952D01*
X123145285Y-188597714D01*
X122954809Y-188550095D01*
X122573857Y-188550095D01*
X122478619Y-188597714D01*
X122431000Y-188645333D01*
X122383380Y-188740571D01*
X122383380Y-188931047D01*
X122431000Y-189026285D01*
X122478619Y-189073904D01*
X122573857Y-189121523D01*
X122811952Y-189121523D01*
X122907190Y-189073904D01*
X122954809Y-189026285D01*
X123002428Y-188931047D01*
X123002428Y-188740571D01*
X122954809Y-188645333D01*
X122907190Y-188597714D01*
X122811952Y-188550095D01*
%TO.C,J8*%
X88446666Y-204012380D02*
X88446666Y-204726666D01*
X88399047Y-204869523D01*
X88303809Y-204964761D01*
X88160952Y-205012380D01*
X88065714Y-205012380D01*
X89065714Y-204440952D02*
X88970476Y-204393333D01*
X88922857Y-204345714D01*
X88875238Y-204250476D01*
X88875238Y-204202857D01*
X88922857Y-204107619D01*
X88970476Y-204060000D01*
X89065714Y-204012380D01*
X89256190Y-204012380D01*
X89351428Y-204060000D01*
X89399047Y-204107619D01*
X89446666Y-204202857D01*
X89446666Y-204250476D01*
X89399047Y-204345714D01*
X89351428Y-204393333D01*
X89256190Y-204440952D01*
X89065714Y-204440952D01*
X88970476Y-204488571D01*
X88922857Y-204536190D01*
X88875238Y-204631428D01*
X88875238Y-204821904D01*
X88922857Y-204917142D01*
X88970476Y-204964761D01*
X89065714Y-205012380D01*
X89256190Y-205012380D01*
X89351428Y-204964761D01*
X89399047Y-204917142D01*
X89446666Y-204821904D01*
X89446666Y-204631428D01*
X89399047Y-204536190D01*
X89351428Y-204488571D01*
X89256190Y-204440952D01*
%TO.C,R2*%
X56448380Y-175413666D02*
X55972190Y-175747000D01*
X56448380Y-175985095D02*
X55448380Y-175985095D01*
X55448380Y-175604142D01*
X55496000Y-175508904D01*
X55543619Y-175461285D01*
X55638857Y-175413666D01*
X55781714Y-175413666D01*
X55876952Y-175461285D01*
X55924571Y-175508904D01*
X55972190Y-175604142D01*
X55972190Y-175985095D01*
X55543619Y-175032714D02*
X55496000Y-174985095D01*
X55448380Y-174889857D01*
X55448380Y-174651761D01*
X55496000Y-174556523D01*
X55543619Y-174508904D01*
X55638857Y-174461285D01*
X55734095Y-174461285D01*
X55876952Y-174508904D01*
X56448380Y-175080333D01*
X56448380Y-174461285D01*
%TO.C,J9*%
X113327380Y-168608333D02*
X114041666Y-168608333D01*
X114184523Y-168655952D01*
X114279761Y-168751190D01*
X114327380Y-168894047D01*
X114327380Y-168989285D01*
X114327380Y-168084523D02*
X114327380Y-167894047D01*
X114279761Y-167798809D01*
X114232142Y-167751190D01*
X114089285Y-167655952D01*
X113898809Y-167608333D01*
X113517857Y-167608333D01*
X113422619Y-167655952D01*
X113375000Y-167703571D01*
X113327380Y-167798809D01*
X113327380Y-167989285D01*
X113375000Y-168084523D01*
X113422619Y-168132142D01*
X113517857Y-168179761D01*
X113755952Y-168179761D01*
X113851190Y-168132142D01*
X113898809Y-168084523D01*
X113946428Y-167989285D01*
X113946428Y-167798809D01*
X113898809Y-167703571D01*
X113851190Y-167655952D01*
X113755952Y-167608333D01*
%TO.C,R16*%
X63078142Y-178324380D02*
X62744809Y-177848190D01*
X62506714Y-178324380D02*
X62506714Y-177324380D01*
X62887666Y-177324380D01*
X62982904Y-177372000D01*
X63030523Y-177419619D01*
X63078142Y-177514857D01*
X63078142Y-177657714D01*
X63030523Y-177752952D01*
X62982904Y-177800571D01*
X62887666Y-177848190D01*
X62506714Y-177848190D01*
X64030523Y-178324380D02*
X63459095Y-178324380D01*
X63744809Y-178324380D02*
X63744809Y-177324380D01*
X63649571Y-177467238D01*
X63554333Y-177562476D01*
X63459095Y-177610095D01*
X64887666Y-177324380D02*
X64697190Y-177324380D01*
X64601952Y-177372000D01*
X64554333Y-177419619D01*
X64459095Y-177562476D01*
X64411476Y-177752952D01*
X64411476Y-178133904D01*
X64459095Y-178229142D01*
X64506714Y-178276761D01*
X64601952Y-178324380D01*
X64792428Y-178324380D01*
X64887666Y-178276761D01*
X64935285Y-178229142D01*
X64982904Y-178133904D01*
X64982904Y-177895809D01*
X64935285Y-177800571D01*
X64887666Y-177752952D01*
X64792428Y-177705333D01*
X64601952Y-177705333D01*
X64506714Y-177752952D01*
X64459095Y-177800571D01*
X64411476Y-177895809D01*
%TO.C,R17*%
X141597142Y-180229380D02*
X141263809Y-179753190D01*
X141025714Y-180229380D02*
X141025714Y-179229380D01*
X141406666Y-179229380D01*
X141501904Y-179277000D01*
X141549523Y-179324619D01*
X141597142Y-179419857D01*
X141597142Y-179562714D01*
X141549523Y-179657952D01*
X141501904Y-179705571D01*
X141406666Y-179753190D01*
X141025714Y-179753190D01*
X142549523Y-180229380D02*
X141978095Y-180229380D01*
X142263809Y-180229380D02*
X142263809Y-179229380D01*
X142168571Y-179372238D01*
X142073333Y-179467476D01*
X141978095Y-179515095D01*
X142882857Y-179229380D02*
X143549523Y-179229380D01*
X143120952Y-180229380D01*
%TO.C,C25*%
X87658142Y-189311857D02*
X87705761Y-189359476D01*
X87753380Y-189502333D01*
X87753380Y-189597571D01*
X87705761Y-189740428D01*
X87610523Y-189835666D01*
X87515285Y-189883285D01*
X87324809Y-189930904D01*
X87181952Y-189930904D01*
X86991476Y-189883285D01*
X86896238Y-189835666D01*
X86801000Y-189740428D01*
X86753380Y-189597571D01*
X86753380Y-189502333D01*
X86801000Y-189359476D01*
X86848619Y-189311857D01*
X86848619Y-188930904D02*
X86801000Y-188883285D01*
X86753380Y-188788047D01*
X86753380Y-188549952D01*
X86801000Y-188454714D01*
X86848619Y-188407095D01*
X86943857Y-188359476D01*
X87039095Y-188359476D01*
X87181952Y-188407095D01*
X87753380Y-188978523D01*
X87753380Y-188359476D01*
X86753380Y-187454714D02*
X86753380Y-187930904D01*
X87229571Y-187978523D01*
X87181952Y-187930904D01*
X87134333Y-187835666D01*
X87134333Y-187597571D01*
X87181952Y-187502333D01*
X87229571Y-187454714D01*
X87324809Y-187407095D01*
X87562904Y-187407095D01*
X87658142Y-187454714D01*
X87705761Y-187502333D01*
X87753380Y-187597571D01*
X87753380Y-187835666D01*
X87705761Y-187930904D01*
X87658142Y-187978523D01*
%TO.C,R15*%
X128928142Y-180229380D02*
X128594809Y-179753190D01*
X128356714Y-180229380D02*
X128356714Y-179229380D01*
X128737666Y-179229380D01*
X128832904Y-179277000D01*
X128880523Y-179324619D01*
X128928142Y-179419857D01*
X128928142Y-179562714D01*
X128880523Y-179657952D01*
X128832904Y-179705571D01*
X128737666Y-179753190D01*
X128356714Y-179753190D01*
X129880523Y-180229380D02*
X129309095Y-180229380D01*
X129594809Y-180229380D02*
X129594809Y-179229380D01*
X129499571Y-179372238D01*
X129404333Y-179467476D01*
X129309095Y-179515095D01*
X130785285Y-179229380D02*
X130309095Y-179229380D01*
X130261476Y-179705571D01*
X130309095Y-179657952D01*
X130404333Y-179610333D01*
X130642428Y-179610333D01*
X130737666Y-179657952D01*
X130785285Y-179705571D01*
X130832904Y-179800809D01*
X130832904Y-180038904D01*
X130785285Y-180134142D01*
X130737666Y-180181761D01*
X130642428Y-180229380D01*
X130404333Y-180229380D01*
X130309095Y-180181761D01*
X130261476Y-180134142D01*
%TO.C,R20*%
X116228142Y-180229380D02*
X115894809Y-179753190D01*
X115656714Y-180229380D02*
X115656714Y-179229380D01*
X116037666Y-179229380D01*
X116132904Y-179277000D01*
X116180523Y-179324619D01*
X116228142Y-179419857D01*
X116228142Y-179562714D01*
X116180523Y-179657952D01*
X116132904Y-179705571D01*
X116037666Y-179753190D01*
X115656714Y-179753190D01*
X116609095Y-179324619D02*
X116656714Y-179277000D01*
X116751952Y-179229380D01*
X116990047Y-179229380D01*
X117085285Y-179277000D01*
X117132904Y-179324619D01*
X117180523Y-179419857D01*
X117180523Y-179515095D01*
X117132904Y-179657952D01*
X116561476Y-180229380D01*
X117180523Y-180229380D01*
X117799571Y-179229380D02*
X117894809Y-179229380D01*
X117990047Y-179277000D01*
X118037666Y-179324619D01*
X118085285Y-179419857D01*
X118132904Y-179610333D01*
X118132904Y-179848428D01*
X118085285Y-180038904D01*
X118037666Y-180134142D01*
X117990047Y-180181761D01*
X117894809Y-180229380D01*
X117799571Y-180229380D01*
X117704333Y-180181761D01*
X117656714Y-180134142D01*
X117609095Y-180038904D01*
X117561476Y-179848428D01*
X117561476Y-179610333D01*
X117609095Y-179419857D01*
X117656714Y-179324619D01*
X117704333Y-179277000D01*
X117799571Y-179229380D01*
%TO.C,R22*%
X74953142Y-178324380D02*
X74619809Y-177848190D01*
X74381714Y-178324380D02*
X74381714Y-177324380D01*
X74762666Y-177324380D01*
X74857904Y-177372000D01*
X74905523Y-177419619D01*
X74953142Y-177514857D01*
X74953142Y-177657714D01*
X74905523Y-177752952D01*
X74857904Y-177800571D01*
X74762666Y-177848190D01*
X74381714Y-177848190D01*
X75334095Y-177419619D02*
X75381714Y-177372000D01*
X75476952Y-177324380D01*
X75715047Y-177324380D01*
X75810285Y-177372000D01*
X75857904Y-177419619D01*
X75905523Y-177514857D01*
X75905523Y-177610095D01*
X75857904Y-177752952D01*
X75286476Y-178324380D01*
X75905523Y-178324380D01*
X76286476Y-177419619D02*
X76334095Y-177372000D01*
X76429333Y-177324380D01*
X76667428Y-177324380D01*
X76762666Y-177372000D01*
X76810285Y-177419619D01*
X76857904Y-177514857D01*
X76857904Y-177610095D01*
X76810285Y-177752952D01*
X76238857Y-178324380D01*
X76857904Y-178324380D01*
%TO.C,C23*%
X116268142Y-179689142D02*
X116220523Y-179736761D01*
X116077666Y-179784380D01*
X115982428Y-179784380D01*
X115839571Y-179736761D01*
X115744333Y-179641523D01*
X115696714Y-179546285D01*
X115649095Y-179355809D01*
X115649095Y-179212952D01*
X115696714Y-179022476D01*
X115744333Y-178927238D01*
X115839571Y-178832000D01*
X115982428Y-178784380D01*
X116077666Y-178784380D01*
X116220523Y-178832000D01*
X116268142Y-178879619D01*
X116649095Y-178879619D02*
X116696714Y-178832000D01*
X116791952Y-178784380D01*
X117030047Y-178784380D01*
X117125285Y-178832000D01*
X117172904Y-178879619D01*
X117220523Y-178974857D01*
X117220523Y-179070095D01*
X117172904Y-179212952D01*
X116601476Y-179784380D01*
X117220523Y-179784380D01*
X117553857Y-178784380D02*
X118172904Y-178784380D01*
X117839571Y-179165333D01*
X117982428Y-179165333D01*
X118077666Y-179212952D01*
X118125285Y-179260571D01*
X118172904Y-179355809D01*
X118172904Y-179593904D01*
X118125285Y-179689142D01*
X118077666Y-179736761D01*
X117982428Y-179784380D01*
X117696714Y-179784380D01*
X117601476Y-179736761D01*
X117553857Y-179689142D01*
%TO.C,J13*%
X89228380Y-168436523D02*
X89942666Y-168436523D01*
X90085523Y-168484142D01*
X90180761Y-168579380D01*
X90228380Y-168722238D01*
X90228380Y-168817476D01*
X90228380Y-167436523D02*
X90228380Y-168007952D01*
X90228380Y-167722238D02*
X89228380Y-167722238D01*
X89371238Y-167817476D01*
X89466476Y-167912714D01*
X89514095Y-168007952D01*
X89228380Y-167103190D02*
X89228380Y-166484142D01*
X89609333Y-166817476D01*
X89609333Y-166674619D01*
X89656952Y-166579380D01*
X89704571Y-166531761D01*
X89799809Y-166484142D01*
X90037904Y-166484142D01*
X90133142Y-166531761D01*
X90180761Y-166579380D01*
X90228380Y-166674619D01*
X90228380Y-166960333D01*
X90180761Y-167055571D01*
X90133142Y-167103190D01*
%TO.C,U3*%
X109759095Y-204334380D02*
X109759095Y-205143904D01*
X109806714Y-205239142D01*
X109854333Y-205286761D01*
X109949571Y-205334380D01*
X110140047Y-205334380D01*
X110235285Y-205286761D01*
X110282904Y-205239142D01*
X110330523Y-205143904D01*
X110330523Y-204334380D01*
X110711476Y-204334380D02*
X111330523Y-204334380D01*
X110997190Y-204715333D01*
X111140047Y-204715333D01*
X111235285Y-204762952D01*
X111282904Y-204810571D01*
X111330523Y-204905809D01*
X111330523Y-205143904D01*
X111282904Y-205239142D01*
X111235285Y-205286761D01*
X111140047Y-205334380D01*
X110854333Y-205334380D01*
X110759095Y-205286761D01*
X110711476Y-205239142D01*
%TO.C,C9*%
X96548142Y-188708666D02*
X96595761Y-188756285D01*
X96643380Y-188899142D01*
X96643380Y-188994380D01*
X96595761Y-189137238D01*
X96500523Y-189232476D01*
X96405285Y-189280095D01*
X96214809Y-189327714D01*
X96071952Y-189327714D01*
X95881476Y-189280095D01*
X95786238Y-189232476D01*
X95691000Y-189137238D01*
X95643380Y-188994380D01*
X95643380Y-188899142D01*
X95691000Y-188756285D01*
X95738619Y-188708666D01*
X96643380Y-188232476D02*
X96643380Y-188042000D01*
X96595761Y-187946761D01*
X96548142Y-187899142D01*
X96405285Y-187803904D01*
X96214809Y-187756285D01*
X95833857Y-187756285D01*
X95738619Y-187803904D01*
X95691000Y-187851523D01*
X95643380Y-187946761D01*
X95643380Y-188137238D01*
X95691000Y-188232476D01*
X95738619Y-188280095D01*
X95833857Y-188327714D01*
X96071952Y-188327714D01*
X96167190Y-188280095D01*
X96214809Y-188232476D01*
X96262428Y-188137238D01*
X96262428Y-187946761D01*
X96214809Y-187851523D01*
X96167190Y-187803904D01*
X96071952Y-187756285D01*
%TO.C,J11*%
X47922380Y-168436523D02*
X48636666Y-168436523D01*
X48779523Y-168484142D01*
X48874761Y-168579380D01*
X48922380Y-168722238D01*
X48922380Y-168817476D01*
X48922380Y-167436523D02*
X48922380Y-168007952D01*
X48922380Y-167722238D02*
X47922380Y-167722238D01*
X48065238Y-167817476D01*
X48160476Y-167912714D01*
X48208095Y-168007952D01*
X48922380Y-166484142D02*
X48922380Y-167055571D01*
X48922380Y-166769857D02*
X47922380Y-166769857D01*
X48065238Y-166865095D01*
X48160476Y-166960333D01*
X48208095Y-167055571D01*
%TO.C,C21*%
X156908142Y-179689142D02*
X156860523Y-179736761D01*
X156717666Y-179784380D01*
X156622428Y-179784380D01*
X156479571Y-179736761D01*
X156384333Y-179641523D01*
X156336714Y-179546285D01*
X156289095Y-179355809D01*
X156289095Y-179212952D01*
X156336714Y-179022476D01*
X156384333Y-178927238D01*
X156479571Y-178832000D01*
X156622428Y-178784380D01*
X156717666Y-178784380D01*
X156860523Y-178832000D01*
X156908142Y-178879619D01*
X157289095Y-178879619D02*
X157336714Y-178832000D01*
X157431952Y-178784380D01*
X157670047Y-178784380D01*
X157765285Y-178832000D01*
X157812904Y-178879619D01*
X157860523Y-178974857D01*
X157860523Y-179070095D01*
X157812904Y-179212952D01*
X157241476Y-179784380D01*
X157860523Y-179784380D01*
X158812904Y-179784380D02*
X158241476Y-179784380D01*
X158527190Y-179784380D02*
X158527190Y-178784380D01*
X158431952Y-178927238D01*
X158336714Y-179022476D01*
X158241476Y-179070095D01*
%TO.C,U2*%
X154178095Y-207522380D02*
X154178095Y-208331904D01*
X154225714Y-208427142D01*
X154273333Y-208474761D01*
X154368571Y-208522380D01*
X154559047Y-208522380D01*
X154654285Y-208474761D01*
X154701904Y-208427142D01*
X154749523Y-208331904D01*
X154749523Y-207522380D01*
X155178095Y-207617619D02*
X155225714Y-207570000D01*
X155320952Y-207522380D01*
X155559047Y-207522380D01*
X155654285Y-207570000D01*
X155701904Y-207617619D01*
X155749523Y-207712857D01*
X155749523Y-207808095D01*
X155701904Y-207950952D01*
X155130476Y-208522380D01*
X155749523Y-208522380D01*
%TO.C,C3*%
X142973142Y-189978666D02*
X143020761Y-190026285D01*
X143068380Y-190169142D01*
X143068380Y-190264380D01*
X143020761Y-190407238D01*
X142925523Y-190502476D01*
X142830285Y-190550095D01*
X142639809Y-190597714D01*
X142496952Y-190597714D01*
X142306476Y-190550095D01*
X142211238Y-190502476D01*
X142116000Y-190407238D01*
X142068380Y-190264380D01*
X142068380Y-190169142D01*
X142116000Y-190026285D01*
X142163619Y-189978666D01*
X142068380Y-189645333D02*
X142068380Y-189026285D01*
X142449333Y-189359619D01*
X142449333Y-189216761D01*
X142496952Y-189121523D01*
X142544571Y-189073904D01*
X142639809Y-189026285D01*
X142877904Y-189026285D01*
X142973142Y-189073904D01*
X143020761Y-189121523D01*
X143068380Y-189216761D01*
X143068380Y-189502476D01*
X143020761Y-189597714D01*
X142973142Y-189645333D01*
%TO.C,C2*%
X59153142Y-190613666D02*
X59200761Y-190661285D01*
X59248380Y-190804142D01*
X59248380Y-190899380D01*
X59200761Y-191042238D01*
X59105523Y-191137476D01*
X59010285Y-191185095D01*
X58819809Y-191232714D01*
X58676952Y-191232714D01*
X58486476Y-191185095D01*
X58391238Y-191137476D01*
X58296000Y-191042238D01*
X58248380Y-190899380D01*
X58248380Y-190804142D01*
X58296000Y-190661285D01*
X58343619Y-190613666D01*
X58343619Y-190232714D02*
X58296000Y-190185095D01*
X58248380Y-190089857D01*
X58248380Y-189851761D01*
X58296000Y-189756523D01*
X58343619Y-189708904D01*
X58438857Y-189661285D01*
X58534095Y-189661285D01*
X58676952Y-189708904D01*
X59248380Y-190280333D01*
X59248380Y-189661285D01*
%TO.C,C28*%
X47738142Y-200059857D02*
X47785761Y-200107476D01*
X47833380Y-200250333D01*
X47833380Y-200345571D01*
X47785761Y-200488428D01*
X47690523Y-200583666D01*
X47595285Y-200631285D01*
X47404809Y-200678904D01*
X47261952Y-200678904D01*
X47071476Y-200631285D01*
X46976238Y-200583666D01*
X46881000Y-200488428D01*
X46833380Y-200345571D01*
X46833380Y-200250333D01*
X46881000Y-200107476D01*
X46928619Y-200059857D01*
X46928619Y-199678904D02*
X46881000Y-199631285D01*
X46833380Y-199536047D01*
X46833380Y-199297952D01*
X46881000Y-199202714D01*
X46928619Y-199155095D01*
X47023857Y-199107476D01*
X47119095Y-199107476D01*
X47261952Y-199155095D01*
X47833380Y-199726523D01*
X47833380Y-199107476D01*
X47261952Y-198536047D02*
X47214333Y-198631285D01*
X47166714Y-198678904D01*
X47071476Y-198726523D01*
X47023857Y-198726523D01*
X46928619Y-198678904D01*
X46881000Y-198631285D01*
X46833380Y-198536047D01*
X46833380Y-198345571D01*
X46881000Y-198250333D01*
X46928619Y-198202714D01*
X47023857Y-198155095D01*
X47071476Y-198155095D01*
X47166714Y-198202714D01*
X47214333Y-198250333D01*
X47261952Y-198345571D01*
X47261952Y-198536047D01*
X47309571Y-198631285D01*
X47357190Y-198678904D01*
X47452428Y-198726523D01*
X47642904Y-198726523D01*
X47738142Y-198678904D01*
X47785761Y-198631285D01*
X47833380Y-198536047D01*
X47833380Y-198345571D01*
X47785761Y-198250333D01*
X47738142Y-198202714D01*
X47642904Y-198155095D01*
X47452428Y-198155095D01*
X47357190Y-198202714D01*
X47309571Y-198250333D01*
X47261952Y-198345571D01*
%TO.C,C11*%
X168942142Y-179702142D02*
X168894523Y-179749761D01*
X168751666Y-179797380D01*
X168656428Y-179797380D01*
X168513571Y-179749761D01*
X168418333Y-179654523D01*
X168370714Y-179559285D01*
X168323095Y-179368809D01*
X168323095Y-179225952D01*
X168370714Y-179035476D01*
X168418333Y-178940238D01*
X168513571Y-178845000D01*
X168656428Y-178797380D01*
X168751666Y-178797380D01*
X168894523Y-178845000D01*
X168942142Y-178892619D01*
X169894523Y-179797380D02*
X169323095Y-179797380D01*
X169608809Y-179797380D02*
X169608809Y-178797380D01*
X169513571Y-178940238D01*
X169418333Y-179035476D01*
X169323095Y-179083095D01*
X170846904Y-179797380D02*
X170275476Y-179797380D01*
X170561190Y-179797380D02*
X170561190Y-178797380D01*
X170465952Y-178940238D01*
X170370714Y-179035476D01*
X170275476Y-179083095D01*
%TO.C,C26*%
X95928142Y-197519857D02*
X95975761Y-197567476D01*
X96023380Y-197710333D01*
X96023380Y-197805571D01*
X95975761Y-197948428D01*
X95880523Y-198043666D01*
X95785285Y-198091285D01*
X95594809Y-198138904D01*
X95451952Y-198138904D01*
X95261476Y-198091285D01*
X95166238Y-198043666D01*
X95071000Y-197948428D01*
X95023380Y-197805571D01*
X95023380Y-197710333D01*
X95071000Y-197567476D01*
X95118619Y-197519857D01*
X95118619Y-197138904D02*
X95071000Y-197091285D01*
X95023380Y-196996047D01*
X95023380Y-196757952D01*
X95071000Y-196662714D01*
X95118619Y-196615095D01*
X95213857Y-196567476D01*
X95309095Y-196567476D01*
X95451952Y-196615095D01*
X96023380Y-197186523D01*
X96023380Y-196567476D01*
X95023380Y-195710333D02*
X95023380Y-195900809D01*
X95071000Y-195996047D01*
X95118619Y-196043666D01*
X95261476Y-196138904D01*
X95451952Y-196186523D01*
X95832904Y-196186523D01*
X95928142Y-196138904D01*
X95975761Y-196091285D01*
X96023380Y-195996047D01*
X96023380Y-195805571D01*
X95975761Y-195710333D01*
X95928142Y-195662714D01*
X95832904Y-195615095D01*
X95594809Y-195615095D01*
X95499571Y-195662714D01*
X95451952Y-195710333D01*
X95404333Y-195805571D01*
X95404333Y-195996047D01*
X95451952Y-196091285D01*
X95499571Y-196138904D01*
X95594809Y-196186523D01*
%TO.C,R8*%
X97723380Y-176048666D02*
X97247190Y-176382000D01*
X97723380Y-176620095D02*
X96723380Y-176620095D01*
X96723380Y-176239142D01*
X96771000Y-176143904D01*
X96818619Y-176096285D01*
X96913857Y-176048666D01*
X97056714Y-176048666D01*
X97151952Y-176096285D01*
X97199571Y-176143904D01*
X97247190Y-176239142D01*
X97247190Y-176620095D01*
X97151952Y-175477238D02*
X97104333Y-175572476D01*
X97056714Y-175620095D01*
X96961476Y-175667714D01*
X96913857Y-175667714D01*
X96818619Y-175620095D01*
X96771000Y-175572476D01*
X96723380Y-175477238D01*
X96723380Y-175286761D01*
X96771000Y-175191523D01*
X96818619Y-175143904D01*
X96913857Y-175096285D01*
X96961476Y-175096285D01*
X97056714Y-175143904D01*
X97104333Y-175191523D01*
X97151952Y-175286761D01*
X97151952Y-175477238D01*
X97199571Y-175572476D01*
X97247190Y-175620095D01*
X97342428Y-175667714D01*
X97532904Y-175667714D01*
X97628142Y-175620095D01*
X97675761Y-175572476D01*
X97723380Y-175477238D01*
X97723380Y-175286761D01*
X97675761Y-175191523D01*
X97628142Y-175143904D01*
X97532904Y-175096285D01*
X97342428Y-175096285D01*
X97247190Y-175143904D01*
X97199571Y-175191523D01*
X97151952Y-175286761D01*
%TO.C,C27*%
X167738142Y-190454857D02*
X167785761Y-190502476D01*
X167833380Y-190645333D01*
X167833380Y-190740571D01*
X167785761Y-190883428D01*
X167690523Y-190978666D01*
X167595285Y-191026285D01*
X167404809Y-191073904D01*
X167261952Y-191073904D01*
X167071476Y-191026285D01*
X166976238Y-190978666D01*
X166881000Y-190883428D01*
X166833380Y-190740571D01*
X166833380Y-190645333D01*
X166881000Y-190502476D01*
X166928619Y-190454857D01*
X166928619Y-190073904D02*
X166881000Y-190026285D01*
X166833380Y-189931047D01*
X166833380Y-189692952D01*
X166881000Y-189597714D01*
X166928619Y-189550095D01*
X167023857Y-189502476D01*
X167119095Y-189502476D01*
X167261952Y-189550095D01*
X167833380Y-190121523D01*
X167833380Y-189502476D01*
X166833380Y-189169142D02*
X166833380Y-188502476D01*
X167833380Y-188931047D01*
%TO.C,C12*%
X128968142Y-179689142D02*
X128920523Y-179736761D01*
X128777666Y-179784380D01*
X128682428Y-179784380D01*
X128539571Y-179736761D01*
X128444333Y-179641523D01*
X128396714Y-179546285D01*
X128349095Y-179355809D01*
X128349095Y-179212952D01*
X128396714Y-179022476D01*
X128444333Y-178927238D01*
X128539571Y-178832000D01*
X128682428Y-178784380D01*
X128777666Y-178784380D01*
X128920523Y-178832000D01*
X128968142Y-178879619D01*
X129920523Y-179784380D02*
X129349095Y-179784380D01*
X129634809Y-179784380D02*
X129634809Y-178784380D01*
X129539571Y-178927238D01*
X129444333Y-179022476D01*
X129349095Y-179070095D01*
X130301476Y-178879619D02*
X130349095Y-178832000D01*
X130444333Y-178784380D01*
X130682428Y-178784380D01*
X130777666Y-178832000D01*
X130825285Y-178879619D01*
X130872904Y-178974857D01*
X130872904Y-179070095D01*
X130825285Y-179212952D01*
X130253857Y-179784380D01*
X130872904Y-179784380D01*
%TO.C,R13*%
X87018142Y-178324380D02*
X86684809Y-177848190D01*
X86446714Y-178324380D02*
X86446714Y-177324380D01*
X86827666Y-177324380D01*
X86922904Y-177372000D01*
X86970523Y-177419619D01*
X87018142Y-177514857D01*
X87018142Y-177657714D01*
X86970523Y-177752952D01*
X86922904Y-177800571D01*
X86827666Y-177848190D01*
X86446714Y-177848190D01*
X87970523Y-178324380D02*
X87399095Y-178324380D01*
X87684809Y-178324380D02*
X87684809Y-177324380D01*
X87589571Y-177467238D01*
X87494333Y-177562476D01*
X87399095Y-177610095D01*
X88303857Y-177324380D02*
X88922904Y-177324380D01*
X88589571Y-177705333D01*
X88732428Y-177705333D01*
X88827666Y-177752952D01*
X88875285Y-177800571D01*
X88922904Y-177895809D01*
X88922904Y-178133904D01*
X88875285Y-178229142D01*
X88827666Y-178276761D01*
X88732428Y-178324380D01*
X88446714Y-178324380D01*
X88351476Y-178276761D01*
X88303857Y-178229142D01*
%TO.C,J4*%
X157777380Y-168608333D02*
X158491666Y-168608333D01*
X158634523Y-168655952D01*
X158729761Y-168751190D01*
X158777380Y-168894047D01*
X158777380Y-168989285D01*
X158110714Y-167703571D02*
X158777380Y-167703571D01*
X157729761Y-167941666D02*
X158444047Y-168179761D01*
X158444047Y-167560714D01*
%TO.C,C19*%
X80743142Y-189311857D02*
X80790761Y-189359476D01*
X80838380Y-189502333D01*
X80838380Y-189597571D01*
X80790761Y-189740428D01*
X80695523Y-189835666D01*
X80600285Y-189883285D01*
X80409809Y-189930904D01*
X80266952Y-189930904D01*
X80076476Y-189883285D01*
X79981238Y-189835666D01*
X79886000Y-189740428D01*
X79838380Y-189597571D01*
X79838380Y-189502333D01*
X79886000Y-189359476D01*
X79933619Y-189311857D01*
X80838380Y-188359476D02*
X80838380Y-188930904D01*
X80838380Y-188645190D02*
X79838380Y-188645190D01*
X79981238Y-188740428D01*
X80076476Y-188835666D01*
X80124095Y-188930904D01*
X80838380Y-187883285D02*
X80838380Y-187692809D01*
X80790761Y-187597571D01*
X80743142Y-187549952D01*
X80600285Y-187454714D01*
X80409809Y-187407095D01*
X80028857Y-187407095D01*
X79933619Y-187454714D01*
X79886000Y-187502333D01*
X79838380Y-187597571D01*
X79838380Y-187788047D01*
X79886000Y-187883285D01*
X79933619Y-187930904D01*
X80028857Y-187978523D01*
X80266952Y-187978523D01*
X80362190Y-187930904D01*
X80409809Y-187883285D01*
X80457428Y-187788047D01*
X80457428Y-187597571D01*
X80409809Y-187502333D01*
X80362190Y-187454714D01*
X80266952Y-187407095D01*
%TO.C,D4*%
X124983380Y-200115095D02*
X123983380Y-200115095D01*
X123983380Y-199877000D01*
X124031000Y-199734142D01*
X124126238Y-199638904D01*
X124221476Y-199591285D01*
X124411952Y-199543666D01*
X124554809Y-199543666D01*
X124745285Y-199591285D01*
X124840523Y-199638904D01*
X124935761Y-199734142D01*
X124983380Y-199877000D01*
X124983380Y-200115095D01*
X124316714Y-198686523D02*
X124983380Y-198686523D01*
X123935761Y-198924619D02*
X124650047Y-199162714D01*
X124650047Y-198543666D01*
%TO.C,R1*%
X80578380Y-175413666D02*
X80102190Y-175747000D01*
X80578380Y-175985095D02*
X79578380Y-175985095D01*
X79578380Y-175604142D01*
X79626000Y-175508904D01*
X79673619Y-175461285D01*
X79768857Y-175413666D01*
X79911714Y-175413666D01*
X80006952Y-175461285D01*
X80054571Y-175508904D01*
X80102190Y-175604142D01*
X80102190Y-175985095D01*
X80578380Y-174461285D02*
X80578380Y-175032714D01*
X80578380Y-174747000D02*
X79578380Y-174747000D01*
X79721238Y-174842238D01*
X79816476Y-174937476D01*
X79864095Y-175032714D01*
%TO.C,C8*%
X139093142Y-189978666D02*
X139140761Y-190026285D01*
X139188380Y-190169142D01*
X139188380Y-190264380D01*
X139140761Y-190407238D01*
X139045523Y-190502476D01*
X138950285Y-190550095D01*
X138759809Y-190597714D01*
X138616952Y-190597714D01*
X138426476Y-190550095D01*
X138331238Y-190502476D01*
X138236000Y-190407238D01*
X138188380Y-190264380D01*
X138188380Y-190169142D01*
X138236000Y-190026285D01*
X138283619Y-189978666D01*
X138616952Y-189407238D02*
X138569333Y-189502476D01*
X138521714Y-189550095D01*
X138426476Y-189597714D01*
X138378857Y-189597714D01*
X138283619Y-189550095D01*
X138236000Y-189502476D01*
X138188380Y-189407238D01*
X138188380Y-189216761D01*
X138236000Y-189121523D01*
X138283619Y-189073904D01*
X138378857Y-189026285D01*
X138426476Y-189026285D01*
X138521714Y-189073904D01*
X138569333Y-189121523D01*
X138616952Y-189216761D01*
X138616952Y-189407238D01*
X138664571Y-189502476D01*
X138712190Y-189550095D01*
X138807428Y-189597714D01*
X138997904Y-189597714D01*
X139093142Y-189550095D01*
X139140761Y-189502476D01*
X139188380Y-189407238D01*
X139188380Y-189216761D01*
X139140761Y-189121523D01*
X139093142Y-189073904D01*
X138997904Y-189026285D01*
X138807428Y-189026285D01*
X138712190Y-189073904D01*
X138664571Y-189121523D01*
X138616952Y-189216761D01*
%TO.C,R18*%
X100322142Y-179607380D02*
X99988809Y-179131190D01*
X99750714Y-179607380D02*
X99750714Y-178607380D01*
X100131666Y-178607380D01*
X100226904Y-178655000D01*
X100274523Y-178702619D01*
X100322142Y-178797857D01*
X100322142Y-178940714D01*
X100274523Y-179035952D01*
X100226904Y-179083571D01*
X100131666Y-179131190D01*
X99750714Y-179131190D01*
X101274523Y-179607380D02*
X100703095Y-179607380D01*
X100988809Y-179607380D02*
X100988809Y-178607380D01*
X100893571Y-178750238D01*
X100798333Y-178845476D01*
X100703095Y-178893095D01*
X101845952Y-179035952D02*
X101750714Y-178988333D01*
X101703095Y-178940714D01*
X101655476Y-178845476D01*
X101655476Y-178797857D01*
X101703095Y-178702619D01*
X101750714Y-178655000D01*
X101845952Y-178607380D01*
X102036428Y-178607380D01*
X102131666Y-178655000D01*
X102179285Y-178702619D01*
X102226904Y-178797857D01*
X102226904Y-178845476D01*
X102179285Y-178940714D01*
X102131666Y-178988333D01*
X102036428Y-179035952D01*
X101845952Y-179035952D01*
X101750714Y-179083571D01*
X101703095Y-179131190D01*
X101655476Y-179226428D01*
X101655476Y-179416904D01*
X101703095Y-179512142D01*
X101750714Y-179559761D01*
X101845952Y-179607380D01*
X102036428Y-179607380D01*
X102131666Y-179559761D01*
X102179285Y-179512142D01*
X102226904Y-179416904D01*
X102226904Y-179226428D01*
X102179285Y-179131190D01*
X102131666Y-179083571D01*
X102036428Y-179035952D01*
%TO.C,R9*%
X109788380Y-176048666D02*
X109312190Y-176382000D01*
X109788380Y-176620095D02*
X108788380Y-176620095D01*
X108788380Y-176239142D01*
X108836000Y-176143904D01*
X108883619Y-176096285D01*
X108978857Y-176048666D01*
X109121714Y-176048666D01*
X109216952Y-176096285D01*
X109264571Y-176143904D01*
X109312190Y-176239142D01*
X109312190Y-176620095D01*
X109788380Y-175572476D02*
X109788380Y-175382000D01*
X109740761Y-175286761D01*
X109693142Y-175239142D01*
X109550285Y-175143904D01*
X109359809Y-175096285D01*
X108978857Y-175096285D01*
X108883619Y-175143904D01*
X108836000Y-175191523D01*
X108788380Y-175286761D01*
X108788380Y-175477238D01*
X108836000Y-175572476D01*
X108883619Y-175620095D01*
X108978857Y-175667714D01*
X109216952Y-175667714D01*
X109312190Y-175620095D01*
X109359809Y-175572476D01*
X109407428Y-175477238D01*
X109407428Y-175286761D01*
X109359809Y-175191523D01*
X109312190Y-175143904D01*
X109216952Y-175096285D01*
%TO.C,C13*%
X74993142Y-179054142D02*
X74945523Y-179101761D01*
X74802666Y-179149380D01*
X74707428Y-179149380D01*
X74564571Y-179101761D01*
X74469333Y-179006523D01*
X74421714Y-178911285D01*
X74374095Y-178720809D01*
X74374095Y-178577952D01*
X74421714Y-178387476D01*
X74469333Y-178292238D01*
X74564571Y-178197000D01*
X74707428Y-178149380D01*
X74802666Y-178149380D01*
X74945523Y-178197000D01*
X74993142Y-178244619D01*
X75945523Y-179149380D02*
X75374095Y-179149380D01*
X75659809Y-179149380D02*
X75659809Y-178149380D01*
X75564571Y-178292238D01*
X75469333Y-178387476D01*
X75374095Y-178435095D01*
X76278857Y-178149380D02*
X76897904Y-178149380D01*
X76564571Y-178530333D01*
X76707428Y-178530333D01*
X76802666Y-178577952D01*
X76850285Y-178625571D01*
X76897904Y-178720809D01*
X76897904Y-178958904D01*
X76850285Y-179054142D01*
X76802666Y-179101761D01*
X76707428Y-179149380D01*
X76421714Y-179149380D01*
X76326476Y-179101761D01*
X76278857Y-179054142D01*
%TO.C,C24*%
X138473142Y-199424857D02*
X138520761Y-199472476D01*
X138568380Y-199615333D01*
X138568380Y-199710571D01*
X138520761Y-199853428D01*
X138425523Y-199948666D01*
X138330285Y-199996285D01*
X138139809Y-200043904D01*
X137996952Y-200043904D01*
X137806476Y-199996285D01*
X137711238Y-199948666D01*
X137616000Y-199853428D01*
X137568380Y-199710571D01*
X137568380Y-199615333D01*
X137616000Y-199472476D01*
X137663619Y-199424857D01*
X137663619Y-199043904D02*
X137616000Y-198996285D01*
X137568380Y-198901047D01*
X137568380Y-198662952D01*
X137616000Y-198567714D01*
X137663619Y-198520095D01*
X137758857Y-198472476D01*
X137854095Y-198472476D01*
X137996952Y-198520095D01*
X138568380Y-199091523D01*
X138568380Y-198472476D01*
X137901714Y-197615333D02*
X138568380Y-197615333D01*
X137520761Y-197853428D02*
X138235047Y-198091523D01*
X138235047Y-197472476D01*
%TO.C,R3*%
X68513380Y-175603666D02*
X68037190Y-175937000D01*
X68513380Y-176175095D02*
X67513380Y-176175095D01*
X67513380Y-175794142D01*
X67561000Y-175698904D01*
X67608619Y-175651285D01*
X67703857Y-175603666D01*
X67846714Y-175603666D01*
X67941952Y-175651285D01*
X67989571Y-175698904D01*
X68037190Y-175794142D01*
X68037190Y-176175095D01*
X67513380Y-175270333D02*
X67513380Y-174651285D01*
X67894333Y-174984619D01*
X67894333Y-174841761D01*
X67941952Y-174746523D01*
X67989571Y-174698904D01*
X68084809Y-174651285D01*
X68322904Y-174651285D01*
X68418142Y-174698904D01*
X68465761Y-174746523D01*
X68513380Y-174841761D01*
X68513380Y-175127476D01*
X68465761Y-175222714D01*
X68418142Y-175270333D01*
%TO.C,U1*%
X67849095Y-204334380D02*
X67849095Y-205143904D01*
X67896714Y-205239142D01*
X67944333Y-205286761D01*
X68039571Y-205334380D01*
X68230047Y-205334380D01*
X68325285Y-205286761D01*
X68372904Y-205239142D01*
X68420523Y-205143904D01*
X68420523Y-204334380D01*
X69420523Y-205334380D02*
X68849095Y-205334380D01*
X69134809Y-205334380D02*
X69134809Y-204334380D01*
X69039571Y-204477238D01*
X68944333Y-204572476D01*
X68849095Y-204620095D01*
%TO.C,C4*%
X87534333Y-179054142D02*
X87486714Y-179101761D01*
X87343857Y-179149380D01*
X87248619Y-179149380D01*
X87105761Y-179101761D01*
X87010523Y-179006523D01*
X86962904Y-178911285D01*
X86915285Y-178720809D01*
X86915285Y-178577952D01*
X86962904Y-178387476D01*
X87010523Y-178292238D01*
X87105761Y-178197000D01*
X87248619Y-178149380D01*
X87343857Y-178149380D01*
X87486714Y-178197000D01*
X87534333Y-178244619D01*
X88391476Y-178482714D02*
X88391476Y-179149380D01*
X88153380Y-178101761D02*
X87915285Y-178816047D01*
X88534333Y-178816047D01*
%TO.C,D1*%
X82438380Y-198337095D02*
X81438380Y-198337095D01*
X81438380Y-198099000D01*
X81486000Y-197956142D01*
X81581238Y-197860904D01*
X81676476Y-197813285D01*
X81866952Y-197765666D01*
X82009809Y-197765666D01*
X82200285Y-197813285D01*
X82295523Y-197860904D01*
X82390761Y-197956142D01*
X82438380Y-198099000D01*
X82438380Y-198337095D01*
X82438380Y-196813285D02*
X82438380Y-197384714D01*
X82438380Y-197099000D02*
X81438380Y-197099000D01*
X81581238Y-197194238D01*
X81676476Y-197289476D01*
X81724095Y-197384714D01*
%TO.C,R6*%
X150428380Y-176048666D02*
X149952190Y-176382000D01*
X150428380Y-176620095D02*
X149428380Y-176620095D01*
X149428380Y-176239142D01*
X149476000Y-176143904D01*
X149523619Y-176096285D01*
X149618857Y-176048666D01*
X149761714Y-176048666D01*
X149856952Y-176096285D01*
X149904571Y-176143904D01*
X149952190Y-176239142D01*
X149952190Y-176620095D01*
X149428380Y-175191523D02*
X149428380Y-175382000D01*
X149476000Y-175477238D01*
X149523619Y-175524857D01*
X149666476Y-175620095D01*
X149856952Y-175667714D01*
X150237904Y-175667714D01*
X150333142Y-175620095D01*
X150380761Y-175572476D01*
X150428380Y-175477238D01*
X150428380Y-175286761D01*
X150380761Y-175191523D01*
X150333142Y-175143904D01*
X150237904Y-175096285D01*
X149999809Y-175096285D01*
X149904571Y-175143904D01*
X149856952Y-175191523D01*
X149809333Y-175286761D01*
X149809333Y-175477238D01*
X149856952Y-175572476D01*
X149904571Y-175620095D01*
X149999809Y-175667714D01*
%TO.C,R11*%
X163410642Y-201662380D02*
X163077309Y-201186190D01*
X162839214Y-201662380D02*
X162839214Y-200662380D01*
X163220166Y-200662380D01*
X163315404Y-200710000D01*
X163363023Y-200757619D01*
X163410642Y-200852857D01*
X163410642Y-200995714D01*
X163363023Y-201090952D01*
X163315404Y-201138571D01*
X163220166Y-201186190D01*
X162839214Y-201186190D01*
X164363023Y-201662380D02*
X163791595Y-201662380D01*
X164077309Y-201662380D02*
X164077309Y-200662380D01*
X163982071Y-200805238D01*
X163886833Y-200900476D01*
X163791595Y-200948095D01*
X165315404Y-201662380D02*
X164743976Y-201662380D01*
X165029690Y-201662380D02*
X165029690Y-200662380D01*
X164934452Y-200805238D01*
X164839214Y-200900476D01*
X164743976Y-200948095D01*
%TO.C,C22*%
X54653142Y-199979857D02*
X54700761Y-200027476D01*
X54748380Y-200170333D01*
X54748380Y-200265571D01*
X54700761Y-200408428D01*
X54605523Y-200503666D01*
X54510285Y-200551285D01*
X54319809Y-200598904D01*
X54176952Y-200598904D01*
X53986476Y-200551285D01*
X53891238Y-200503666D01*
X53796000Y-200408428D01*
X53748380Y-200265571D01*
X53748380Y-200170333D01*
X53796000Y-200027476D01*
X53843619Y-199979857D01*
X53843619Y-199598904D02*
X53796000Y-199551285D01*
X53748380Y-199456047D01*
X53748380Y-199217952D01*
X53796000Y-199122714D01*
X53843619Y-199075095D01*
X53938857Y-199027476D01*
X54034095Y-199027476D01*
X54176952Y-199075095D01*
X54748380Y-199646523D01*
X54748380Y-199027476D01*
X53843619Y-198646523D02*
X53796000Y-198598904D01*
X53748380Y-198503666D01*
X53748380Y-198265571D01*
X53796000Y-198170333D01*
X53843619Y-198122714D01*
X53938857Y-198075095D01*
X54034095Y-198075095D01*
X54176952Y-198122714D01*
X54748380Y-198694142D01*
X54748380Y-198075095D01*
%TO.C,C5*%
X100428142Y-188708666D02*
X100475761Y-188756285D01*
X100523380Y-188899142D01*
X100523380Y-188994380D01*
X100475761Y-189137238D01*
X100380523Y-189232476D01*
X100285285Y-189280095D01*
X100094809Y-189327714D01*
X99951952Y-189327714D01*
X99761476Y-189280095D01*
X99666238Y-189232476D01*
X99571000Y-189137238D01*
X99523380Y-188994380D01*
X99523380Y-188899142D01*
X99571000Y-188756285D01*
X99618619Y-188708666D01*
X99523380Y-187803904D02*
X99523380Y-188280095D01*
X99999571Y-188327714D01*
X99951952Y-188280095D01*
X99904333Y-188184857D01*
X99904333Y-187946761D01*
X99951952Y-187851523D01*
X99999571Y-187803904D01*
X100094809Y-187756285D01*
X100332904Y-187756285D01*
X100428142Y-187803904D01*
X100475761Y-187851523D01*
X100523380Y-187946761D01*
X100523380Y-188184857D01*
X100475761Y-188280095D01*
X100428142Y-188327714D01*
%TO.C,R4*%
X163128380Y-175856166D02*
X162652190Y-176189500D01*
X163128380Y-176427595D02*
X162128380Y-176427595D01*
X162128380Y-176046642D01*
X162176000Y-175951404D01*
X162223619Y-175903785D01*
X162318857Y-175856166D01*
X162461714Y-175856166D01*
X162556952Y-175903785D01*
X162604571Y-175951404D01*
X162652190Y-176046642D01*
X162652190Y-176427595D01*
X162461714Y-174999023D02*
X163128380Y-174999023D01*
X162080761Y-175237119D02*
X162795047Y-175475214D01*
X162795047Y-174856166D01*
%TD*%
M02*
