M48
; DRILL file {KiCad (5.1.10)-1} date 02/15/22 22:09:55
; FORMAT={-:-/ absolute / metric / decimal}
; #@! TF.CreationDate,2022-02-15T22:09:55+02:00
; #@! TF.GenerationSoftware,Kicad,Pcbnew,(5.1.10)-1
; #@! TF.FileFunction,Plated,1,2,PTH
FMAT,2
METRIC
T1C0.800
T2C1.000
T3C1.200
T4C1.380
T5C6.000
%
G90
G05
T1
X41.44Y-108.025
X41.44Y-109.935
X41.44Y-111.845
X67.985Y-128.27
X70.485Y-128.27
X76.835Y-128.27
X79.335Y-128.27
X84.455Y-107.305
X84.455Y-109.215
X84.455Y-111.125
X85.725Y-128.27
X88.225Y-128.27
X94.615Y-128.27
X97.115Y-128.27
X104.775Y-127.0
X104.775Y-129.5
X113.665Y-127.0
X113.665Y-129.5
X123.825Y-127.0
X123.825Y-129.5
X132.715Y-127.0
X132.715Y-129.5
X137.325Y-108.66
X137.325Y-110.57
X137.325Y-112.48
X140.335Y-128.27
X142.835Y-128.27
X149.225Y-128.27
X151.725Y-128.27
T2
X62.23Y-88.265
X64.77Y-88.265
X67.31Y-88.265
X69.85Y-88.265
X72.39Y-88.265
X74.93Y-88.265
X77.47Y-88.265
X115.57Y-88.265
X118.11Y-88.265
X120.65Y-88.265
X123.19Y-88.265
X125.73Y-88.265
X128.27Y-88.265
X130.81Y-88.265
X159.545Y-126.365
X168.275Y-88.265
X169.545Y-126.365
X170.815Y-88.265
X173.355Y-88.265
X175.42Y-126.365
X175.895Y-88.265
X177.165Y-134.78
X177.165Y-144.78
X178.435Y-88.265
X180.975Y-88.265
X183.515Y-88.265
X184.15Y-134.78
X184.15Y-144.78
X185.42Y-126.365
T3
X52.945Y-139.7
X67.945Y-139.7
X73.265Y-139.7
X88.265Y-139.7
X93.345Y-139.7
X108.345Y-139.7
X113.665Y-139.7
X128.665Y-139.7
X133.985Y-139.7
X148.985Y-139.7
X154.305Y-139.7
X169.305Y-139.7
T4
X37.338Y-45.466
X37.338Y-56.261
X37.338Y-67.056
X37.338Y-77.851
X39.878Y-45.466
X39.878Y-56.261
X39.878Y-67.056
X39.878Y-77.851
X42.418Y-45.466
X42.418Y-56.261
X42.418Y-67.056
X42.418Y-77.851
X70.993Y-57.785
X70.993Y-67.945
X70.993Y-78.105
X71.12Y-47.625
X73.533Y-57.785
X73.533Y-67.945
X73.533Y-78.105
X73.66Y-47.625
X76.073Y-57.785
X76.073Y-67.945
X76.073Y-78.105
X76.2Y-47.625
X91.313Y-46.101
X91.313Y-56.261
X91.313Y-66.421
X91.313Y-77.216
X93.853Y-46.101
X93.853Y-56.261
X93.853Y-66.421
X93.853Y-77.216
X96.393Y-46.101
X96.393Y-56.261
X96.393Y-66.421
X96.393Y-77.216
X124.714Y-78.105
X124.968Y-57.785
X124.968Y-67.945
X125.095Y-47.625
X127.254Y-78.105
X127.508Y-57.785
X127.508Y-67.945
X127.635Y-47.625
X129.794Y-78.105
X130.048Y-57.785
X130.048Y-67.945
X130.175Y-47.625
X145.288Y-46.736
X145.288Y-56.896
X145.288Y-67.056
X145.288Y-76.581
X147.828Y-46.736
X147.828Y-56.896
X147.828Y-67.056
X147.828Y-76.581
X150.368Y-46.736
X150.368Y-56.896
X150.368Y-67.056
X150.368Y-76.581
X178.689Y-78.74
X178.816Y-69.215
X178.943Y-48.895
X178.943Y-59.055
X181.229Y-78.74
X181.356Y-69.215
X181.483Y-48.895
X181.483Y-59.055
X183.769Y-78.74
X183.896Y-69.215
X184.023Y-48.895
X184.023Y-59.055
T5
X36.83Y-137.16
X57.785Y-31.75
X114.3Y-31.75
X164.465Y-31.75
X186.055Y-113.03
T0
M30
