%TF.GenerationSoftware,KiCad,Pcbnew,(5.1.10)-1*%
%TF.CreationDate,2022-02-15T22:07:18+02:00*%
%TF.ProjectId,SEM,53454d2e-6b69-4636-9164-5f7063625858,rev?*%
%TF.SameCoordinates,Original*%
%TF.FileFunction,Copper,L2,Bot*%
%TF.FilePolarity,Positive*%
%FSLAX46Y46*%
G04 Gerber Fmt 4.6, Leading zero omitted, Abs format (unit mm)*
G04 Created by KiCad (PCBNEW (5.1.10)-1) date 2022-02-15 22:07:18*
%MOMM*%
%LPD*%
G01*
G04 APERTURE LIST*
%TA.AperFunction,ComponentPad*%
%ADD10R,1.700000X1.700000*%
%TD*%
%TA.AperFunction,ComponentPad*%
%ADD11O,1.700000X1.700000*%
%TD*%
%TA.AperFunction,ComponentPad*%
%ADD12C,2.070000*%
%TD*%
%TA.AperFunction,ComponentPad*%
%ADD13R,2.070000X2.070000*%
%TD*%
%TA.AperFunction,ComponentPad*%
%ADD14C,1.600000*%
%TD*%
%TA.AperFunction,ComponentPad*%
%ADD15R,1.600000X1.600000*%
%TD*%
%TA.AperFunction,ComponentPad*%
%ADD16C,2.000000*%
%TD*%
%TA.AperFunction,ComponentPad*%
%ADD17C,2.400000*%
%TD*%
%TA.AperFunction,ConnectorPad*%
%ADD18C,12.000000*%
%TD*%
%TA.AperFunction,ComponentPad*%
%ADD19C,6.400000*%
%TD*%
%TA.AperFunction,SMDPad,CuDef*%
%ADD20R,12.000000X5.500000*%
%TD*%
%TA.AperFunction,ComponentPad*%
%ADD21R,1.500000X1.500000*%
%TD*%
%TA.AperFunction,ComponentPad*%
%ADD22C,1.500000*%
%TD*%
%TA.AperFunction,Conductor*%
%ADD23C,1.200000*%
%TD*%
%TA.AperFunction,Conductor*%
%ADD24C,1.000000*%
%TD*%
%TA.AperFunction,Conductor*%
%ADD25C,0.100000*%
%TD*%
G04 APERTURE END LIST*
%TO.P,R53,2*%
%TO.N,/U_USENSE*%
%TA.AperFunction,SMDPad,CuDef*%
G36*
G01*
X57159998Y-93610000D02*
X58410002Y-93610000D01*
G75*
G02*
X58660000Y-93859998I0J-249998D01*
G01*
X58660000Y-94485002D01*
G75*
G02*
X58410002Y-94735000I-249998J0D01*
G01*
X57159998Y-94735000D01*
G75*
G02*
X56910000Y-94485002I0J249998D01*
G01*
X56910000Y-93859998D01*
G75*
G02*
X57159998Y-93610000I249998J0D01*
G01*
G37*
%TD.AperFunction*%
%TO.P,R53,1*%
%TO.N,/GND_U*%
%TA.AperFunction,SMDPad,CuDef*%
G36*
G01*
X57159998Y-90685000D02*
X58410002Y-90685000D01*
G75*
G02*
X58660000Y-90934998I0J-249998D01*
G01*
X58660000Y-91560002D01*
G75*
G02*
X58410002Y-91810000I-249998J0D01*
G01*
X57159998Y-91810000D01*
G75*
G02*
X56910000Y-91560002I0J249998D01*
G01*
X56910000Y-90934998D01*
G75*
G02*
X57159998Y-90685000I249998J0D01*
G01*
G37*
%TD.AperFunction*%
%TD*%
%TO.P,R81,2*%
%TO.N,/PHASE_W*%
%TA.AperFunction,SMDPad,CuDef*%
G36*
G01*
X168773002Y-92699000D02*
X167522998Y-92699000D01*
G75*
G02*
X167273000Y-92449002I0J249998D01*
G01*
X167273000Y-91823998D01*
G75*
G02*
X167522998Y-91574000I249998J0D01*
G01*
X168773002Y-91574000D01*
G75*
G02*
X169023000Y-91823998I0J-249998D01*
G01*
X169023000Y-92449002D01*
G75*
G02*
X168773002Y-92699000I-249998J0D01*
G01*
G37*
%TD.AperFunction*%
%TO.P,R81,1*%
%TO.N,/W_USENSE*%
%TA.AperFunction,SMDPad,CuDef*%
G36*
G01*
X168773002Y-95624000D02*
X167522998Y-95624000D01*
G75*
G02*
X167273000Y-95374002I0J249998D01*
G01*
X167273000Y-94748998D01*
G75*
G02*
X167522998Y-94499000I249998J0D01*
G01*
X168773002Y-94499000D01*
G75*
G02*
X169023000Y-94748998I0J-249998D01*
G01*
X169023000Y-95374002D01*
G75*
G02*
X168773002Y-95624000I-249998J0D01*
G01*
G37*
%TD.AperFunction*%
%TD*%
D10*
%TO.P,J12,1*%
%TO.N,/PHASE_W*%
X168275000Y-88265000D03*
D11*
%TO.P,J12,2*%
%TO.N,/W_USENSE*%
X170815000Y-88265000D03*
%TO.P,J12,3*%
%TO.N,/LOW_GATE_W*%
X173355000Y-88265000D03*
%TO.P,J12,4*%
%TO.N,/HIGH_GATE_W*%
X175895000Y-88265000D03*
%TO.P,J12,5*%
%TO.N,/W_ISENSE*%
X178435000Y-88265000D03*
%TO.P,J12,6*%
%TO.N,+5V*%
X180975000Y-88265000D03*
%TO.P,J12,7*%
%TO.N,GND1*%
X183515000Y-88265000D03*
%TD*%
%TO.P,J11,7*%
%TO.N,GND1*%
X77470000Y-88265000D03*
%TO.P,J11,6*%
%TO.N,+5V*%
X74930000Y-88265000D03*
%TO.P,J11,5*%
%TO.N,/U_ISENSE*%
X72390000Y-88265000D03*
%TO.P,J11,4*%
%TO.N,/HIGH_GATE_U*%
X69850000Y-88265000D03*
%TO.P,J11,3*%
%TO.N,/LOW_GATE_U*%
X67310000Y-88265000D03*
%TO.P,J11,2*%
%TO.N,/U_USENSE*%
X64770000Y-88265000D03*
D10*
%TO.P,J11,1*%
%TO.N,/PHASE_U*%
X62230000Y-88265000D03*
%TD*%
D12*
%TO.P,Q16,3*%
%TO.N,/GND_W*%
X145288000Y-67056000D03*
%TO.P,Q16,2*%
%TO.N,/PHASE_W*%
X147828000Y-67056000D03*
D13*
%TO.P,Q16,1*%
%TO.N,Net-(D19-Pad2)*%
X150368000Y-67056000D03*
%TD*%
D12*
%TO.P,Q15,3*%
%TO.N,/PHASE_W*%
X183896000Y-69215000D03*
%TO.P,Q15,2*%
%TO.N,VDC*%
X181356000Y-69215000D03*
D13*
%TO.P,Q15,1*%
%TO.N,Net-(D21-Pad2)*%
X178816000Y-69215000D03*
%TD*%
D12*
%TO.P,Q18,3*%
%TO.N,/GND_V*%
X91313000Y-66421000D03*
%TO.P,Q18,2*%
%TO.N,/PHASE_V*%
X93853000Y-66421000D03*
D13*
%TO.P,Q18,1*%
%TO.N,Net-(D20-Pad2)*%
X96393000Y-66421000D03*
%TD*%
D12*
%TO.P,Q23,3*%
%TO.N,/PHASE_V*%
X129794000Y-78105000D03*
%TO.P,Q23,2*%
%TO.N,VDC*%
X127254000Y-78105000D03*
D13*
%TO.P,Q23,1*%
%TO.N,Net-(D26-Pad2)*%
X124714000Y-78105000D03*
%TD*%
D12*
%TO.P,Q19,3*%
%TO.N,/PHASE_U*%
X76073000Y-78105000D03*
%TO.P,Q19,2*%
%TO.N,VDC*%
X73533000Y-78105000D03*
D13*
%TO.P,Q19,1*%
%TO.N,Net-(D23-Pad2)*%
X70993000Y-78105000D03*
%TD*%
D12*
%TO.P,Q20,3*%
%TO.N,/GND_U*%
X37338000Y-77851000D03*
%TO.P,Q20,2*%
%TO.N,/PHASE_U*%
X39878000Y-77851000D03*
D13*
%TO.P,Q20,1*%
%TO.N,Net-(D24-Pad2)*%
X42418000Y-77851000D03*
%TD*%
D12*
%TO.P,Q22,3*%
%TO.N,/GND_W*%
X145288000Y-76581000D03*
%TO.P,Q22,2*%
%TO.N,/PHASE_W*%
X147828000Y-76581000D03*
D13*
%TO.P,Q22,1*%
%TO.N,Net-(D27-Pad2)*%
X150368000Y-76581000D03*
%TD*%
D12*
%TO.P,Q17,3*%
%TO.N,/PHASE_V*%
X130048000Y-67945000D03*
%TO.P,Q17,2*%
%TO.N,VDC*%
X127508000Y-67945000D03*
D13*
%TO.P,Q17,1*%
%TO.N,Net-(D22-Pad2)*%
X124968000Y-67945000D03*
%TD*%
D12*
%TO.P,Q24,3*%
%TO.N,/GND_V*%
X91313000Y-77216000D03*
%TO.P,Q24,2*%
%TO.N,/PHASE_V*%
X93853000Y-77216000D03*
D13*
%TO.P,Q24,1*%
%TO.N,Net-(D28-Pad2)*%
X96393000Y-77216000D03*
%TD*%
D12*
%TO.P,Q21,3*%
%TO.N,/PHASE_W*%
X183769000Y-78740000D03*
%TO.P,Q21,2*%
%TO.N,VDC*%
X181229000Y-78740000D03*
D13*
%TO.P,Q21,1*%
%TO.N,Net-(D25-Pad2)*%
X178689000Y-78740000D03*
%TD*%
D14*
%TO.P,C59,2*%
%TO.N,GND*%
X113665000Y-129500000D03*
D15*
%TO.P,C59,1*%
%TO.N,VDC*%
X113665000Y-127000000D03*
%TD*%
%TO.P,R84,2*%
%TO.N,/V_USENSE*%
%TA.AperFunction,SMDPad,CuDef*%
G36*
G01*
X111134998Y-94245000D02*
X112385002Y-94245000D01*
G75*
G02*
X112635000Y-94494998I0J-249998D01*
G01*
X112635000Y-95120002D01*
G75*
G02*
X112385002Y-95370000I-249998J0D01*
G01*
X111134998Y-95370000D01*
G75*
G02*
X110885000Y-95120002I0J249998D01*
G01*
X110885000Y-94494998D01*
G75*
G02*
X111134998Y-94245000I249998J0D01*
G01*
G37*
%TD.AperFunction*%
%TO.P,R84,1*%
%TO.N,/GND_V*%
%TA.AperFunction,SMDPad,CuDef*%
G36*
G01*
X111134998Y-91320000D02*
X112385002Y-91320000D01*
G75*
G02*
X112635000Y-91569998I0J-249998D01*
G01*
X112635000Y-92195002D01*
G75*
G02*
X112385002Y-92445000I-249998J0D01*
G01*
X111134998Y-92445000D01*
G75*
G02*
X110885000Y-92195002I0J249998D01*
G01*
X110885000Y-91569998D01*
G75*
G02*
X111134998Y-91320000I249998J0D01*
G01*
G37*
%TD.AperFunction*%
%TD*%
D16*
%TO.P,C48,2*%
%TO.N,Net-(C48-Pad2)*%
X175420000Y-126365000D03*
%TO.P,C48,1*%
%TO.N,VDC*%
X185420000Y-126365000D03*
%TD*%
D14*
%TO.P,C43,2*%
%TO.N,GND*%
X132715000Y-129500000D03*
D15*
%TO.P,C43,1*%
%TO.N,VDC*%
X132715000Y-127000000D03*
%TD*%
D17*
%TO.P,C47,2*%
%TO.N,GND*%
X128665000Y-139700000D03*
%TO.P,C47,1*%
%TO.N,VDC*%
X113665000Y-139700000D03*
%TD*%
D18*
%TO.P,J2,1*%
%TO.N,/PHASE_W*%
X164465000Y-31750000D03*
D19*
X164465000Y-31750000D03*
%TD*%
D17*
%TO.P,C41,2*%
%TO.N,GND*%
X148985000Y-139700000D03*
%TO.P,C41,1*%
%TO.N,VDC*%
X133985000Y-139700000D03*
%TD*%
D14*
%TO.P,C58,2*%
%TO.N,GND*%
X67985000Y-128270000D03*
D15*
%TO.P,C58,1*%
%TO.N,VDC*%
X70485000Y-128270000D03*
%TD*%
D18*
%TO.P,J7,1*%
%TO.N,GND*%
X36830000Y-137160000D03*
D19*
X36830000Y-137160000D03*
%TD*%
D16*
%TO.P,C51,2*%
%TO.N,Net-(C51-Pad2)*%
X159545000Y-126365000D03*
%TO.P,C51,1*%
%TO.N,VDC*%
X169545000Y-126365000D03*
%TD*%
%TO.P,R61,2*%
%TO.N,Net-(C48-Pad2)*%
%TA.AperFunction,SMDPad,CuDef*%
G36*
G01*
X174890000Y-130800002D02*
X174890000Y-129549998D01*
G75*
G02*
X175139998Y-129300000I249998J0D01*
G01*
X175765002Y-129300000D01*
G75*
G02*
X176015000Y-129549998I0J-249998D01*
G01*
X176015000Y-130800002D01*
G75*
G02*
X175765002Y-131050000I-249998J0D01*
G01*
X175139998Y-131050000D01*
G75*
G02*
X174890000Y-130800002I0J249998D01*
G01*
G37*
%TD.AperFunction*%
%TO.P,R61,1*%
%TO.N,GND*%
%TA.AperFunction,SMDPad,CuDef*%
G36*
G01*
X171965000Y-130800002D02*
X171965000Y-129549998D01*
G75*
G02*
X172214998Y-129300000I249998J0D01*
G01*
X172840002Y-129300000D01*
G75*
G02*
X173090000Y-129549998I0J-249998D01*
G01*
X173090000Y-130800002D01*
G75*
G02*
X172840002Y-131050000I-249998J0D01*
G01*
X172214998Y-131050000D01*
G75*
G02*
X171965000Y-130800002I0J249998D01*
G01*
G37*
%TD.AperFunction*%
%TD*%
D18*
%TO.P,J3,1*%
%TO.N,/PHASE_V*%
X114300000Y-31750000D03*
D19*
X114300000Y-31750000D03*
%TD*%
D14*
%TO.P,C46,2*%
%TO.N,GND*%
X97115000Y-128270000D03*
D15*
%TO.P,C46,1*%
%TO.N,VDC*%
X94615000Y-128270000D03*
%TD*%
D17*
%TO.P,C44,2*%
%TO.N,GND*%
X52945000Y-139700000D03*
%TO.P,C44,1*%
%TO.N,VDC*%
X67945000Y-139700000D03*
%TD*%
D14*
%TO.P,C56,2*%
%TO.N,GND*%
X79335000Y-128270000D03*
D15*
%TO.P,C56,1*%
%TO.N,VDC*%
X76835000Y-128270000D03*
%TD*%
%TO.P,R83,2*%
%TO.N,/PHASE_V*%
%TA.AperFunction,SMDPad,CuDef*%
G36*
G01*
X116195002Y-92445000D02*
X114944998Y-92445000D01*
G75*
G02*
X114695000Y-92195002I0J249998D01*
G01*
X114695000Y-91569998D01*
G75*
G02*
X114944998Y-91320000I249998J0D01*
G01*
X116195002Y-91320000D01*
G75*
G02*
X116445000Y-91569998I0J-249998D01*
G01*
X116445000Y-92195002D01*
G75*
G02*
X116195002Y-92445000I-249998J0D01*
G01*
G37*
%TD.AperFunction*%
%TO.P,R83,1*%
%TO.N,/V_USENSE*%
%TA.AperFunction,SMDPad,CuDef*%
G36*
G01*
X116195002Y-95370000D02*
X114944998Y-95370000D01*
G75*
G02*
X114695000Y-95120002I0J249998D01*
G01*
X114695000Y-94494998D01*
G75*
G02*
X114944998Y-94245000I249998J0D01*
G01*
X116195002Y-94245000D01*
G75*
G02*
X116445000Y-94494998I0J-249998D01*
G01*
X116445000Y-95120002D01*
G75*
G02*
X116195002Y-95370000I-249998J0D01*
G01*
G37*
%TD.AperFunction*%
%TD*%
%TO.P,R82,2*%
%TO.N,/W_USENSE*%
%TA.AperFunction,SMDPad,CuDef*%
G36*
G01*
X163839998Y-94691500D02*
X165090002Y-94691500D01*
G75*
G02*
X165340000Y-94941498I0J-249998D01*
G01*
X165340000Y-95566502D01*
G75*
G02*
X165090002Y-95816500I-249998J0D01*
G01*
X163839998Y-95816500D01*
G75*
G02*
X163590000Y-95566502I0J249998D01*
G01*
X163590000Y-94941498D01*
G75*
G02*
X163839998Y-94691500I249998J0D01*
G01*
G37*
%TD.AperFunction*%
%TO.P,R82,1*%
%TO.N,/GND_W*%
%TA.AperFunction,SMDPad,CuDef*%
G36*
G01*
X163839998Y-91766500D02*
X165090002Y-91766500D01*
G75*
G02*
X165340000Y-92016498I0J-249998D01*
G01*
X165340000Y-92641502D01*
G75*
G02*
X165090002Y-92891500I-249998J0D01*
G01*
X163839998Y-92891500D01*
G75*
G02*
X163590000Y-92641502I0J249998D01*
G01*
X163590000Y-92016498D01*
G75*
G02*
X163839998Y-91766500I249998J0D01*
G01*
G37*
%TD.AperFunction*%
%TD*%
%TO.P,R59,2*%
%TO.N,Net-(C45-Pad2)*%
%TA.AperFunction,SMDPad,CuDef*%
G36*
G01*
X183780000Y-131435002D02*
X183780000Y-130184998D01*
G75*
G02*
X184029998Y-129935000I249998J0D01*
G01*
X184655002Y-129935000D01*
G75*
G02*
X184905000Y-130184998I0J-249998D01*
G01*
X184905000Y-131435002D01*
G75*
G02*
X184655002Y-131685000I-249998J0D01*
G01*
X184029998Y-131685000D01*
G75*
G02*
X183780000Y-131435002I0J249998D01*
G01*
G37*
%TD.AperFunction*%
%TO.P,R59,1*%
%TO.N,GND*%
%TA.AperFunction,SMDPad,CuDef*%
G36*
G01*
X180855000Y-131435002D02*
X180855000Y-130184998D01*
G75*
G02*
X181104998Y-129935000I249998J0D01*
G01*
X181730002Y-129935000D01*
G75*
G02*
X181980000Y-130184998I0J-249998D01*
G01*
X181980000Y-131435002D01*
G75*
G02*
X181730002Y-131685000I-249998J0D01*
G01*
X181104998Y-131685000D01*
G75*
G02*
X180855000Y-131435002I0J249998D01*
G01*
G37*
%TD.AperFunction*%
%TD*%
D20*
%TO.P,U4,5*%
%TO.N,GND*%
X66040000Y-114935000D03*
%TO.P,U4,4*%
%TO.N,/GND_U*%
X66040000Y-104935000D03*
D21*
%TO.P,U4,1*%
%TO.N,+5V*%
X41440000Y-111845000D03*
D22*
%TO.P,U4,3*%
%TO.N,/U_ISENSE*%
X41440000Y-108025000D03*
%TO.P,U4,2*%
%TO.N,GND1*%
X41440000Y-109935000D03*
%TD*%
D18*
%TO.P,J1,1*%
%TO.N,/PHASE_U*%
X57785000Y-31750000D03*
D19*
X57785000Y-31750000D03*
%TD*%
D14*
%TO.P,C57,2*%
%TO.N,GND*%
X104775000Y-129500000D03*
D15*
%TO.P,C57,1*%
%TO.N,VDC*%
X104775000Y-127000000D03*
%TD*%
D14*
%TO.P,C52,2*%
%TO.N,GND*%
X151725000Y-128270000D03*
D15*
%TO.P,C52,1*%
%TO.N,VDC*%
X149225000Y-128270000D03*
%TD*%
D14*
%TO.P,C49,2*%
%TO.N,GND*%
X123825000Y-129500000D03*
D15*
%TO.P,C49,1*%
%TO.N,VDC*%
X123825000Y-127000000D03*
%TD*%
D12*
%TO.P,Q4,3*%
%TO.N,/GND_W*%
X145288000Y-46736000D03*
%TO.P,Q4,2*%
%TO.N,/PHASE_W*%
X147828000Y-46736000D03*
D13*
%TO.P,Q4,1*%
%TO.N,Net-(D8-Pad2)*%
X150368000Y-46736000D03*
%TD*%
D14*
%TO.P,C60,2*%
%TO.N,GND*%
X88225000Y-128270000D03*
D15*
%TO.P,C60,1*%
%TO.N,VDC*%
X85725000Y-128270000D03*
%TD*%
D20*
%TO.P,U5,5*%
%TO.N,GND*%
X161925000Y-115570000D03*
%TO.P,U5,4*%
%TO.N,/GND_W*%
X161925000Y-105570000D03*
D21*
%TO.P,U5,1*%
%TO.N,+5V*%
X137325000Y-112480000D03*
D22*
%TO.P,U5,3*%
%TO.N,/W_ISENSE*%
X137325000Y-108660000D03*
%TO.P,U5,2*%
%TO.N,GND1*%
X137325000Y-110570000D03*
%TD*%
D17*
%TO.P,C55,2*%
%TO.N,GND*%
X73265000Y-139700000D03*
%TO.P,C55,1*%
%TO.N,VDC*%
X88265000Y-139700000D03*
%TD*%
%TO.P,C53,2*%
%TO.N,GND*%
X169305000Y-139700000D03*
%TO.P,C53,1*%
%TO.N,VDC*%
X154305000Y-139700000D03*
%TD*%
%TO.P,C50,2*%
%TO.N,GND*%
X108345000Y-139700000D03*
%TO.P,C50,1*%
%TO.N,VDC*%
X93345000Y-139700000D03*
%TD*%
D20*
%TO.P,U6,5*%
%TO.N,GND*%
X109055000Y-114215000D03*
%TO.P,U6,4*%
%TO.N,/GND_V*%
X109055000Y-104215000D03*
D21*
%TO.P,U6,1*%
%TO.N,+5V*%
X84455000Y-111125000D03*
D22*
%TO.P,U6,3*%
%TO.N,/V_ISENSE*%
X84455000Y-107305000D03*
%TO.P,U6,2*%
%TO.N,GND1*%
X84455000Y-109215000D03*
%TD*%
D11*
%TO.P,J13,7*%
%TO.N,GND1*%
X130810000Y-88265000D03*
%TO.P,J13,6*%
%TO.N,+5V*%
X128270000Y-88265000D03*
%TO.P,J13,5*%
%TO.N,/V_ISENSE*%
X125730000Y-88265000D03*
%TO.P,J13,4*%
%TO.N,/HIGH_GATE_V*%
X123190000Y-88265000D03*
%TO.P,J13,3*%
%TO.N,/LOW_GATE_V*%
X120650000Y-88265000D03*
%TO.P,J13,2*%
%TO.N,/V_USENSE*%
X118110000Y-88265000D03*
D10*
%TO.P,J13,1*%
%TO.N,/PHASE_V*%
X115570000Y-88265000D03*
%TD*%
D14*
%TO.P,C40,2*%
%TO.N,GND*%
X142835000Y-128270000D03*
D15*
%TO.P,C40,1*%
%TO.N,VDC*%
X140335000Y-128270000D03*
%TD*%
D12*
%TO.P,Q14,3*%
%TO.N,/GND_U*%
X37338000Y-67056000D03*
%TO.P,Q14,2*%
%TO.N,/PHASE_U*%
X39878000Y-67056000D03*
D13*
%TO.P,Q14,1*%
%TO.N,Net-(D17-Pad2)*%
X42418000Y-67056000D03*
%TD*%
D12*
%TO.P,Q6,3*%
%TO.N,/GND_V*%
X91313000Y-46101000D03*
%TO.P,Q6,2*%
%TO.N,/PHASE_V*%
X93853000Y-46101000D03*
D13*
%TO.P,Q6,1*%
%TO.N,Net-(D10-Pad2)*%
X96393000Y-46101000D03*
%TD*%
D12*
%TO.P,Q11,3*%
%TO.N,/PHASE_V*%
X130048000Y-57785000D03*
%TO.P,Q11,2*%
%TO.N,VDC*%
X127508000Y-57785000D03*
D13*
%TO.P,Q11,1*%
%TO.N,Net-(D16-Pad2)*%
X124968000Y-57785000D03*
%TD*%
D12*
%TO.P,Q10,3*%
%TO.N,/GND_W*%
X145288000Y-56896000D03*
%TO.P,Q10,2*%
%TO.N,/PHASE_W*%
X147828000Y-56896000D03*
D13*
%TO.P,Q10,1*%
%TO.N,Net-(D13-Pad2)*%
X150368000Y-56896000D03*
%TD*%
%TO.P,R62,2*%
%TO.N,Net-(C51-Pad2)*%
%TA.AperFunction,SMDPad,CuDef*%
G36*
G01*
X159650000Y-130800002D02*
X159650000Y-129549998D01*
G75*
G02*
X159899998Y-129300000I249998J0D01*
G01*
X160525002Y-129300000D01*
G75*
G02*
X160775000Y-129549998I0J-249998D01*
G01*
X160775000Y-130800002D01*
G75*
G02*
X160525002Y-131050000I-249998J0D01*
G01*
X159899998Y-131050000D01*
G75*
G02*
X159650000Y-130800002I0J249998D01*
G01*
G37*
%TD.AperFunction*%
%TO.P,R62,1*%
%TO.N,GND*%
%TA.AperFunction,SMDPad,CuDef*%
G36*
G01*
X156725000Y-130800002D02*
X156725000Y-129549998D01*
G75*
G02*
X156974998Y-129300000I249998J0D01*
G01*
X157600002Y-129300000D01*
G75*
G02*
X157850000Y-129549998I0J-249998D01*
G01*
X157850000Y-130800002D01*
G75*
G02*
X157600002Y-131050000I-249998J0D01*
G01*
X156974998Y-131050000D01*
G75*
G02*
X156725000Y-130800002I0J249998D01*
G01*
G37*
%TD.AperFunction*%
%TD*%
%TO.P,R52,2*%
%TO.N,/PHASE_U*%
%TA.AperFunction,SMDPad,CuDef*%
G36*
G01*
X62220002Y-91810000D02*
X60969998Y-91810000D01*
G75*
G02*
X60720000Y-91560002I0J249998D01*
G01*
X60720000Y-90934998D01*
G75*
G02*
X60969998Y-90685000I249998J0D01*
G01*
X62220002Y-90685000D01*
G75*
G02*
X62470000Y-90934998I0J-249998D01*
G01*
X62470000Y-91560002D01*
G75*
G02*
X62220002Y-91810000I-249998J0D01*
G01*
G37*
%TD.AperFunction*%
%TO.P,R52,1*%
%TO.N,/U_USENSE*%
%TA.AperFunction,SMDPad,CuDef*%
G36*
G01*
X62220002Y-94735000D02*
X60969998Y-94735000D01*
G75*
G02*
X60720000Y-94485002I0J249998D01*
G01*
X60720000Y-93859998D01*
G75*
G02*
X60969998Y-93610000I249998J0D01*
G01*
X62220002Y-93610000D01*
G75*
G02*
X62470000Y-93859998I0J-249998D01*
G01*
X62470000Y-94485002D01*
G75*
G02*
X62220002Y-94735000I-249998J0D01*
G01*
G37*
%TD.AperFunction*%
%TD*%
D12*
%TO.P,Q2,3*%
%TO.N,/GND_U*%
X37338000Y-45466000D03*
%TO.P,Q2,2*%
%TO.N,/PHASE_U*%
X39878000Y-45466000D03*
D13*
%TO.P,Q2,1*%
%TO.N,Net-(D6-Pad2)*%
X42418000Y-45466000D03*
%TD*%
D18*
%TO.P,J6,1*%
%TO.N,VDC*%
X186055000Y-113030000D03*
D19*
X186055000Y-113030000D03*
%TD*%
D16*
%TO.P,C45,2*%
%TO.N,Net-(C45-Pad2)*%
X184150000Y-134780000D03*
%TO.P,C45,1*%
%TO.N,VDC*%
X184150000Y-144780000D03*
%TD*%
D12*
%TO.P,Q12,3*%
%TO.N,/GND_V*%
X91313000Y-56261000D03*
%TO.P,Q12,2*%
%TO.N,/PHASE_V*%
X93853000Y-56261000D03*
D13*
%TO.P,Q12,1*%
%TO.N,Net-(D14-Pad2)*%
X96393000Y-56261000D03*
%TD*%
D12*
%TO.P,Q3,3*%
%TO.N,/PHASE_W*%
X184023000Y-48895000D03*
%TO.P,Q3,2*%
%TO.N,VDC*%
X181483000Y-48895000D03*
D13*
%TO.P,Q3,1*%
%TO.N,Net-(D7-Pad2)*%
X178943000Y-48895000D03*
%TD*%
D12*
%TO.P,Q8,3*%
%TO.N,/GND_U*%
X37338000Y-56261000D03*
%TO.P,Q8,2*%
%TO.N,/PHASE_U*%
X39878000Y-56261000D03*
D13*
%TO.P,Q8,1*%
%TO.N,Net-(D11-Pad2)*%
X42418000Y-56261000D03*
%TD*%
D12*
%TO.P,Q13,3*%
%TO.N,/PHASE_U*%
X76073000Y-67945000D03*
%TO.P,Q13,2*%
%TO.N,VDC*%
X73533000Y-67945000D03*
D13*
%TO.P,Q13,1*%
%TO.N,Net-(D18-Pad2)*%
X70993000Y-67945000D03*
%TD*%
D12*
%TO.P,Q1,3*%
%TO.N,/PHASE_U*%
X76200000Y-47625000D03*
%TO.P,Q1,2*%
%TO.N,VDC*%
X73660000Y-47625000D03*
D13*
%TO.P,Q1,1*%
%TO.N,Net-(D5-Pad2)*%
X71120000Y-47625000D03*
%TD*%
D12*
%TO.P,Q9,3*%
%TO.N,/PHASE_W*%
X184023000Y-59055000D03*
%TO.P,Q9,2*%
%TO.N,VDC*%
X181483000Y-59055000D03*
D13*
%TO.P,Q9,1*%
%TO.N,Net-(D15-Pad2)*%
X178943000Y-59055000D03*
%TD*%
D16*
%TO.P,C42,2*%
%TO.N,Net-(C42-Pad2)*%
X177165000Y-134780000D03*
%TO.P,C42,1*%
%TO.N,VDC*%
X177165000Y-144780000D03*
%TD*%
D12*
%TO.P,Q5,3*%
%TO.N,/PHASE_V*%
X130175000Y-47625000D03*
%TO.P,Q5,2*%
%TO.N,VDC*%
X127635000Y-47625000D03*
D13*
%TO.P,Q5,1*%
%TO.N,Net-(D9-Pad2)*%
X125095000Y-47625000D03*
%TD*%
D12*
%TO.P,Q7,3*%
%TO.N,/PHASE_U*%
X76073000Y-57785000D03*
%TO.P,Q7,2*%
%TO.N,VDC*%
X73533000Y-57785000D03*
D13*
%TO.P,Q7,1*%
%TO.N,Net-(D12-Pad2)*%
X70993000Y-57785000D03*
%TD*%
%TO.P,R58,2*%
%TO.N,Net-(C42-Pad2)*%
%TA.AperFunction,SMDPad,CuDef*%
G36*
G01*
X173980002Y-135432500D02*
X172729998Y-135432500D01*
G75*
G02*
X172480000Y-135182502I0J249998D01*
G01*
X172480000Y-134557498D01*
G75*
G02*
X172729998Y-134307500I249998J0D01*
G01*
X173980002Y-134307500D01*
G75*
G02*
X174230000Y-134557498I0J-249998D01*
G01*
X174230000Y-135182502D01*
G75*
G02*
X173980002Y-135432500I-249998J0D01*
G01*
G37*
%TD.AperFunction*%
%TO.P,R58,1*%
%TO.N,GND*%
%TA.AperFunction,SMDPad,CuDef*%
G36*
G01*
X173980002Y-138357500D02*
X172729998Y-138357500D01*
G75*
G02*
X172480000Y-138107502I0J249998D01*
G01*
X172480000Y-137482498D01*
G75*
G02*
X172729998Y-137232500I249998J0D01*
G01*
X173980002Y-137232500D01*
G75*
G02*
X174230000Y-137482498I0J-249998D01*
G01*
X174230000Y-138107502D01*
G75*
G02*
X173980002Y-138357500I-249998J0D01*
G01*
G37*
%TD.AperFunction*%
%TD*%
D23*
%TO.N,/PHASE_U*%
X76073000Y-78105000D02*
X76073000Y-80137000D01*
X76073000Y-80137000D02*
X73025000Y-83185000D01*
X73025000Y-83185000D02*
X65405000Y-83185000D01*
X62230000Y-86360000D02*
X62230000Y-88265000D01*
X65405000Y-83185000D02*
X62230000Y-86360000D01*
X61595000Y-88900000D02*
X62230000Y-88265000D01*
X61595000Y-91247500D02*
X61595000Y-88900000D01*
%TO.N,/GND_U*%
X57785000Y-91247500D02*
X52262500Y-91247500D01*
%TO.N,/PHASE_W*%
X183769000Y-78740000D02*
X183769000Y-81661000D01*
X183769000Y-81661000D02*
X181610000Y-83820000D01*
X181610000Y-83820000D02*
X171450000Y-83820000D01*
X168275000Y-86995000D02*
X168275000Y-88265000D01*
X171450000Y-83820000D02*
X168275000Y-86995000D01*
X168148000Y-88392000D02*
X168275000Y-88265000D01*
X168148000Y-92136500D02*
X168148000Y-88392000D01*
%TO.N,/PHASE_V*%
X115570000Y-85725000D02*
X115570000Y-88265000D01*
X118110000Y-83185000D02*
X115570000Y-85725000D01*
X127635000Y-83185000D02*
X118110000Y-83185000D01*
X129794000Y-81026000D02*
X127635000Y-83185000D01*
X129794000Y-78105000D02*
X129794000Y-81026000D01*
X115570000Y-91882500D02*
X115570000Y-88265000D01*
%TO.N,/U_USENSE*%
X61595000Y-94172500D02*
X57785000Y-94172500D01*
X61595000Y-94172500D02*
X62672500Y-94172500D01*
X64770000Y-92075000D02*
X64770000Y-88265000D01*
X62672500Y-94172500D02*
X64770000Y-92075000D01*
%TO.N,/W_USENSE*%
X167955500Y-95254000D02*
X168148000Y-95061500D01*
X164465000Y-95254000D02*
X167955500Y-95254000D01*
X168148000Y-95061500D02*
X169098500Y-95061500D01*
X170815000Y-93345000D02*
X170815000Y-88265000D01*
X169098500Y-95061500D02*
X170815000Y-93345000D01*
%TO.N,/V_USENSE*%
X111760000Y-94807500D02*
X115570000Y-94807500D01*
X115570000Y-94807500D02*
X116647500Y-94807500D01*
X118110000Y-93345000D02*
X118110000Y-88265000D01*
X116647500Y-94807500D02*
X118110000Y-93345000D01*
%TO.N,/GND_W*%
X164465000Y-92329000D02*
X160274000Y-92329000D01*
%TO.N,/GND_V*%
X111760000Y-91882500D02*
X105602500Y-91882500D01*
%TO.N,Net-(C42-Pad2)*%
X173445000Y-134780000D02*
X173355000Y-134870000D01*
X177165000Y-134780000D02*
X173445000Y-134780000D01*
%TO.N,Net-(C45-Pad2)*%
X184150000Y-131002500D02*
X184342500Y-130810000D01*
X184150000Y-134780000D02*
X184150000Y-131002500D01*
%TO.N,Net-(C48-Pad2)*%
X175452500Y-126397500D02*
X175420000Y-126365000D01*
X175452500Y-130175000D02*
X175452500Y-126397500D01*
%TO.N,Net-(C51-Pad2)*%
X160212500Y-127032500D02*
X159545000Y-126365000D01*
X160212500Y-130175000D02*
X160212500Y-127032500D01*
%TD*%
D24*
%TO.N,/GND_W*%
X158486070Y-41702053D02*
X160793154Y-43432366D01*
X161425000Y-93348169D01*
X161425000Y-96520000D01*
X161434607Y-96617545D01*
X161463060Y-96711342D01*
X161509265Y-96797785D01*
X161571447Y-96873553D01*
X161647215Y-96935735D01*
X161733658Y-96981940D01*
X161827455Y-97010393D01*
X161925000Y-97020000D01*
X163296106Y-97020000D01*
X163536381Y-97092886D01*
X163839998Y-97122790D01*
X164080278Y-97122790D01*
X164092535Y-97126508D01*
X164371663Y-97154000D01*
X167862171Y-97154000D01*
X167955500Y-97163192D01*
X168048829Y-97154000D01*
X168048837Y-97154000D01*
X168327965Y-97126508D01*
X168679076Y-97020000D01*
X170315000Y-97020000D01*
X170315000Y-108720000D01*
X147629017Y-108720000D01*
X144592214Y-102646393D01*
X144539997Y-102563443D01*
X144498553Y-102516447D01*
X142740000Y-100757894D01*
X142740000Y-76351023D01*
X145493000Y-76351023D01*
X145493000Y-76810977D01*
X145582733Y-77262094D01*
X145758750Y-77687037D01*
X146014287Y-78069476D01*
X146339524Y-78394713D01*
X146721963Y-78650250D01*
X147146906Y-78826267D01*
X147598023Y-78916000D01*
X148057977Y-78916000D01*
X148509094Y-78826267D01*
X148695238Y-78749164D01*
X148833104Y-78822855D01*
X149078155Y-78897190D01*
X149333000Y-78922290D01*
X151403000Y-78922290D01*
X151657845Y-78897190D01*
X151902896Y-78822855D01*
X152128736Y-78702140D01*
X152326687Y-78539687D01*
X152489140Y-78341736D01*
X152609855Y-78115896D01*
X152684190Y-77870845D01*
X152709290Y-77616000D01*
X152709290Y-75546000D01*
X152684190Y-75291155D01*
X152609855Y-75046104D01*
X152489140Y-74820264D01*
X152326687Y-74622313D01*
X152128736Y-74459860D01*
X151902896Y-74339145D01*
X151657845Y-74264810D01*
X151403000Y-74239710D01*
X149333000Y-74239710D01*
X149078155Y-74264810D01*
X148833104Y-74339145D01*
X148695238Y-74412836D01*
X148509094Y-74335733D01*
X148057977Y-74246000D01*
X147598023Y-74246000D01*
X147146906Y-74335733D01*
X146721963Y-74511750D01*
X146339524Y-74767287D01*
X146014287Y-75092524D01*
X145758750Y-75474963D01*
X145582733Y-75899906D01*
X145493000Y-76351023D01*
X142740000Y-76351023D01*
X142740000Y-66826023D01*
X145493000Y-66826023D01*
X145493000Y-67285977D01*
X145582733Y-67737094D01*
X145758750Y-68162037D01*
X146014287Y-68544476D01*
X146339524Y-68869713D01*
X146721963Y-69125250D01*
X147146906Y-69301267D01*
X147598023Y-69391000D01*
X148057977Y-69391000D01*
X148509094Y-69301267D01*
X148695238Y-69224164D01*
X148833104Y-69297855D01*
X149078155Y-69372190D01*
X149333000Y-69397290D01*
X151403000Y-69397290D01*
X151657845Y-69372190D01*
X151902896Y-69297855D01*
X152128736Y-69177140D01*
X152326687Y-69014687D01*
X152489140Y-68816736D01*
X152609855Y-68590896D01*
X152684190Y-68345845D01*
X152709290Y-68091000D01*
X152709290Y-66021000D01*
X152684190Y-65766155D01*
X152609855Y-65521104D01*
X152489140Y-65295264D01*
X152326687Y-65097313D01*
X152128736Y-64934860D01*
X151902896Y-64814145D01*
X151657845Y-64739810D01*
X151403000Y-64714710D01*
X149333000Y-64714710D01*
X149078155Y-64739810D01*
X148833104Y-64814145D01*
X148695238Y-64887836D01*
X148509094Y-64810733D01*
X148057977Y-64721000D01*
X147598023Y-64721000D01*
X147146906Y-64810733D01*
X146721963Y-64986750D01*
X146339524Y-65242287D01*
X146014287Y-65567524D01*
X145758750Y-65949963D01*
X145582733Y-66374906D01*
X145493000Y-66826023D01*
X142740000Y-66826023D01*
X142740000Y-56666023D01*
X145493000Y-56666023D01*
X145493000Y-57125977D01*
X145582733Y-57577094D01*
X145758750Y-58002037D01*
X146014287Y-58384476D01*
X146339524Y-58709713D01*
X146721963Y-58965250D01*
X147146906Y-59141267D01*
X147598023Y-59231000D01*
X148057977Y-59231000D01*
X148509094Y-59141267D01*
X148695238Y-59064164D01*
X148833104Y-59137855D01*
X149078155Y-59212190D01*
X149333000Y-59237290D01*
X151403000Y-59237290D01*
X151657845Y-59212190D01*
X151902896Y-59137855D01*
X152128736Y-59017140D01*
X152326687Y-58854687D01*
X152489140Y-58656736D01*
X152609855Y-58430896D01*
X152684190Y-58185845D01*
X152709290Y-57931000D01*
X152709290Y-55861000D01*
X152684190Y-55606155D01*
X152609855Y-55361104D01*
X152489140Y-55135264D01*
X152326687Y-54937313D01*
X152128736Y-54774860D01*
X151902896Y-54654145D01*
X151657845Y-54579810D01*
X151403000Y-54554710D01*
X149333000Y-54554710D01*
X149078155Y-54579810D01*
X148833104Y-54654145D01*
X148695238Y-54727836D01*
X148509094Y-54650733D01*
X148057977Y-54561000D01*
X147598023Y-54561000D01*
X147146906Y-54650733D01*
X146721963Y-54826750D01*
X146339524Y-55082287D01*
X146014287Y-55407524D01*
X145758750Y-55789963D01*
X145582733Y-56214906D01*
X145493000Y-56666023D01*
X142740000Y-56666023D01*
X142740000Y-46506023D01*
X145493000Y-46506023D01*
X145493000Y-46965977D01*
X145582733Y-47417094D01*
X145758750Y-47842037D01*
X146014287Y-48224476D01*
X146339524Y-48549713D01*
X146721963Y-48805250D01*
X147146906Y-48981267D01*
X147598023Y-49071000D01*
X148057977Y-49071000D01*
X148509094Y-48981267D01*
X148695238Y-48904164D01*
X148833104Y-48977855D01*
X149078155Y-49052190D01*
X149333000Y-49077290D01*
X151403000Y-49077290D01*
X151657845Y-49052190D01*
X151902896Y-48977855D01*
X152128736Y-48857140D01*
X152326687Y-48694687D01*
X152489140Y-48496736D01*
X152609855Y-48270896D01*
X152684190Y-48025845D01*
X152709290Y-47771000D01*
X152709290Y-45701000D01*
X152684190Y-45446155D01*
X152609855Y-45201104D01*
X152489140Y-44975264D01*
X152326687Y-44777313D01*
X152128736Y-44614860D01*
X151902896Y-44494145D01*
X151657845Y-44419810D01*
X151403000Y-44394710D01*
X149333000Y-44394710D01*
X149078155Y-44419810D01*
X148833104Y-44494145D01*
X148695238Y-44567836D01*
X148509094Y-44490733D01*
X148057977Y-44401000D01*
X147598023Y-44401000D01*
X147146906Y-44490733D01*
X146721963Y-44666750D01*
X146339524Y-44922287D01*
X146014287Y-45247524D01*
X145758750Y-45629963D01*
X145582733Y-46054906D01*
X145493000Y-46506023D01*
X142740000Y-46506023D01*
X142740000Y-39870000D01*
X154821965Y-39870000D01*
X158486070Y-41702053D01*
%TA.AperFunction,Conductor*%
D25*
G36*
X158486070Y-41702053D02*
G01*
X160793154Y-43432366D01*
X161425000Y-93348169D01*
X161425000Y-96520000D01*
X161434607Y-96617545D01*
X161463060Y-96711342D01*
X161509265Y-96797785D01*
X161571447Y-96873553D01*
X161647215Y-96935735D01*
X161733658Y-96981940D01*
X161827455Y-97010393D01*
X161925000Y-97020000D01*
X163296106Y-97020000D01*
X163536381Y-97092886D01*
X163839998Y-97122790D01*
X164080278Y-97122790D01*
X164092535Y-97126508D01*
X164371663Y-97154000D01*
X167862171Y-97154000D01*
X167955500Y-97163192D01*
X168048829Y-97154000D01*
X168048837Y-97154000D01*
X168327965Y-97126508D01*
X168679076Y-97020000D01*
X170315000Y-97020000D01*
X170315000Y-108720000D01*
X147629017Y-108720000D01*
X144592214Y-102646393D01*
X144539997Y-102563443D01*
X144498553Y-102516447D01*
X142740000Y-100757894D01*
X142740000Y-76351023D01*
X145493000Y-76351023D01*
X145493000Y-76810977D01*
X145582733Y-77262094D01*
X145758750Y-77687037D01*
X146014287Y-78069476D01*
X146339524Y-78394713D01*
X146721963Y-78650250D01*
X147146906Y-78826267D01*
X147598023Y-78916000D01*
X148057977Y-78916000D01*
X148509094Y-78826267D01*
X148695238Y-78749164D01*
X148833104Y-78822855D01*
X149078155Y-78897190D01*
X149333000Y-78922290D01*
X151403000Y-78922290D01*
X151657845Y-78897190D01*
X151902896Y-78822855D01*
X152128736Y-78702140D01*
X152326687Y-78539687D01*
X152489140Y-78341736D01*
X152609855Y-78115896D01*
X152684190Y-77870845D01*
X152709290Y-77616000D01*
X152709290Y-75546000D01*
X152684190Y-75291155D01*
X152609855Y-75046104D01*
X152489140Y-74820264D01*
X152326687Y-74622313D01*
X152128736Y-74459860D01*
X151902896Y-74339145D01*
X151657845Y-74264810D01*
X151403000Y-74239710D01*
X149333000Y-74239710D01*
X149078155Y-74264810D01*
X148833104Y-74339145D01*
X148695238Y-74412836D01*
X148509094Y-74335733D01*
X148057977Y-74246000D01*
X147598023Y-74246000D01*
X147146906Y-74335733D01*
X146721963Y-74511750D01*
X146339524Y-74767287D01*
X146014287Y-75092524D01*
X145758750Y-75474963D01*
X145582733Y-75899906D01*
X145493000Y-76351023D01*
X142740000Y-76351023D01*
X142740000Y-66826023D01*
X145493000Y-66826023D01*
X145493000Y-67285977D01*
X145582733Y-67737094D01*
X145758750Y-68162037D01*
X146014287Y-68544476D01*
X146339524Y-68869713D01*
X146721963Y-69125250D01*
X147146906Y-69301267D01*
X147598023Y-69391000D01*
X148057977Y-69391000D01*
X148509094Y-69301267D01*
X148695238Y-69224164D01*
X148833104Y-69297855D01*
X149078155Y-69372190D01*
X149333000Y-69397290D01*
X151403000Y-69397290D01*
X151657845Y-69372190D01*
X151902896Y-69297855D01*
X152128736Y-69177140D01*
X152326687Y-69014687D01*
X152489140Y-68816736D01*
X152609855Y-68590896D01*
X152684190Y-68345845D01*
X152709290Y-68091000D01*
X152709290Y-66021000D01*
X152684190Y-65766155D01*
X152609855Y-65521104D01*
X152489140Y-65295264D01*
X152326687Y-65097313D01*
X152128736Y-64934860D01*
X151902896Y-64814145D01*
X151657845Y-64739810D01*
X151403000Y-64714710D01*
X149333000Y-64714710D01*
X149078155Y-64739810D01*
X148833104Y-64814145D01*
X148695238Y-64887836D01*
X148509094Y-64810733D01*
X148057977Y-64721000D01*
X147598023Y-64721000D01*
X147146906Y-64810733D01*
X146721963Y-64986750D01*
X146339524Y-65242287D01*
X146014287Y-65567524D01*
X145758750Y-65949963D01*
X145582733Y-66374906D01*
X145493000Y-66826023D01*
X142740000Y-66826023D01*
X142740000Y-56666023D01*
X145493000Y-56666023D01*
X145493000Y-57125977D01*
X145582733Y-57577094D01*
X145758750Y-58002037D01*
X146014287Y-58384476D01*
X146339524Y-58709713D01*
X146721963Y-58965250D01*
X147146906Y-59141267D01*
X147598023Y-59231000D01*
X148057977Y-59231000D01*
X148509094Y-59141267D01*
X148695238Y-59064164D01*
X148833104Y-59137855D01*
X149078155Y-59212190D01*
X149333000Y-59237290D01*
X151403000Y-59237290D01*
X151657845Y-59212190D01*
X151902896Y-59137855D01*
X152128736Y-59017140D01*
X152326687Y-58854687D01*
X152489140Y-58656736D01*
X152609855Y-58430896D01*
X152684190Y-58185845D01*
X152709290Y-57931000D01*
X152709290Y-55861000D01*
X152684190Y-55606155D01*
X152609855Y-55361104D01*
X152489140Y-55135264D01*
X152326687Y-54937313D01*
X152128736Y-54774860D01*
X151902896Y-54654145D01*
X151657845Y-54579810D01*
X151403000Y-54554710D01*
X149333000Y-54554710D01*
X149078155Y-54579810D01*
X148833104Y-54654145D01*
X148695238Y-54727836D01*
X148509094Y-54650733D01*
X148057977Y-54561000D01*
X147598023Y-54561000D01*
X147146906Y-54650733D01*
X146721963Y-54826750D01*
X146339524Y-55082287D01*
X146014287Y-55407524D01*
X145758750Y-55789963D01*
X145582733Y-56214906D01*
X145493000Y-56666023D01*
X142740000Y-56666023D01*
X142740000Y-46506023D01*
X145493000Y-46506023D01*
X145493000Y-46965977D01*
X145582733Y-47417094D01*
X145758750Y-47842037D01*
X146014287Y-48224476D01*
X146339524Y-48549713D01*
X146721963Y-48805250D01*
X147146906Y-48981267D01*
X147598023Y-49071000D01*
X148057977Y-49071000D01*
X148509094Y-48981267D01*
X148695238Y-48904164D01*
X148833104Y-48977855D01*
X149078155Y-49052190D01*
X149333000Y-49077290D01*
X151403000Y-49077290D01*
X151657845Y-49052190D01*
X151902896Y-48977855D01*
X152128736Y-48857140D01*
X152326687Y-48694687D01*
X152489140Y-48496736D01*
X152609855Y-48270896D01*
X152684190Y-48025845D01*
X152709290Y-47771000D01*
X152709290Y-45701000D01*
X152684190Y-45446155D01*
X152609855Y-45201104D01*
X152489140Y-44975264D01*
X152326687Y-44777313D01*
X152128736Y-44614860D01*
X151902896Y-44494145D01*
X151657845Y-44419810D01*
X151403000Y-44394710D01*
X149333000Y-44394710D01*
X149078155Y-44419810D01*
X148833104Y-44494145D01*
X148695238Y-44567836D01*
X148509094Y-44490733D01*
X148057977Y-44401000D01*
X147598023Y-44401000D01*
X147146906Y-44490733D01*
X146721963Y-44666750D01*
X146339524Y-44922287D01*
X146014287Y-45247524D01*
X145758750Y-45629963D01*
X145582733Y-46054906D01*
X145493000Y-46506023D01*
X142740000Y-46506023D01*
X142740000Y-39870000D01*
X154821965Y-39870000D01*
X158486070Y-41702053D01*
G37*
%TD.AperFunction*%
%TD*%
D24*
%TO.N,/GND_V*%
X102903588Y-41067052D02*
X105210672Y-42797366D01*
X105842518Y-92713169D01*
X105842518Y-95885000D01*
X105852125Y-95982545D01*
X105880578Y-96076342D01*
X105926783Y-96162785D01*
X105988965Y-96238553D01*
X106064733Y-96300735D01*
X106151176Y-96346940D01*
X106244973Y-96375393D01*
X106342518Y-96385000D01*
X110235025Y-96385000D01*
X110270371Y-96414008D01*
X110539432Y-96557825D01*
X110831381Y-96646386D01*
X111134998Y-96676290D01*
X111375278Y-96676290D01*
X111387535Y-96680008D01*
X111666663Y-96707500D01*
X116554171Y-96707500D01*
X116647500Y-96716692D01*
X116740829Y-96707500D01*
X116740837Y-96707500D01*
X117019965Y-96680008D01*
X117378117Y-96571364D01*
X117708191Y-96394936D01*
X117720298Y-96385000D01*
X124257518Y-96385000D01*
X124257518Y-108085000D01*
X92046535Y-108085000D01*
X89009732Y-102011393D01*
X88957515Y-101928443D01*
X88916071Y-101881447D01*
X87157518Y-100122894D01*
X87157518Y-76986023D01*
X91518000Y-76986023D01*
X91518000Y-77445977D01*
X91607733Y-77897094D01*
X91783750Y-78322037D01*
X92039287Y-78704476D01*
X92364524Y-79029713D01*
X92746963Y-79285250D01*
X93171906Y-79461267D01*
X93623023Y-79551000D01*
X94082977Y-79551000D01*
X94534094Y-79461267D01*
X94720238Y-79384164D01*
X94858104Y-79457855D01*
X95103155Y-79532190D01*
X95358000Y-79557290D01*
X97428000Y-79557290D01*
X97682845Y-79532190D01*
X97927896Y-79457855D01*
X98153736Y-79337140D01*
X98351687Y-79174687D01*
X98514140Y-78976736D01*
X98634855Y-78750896D01*
X98709190Y-78505845D01*
X98734290Y-78251000D01*
X98734290Y-76181000D01*
X98709190Y-75926155D01*
X98634855Y-75681104D01*
X98514140Y-75455264D01*
X98351687Y-75257313D01*
X98153736Y-75094860D01*
X97927896Y-74974145D01*
X97682845Y-74899810D01*
X97428000Y-74874710D01*
X95358000Y-74874710D01*
X95103155Y-74899810D01*
X94858104Y-74974145D01*
X94720238Y-75047836D01*
X94534094Y-74970733D01*
X94082977Y-74881000D01*
X93623023Y-74881000D01*
X93171906Y-74970733D01*
X92746963Y-75146750D01*
X92364524Y-75402287D01*
X92039287Y-75727524D01*
X91783750Y-76109963D01*
X91607733Y-76534906D01*
X91518000Y-76986023D01*
X87157518Y-76986023D01*
X87157518Y-66191023D01*
X91518000Y-66191023D01*
X91518000Y-66650977D01*
X91607733Y-67102094D01*
X91783750Y-67527037D01*
X92039287Y-67909476D01*
X92364524Y-68234713D01*
X92746963Y-68490250D01*
X93171906Y-68666267D01*
X93623023Y-68756000D01*
X94082977Y-68756000D01*
X94534094Y-68666267D01*
X94720238Y-68589164D01*
X94858104Y-68662855D01*
X95103155Y-68737190D01*
X95358000Y-68762290D01*
X97428000Y-68762290D01*
X97682845Y-68737190D01*
X97927896Y-68662855D01*
X98153736Y-68542140D01*
X98351687Y-68379687D01*
X98514140Y-68181736D01*
X98634855Y-67955896D01*
X98709190Y-67710845D01*
X98734290Y-67456000D01*
X98734290Y-65386000D01*
X98709190Y-65131155D01*
X98634855Y-64886104D01*
X98514140Y-64660264D01*
X98351687Y-64462313D01*
X98153736Y-64299860D01*
X97927896Y-64179145D01*
X97682845Y-64104810D01*
X97428000Y-64079710D01*
X95358000Y-64079710D01*
X95103155Y-64104810D01*
X94858104Y-64179145D01*
X94720238Y-64252836D01*
X94534094Y-64175733D01*
X94082977Y-64086000D01*
X93623023Y-64086000D01*
X93171906Y-64175733D01*
X92746963Y-64351750D01*
X92364524Y-64607287D01*
X92039287Y-64932524D01*
X91783750Y-65314963D01*
X91607733Y-65739906D01*
X91518000Y-66191023D01*
X87157518Y-66191023D01*
X87157518Y-56031023D01*
X91518000Y-56031023D01*
X91518000Y-56490977D01*
X91607733Y-56942094D01*
X91783750Y-57367037D01*
X92039287Y-57749476D01*
X92364524Y-58074713D01*
X92746963Y-58330250D01*
X93171906Y-58506267D01*
X93623023Y-58596000D01*
X94082977Y-58596000D01*
X94534094Y-58506267D01*
X94720238Y-58429164D01*
X94858104Y-58502855D01*
X95103155Y-58577190D01*
X95358000Y-58602290D01*
X97428000Y-58602290D01*
X97682845Y-58577190D01*
X97927896Y-58502855D01*
X98153736Y-58382140D01*
X98351687Y-58219687D01*
X98514140Y-58021736D01*
X98634855Y-57795896D01*
X98709190Y-57550845D01*
X98734290Y-57296000D01*
X98734290Y-55226000D01*
X98709190Y-54971155D01*
X98634855Y-54726104D01*
X98514140Y-54500264D01*
X98351687Y-54302313D01*
X98153736Y-54139860D01*
X97927896Y-54019145D01*
X97682845Y-53944810D01*
X97428000Y-53919710D01*
X95358000Y-53919710D01*
X95103155Y-53944810D01*
X94858104Y-54019145D01*
X94720238Y-54092836D01*
X94534094Y-54015733D01*
X94082977Y-53926000D01*
X93623023Y-53926000D01*
X93171906Y-54015733D01*
X92746963Y-54191750D01*
X92364524Y-54447287D01*
X92039287Y-54772524D01*
X91783750Y-55154963D01*
X91607733Y-55579906D01*
X91518000Y-56031023D01*
X87157518Y-56031023D01*
X87157518Y-45871023D01*
X91518000Y-45871023D01*
X91518000Y-46330977D01*
X91607733Y-46782094D01*
X91783750Y-47207037D01*
X92039287Y-47589476D01*
X92364524Y-47914713D01*
X92746963Y-48170250D01*
X93171906Y-48346267D01*
X93623023Y-48436000D01*
X94082977Y-48436000D01*
X94534094Y-48346267D01*
X94720238Y-48269164D01*
X94858104Y-48342855D01*
X95103155Y-48417190D01*
X95358000Y-48442290D01*
X97428000Y-48442290D01*
X97682845Y-48417190D01*
X97927896Y-48342855D01*
X98153736Y-48222140D01*
X98351687Y-48059687D01*
X98514140Y-47861736D01*
X98634855Y-47635896D01*
X98709190Y-47390845D01*
X98734290Y-47136000D01*
X98734290Y-45066000D01*
X98709190Y-44811155D01*
X98634855Y-44566104D01*
X98514140Y-44340264D01*
X98351687Y-44142313D01*
X98153736Y-43979860D01*
X97927896Y-43859145D01*
X97682845Y-43784810D01*
X97428000Y-43759710D01*
X95358000Y-43759710D01*
X95103155Y-43784810D01*
X94858104Y-43859145D01*
X94720238Y-43932836D01*
X94534094Y-43855733D01*
X94082977Y-43766000D01*
X93623023Y-43766000D01*
X93171906Y-43855733D01*
X92746963Y-44031750D01*
X92364524Y-44287287D01*
X92039287Y-44612524D01*
X91783750Y-44994963D01*
X91607733Y-45419906D01*
X91518000Y-45871023D01*
X87157518Y-45871023D01*
X87157518Y-39235000D01*
X99239483Y-39235000D01*
X102903588Y-41067052D01*
%TA.AperFunction,Conductor*%
D25*
G36*
X102903588Y-41067052D02*
G01*
X105210672Y-42797366D01*
X105842518Y-92713169D01*
X105842518Y-95885000D01*
X105852125Y-95982545D01*
X105880578Y-96076342D01*
X105926783Y-96162785D01*
X105988965Y-96238553D01*
X106064733Y-96300735D01*
X106151176Y-96346940D01*
X106244973Y-96375393D01*
X106342518Y-96385000D01*
X110235025Y-96385000D01*
X110270371Y-96414008D01*
X110539432Y-96557825D01*
X110831381Y-96646386D01*
X111134998Y-96676290D01*
X111375278Y-96676290D01*
X111387535Y-96680008D01*
X111666663Y-96707500D01*
X116554171Y-96707500D01*
X116647500Y-96716692D01*
X116740829Y-96707500D01*
X116740837Y-96707500D01*
X117019965Y-96680008D01*
X117378117Y-96571364D01*
X117708191Y-96394936D01*
X117720298Y-96385000D01*
X124257518Y-96385000D01*
X124257518Y-108085000D01*
X92046535Y-108085000D01*
X89009732Y-102011393D01*
X88957515Y-101928443D01*
X88916071Y-101881447D01*
X87157518Y-100122894D01*
X87157518Y-76986023D01*
X91518000Y-76986023D01*
X91518000Y-77445977D01*
X91607733Y-77897094D01*
X91783750Y-78322037D01*
X92039287Y-78704476D01*
X92364524Y-79029713D01*
X92746963Y-79285250D01*
X93171906Y-79461267D01*
X93623023Y-79551000D01*
X94082977Y-79551000D01*
X94534094Y-79461267D01*
X94720238Y-79384164D01*
X94858104Y-79457855D01*
X95103155Y-79532190D01*
X95358000Y-79557290D01*
X97428000Y-79557290D01*
X97682845Y-79532190D01*
X97927896Y-79457855D01*
X98153736Y-79337140D01*
X98351687Y-79174687D01*
X98514140Y-78976736D01*
X98634855Y-78750896D01*
X98709190Y-78505845D01*
X98734290Y-78251000D01*
X98734290Y-76181000D01*
X98709190Y-75926155D01*
X98634855Y-75681104D01*
X98514140Y-75455264D01*
X98351687Y-75257313D01*
X98153736Y-75094860D01*
X97927896Y-74974145D01*
X97682845Y-74899810D01*
X97428000Y-74874710D01*
X95358000Y-74874710D01*
X95103155Y-74899810D01*
X94858104Y-74974145D01*
X94720238Y-75047836D01*
X94534094Y-74970733D01*
X94082977Y-74881000D01*
X93623023Y-74881000D01*
X93171906Y-74970733D01*
X92746963Y-75146750D01*
X92364524Y-75402287D01*
X92039287Y-75727524D01*
X91783750Y-76109963D01*
X91607733Y-76534906D01*
X91518000Y-76986023D01*
X87157518Y-76986023D01*
X87157518Y-66191023D01*
X91518000Y-66191023D01*
X91518000Y-66650977D01*
X91607733Y-67102094D01*
X91783750Y-67527037D01*
X92039287Y-67909476D01*
X92364524Y-68234713D01*
X92746963Y-68490250D01*
X93171906Y-68666267D01*
X93623023Y-68756000D01*
X94082977Y-68756000D01*
X94534094Y-68666267D01*
X94720238Y-68589164D01*
X94858104Y-68662855D01*
X95103155Y-68737190D01*
X95358000Y-68762290D01*
X97428000Y-68762290D01*
X97682845Y-68737190D01*
X97927896Y-68662855D01*
X98153736Y-68542140D01*
X98351687Y-68379687D01*
X98514140Y-68181736D01*
X98634855Y-67955896D01*
X98709190Y-67710845D01*
X98734290Y-67456000D01*
X98734290Y-65386000D01*
X98709190Y-65131155D01*
X98634855Y-64886104D01*
X98514140Y-64660264D01*
X98351687Y-64462313D01*
X98153736Y-64299860D01*
X97927896Y-64179145D01*
X97682845Y-64104810D01*
X97428000Y-64079710D01*
X95358000Y-64079710D01*
X95103155Y-64104810D01*
X94858104Y-64179145D01*
X94720238Y-64252836D01*
X94534094Y-64175733D01*
X94082977Y-64086000D01*
X93623023Y-64086000D01*
X93171906Y-64175733D01*
X92746963Y-64351750D01*
X92364524Y-64607287D01*
X92039287Y-64932524D01*
X91783750Y-65314963D01*
X91607733Y-65739906D01*
X91518000Y-66191023D01*
X87157518Y-66191023D01*
X87157518Y-56031023D01*
X91518000Y-56031023D01*
X91518000Y-56490977D01*
X91607733Y-56942094D01*
X91783750Y-57367037D01*
X92039287Y-57749476D01*
X92364524Y-58074713D01*
X92746963Y-58330250D01*
X93171906Y-58506267D01*
X93623023Y-58596000D01*
X94082977Y-58596000D01*
X94534094Y-58506267D01*
X94720238Y-58429164D01*
X94858104Y-58502855D01*
X95103155Y-58577190D01*
X95358000Y-58602290D01*
X97428000Y-58602290D01*
X97682845Y-58577190D01*
X97927896Y-58502855D01*
X98153736Y-58382140D01*
X98351687Y-58219687D01*
X98514140Y-58021736D01*
X98634855Y-57795896D01*
X98709190Y-57550845D01*
X98734290Y-57296000D01*
X98734290Y-55226000D01*
X98709190Y-54971155D01*
X98634855Y-54726104D01*
X98514140Y-54500264D01*
X98351687Y-54302313D01*
X98153736Y-54139860D01*
X97927896Y-54019145D01*
X97682845Y-53944810D01*
X97428000Y-53919710D01*
X95358000Y-53919710D01*
X95103155Y-53944810D01*
X94858104Y-54019145D01*
X94720238Y-54092836D01*
X94534094Y-54015733D01*
X94082977Y-53926000D01*
X93623023Y-53926000D01*
X93171906Y-54015733D01*
X92746963Y-54191750D01*
X92364524Y-54447287D01*
X92039287Y-54772524D01*
X91783750Y-55154963D01*
X91607733Y-55579906D01*
X91518000Y-56031023D01*
X87157518Y-56031023D01*
X87157518Y-45871023D01*
X91518000Y-45871023D01*
X91518000Y-46330977D01*
X91607733Y-46782094D01*
X91783750Y-47207037D01*
X92039287Y-47589476D01*
X92364524Y-47914713D01*
X92746963Y-48170250D01*
X93171906Y-48346267D01*
X93623023Y-48436000D01*
X94082977Y-48436000D01*
X94534094Y-48346267D01*
X94720238Y-48269164D01*
X94858104Y-48342855D01*
X95103155Y-48417190D01*
X95358000Y-48442290D01*
X97428000Y-48442290D01*
X97682845Y-48417190D01*
X97927896Y-48342855D01*
X98153736Y-48222140D01*
X98351687Y-48059687D01*
X98514140Y-47861736D01*
X98634855Y-47635896D01*
X98709190Y-47390845D01*
X98734290Y-47136000D01*
X98734290Y-45066000D01*
X98709190Y-44811155D01*
X98634855Y-44566104D01*
X98514140Y-44340264D01*
X98351687Y-44142313D01*
X98153736Y-43979860D01*
X97927896Y-43859145D01*
X97682845Y-43784810D01*
X97428000Y-43759710D01*
X95358000Y-43759710D01*
X95103155Y-43784810D01*
X94858104Y-43859145D01*
X94720238Y-43932836D01*
X94534094Y-43855733D01*
X94082977Y-43766000D01*
X93623023Y-43766000D01*
X93171906Y-43855733D01*
X92746963Y-44031750D01*
X92364524Y-44287287D01*
X92039287Y-44612524D01*
X91783750Y-44994963D01*
X91607733Y-45419906D01*
X91518000Y-45871023D01*
X87157518Y-45871023D01*
X87157518Y-39235000D01*
X99239483Y-39235000D01*
X102903588Y-41067052D01*
G37*
%TD.AperFunction*%
%TD*%
D24*
%TO.N,/GND_U*%
X50636070Y-41242053D02*
X52943154Y-42972366D01*
X53575000Y-92888169D01*
X53575000Y-96060000D01*
X53584607Y-96157545D01*
X53613060Y-96251342D01*
X53659265Y-96337785D01*
X53721447Y-96413553D01*
X53797215Y-96475735D01*
X53883658Y-96521940D01*
X53977455Y-96550393D01*
X54075000Y-96560000D01*
X71990000Y-96560000D01*
X71990000Y-108260000D01*
X43483417Y-108260000D01*
X43490000Y-108226907D01*
X43490000Y-107823093D01*
X43411220Y-107427037D01*
X43256686Y-107053961D01*
X43032339Y-106718201D01*
X42746799Y-106432661D01*
X42411039Y-106208314D01*
X42037963Y-106053780D01*
X41641907Y-105975000D01*
X41238093Y-105975000D01*
X40842037Y-106053780D01*
X40468961Y-106208314D01*
X40133201Y-106432661D01*
X39847661Y-106718201D01*
X39623314Y-107053961D01*
X39468780Y-107427037D01*
X39438543Y-107579051D01*
X36742214Y-102186393D01*
X36689997Y-102103443D01*
X36648553Y-102056447D01*
X34890000Y-100297894D01*
X34890000Y-77621023D01*
X37543000Y-77621023D01*
X37543000Y-78080977D01*
X37632733Y-78532094D01*
X37808750Y-78957037D01*
X38064287Y-79339476D01*
X38389524Y-79664713D01*
X38771963Y-79920250D01*
X39196906Y-80096267D01*
X39648023Y-80186000D01*
X40107977Y-80186000D01*
X40559094Y-80096267D01*
X40745238Y-80019164D01*
X40883104Y-80092855D01*
X41128155Y-80167190D01*
X41383000Y-80192290D01*
X43453000Y-80192290D01*
X43707845Y-80167190D01*
X43952896Y-80092855D01*
X44178736Y-79972140D01*
X44376687Y-79809687D01*
X44539140Y-79611736D01*
X44659855Y-79385896D01*
X44734190Y-79140845D01*
X44759290Y-78886000D01*
X44759290Y-76816000D01*
X44734190Y-76561155D01*
X44659855Y-76316104D01*
X44539140Y-76090264D01*
X44376687Y-75892313D01*
X44178736Y-75729860D01*
X43952896Y-75609145D01*
X43707845Y-75534810D01*
X43453000Y-75509710D01*
X41383000Y-75509710D01*
X41128155Y-75534810D01*
X40883104Y-75609145D01*
X40745238Y-75682836D01*
X40559094Y-75605733D01*
X40107977Y-75516000D01*
X39648023Y-75516000D01*
X39196906Y-75605733D01*
X38771963Y-75781750D01*
X38389524Y-76037287D01*
X38064287Y-76362524D01*
X37808750Y-76744963D01*
X37632733Y-77169906D01*
X37543000Y-77621023D01*
X34890000Y-77621023D01*
X34890000Y-66826023D01*
X37543000Y-66826023D01*
X37543000Y-67285977D01*
X37632733Y-67737094D01*
X37808750Y-68162037D01*
X38064287Y-68544476D01*
X38389524Y-68869713D01*
X38771963Y-69125250D01*
X39196906Y-69301267D01*
X39648023Y-69391000D01*
X40107977Y-69391000D01*
X40559094Y-69301267D01*
X40745238Y-69224164D01*
X40883104Y-69297855D01*
X41128155Y-69372190D01*
X41383000Y-69397290D01*
X43453000Y-69397290D01*
X43707845Y-69372190D01*
X43952896Y-69297855D01*
X44178736Y-69177140D01*
X44376687Y-69014687D01*
X44539140Y-68816736D01*
X44659855Y-68590896D01*
X44734190Y-68345845D01*
X44759290Y-68091000D01*
X44759290Y-66021000D01*
X44734190Y-65766155D01*
X44659855Y-65521104D01*
X44539140Y-65295264D01*
X44376687Y-65097313D01*
X44178736Y-64934860D01*
X43952896Y-64814145D01*
X43707845Y-64739810D01*
X43453000Y-64714710D01*
X41383000Y-64714710D01*
X41128155Y-64739810D01*
X40883104Y-64814145D01*
X40745238Y-64887836D01*
X40559094Y-64810733D01*
X40107977Y-64721000D01*
X39648023Y-64721000D01*
X39196906Y-64810733D01*
X38771963Y-64986750D01*
X38389524Y-65242287D01*
X38064287Y-65567524D01*
X37808750Y-65949963D01*
X37632733Y-66374906D01*
X37543000Y-66826023D01*
X34890000Y-66826023D01*
X34890000Y-56031023D01*
X37543000Y-56031023D01*
X37543000Y-56490977D01*
X37632733Y-56942094D01*
X37808750Y-57367037D01*
X38064287Y-57749476D01*
X38389524Y-58074713D01*
X38771963Y-58330250D01*
X39196906Y-58506267D01*
X39648023Y-58596000D01*
X40107977Y-58596000D01*
X40559094Y-58506267D01*
X40745238Y-58429164D01*
X40883104Y-58502855D01*
X41128155Y-58577190D01*
X41383000Y-58602290D01*
X43453000Y-58602290D01*
X43707845Y-58577190D01*
X43952896Y-58502855D01*
X44178736Y-58382140D01*
X44376687Y-58219687D01*
X44539140Y-58021736D01*
X44659855Y-57795896D01*
X44734190Y-57550845D01*
X44759290Y-57296000D01*
X44759290Y-55226000D01*
X44734190Y-54971155D01*
X44659855Y-54726104D01*
X44539140Y-54500264D01*
X44376687Y-54302313D01*
X44178736Y-54139860D01*
X43952896Y-54019145D01*
X43707845Y-53944810D01*
X43453000Y-53919710D01*
X41383000Y-53919710D01*
X41128155Y-53944810D01*
X40883104Y-54019145D01*
X40745238Y-54092836D01*
X40559094Y-54015733D01*
X40107977Y-53926000D01*
X39648023Y-53926000D01*
X39196906Y-54015733D01*
X38771963Y-54191750D01*
X38389524Y-54447287D01*
X38064287Y-54772524D01*
X37808750Y-55154963D01*
X37632733Y-55579906D01*
X37543000Y-56031023D01*
X34890000Y-56031023D01*
X34890000Y-45236023D01*
X37543000Y-45236023D01*
X37543000Y-45695977D01*
X37632733Y-46147094D01*
X37808750Y-46572037D01*
X38064287Y-46954476D01*
X38389524Y-47279713D01*
X38771963Y-47535250D01*
X39196906Y-47711267D01*
X39648023Y-47801000D01*
X40107977Y-47801000D01*
X40559094Y-47711267D01*
X40745238Y-47634164D01*
X40883104Y-47707855D01*
X41128155Y-47782190D01*
X41383000Y-47807290D01*
X43453000Y-47807290D01*
X43707845Y-47782190D01*
X43952896Y-47707855D01*
X44178736Y-47587140D01*
X44376687Y-47424687D01*
X44539140Y-47226736D01*
X44659855Y-47000896D01*
X44734190Y-46755845D01*
X44759290Y-46501000D01*
X44759290Y-44431000D01*
X44734190Y-44176155D01*
X44659855Y-43931104D01*
X44539140Y-43705264D01*
X44376687Y-43507313D01*
X44178736Y-43344860D01*
X43952896Y-43224145D01*
X43707845Y-43149810D01*
X43453000Y-43124710D01*
X41383000Y-43124710D01*
X41128155Y-43149810D01*
X40883104Y-43224145D01*
X40745238Y-43297836D01*
X40559094Y-43220733D01*
X40107977Y-43131000D01*
X39648023Y-43131000D01*
X39196906Y-43220733D01*
X38771963Y-43396750D01*
X38389524Y-43652287D01*
X38064287Y-43977524D01*
X37808750Y-44359963D01*
X37632733Y-44784906D01*
X37543000Y-45236023D01*
X34890000Y-45236023D01*
X34890000Y-39410000D01*
X46971965Y-39410000D01*
X50636070Y-41242053D01*
%TA.AperFunction,Conductor*%
D25*
G36*
X50636070Y-41242053D02*
G01*
X52943154Y-42972366D01*
X53575000Y-92888169D01*
X53575000Y-96060000D01*
X53584607Y-96157545D01*
X53613060Y-96251342D01*
X53659265Y-96337785D01*
X53721447Y-96413553D01*
X53797215Y-96475735D01*
X53883658Y-96521940D01*
X53977455Y-96550393D01*
X54075000Y-96560000D01*
X71990000Y-96560000D01*
X71990000Y-108260000D01*
X43483417Y-108260000D01*
X43490000Y-108226907D01*
X43490000Y-107823093D01*
X43411220Y-107427037D01*
X43256686Y-107053961D01*
X43032339Y-106718201D01*
X42746799Y-106432661D01*
X42411039Y-106208314D01*
X42037963Y-106053780D01*
X41641907Y-105975000D01*
X41238093Y-105975000D01*
X40842037Y-106053780D01*
X40468961Y-106208314D01*
X40133201Y-106432661D01*
X39847661Y-106718201D01*
X39623314Y-107053961D01*
X39468780Y-107427037D01*
X39438543Y-107579051D01*
X36742214Y-102186393D01*
X36689997Y-102103443D01*
X36648553Y-102056447D01*
X34890000Y-100297894D01*
X34890000Y-77621023D01*
X37543000Y-77621023D01*
X37543000Y-78080977D01*
X37632733Y-78532094D01*
X37808750Y-78957037D01*
X38064287Y-79339476D01*
X38389524Y-79664713D01*
X38771963Y-79920250D01*
X39196906Y-80096267D01*
X39648023Y-80186000D01*
X40107977Y-80186000D01*
X40559094Y-80096267D01*
X40745238Y-80019164D01*
X40883104Y-80092855D01*
X41128155Y-80167190D01*
X41383000Y-80192290D01*
X43453000Y-80192290D01*
X43707845Y-80167190D01*
X43952896Y-80092855D01*
X44178736Y-79972140D01*
X44376687Y-79809687D01*
X44539140Y-79611736D01*
X44659855Y-79385896D01*
X44734190Y-79140845D01*
X44759290Y-78886000D01*
X44759290Y-76816000D01*
X44734190Y-76561155D01*
X44659855Y-76316104D01*
X44539140Y-76090264D01*
X44376687Y-75892313D01*
X44178736Y-75729860D01*
X43952896Y-75609145D01*
X43707845Y-75534810D01*
X43453000Y-75509710D01*
X41383000Y-75509710D01*
X41128155Y-75534810D01*
X40883104Y-75609145D01*
X40745238Y-75682836D01*
X40559094Y-75605733D01*
X40107977Y-75516000D01*
X39648023Y-75516000D01*
X39196906Y-75605733D01*
X38771963Y-75781750D01*
X38389524Y-76037287D01*
X38064287Y-76362524D01*
X37808750Y-76744963D01*
X37632733Y-77169906D01*
X37543000Y-77621023D01*
X34890000Y-77621023D01*
X34890000Y-66826023D01*
X37543000Y-66826023D01*
X37543000Y-67285977D01*
X37632733Y-67737094D01*
X37808750Y-68162037D01*
X38064287Y-68544476D01*
X38389524Y-68869713D01*
X38771963Y-69125250D01*
X39196906Y-69301267D01*
X39648023Y-69391000D01*
X40107977Y-69391000D01*
X40559094Y-69301267D01*
X40745238Y-69224164D01*
X40883104Y-69297855D01*
X41128155Y-69372190D01*
X41383000Y-69397290D01*
X43453000Y-69397290D01*
X43707845Y-69372190D01*
X43952896Y-69297855D01*
X44178736Y-69177140D01*
X44376687Y-69014687D01*
X44539140Y-68816736D01*
X44659855Y-68590896D01*
X44734190Y-68345845D01*
X44759290Y-68091000D01*
X44759290Y-66021000D01*
X44734190Y-65766155D01*
X44659855Y-65521104D01*
X44539140Y-65295264D01*
X44376687Y-65097313D01*
X44178736Y-64934860D01*
X43952896Y-64814145D01*
X43707845Y-64739810D01*
X43453000Y-64714710D01*
X41383000Y-64714710D01*
X41128155Y-64739810D01*
X40883104Y-64814145D01*
X40745238Y-64887836D01*
X40559094Y-64810733D01*
X40107977Y-64721000D01*
X39648023Y-64721000D01*
X39196906Y-64810733D01*
X38771963Y-64986750D01*
X38389524Y-65242287D01*
X38064287Y-65567524D01*
X37808750Y-65949963D01*
X37632733Y-66374906D01*
X37543000Y-66826023D01*
X34890000Y-66826023D01*
X34890000Y-56031023D01*
X37543000Y-56031023D01*
X37543000Y-56490977D01*
X37632733Y-56942094D01*
X37808750Y-57367037D01*
X38064287Y-57749476D01*
X38389524Y-58074713D01*
X38771963Y-58330250D01*
X39196906Y-58506267D01*
X39648023Y-58596000D01*
X40107977Y-58596000D01*
X40559094Y-58506267D01*
X40745238Y-58429164D01*
X40883104Y-58502855D01*
X41128155Y-58577190D01*
X41383000Y-58602290D01*
X43453000Y-58602290D01*
X43707845Y-58577190D01*
X43952896Y-58502855D01*
X44178736Y-58382140D01*
X44376687Y-58219687D01*
X44539140Y-58021736D01*
X44659855Y-57795896D01*
X44734190Y-57550845D01*
X44759290Y-57296000D01*
X44759290Y-55226000D01*
X44734190Y-54971155D01*
X44659855Y-54726104D01*
X44539140Y-54500264D01*
X44376687Y-54302313D01*
X44178736Y-54139860D01*
X43952896Y-54019145D01*
X43707845Y-53944810D01*
X43453000Y-53919710D01*
X41383000Y-53919710D01*
X41128155Y-53944810D01*
X40883104Y-54019145D01*
X40745238Y-54092836D01*
X40559094Y-54015733D01*
X40107977Y-53926000D01*
X39648023Y-53926000D01*
X39196906Y-54015733D01*
X38771963Y-54191750D01*
X38389524Y-54447287D01*
X38064287Y-54772524D01*
X37808750Y-55154963D01*
X37632733Y-55579906D01*
X37543000Y-56031023D01*
X34890000Y-56031023D01*
X34890000Y-45236023D01*
X37543000Y-45236023D01*
X37543000Y-45695977D01*
X37632733Y-46147094D01*
X37808750Y-46572037D01*
X38064287Y-46954476D01*
X38389524Y-47279713D01*
X38771963Y-47535250D01*
X39196906Y-47711267D01*
X39648023Y-47801000D01*
X40107977Y-47801000D01*
X40559094Y-47711267D01*
X40745238Y-47634164D01*
X40883104Y-47707855D01*
X41128155Y-47782190D01*
X41383000Y-47807290D01*
X43453000Y-47807290D01*
X43707845Y-47782190D01*
X43952896Y-47707855D01*
X44178736Y-47587140D01*
X44376687Y-47424687D01*
X44539140Y-47226736D01*
X44659855Y-47000896D01*
X44734190Y-46755845D01*
X44759290Y-46501000D01*
X44759290Y-44431000D01*
X44734190Y-44176155D01*
X44659855Y-43931104D01*
X44539140Y-43705264D01*
X44376687Y-43507313D01*
X44178736Y-43344860D01*
X43952896Y-43224145D01*
X43707845Y-43149810D01*
X43453000Y-43124710D01*
X41383000Y-43124710D01*
X41128155Y-43149810D01*
X40883104Y-43224145D01*
X40745238Y-43297836D01*
X40559094Y-43220733D01*
X40107977Y-43131000D01*
X39648023Y-43131000D01*
X39196906Y-43220733D01*
X38771963Y-43396750D01*
X38389524Y-43652287D01*
X38064287Y-43977524D01*
X37808750Y-44359963D01*
X37632733Y-44784906D01*
X37543000Y-45236023D01*
X34890000Y-45236023D01*
X34890000Y-39410000D01*
X46971965Y-39410000D01*
X50636070Y-41242053D01*
G37*
%TD.AperFunction*%
%TD*%
D24*
%TO.N,GND*%
X116975000Y-117475000D02*
X116984607Y-117572545D01*
X117013060Y-117666342D01*
X117059265Y-117752785D01*
X117121447Y-117828553D01*
X117197215Y-117890735D01*
X117283658Y-117936940D01*
X117377455Y-117965393D01*
X117475000Y-117975000D01*
X154940000Y-117975000D01*
X155037545Y-117965393D01*
X155131342Y-117936940D01*
X155217785Y-117890735D01*
X155293553Y-117828553D01*
X155355735Y-117752785D01*
X155401940Y-117666342D01*
X155430393Y-117572545D01*
X155440000Y-117475000D01*
X155440000Y-112260000D01*
X169680000Y-112260000D01*
X169680000Y-120650000D01*
X169689607Y-120747545D01*
X169718060Y-120841342D01*
X169764265Y-120927785D01*
X169826447Y-121003553D01*
X169902215Y-121065735D01*
X169988658Y-121111940D01*
X170082455Y-121140393D01*
X170180000Y-121150000D01*
X171463954Y-121150000D01*
X171587512Y-121216043D01*
X171831383Y-121290021D01*
X172085000Y-121315000D01*
X193820001Y-121315000D01*
X193820001Y-147465000D01*
X25890000Y-147465000D01*
X25890000Y-144573168D01*
X175065000Y-144573168D01*
X175065000Y-144986832D01*
X175145702Y-145392547D01*
X175304004Y-145774723D01*
X175533823Y-146118672D01*
X175826328Y-146411177D01*
X176170277Y-146640996D01*
X176552453Y-146799298D01*
X176958168Y-146880000D01*
X177371832Y-146880000D01*
X177777547Y-146799298D01*
X178159723Y-146640996D01*
X178503672Y-146411177D01*
X178796177Y-146118672D01*
X179025996Y-145774723D01*
X179184298Y-145392547D01*
X179265000Y-144986832D01*
X179265000Y-144573168D01*
X182050000Y-144573168D01*
X182050000Y-144986832D01*
X182130702Y-145392547D01*
X182289004Y-145774723D01*
X182518823Y-146118672D01*
X182811328Y-146411177D01*
X183155277Y-146640996D01*
X183537453Y-146799298D01*
X183943168Y-146880000D01*
X184356832Y-146880000D01*
X184762547Y-146799298D01*
X185144723Y-146640996D01*
X185488672Y-146411177D01*
X185781177Y-146118672D01*
X186010996Y-145774723D01*
X186169298Y-145392547D01*
X186250000Y-144986832D01*
X186250000Y-144573168D01*
X186169298Y-144167453D01*
X186010996Y-143785277D01*
X185781177Y-143441328D01*
X185488672Y-143148823D01*
X185144723Y-142919004D01*
X184762547Y-142760702D01*
X184356832Y-142680000D01*
X183943168Y-142680000D01*
X183537453Y-142760702D01*
X183155277Y-142919004D01*
X182811328Y-143148823D01*
X182518823Y-143441328D01*
X182289004Y-143785277D01*
X182130702Y-144167453D01*
X182050000Y-144573168D01*
X179265000Y-144573168D01*
X179184298Y-144167453D01*
X179025996Y-143785277D01*
X178796177Y-143441328D01*
X178503672Y-143148823D01*
X178159723Y-142919004D01*
X177777547Y-142760702D01*
X177371832Y-142680000D01*
X176958168Y-142680000D01*
X176552453Y-142760702D01*
X176170277Y-142919004D01*
X175826328Y-143148823D01*
X175533823Y-143441328D01*
X175304004Y-143785277D01*
X175145702Y-144167453D01*
X175065000Y-144573168D01*
X25890000Y-144573168D01*
X25890000Y-139473470D01*
X65645000Y-139473470D01*
X65645000Y-139926530D01*
X65733387Y-140370885D01*
X65906766Y-140789459D01*
X66158473Y-141166165D01*
X66478835Y-141486527D01*
X66855541Y-141738234D01*
X67274115Y-141911613D01*
X67718470Y-142000000D01*
X68171530Y-142000000D01*
X68615885Y-141911613D01*
X69034459Y-141738234D01*
X69411165Y-141486527D01*
X69731527Y-141166165D01*
X69983234Y-140789459D01*
X70156613Y-140370885D01*
X70245000Y-139926530D01*
X70245000Y-139473470D01*
X85965000Y-139473470D01*
X85965000Y-139926530D01*
X86053387Y-140370885D01*
X86226766Y-140789459D01*
X86478473Y-141166165D01*
X86798835Y-141486527D01*
X87175541Y-141738234D01*
X87594115Y-141911613D01*
X88038470Y-142000000D01*
X88491530Y-142000000D01*
X88935885Y-141911613D01*
X89354459Y-141738234D01*
X89731165Y-141486527D01*
X90051527Y-141166165D01*
X90303234Y-140789459D01*
X90476613Y-140370885D01*
X90565000Y-139926530D01*
X90565000Y-139473470D01*
X91045000Y-139473470D01*
X91045000Y-139926530D01*
X91133387Y-140370885D01*
X91306766Y-140789459D01*
X91558473Y-141166165D01*
X91878835Y-141486527D01*
X92255541Y-141738234D01*
X92674115Y-141911613D01*
X93118470Y-142000000D01*
X93571530Y-142000000D01*
X94015885Y-141911613D01*
X94434459Y-141738234D01*
X94811165Y-141486527D01*
X95131527Y-141166165D01*
X95383234Y-140789459D01*
X95556613Y-140370885D01*
X95645000Y-139926530D01*
X95645000Y-139473470D01*
X111365000Y-139473470D01*
X111365000Y-139926530D01*
X111453387Y-140370885D01*
X111626766Y-140789459D01*
X111878473Y-141166165D01*
X112198835Y-141486527D01*
X112575541Y-141738234D01*
X112994115Y-141911613D01*
X113438470Y-142000000D01*
X113891530Y-142000000D01*
X114335885Y-141911613D01*
X114754459Y-141738234D01*
X115131165Y-141486527D01*
X115451527Y-141166165D01*
X115703234Y-140789459D01*
X115876613Y-140370885D01*
X115965000Y-139926530D01*
X115965000Y-139473470D01*
X131685000Y-139473470D01*
X131685000Y-139926530D01*
X131773387Y-140370885D01*
X131946766Y-140789459D01*
X132198473Y-141166165D01*
X132518835Y-141486527D01*
X132895541Y-141738234D01*
X133314115Y-141911613D01*
X133758470Y-142000000D01*
X134211530Y-142000000D01*
X134655885Y-141911613D01*
X135074459Y-141738234D01*
X135451165Y-141486527D01*
X135771527Y-141166165D01*
X136023234Y-140789459D01*
X136196613Y-140370885D01*
X136285000Y-139926530D01*
X136285000Y-139473470D01*
X152005000Y-139473470D01*
X152005000Y-139926530D01*
X152093387Y-140370885D01*
X152266766Y-140789459D01*
X152518473Y-141166165D01*
X152838835Y-141486527D01*
X153215541Y-141738234D01*
X153634115Y-141911613D01*
X154078470Y-142000000D01*
X154531530Y-142000000D01*
X154975885Y-141911613D01*
X155394459Y-141738234D01*
X155771165Y-141486527D01*
X156091527Y-141166165D01*
X156343234Y-140789459D01*
X156516613Y-140370885D01*
X156605000Y-139926530D01*
X156605000Y-139473470D01*
X156516613Y-139029115D01*
X156343234Y-138610541D01*
X156091527Y-138233835D01*
X155771165Y-137913473D01*
X155394459Y-137661766D01*
X154975885Y-137488387D01*
X154531530Y-137400000D01*
X154078470Y-137400000D01*
X153634115Y-137488387D01*
X153215541Y-137661766D01*
X152838835Y-137913473D01*
X152518473Y-138233835D01*
X152266766Y-138610541D01*
X152093387Y-139029115D01*
X152005000Y-139473470D01*
X136285000Y-139473470D01*
X136196613Y-139029115D01*
X136023234Y-138610541D01*
X135771527Y-138233835D01*
X135451165Y-137913473D01*
X135074459Y-137661766D01*
X134655885Y-137488387D01*
X134211530Y-137400000D01*
X133758470Y-137400000D01*
X133314115Y-137488387D01*
X132895541Y-137661766D01*
X132518835Y-137913473D01*
X132198473Y-138233835D01*
X131946766Y-138610541D01*
X131773387Y-139029115D01*
X131685000Y-139473470D01*
X115965000Y-139473470D01*
X115876613Y-139029115D01*
X115703234Y-138610541D01*
X115451527Y-138233835D01*
X115131165Y-137913473D01*
X114754459Y-137661766D01*
X114335885Y-137488387D01*
X113891530Y-137400000D01*
X113438470Y-137400000D01*
X112994115Y-137488387D01*
X112575541Y-137661766D01*
X112198835Y-137913473D01*
X111878473Y-138233835D01*
X111626766Y-138610541D01*
X111453387Y-139029115D01*
X111365000Y-139473470D01*
X95645000Y-139473470D01*
X95556613Y-139029115D01*
X95383234Y-138610541D01*
X95131527Y-138233835D01*
X94811165Y-137913473D01*
X94434459Y-137661766D01*
X94015885Y-137488387D01*
X93571530Y-137400000D01*
X93118470Y-137400000D01*
X92674115Y-137488387D01*
X92255541Y-137661766D01*
X91878835Y-137913473D01*
X91558473Y-138233835D01*
X91306766Y-138610541D01*
X91133387Y-139029115D01*
X91045000Y-139473470D01*
X90565000Y-139473470D01*
X90476613Y-139029115D01*
X90303234Y-138610541D01*
X90051527Y-138233835D01*
X89731165Y-137913473D01*
X89354459Y-137661766D01*
X88935885Y-137488387D01*
X88491530Y-137400000D01*
X88038470Y-137400000D01*
X87594115Y-137488387D01*
X87175541Y-137661766D01*
X86798835Y-137913473D01*
X86478473Y-138233835D01*
X86226766Y-138610541D01*
X86053387Y-139029115D01*
X85965000Y-139473470D01*
X70245000Y-139473470D01*
X70156613Y-139029115D01*
X69983234Y-138610541D01*
X69731527Y-138233835D01*
X69411165Y-137913473D01*
X69034459Y-137661766D01*
X68615885Y-137488387D01*
X68171530Y-137400000D01*
X67718470Y-137400000D01*
X67274115Y-137488387D01*
X66855541Y-137661766D01*
X66478835Y-137913473D01*
X66158473Y-138233835D01*
X65906766Y-138610541D01*
X65733387Y-139029115D01*
X65645000Y-139473470D01*
X25890000Y-139473470D01*
X25890000Y-134557498D01*
X171374678Y-134557498D01*
X171374678Y-135182502D01*
X171400720Y-135446912D01*
X171477846Y-135701161D01*
X171603091Y-135935477D01*
X171771642Y-136140858D01*
X171977023Y-136309409D01*
X172211339Y-136434654D01*
X172465588Y-136511780D01*
X172729998Y-136537822D01*
X172996757Y-136537822D01*
X173021742Y-136545401D01*
X173355000Y-136578224D01*
X173688258Y-136545401D01*
X173713243Y-136537822D01*
X173980002Y-136537822D01*
X174244412Y-136511780D01*
X174349176Y-136480000D01*
X175929329Y-136480000D01*
X176170277Y-136640996D01*
X176552453Y-136799298D01*
X176958168Y-136880000D01*
X177371832Y-136880000D01*
X177777547Y-136799298D01*
X178159723Y-136640996D01*
X178503672Y-136411177D01*
X178796177Y-136118672D01*
X179025996Y-135774723D01*
X179184298Y-135392547D01*
X179265000Y-134986832D01*
X179265000Y-134573168D01*
X182050000Y-134573168D01*
X182050000Y-134986832D01*
X182130702Y-135392547D01*
X182289004Y-135774723D01*
X182518823Y-136118672D01*
X182811328Y-136411177D01*
X183155277Y-136640996D01*
X183537453Y-136799298D01*
X183943168Y-136880000D01*
X184356832Y-136880000D01*
X184762547Y-136799298D01*
X185144723Y-136640996D01*
X185488672Y-136411177D01*
X185781177Y-136118672D01*
X186010996Y-135774723D01*
X186169298Y-135392547D01*
X186250000Y-134986832D01*
X186250000Y-134573168D01*
X186169298Y-134167453D01*
X186010996Y-133785277D01*
X185850000Y-133544329D01*
X185850000Y-132060588D01*
X185907154Y-131953661D01*
X185984280Y-131699412D01*
X186010322Y-131435002D01*
X186010322Y-131168243D01*
X186017901Y-131143258D01*
X186050724Y-130810001D01*
X186017901Y-130476743D01*
X186010322Y-130451758D01*
X186010322Y-130184998D01*
X185984280Y-129920588D01*
X185907154Y-129666339D01*
X185781909Y-129432023D01*
X185613358Y-129226642D01*
X185407977Y-129058091D01*
X185173661Y-128932846D01*
X184919412Y-128855720D01*
X184655002Y-128829678D01*
X184029998Y-128829678D01*
X183765588Y-128855720D01*
X183511339Y-128932846D01*
X183277023Y-129058091D01*
X183071642Y-129226642D01*
X182903091Y-129432023D01*
X182777846Y-129666339D01*
X182700720Y-129920588D01*
X182678139Y-130149856D01*
X182571807Y-130348791D01*
X182474599Y-130669242D01*
X182441776Y-131002500D01*
X182450001Y-131086010D01*
X182450000Y-133544329D01*
X182289004Y-133785277D01*
X182130702Y-134167453D01*
X182050000Y-134573168D01*
X179265000Y-134573168D01*
X179184298Y-134167453D01*
X179025996Y-133785277D01*
X178796177Y-133441328D01*
X178503672Y-133148823D01*
X178159723Y-132919004D01*
X177777547Y-132760702D01*
X177371832Y-132680000D01*
X176958168Y-132680000D01*
X176552453Y-132760702D01*
X176170277Y-132919004D01*
X175929329Y-133080000D01*
X173528499Y-133080000D01*
X173444999Y-133071776D01*
X173361499Y-133080000D01*
X173361490Y-133080000D01*
X173111742Y-133104598D01*
X172791291Y-133201806D01*
X172790595Y-133202178D01*
X172729998Y-133202178D01*
X172465588Y-133228220D01*
X172211339Y-133305346D01*
X171977023Y-133430591D01*
X171771642Y-133599142D01*
X171603091Y-133804523D01*
X171477846Y-134038839D01*
X171400720Y-134293088D01*
X171374678Y-134557498D01*
X25890000Y-134557498D01*
X25890000Y-127470000D01*
X68579678Y-127470000D01*
X68579678Y-129070000D01*
X68600916Y-129285638D01*
X68663816Y-129492988D01*
X68765958Y-129684084D01*
X68903419Y-129851581D01*
X69070916Y-129989042D01*
X69262012Y-130091184D01*
X69469362Y-130154084D01*
X69685000Y-130175322D01*
X71285000Y-130175322D01*
X71500638Y-130154084D01*
X71707988Y-130091184D01*
X71899084Y-129989042D01*
X72066581Y-129851581D01*
X72204042Y-129684084D01*
X72306184Y-129492988D01*
X72369084Y-129285638D01*
X72390322Y-129070000D01*
X72390322Y-127470000D01*
X74929678Y-127470000D01*
X74929678Y-129070000D01*
X74950916Y-129285638D01*
X75013816Y-129492988D01*
X75115958Y-129684084D01*
X75253419Y-129851581D01*
X75420916Y-129989042D01*
X75612012Y-130091184D01*
X75819362Y-130154084D01*
X76035000Y-130175322D01*
X77635000Y-130175322D01*
X77850638Y-130154084D01*
X78057988Y-130091184D01*
X78249084Y-129989042D01*
X78416581Y-129851581D01*
X78554042Y-129684084D01*
X78656184Y-129492988D01*
X78719084Y-129285638D01*
X78740322Y-129070000D01*
X78740322Y-127470000D01*
X83819678Y-127470000D01*
X83819678Y-129070000D01*
X83840916Y-129285638D01*
X83903816Y-129492988D01*
X84005958Y-129684084D01*
X84143419Y-129851581D01*
X84310916Y-129989042D01*
X84502012Y-130091184D01*
X84709362Y-130154084D01*
X84925000Y-130175322D01*
X86525000Y-130175322D01*
X86740638Y-130154084D01*
X86947988Y-130091184D01*
X87139084Y-129989042D01*
X87306581Y-129851581D01*
X87444042Y-129684084D01*
X87546184Y-129492988D01*
X87609084Y-129285638D01*
X87630322Y-129070000D01*
X87630322Y-127470000D01*
X92709678Y-127470000D01*
X92709678Y-129070000D01*
X92730916Y-129285638D01*
X92793816Y-129492988D01*
X92895958Y-129684084D01*
X93033419Y-129851581D01*
X93200916Y-129989042D01*
X93392012Y-130091184D01*
X93599362Y-130154084D01*
X93815000Y-130175322D01*
X95415000Y-130175322D01*
X95630638Y-130154084D01*
X95837988Y-130091184D01*
X96029084Y-129989042D01*
X96196581Y-129851581D01*
X96334042Y-129684084D01*
X96436184Y-129492988D01*
X96499084Y-129285638D01*
X96520322Y-129070000D01*
X96520322Y-127470000D01*
X96499084Y-127254362D01*
X96436184Y-127047012D01*
X96334042Y-126855916D01*
X96196581Y-126688419D01*
X96029084Y-126550958D01*
X95837988Y-126448816D01*
X95630638Y-126385916D01*
X95415000Y-126364678D01*
X93815000Y-126364678D01*
X93599362Y-126385916D01*
X93392012Y-126448816D01*
X93200916Y-126550958D01*
X93033419Y-126688419D01*
X92895958Y-126855916D01*
X92793816Y-127047012D01*
X92730916Y-127254362D01*
X92709678Y-127470000D01*
X87630322Y-127470000D01*
X87609084Y-127254362D01*
X87546184Y-127047012D01*
X87444042Y-126855916D01*
X87306581Y-126688419D01*
X87139084Y-126550958D01*
X86947988Y-126448816D01*
X86740638Y-126385916D01*
X86525000Y-126364678D01*
X84925000Y-126364678D01*
X84709362Y-126385916D01*
X84502012Y-126448816D01*
X84310916Y-126550958D01*
X84143419Y-126688419D01*
X84005958Y-126855916D01*
X83903816Y-127047012D01*
X83840916Y-127254362D01*
X83819678Y-127470000D01*
X78740322Y-127470000D01*
X78719084Y-127254362D01*
X78656184Y-127047012D01*
X78554042Y-126855916D01*
X78416581Y-126688419D01*
X78249084Y-126550958D01*
X78057988Y-126448816D01*
X77850638Y-126385916D01*
X77635000Y-126364678D01*
X76035000Y-126364678D01*
X75819362Y-126385916D01*
X75612012Y-126448816D01*
X75420916Y-126550958D01*
X75253419Y-126688419D01*
X75115958Y-126855916D01*
X75013816Y-127047012D01*
X74950916Y-127254362D01*
X74929678Y-127470000D01*
X72390322Y-127470000D01*
X72369084Y-127254362D01*
X72306184Y-127047012D01*
X72204042Y-126855916D01*
X72066581Y-126688419D01*
X71899084Y-126550958D01*
X71707988Y-126448816D01*
X71500638Y-126385916D01*
X71285000Y-126364678D01*
X69685000Y-126364678D01*
X69469362Y-126385916D01*
X69262012Y-126448816D01*
X69070916Y-126550958D01*
X68903419Y-126688419D01*
X68765958Y-126855916D01*
X68663816Y-127047012D01*
X68600916Y-127254362D01*
X68579678Y-127470000D01*
X25890000Y-127470000D01*
X25890000Y-126200000D01*
X102869678Y-126200000D01*
X102869678Y-127800000D01*
X102890916Y-128015638D01*
X102953816Y-128222988D01*
X103055958Y-128414084D01*
X103193419Y-128581581D01*
X103360916Y-128719042D01*
X103552012Y-128821184D01*
X103759362Y-128884084D01*
X103975000Y-128905322D01*
X105575000Y-128905322D01*
X105790638Y-128884084D01*
X105997988Y-128821184D01*
X106189084Y-128719042D01*
X106356581Y-128581581D01*
X106494042Y-128414084D01*
X106596184Y-128222988D01*
X106659084Y-128015638D01*
X106680322Y-127800000D01*
X106680322Y-126200000D01*
X111759678Y-126200000D01*
X111759678Y-127800000D01*
X111780916Y-128015638D01*
X111843816Y-128222988D01*
X111945958Y-128414084D01*
X112083419Y-128581581D01*
X112250916Y-128719042D01*
X112442012Y-128821184D01*
X112649362Y-128884084D01*
X112865000Y-128905322D01*
X114465000Y-128905322D01*
X114680638Y-128884084D01*
X114887988Y-128821184D01*
X115079084Y-128719042D01*
X115246581Y-128581581D01*
X115384042Y-128414084D01*
X115486184Y-128222988D01*
X115549084Y-128015638D01*
X115570322Y-127800000D01*
X115570322Y-126200000D01*
X121919678Y-126200000D01*
X121919678Y-127800000D01*
X121940916Y-128015638D01*
X122003816Y-128222988D01*
X122105958Y-128414084D01*
X122243419Y-128581581D01*
X122410916Y-128719042D01*
X122602012Y-128821184D01*
X122809362Y-128884084D01*
X123025000Y-128905322D01*
X124625000Y-128905322D01*
X124840638Y-128884084D01*
X125047988Y-128821184D01*
X125239084Y-128719042D01*
X125406581Y-128581581D01*
X125544042Y-128414084D01*
X125646184Y-128222988D01*
X125709084Y-128015638D01*
X125730322Y-127800000D01*
X125730322Y-126200000D01*
X130809678Y-126200000D01*
X130809678Y-127800000D01*
X130830916Y-128015638D01*
X130893816Y-128222988D01*
X130995958Y-128414084D01*
X131133419Y-128581581D01*
X131300916Y-128719042D01*
X131492012Y-128821184D01*
X131699362Y-128884084D01*
X131915000Y-128905322D01*
X133515000Y-128905322D01*
X133730638Y-128884084D01*
X133937988Y-128821184D01*
X134129084Y-128719042D01*
X134296581Y-128581581D01*
X134434042Y-128414084D01*
X134536184Y-128222988D01*
X134599084Y-128015638D01*
X134620322Y-127800000D01*
X134620322Y-127470000D01*
X138429678Y-127470000D01*
X138429678Y-129070000D01*
X138450916Y-129285638D01*
X138513816Y-129492988D01*
X138615958Y-129684084D01*
X138753419Y-129851581D01*
X138920916Y-129989042D01*
X139112012Y-130091184D01*
X139319362Y-130154084D01*
X139535000Y-130175322D01*
X141135000Y-130175322D01*
X141350638Y-130154084D01*
X141557988Y-130091184D01*
X141749084Y-129989042D01*
X141916581Y-129851581D01*
X142054042Y-129684084D01*
X142156184Y-129492988D01*
X142219084Y-129285638D01*
X142240322Y-129070000D01*
X142240322Y-127470000D01*
X147319678Y-127470000D01*
X147319678Y-129070000D01*
X147340916Y-129285638D01*
X147403816Y-129492988D01*
X147505958Y-129684084D01*
X147643419Y-129851581D01*
X147810916Y-129989042D01*
X148002012Y-130091184D01*
X148209362Y-130154084D01*
X148425000Y-130175322D01*
X150025000Y-130175322D01*
X150240638Y-130154084D01*
X150447988Y-130091184D01*
X150639084Y-129989042D01*
X150806581Y-129851581D01*
X150944042Y-129684084D01*
X151046184Y-129492988D01*
X151109084Y-129285638D01*
X151130322Y-129070000D01*
X151130322Y-127470000D01*
X151109084Y-127254362D01*
X151046184Y-127047012D01*
X150944042Y-126855916D01*
X150806581Y-126688419D01*
X150639084Y-126550958D01*
X150447988Y-126448816D01*
X150240638Y-126385916D01*
X150025000Y-126364678D01*
X148425000Y-126364678D01*
X148209362Y-126385916D01*
X148002012Y-126448816D01*
X147810916Y-126550958D01*
X147643419Y-126688419D01*
X147505958Y-126855916D01*
X147403816Y-127047012D01*
X147340916Y-127254362D01*
X147319678Y-127470000D01*
X142240322Y-127470000D01*
X142219084Y-127254362D01*
X142156184Y-127047012D01*
X142054042Y-126855916D01*
X141916581Y-126688419D01*
X141749084Y-126550958D01*
X141557988Y-126448816D01*
X141350638Y-126385916D01*
X141135000Y-126364678D01*
X139535000Y-126364678D01*
X139319362Y-126385916D01*
X139112012Y-126448816D01*
X138920916Y-126550958D01*
X138753419Y-126688419D01*
X138615958Y-126855916D01*
X138513816Y-127047012D01*
X138450916Y-127254362D01*
X138429678Y-127470000D01*
X134620322Y-127470000D01*
X134620322Y-126200000D01*
X134616203Y-126158168D01*
X157445000Y-126158168D01*
X157445000Y-126571832D01*
X157525702Y-126977547D01*
X157684004Y-127359723D01*
X157913823Y-127703672D01*
X158206328Y-127996177D01*
X158512501Y-128200755D01*
X158512500Y-130258509D01*
X158537098Y-130508257D01*
X158544678Y-130533245D01*
X158544678Y-130800002D01*
X158570720Y-131064412D01*
X158647846Y-131318661D01*
X158773091Y-131552977D01*
X158941642Y-131758358D01*
X159147023Y-131926909D01*
X159381339Y-132052154D01*
X159635588Y-132129280D01*
X159899998Y-132155322D01*
X160525002Y-132155322D01*
X160789412Y-132129280D01*
X161043661Y-132052154D01*
X161277977Y-131926909D01*
X161483358Y-131758358D01*
X161651909Y-131552977D01*
X161777154Y-131318661D01*
X161854280Y-131064412D01*
X161880322Y-130800002D01*
X161880322Y-130533246D01*
X161887902Y-130508258D01*
X161912500Y-130258510D01*
X161912500Y-127116002D01*
X161920724Y-127032500D01*
X161912500Y-126948998D01*
X161912500Y-126948990D01*
X161887902Y-126699242D01*
X161884619Y-126688419D01*
X161790694Y-126378790D01*
X161695128Y-126200000D01*
X161672769Y-126158168D01*
X167445000Y-126158168D01*
X167445000Y-126571832D01*
X167525702Y-126977547D01*
X167684004Y-127359723D01*
X167913823Y-127703672D01*
X168206328Y-127996177D01*
X168550277Y-128225996D01*
X168932453Y-128384298D01*
X169338168Y-128465000D01*
X169751832Y-128465000D01*
X170157547Y-128384298D01*
X170539723Y-128225996D01*
X170883672Y-127996177D01*
X171176177Y-127703672D01*
X171405996Y-127359723D01*
X171564298Y-126977547D01*
X171645000Y-126571832D01*
X171645000Y-126158168D01*
X173320000Y-126158168D01*
X173320000Y-126571832D01*
X173400702Y-126977547D01*
X173559004Y-127359723D01*
X173752501Y-127649312D01*
X173752500Y-130258509D01*
X173777098Y-130508257D01*
X173784678Y-130533245D01*
X173784678Y-130800002D01*
X173810720Y-131064412D01*
X173887846Y-131318661D01*
X174013091Y-131552977D01*
X174181642Y-131758358D01*
X174387023Y-131926909D01*
X174621339Y-132052154D01*
X174875588Y-132129280D01*
X175139998Y-132155322D01*
X175765002Y-132155322D01*
X176029412Y-132129280D01*
X176283661Y-132052154D01*
X176517977Y-131926909D01*
X176723358Y-131758358D01*
X176891909Y-131552977D01*
X177017154Y-131318661D01*
X177094280Y-131064412D01*
X177120322Y-130800002D01*
X177120322Y-130533246D01*
X177127902Y-130508258D01*
X177152500Y-130258510D01*
X177152500Y-127552031D01*
X177280996Y-127359723D01*
X177439298Y-126977547D01*
X177520000Y-126571832D01*
X177520000Y-126158168D01*
X183320000Y-126158168D01*
X183320000Y-126571832D01*
X183400702Y-126977547D01*
X183559004Y-127359723D01*
X183788823Y-127703672D01*
X184081328Y-127996177D01*
X184425277Y-128225996D01*
X184807453Y-128384298D01*
X185213168Y-128465000D01*
X185626832Y-128465000D01*
X186032547Y-128384298D01*
X186414723Y-128225996D01*
X186758672Y-127996177D01*
X187051177Y-127703672D01*
X187280996Y-127359723D01*
X187439298Y-126977547D01*
X187520000Y-126571832D01*
X187520000Y-126158168D01*
X187439298Y-125752453D01*
X187280996Y-125370277D01*
X187051177Y-125026328D01*
X186758672Y-124733823D01*
X186414723Y-124504004D01*
X186032547Y-124345702D01*
X185626832Y-124265000D01*
X185213168Y-124265000D01*
X184807453Y-124345702D01*
X184425277Y-124504004D01*
X184081328Y-124733823D01*
X183788823Y-125026328D01*
X183559004Y-125370277D01*
X183400702Y-125752453D01*
X183320000Y-126158168D01*
X177520000Y-126158168D01*
X177439298Y-125752453D01*
X177280996Y-125370277D01*
X177051177Y-125026328D01*
X176758672Y-124733823D01*
X176414723Y-124504004D01*
X176032547Y-124345702D01*
X175626832Y-124265000D01*
X175213168Y-124265000D01*
X174807453Y-124345702D01*
X174425277Y-124504004D01*
X174081328Y-124733823D01*
X173788823Y-125026328D01*
X173559004Y-125370277D01*
X173400702Y-125752453D01*
X173320000Y-126158168D01*
X171645000Y-126158168D01*
X171564298Y-125752453D01*
X171405996Y-125370277D01*
X171176177Y-125026328D01*
X170883672Y-124733823D01*
X170539723Y-124504004D01*
X170157547Y-124345702D01*
X169751832Y-124265000D01*
X169338168Y-124265000D01*
X168932453Y-124345702D01*
X168550277Y-124504004D01*
X168206328Y-124733823D01*
X167913823Y-125026328D01*
X167684004Y-125370277D01*
X167525702Y-125752453D01*
X167445000Y-126158168D01*
X161672769Y-126158168D01*
X161632837Y-126083461D01*
X161629277Y-126079123D01*
X161564298Y-125752453D01*
X161405996Y-125370277D01*
X161176177Y-125026328D01*
X160883672Y-124733823D01*
X160539723Y-124504004D01*
X160157547Y-124345702D01*
X159751832Y-124265000D01*
X159338168Y-124265000D01*
X158932453Y-124345702D01*
X158550277Y-124504004D01*
X158206328Y-124733823D01*
X157913823Y-125026328D01*
X157684004Y-125370277D01*
X157525702Y-125752453D01*
X157445000Y-126158168D01*
X134616203Y-126158168D01*
X134599084Y-125984362D01*
X134536184Y-125777012D01*
X134434042Y-125585916D01*
X134296581Y-125418419D01*
X134129084Y-125280958D01*
X133937988Y-125178816D01*
X133730638Y-125115916D01*
X133515000Y-125094678D01*
X131915000Y-125094678D01*
X131699362Y-125115916D01*
X131492012Y-125178816D01*
X131300916Y-125280958D01*
X131133419Y-125418419D01*
X130995958Y-125585916D01*
X130893816Y-125777012D01*
X130830916Y-125984362D01*
X130809678Y-126200000D01*
X125730322Y-126200000D01*
X125709084Y-125984362D01*
X125646184Y-125777012D01*
X125544042Y-125585916D01*
X125406581Y-125418419D01*
X125239084Y-125280958D01*
X125047988Y-125178816D01*
X124840638Y-125115916D01*
X124625000Y-125094678D01*
X123025000Y-125094678D01*
X122809362Y-125115916D01*
X122602012Y-125178816D01*
X122410916Y-125280958D01*
X122243419Y-125418419D01*
X122105958Y-125585916D01*
X122003816Y-125777012D01*
X121940916Y-125984362D01*
X121919678Y-126200000D01*
X115570322Y-126200000D01*
X115549084Y-125984362D01*
X115486184Y-125777012D01*
X115384042Y-125585916D01*
X115246581Y-125418419D01*
X115079084Y-125280958D01*
X114887988Y-125178816D01*
X114680638Y-125115916D01*
X114465000Y-125094678D01*
X112865000Y-125094678D01*
X112649362Y-125115916D01*
X112442012Y-125178816D01*
X112250916Y-125280958D01*
X112083419Y-125418419D01*
X111945958Y-125585916D01*
X111843816Y-125777012D01*
X111780916Y-125984362D01*
X111759678Y-126200000D01*
X106680322Y-126200000D01*
X106659084Y-125984362D01*
X106596184Y-125777012D01*
X106494042Y-125585916D01*
X106356581Y-125418419D01*
X106189084Y-125280958D01*
X105997988Y-125178816D01*
X105790638Y-125115916D01*
X105575000Y-125094678D01*
X103975000Y-125094678D01*
X103759362Y-125115916D01*
X103552012Y-125178816D01*
X103360916Y-125280958D01*
X103193419Y-125418419D01*
X103055958Y-125585916D01*
X102953816Y-125777012D01*
X102890916Y-125984362D01*
X102869678Y-126200000D01*
X25890000Y-126200000D01*
X25890000Y-114800000D01*
X41410000Y-114800000D01*
X41410000Y-119380000D01*
X41419607Y-119477545D01*
X41448060Y-119571342D01*
X41494265Y-119657785D01*
X41556447Y-119733553D01*
X41632215Y-119795735D01*
X41718658Y-119841940D01*
X41812455Y-119870393D01*
X41910000Y-119880000D01*
X59055000Y-119880000D01*
X59152545Y-119870393D01*
X59246342Y-119841940D01*
X59332785Y-119795735D01*
X59408553Y-119733553D01*
X59470735Y-119657785D01*
X59516940Y-119571342D01*
X59545393Y-119477545D01*
X59555000Y-119380000D01*
X59555000Y-111625000D01*
X80780000Y-111625000D01*
X80780000Y-116840000D01*
X80789607Y-116937545D01*
X80818060Y-117031342D01*
X80864265Y-117117785D01*
X80926447Y-117193553D01*
X81002215Y-117255735D01*
X81088658Y-117301940D01*
X81182455Y-117330393D01*
X81280000Y-117340000D01*
X100965000Y-117340000D01*
X101062545Y-117330393D01*
X101156342Y-117301940D01*
X101242785Y-117255735D01*
X101318553Y-117193553D01*
X101380735Y-117117785D01*
X101426940Y-117031342D01*
X101455393Y-116937545D01*
X101465000Y-116840000D01*
X101465000Y-110355000D01*
X116975000Y-110355000D01*
X116975000Y-117475000D01*
%TA.AperFunction,Conductor*%
D25*
G36*
X116975000Y-117475000D02*
G01*
X116984607Y-117572545D01*
X117013060Y-117666342D01*
X117059265Y-117752785D01*
X117121447Y-117828553D01*
X117197215Y-117890735D01*
X117283658Y-117936940D01*
X117377455Y-117965393D01*
X117475000Y-117975000D01*
X154940000Y-117975000D01*
X155037545Y-117965393D01*
X155131342Y-117936940D01*
X155217785Y-117890735D01*
X155293553Y-117828553D01*
X155355735Y-117752785D01*
X155401940Y-117666342D01*
X155430393Y-117572545D01*
X155440000Y-117475000D01*
X155440000Y-112260000D01*
X169680000Y-112260000D01*
X169680000Y-120650000D01*
X169689607Y-120747545D01*
X169718060Y-120841342D01*
X169764265Y-120927785D01*
X169826447Y-121003553D01*
X169902215Y-121065735D01*
X169988658Y-121111940D01*
X170082455Y-121140393D01*
X170180000Y-121150000D01*
X171463954Y-121150000D01*
X171587512Y-121216043D01*
X171831383Y-121290021D01*
X172085000Y-121315000D01*
X193820001Y-121315000D01*
X193820001Y-147465000D01*
X25890000Y-147465000D01*
X25890000Y-144573168D01*
X175065000Y-144573168D01*
X175065000Y-144986832D01*
X175145702Y-145392547D01*
X175304004Y-145774723D01*
X175533823Y-146118672D01*
X175826328Y-146411177D01*
X176170277Y-146640996D01*
X176552453Y-146799298D01*
X176958168Y-146880000D01*
X177371832Y-146880000D01*
X177777547Y-146799298D01*
X178159723Y-146640996D01*
X178503672Y-146411177D01*
X178796177Y-146118672D01*
X179025996Y-145774723D01*
X179184298Y-145392547D01*
X179265000Y-144986832D01*
X179265000Y-144573168D01*
X182050000Y-144573168D01*
X182050000Y-144986832D01*
X182130702Y-145392547D01*
X182289004Y-145774723D01*
X182518823Y-146118672D01*
X182811328Y-146411177D01*
X183155277Y-146640996D01*
X183537453Y-146799298D01*
X183943168Y-146880000D01*
X184356832Y-146880000D01*
X184762547Y-146799298D01*
X185144723Y-146640996D01*
X185488672Y-146411177D01*
X185781177Y-146118672D01*
X186010996Y-145774723D01*
X186169298Y-145392547D01*
X186250000Y-144986832D01*
X186250000Y-144573168D01*
X186169298Y-144167453D01*
X186010996Y-143785277D01*
X185781177Y-143441328D01*
X185488672Y-143148823D01*
X185144723Y-142919004D01*
X184762547Y-142760702D01*
X184356832Y-142680000D01*
X183943168Y-142680000D01*
X183537453Y-142760702D01*
X183155277Y-142919004D01*
X182811328Y-143148823D01*
X182518823Y-143441328D01*
X182289004Y-143785277D01*
X182130702Y-144167453D01*
X182050000Y-144573168D01*
X179265000Y-144573168D01*
X179184298Y-144167453D01*
X179025996Y-143785277D01*
X178796177Y-143441328D01*
X178503672Y-143148823D01*
X178159723Y-142919004D01*
X177777547Y-142760702D01*
X177371832Y-142680000D01*
X176958168Y-142680000D01*
X176552453Y-142760702D01*
X176170277Y-142919004D01*
X175826328Y-143148823D01*
X175533823Y-143441328D01*
X175304004Y-143785277D01*
X175145702Y-144167453D01*
X175065000Y-144573168D01*
X25890000Y-144573168D01*
X25890000Y-139473470D01*
X65645000Y-139473470D01*
X65645000Y-139926530D01*
X65733387Y-140370885D01*
X65906766Y-140789459D01*
X66158473Y-141166165D01*
X66478835Y-141486527D01*
X66855541Y-141738234D01*
X67274115Y-141911613D01*
X67718470Y-142000000D01*
X68171530Y-142000000D01*
X68615885Y-141911613D01*
X69034459Y-141738234D01*
X69411165Y-141486527D01*
X69731527Y-141166165D01*
X69983234Y-140789459D01*
X70156613Y-140370885D01*
X70245000Y-139926530D01*
X70245000Y-139473470D01*
X85965000Y-139473470D01*
X85965000Y-139926530D01*
X86053387Y-140370885D01*
X86226766Y-140789459D01*
X86478473Y-141166165D01*
X86798835Y-141486527D01*
X87175541Y-141738234D01*
X87594115Y-141911613D01*
X88038470Y-142000000D01*
X88491530Y-142000000D01*
X88935885Y-141911613D01*
X89354459Y-141738234D01*
X89731165Y-141486527D01*
X90051527Y-141166165D01*
X90303234Y-140789459D01*
X90476613Y-140370885D01*
X90565000Y-139926530D01*
X90565000Y-139473470D01*
X91045000Y-139473470D01*
X91045000Y-139926530D01*
X91133387Y-140370885D01*
X91306766Y-140789459D01*
X91558473Y-141166165D01*
X91878835Y-141486527D01*
X92255541Y-141738234D01*
X92674115Y-141911613D01*
X93118470Y-142000000D01*
X93571530Y-142000000D01*
X94015885Y-141911613D01*
X94434459Y-141738234D01*
X94811165Y-141486527D01*
X95131527Y-141166165D01*
X95383234Y-140789459D01*
X95556613Y-140370885D01*
X95645000Y-139926530D01*
X95645000Y-139473470D01*
X111365000Y-139473470D01*
X111365000Y-139926530D01*
X111453387Y-140370885D01*
X111626766Y-140789459D01*
X111878473Y-141166165D01*
X112198835Y-141486527D01*
X112575541Y-141738234D01*
X112994115Y-141911613D01*
X113438470Y-142000000D01*
X113891530Y-142000000D01*
X114335885Y-141911613D01*
X114754459Y-141738234D01*
X115131165Y-141486527D01*
X115451527Y-141166165D01*
X115703234Y-140789459D01*
X115876613Y-140370885D01*
X115965000Y-139926530D01*
X115965000Y-139473470D01*
X131685000Y-139473470D01*
X131685000Y-139926530D01*
X131773387Y-140370885D01*
X131946766Y-140789459D01*
X132198473Y-141166165D01*
X132518835Y-141486527D01*
X132895541Y-141738234D01*
X133314115Y-141911613D01*
X133758470Y-142000000D01*
X134211530Y-142000000D01*
X134655885Y-141911613D01*
X135074459Y-141738234D01*
X135451165Y-141486527D01*
X135771527Y-141166165D01*
X136023234Y-140789459D01*
X136196613Y-140370885D01*
X136285000Y-139926530D01*
X136285000Y-139473470D01*
X152005000Y-139473470D01*
X152005000Y-139926530D01*
X152093387Y-140370885D01*
X152266766Y-140789459D01*
X152518473Y-141166165D01*
X152838835Y-141486527D01*
X153215541Y-141738234D01*
X153634115Y-141911613D01*
X154078470Y-142000000D01*
X154531530Y-142000000D01*
X154975885Y-141911613D01*
X155394459Y-141738234D01*
X155771165Y-141486527D01*
X156091527Y-141166165D01*
X156343234Y-140789459D01*
X156516613Y-140370885D01*
X156605000Y-139926530D01*
X156605000Y-139473470D01*
X156516613Y-139029115D01*
X156343234Y-138610541D01*
X156091527Y-138233835D01*
X155771165Y-137913473D01*
X155394459Y-137661766D01*
X154975885Y-137488387D01*
X154531530Y-137400000D01*
X154078470Y-137400000D01*
X153634115Y-137488387D01*
X153215541Y-137661766D01*
X152838835Y-137913473D01*
X152518473Y-138233835D01*
X152266766Y-138610541D01*
X152093387Y-139029115D01*
X152005000Y-139473470D01*
X136285000Y-139473470D01*
X136196613Y-139029115D01*
X136023234Y-138610541D01*
X135771527Y-138233835D01*
X135451165Y-137913473D01*
X135074459Y-137661766D01*
X134655885Y-137488387D01*
X134211530Y-137400000D01*
X133758470Y-137400000D01*
X133314115Y-137488387D01*
X132895541Y-137661766D01*
X132518835Y-137913473D01*
X132198473Y-138233835D01*
X131946766Y-138610541D01*
X131773387Y-139029115D01*
X131685000Y-139473470D01*
X115965000Y-139473470D01*
X115876613Y-139029115D01*
X115703234Y-138610541D01*
X115451527Y-138233835D01*
X115131165Y-137913473D01*
X114754459Y-137661766D01*
X114335885Y-137488387D01*
X113891530Y-137400000D01*
X113438470Y-137400000D01*
X112994115Y-137488387D01*
X112575541Y-137661766D01*
X112198835Y-137913473D01*
X111878473Y-138233835D01*
X111626766Y-138610541D01*
X111453387Y-139029115D01*
X111365000Y-139473470D01*
X95645000Y-139473470D01*
X95556613Y-139029115D01*
X95383234Y-138610541D01*
X95131527Y-138233835D01*
X94811165Y-137913473D01*
X94434459Y-137661766D01*
X94015885Y-137488387D01*
X93571530Y-137400000D01*
X93118470Y-137400000D01*
X92674115Y-137488387D01*
X92255541Y-137661766D01*
X91878835Y-137913473D01*
X91558473Y-138233835D01*
X91306766Y-138610541D01*
X91133387Y-139029115D01*
X91045000Y-139473470D01*
X90565000Y-139473470D01*
X90476613Y-139029115D01*
X90303234Y-138610541D01*
X90051527Y-138233835D01*
X89731165Y-137913473D01*
X89354459Y-137661766D01*
X88935885Y-137488387D01*
X88491530Y-137400000D01*
X88038470Y-137400000D01*
X87594115Y-137488387D01*
X87175541Y-137661766D01*
X86798835Y-137913473D01*
X86478473Y-138233835D01*
X86226766Y-138610541D01*
X86053387Y-139029115D01*
X85965000Y-139473470D01*
X70245000Y-139473470D01*
X70156613Y-139029115D01*
X69983234Y-138610541D01*
X69731527Y-138233835D01*
X69411165Y-137913473D01*
X69034459Y-137661766D01*
X68615885Y-137488387D01*
X68171530Y-137400000D01*
X67718470Y-137400000D01*
X67274115Y-137488387D01*
X66855541Y-137661766D01*
X66478835Y-137913473D01*
X66158473Y-138233835D01*
X65906766Y-138610541D01*
X65733387Y-139029115D01*
X65645000Y-139473470D01*
X25890000Y-139473470D01*
X25890000Y-134557498D01*
X171374678Y-134557498D01*
X171374678Y-135182502D01*
X171400720Y-135446912D01*
X171477846Y-135701161D01*
X171603091Y-135935477D01*
X171771642Y-136140858D01*
X171977023Y-136309409D01*
X172211339Y-136434654D01*
X172465588Y-136511780D01*
X172729998Y-136537822D01*
X172996757Y-136537822D01*
X173021742Y-136545401D01*
X173355000Y-136578224D01*
X173688258Y-136545401D01*
X173713243Y-136537822D01*
X173980002Y-136537822D01*
X174244412Y-136511780D01*
X174349176Y-136480000D01*
X175929329Y-136480000D01*
X176170277Y-136640996D01*
X176552453Y-136799298D01*
X176958168Y-136880000D01*
X177371832Y-136880000D01*
X177777547Y-136799298D01*
X178159723Y-136640996D01*
X178503672Y-136411177D01*
X178796177Y-136118672D01*
X179025996Y-135774723D01*
X179184298Y-135392547D01*
X179265000Y-134986832D01*
X179265000Y-134573168D01*
X182050000Y-134573168D01*
X182050000Y-134986832D01*
X182130702Y-135392547D01*
X182289004Y-135774723D01*
X182518823Y-136118672D01*
X182811328Y-136411177D01*
X183155277Y-136640996D01*
X183537453Y-136799298D01*
X183943168Y-136880000D01*
X184356832Y-136880000D01*
X184762547Y-136799298D01*
X185144723Y-136640996D01*
X185488672Y-136411177D01*
X185781177Y-136118672D01*
X186010996Y-135774723D01*
X186169298Y-135392547D01*
X186250000Y-134986832D01*
X186250000Y-134573168D01*
X186169298Y-134167453D01*
X186010996Y-133785277D01*
X185850000Y-133544329D01*
X185850000Y-132060588D01*
X185907154Y-131953661D01*
X185984280Y-131699412D01*
X186010322Y-131435002D01*
X186010322Y-131168243D01*
X186017901Y-131143258D01*
X186050724Y-130810001D01*
X186017901Y-130476743D01*
X186010322Y-130451758D01*
X186010322Y-130184998D01*
X185984280Y-129920588D01*
X185907154Y-129666339D01*
X185781909Y-129432023D01*
X185613358Y-129226642D01*
X185407977Y-129058091D01*
X185173661Y-128932846D01*
X184919412Y-128855720D01*
X184655002Y-128829678D01*
X184029998Y-128829678D01*
X183765588Y-128855720D01*
X183511339Y-128932846D01*
X183277023Y-129058091D01*
X183071642Y-129226642D01*
X182903091Y-129432023D01*
X182777846Y-129666339D01*
X182700720Y-129920588D01*
X182678139Y-130149856D01*
X182571807Y-130348791D01*
X182474599Y-130669242D01*
X182441776Y-131002500D01*
X182450001Y-131086010D01*
X182450000Y-133544329D01*
X182289004Y-133785277D01*
X182130702Y-134167453D01*
X182050000Y-134573168D01*
X179265000Y-134573168D01*
X179184298Y-134167453D01*
X179025996Y-133785277D01*
X178796177Y-133441328D01*
X178503672Y-133148823D01*
X178159723Y-132919004D01*
X177777547Y-132760702D01*
X177371832Y-132680000D01*
X176958168Y-132680000D01*
X176552453Y-132760702D01*
X176170277Y-132919004D01*
X175929329Y-133080000D01*
X173528499Y-133080000D01*
X173444999Y-133071776D01*
X173361499Y-133080000D01*
X173361490Y-133080000D01*
X173111742Y-133104598D01*
X172791291Y-133201806D01*
X172790595Y-133202178D01*
X172729998Y-133202178D01*
X172465588Y-133228220D01*
X172211339Y-133305346D01*
X171977023Y-133430591D01*
X171771642Y-133599142D01*
X171603091Y-133804523D01*
X171477846Y-134038839D01*
X171400720Y-134293088D01*
X171374678Y-134557498D01*
X25890000Y-134557498D01*
X25890000Y-127470000D01*
X68579678Y-127470000D01*
X68579678Y-129070000D01*
X68600916Y-129285638D01*
X68663816Y-129492988D01*
X68765958Y-129684084D01*
X68903419Y-129851581D01*
X69070916Y-129989042D01*
X69262012Y-130091184D01*
X69469362Y-130154084D01*
X69685000Y-130175322D01*
X71285000Y-130175322D01*
X71500638Y-130154084D01*
X71707988Y-130091184D01*
X71899084Y-129989042D01*
X72066581Y-129851581D01*
X72204042Y-129684084D01*
X72306184Y-129492988D01*
X72369084Y-129285638D01*
X72390322Y-129070000D01*
X72390322Y-127470000D01*
X74929678Y-127470000D01*
X74929678Y-129070000D01*
X74950916Y-129285638D01*
X75013816Y-129492988D01*
X75115958Y-129684084D01*
X75253419Y-129851581D01*
X75420916Y-129989042D01*
X75612012Y-130091184D01*
X75819362Y-130154084D01*
X76035000Y-130175322D01*
X77635000Y-130175322D01*
X77850638Y-130154084D01*
X78057988Y-130091184D01*
X78249084Y-129989042D01*
X78416581Y-129851581D01*
X78554042Y-129684084D01*
X78656184Y-129492988D01*
X78719084Y-129285638D01*
X78740322Y-129070000D01*
X78740322Y-127470000D01*
X83819678Y-127470000D01*
X83819678Y-129070000D01*
X83840916Y-129285638D01*
X83903816Y-129492988D01*
X84005958Y-129684084D01*
X84143419Y-129851581D01*
X84310916Y-129989042D01*
X84502012Y-130091184D01*
X84709362Y-130154084D01*
X84925000Y-130175322D01*
X86525000Y-130175322D01*
X86740638Y-130154084D01*
X86947988Y-130091184D01*
X87139084Y-129989042D01*
X87306581Y-129851581D01*
X87444042Y-129684084D01*
X87546184Y-129492988D01*
X87609084Y-129285638D01*
X87630322Y-129070000D01*
X87630322Y-127470000D01*
X92709678Y-127470000D01*
X92709678Y-129070000D01*
X92730916Y-129285638D01*
X92793816Y-129492988D01*
X92895958Y-129684084D01*
X93033419Y-129851581D01*
X93200916Y-129989042D01*
X93392012Y-130091184D01*
X93599362Y-130154084D01*
X93815000Y-130175322D01*
X95415000Y-130175322D01*
X95630638Y-130154084D01*
X95837988Y-130091184D01*
X96029084Y-129989042D01*
X96196581Y-129851581D01*
X96334042Y-129684084D01*
X96436184Y-129492988D01*
X96499084Y-129285638D01*
X96520322Y-129070000D01*
X96520322Y-127470000D01*
X96499084Y-127254362D01*
X96436184Y-127047012D01*
X96334042Y-126855916D01*
X96196581Y-126688419D01*
X96029084Y-126550958D01*
X95837988Y-126448816D01*
X95630638Y-126385916D01*
X95415000Y-126364678D01*
X93815000Y-126364678D01*
X93599362Y-126385916D01*
X93392012Y-126448816D01*
X93200916Y-126550958D01*
X93033419Y-126688419D01*
X92895958Y-126855916D01*
X92793816Y-127047012D01*
X92730916Y-127254362D01*
X92709678Y-127470000D01*
X87630322Y-127470000D01*
X87609084Y-127254362D01*
X87546184Y-127047012D01*
X87444042Y-126855916D01*
X87306581Y-126688419D01*
X87139084Y-126550958D01*
X86947988Y-126448816D01*
X86740638Y-126385916D01*
X86525000Y-126364678D01*
X84925000Y-126364678D01*
X84709362Y-126385916D01*
X84502012Y-126448816D01*
X84310916Y-126550958D01*
X84143419Y-126688419D01*
X84005958Y-126855916D01*
X83903816Y-127047012D01*
X83840916Y-127254362D01*
X83819678Y-127470000D01*
X78740322Y-127470000D01*
X78719084Y-127254362D01*
X78656184Y-127047012D01*
X78554042Y-126855916D01*
X78416581Y-126688419D01*
X78249084Y-126550958D01*
X78057988Y-126448816D01*
X77850638Y-126385916D01*
X77635000Y-126364678D01*
X76035000Y-126364678D01*
X75819362Y-126385916D01*
X75612012Y-126448816D01*
X75420916Y-126550958D01*
X75253419Y-126688419D01*
X75115958Y-126855916D01*
X75013816Y-127047012D01*
X74950916Y-127254362D01*
X74929678Y-127470000D01*
X72390322Y-127470000D01*
X72369084Y-127254362D01*
X72306184Y-127047012D01*
X72204042Y-126855916D01*
X72066581Y-126688419D01*
X71899084Y-126550958D01*
X71707988Y-126448816D01*
X71500638Y-126385916D01*
X71285000Y-126364678D01*
X69685000Y-126364678D01*
X69469362Y-126385916D01*
X69262012Y-126448816D01*
X69070916Y-126550958D01*
X68903419Y-126688419D01*
X68765958Y-126855916D01*
X68663816Y-127047012D01*
X68600916Y-127254362D01*
X68579678Y-127470000D01*
X25890000Y-127470000D01*
X25890000Y-126200000D01*
X102869678Y-126200000D01*
X102869678Y-127800000D01*
X102890916Y-128015638D01*
X102953816Y-128222988D01*
X103055958Y-128414084D01*
X103193419Y-128581581D01*
X103360916Y-128719042D01*
X103552012Y-128821184D01*
X103759362Y-128884084D01*
X103975000Y-128905322D01*
X105575000Y-128905322D01*
X105790638Y-128884084D01*
X105997988Y-128821184D01*
X106189084Y-128719042D01*
X106356581Y-128581581D01*
X106494042Y-128414084D01*
X106596184Y-128222988D01*
X106659084Y-128015638D01*
X106680322Y-127800000D01*
X106680322Y-126200000D01*
X111759678Y-126200000D01*
X111759678Y-127800000D01*
X111780916Y-128015638D01*
X111843816Y-128222988D01*
X111945958Y-128414084D01*
X112083419Y-128581581D01*
X112250916Y-128719042D01*
X112442012Y-128821184D01*
X112649362Y-128884084D01*
X112865000Y-128905322D01*
X114465000Y-128905322D01*
X114680638Y-128884084D01*
X114887988Y-128821184D01*
X115079084Y-128719042D01*
X115246581Y-128581581D01*
X115384042Y-128414084D01*
X115486184Y-128222988D01*
X115549084Y-128015638D01*
X115570322Y-127800000D01*
X115570322Y-126200000D01*
X121919678Y-126200000D01*
X121919678Y-127800000D01*
X121940916Y-128015638D01*
X122003816Y-128222988D01*
X122105958Y-128414084D01*
X122243419Y-128581581D01*
X122410916Y-128719042D01*
X122602012Y-128821184D01*
X122809362Y-128884084D01*
X123025000Y-128905322D01*
X124625000Y-128905322D01*
X124840638Y-128884084D01*
X125047988Y-128821184D01*
X125239084Y-128719042D01*
X125406581Y-128581581D01*
X125544042Y-128414084D01*
X125646184Y-128222988D01*
X125709084Y-128015638D01*
X125730322Y-127800000D01*
X125730322Y-126200000D01*
X130809678Y-126200000D01*
X130809678Y-127800000D01*
X130830916Y-128015638D01*
X130893816Y-128222988D01*
X130995958Y-128414084D01*
X131133419Y-128581581D01*
X131300916Y-128719042D01*
X131492012Y-128821184D01*
X131699362Y-128884084D01*
X131915000Y-128905322D01*
X133515000Y-128905322D01*
X133730638Y-128884084D01*
X133937988Y-128821184D01*
X134129084Y-128719042D01*
X134296581Y-128581581D01*
X134434042Y-128414084D01*
X134536184Y-128222988D01*
X134599084Y-128015638D01*
X134620322Y-127800000D01*
X134620322Y-127470000D01*
X138429678Y-127470000D01*
X138429678Y-129070000D01*
X138450916Y-129285638D01*
X138513816Y-129492988D01*
X138615958Y-129684084D01*
X138753419Y-129851581D01*
X138920916Y-129989042D01*
X139112012Y-130091184D01*
X139319362Y-130154084D01*
X139535000Y-130175322D01*
X141135000Y-130175322D01*
X141350638Y-130154084D01*
X141557988Y-130091184D01*
X141749084Y-129989042D01*
X141916581Y-129851581D01*
X142054042Y-129684084D01*
X142156184Y-129492988D01*
X142219084Y-129285638D01*
X142240322Y-129070000D01*
X142240322Y-127470000D01*
X147319678Y-127470000D01*
X147319678Y-129070000D01*
X147340916Y-129285638D01*
X147403816Y-129492988D01*
X147505958Y-129684084D01*
X147643419Y-129851581D01*
X147810916Y-129989042D01*
X148002012Y-130091184D01*
X148209362Y-130154084D01*
X148425000Y-130175322D01*
X150025000Y-130175322D01*
X150240638Y-130154084D01*
X150447988Y-130091184D01*
X150639084Y-129989042D01*
X150806581Y-129851581D01*
X150944042Y-129684084D01*
X151046184Y-129492988D01*
X151109084Y-129285638D01*
X151130322Y-129070000D01*
X151130322Y-127470000D01*
X151109084Y-127254362D01*
X151046184Y-127047012D01*
X150944042Y-126855916D01*
X150806581Y-126688419D01*
X150639084Y-126550958D01*
X150447988Y-126448816D01*
X150240638Y-126385916D01*
X150025000Y-126364678D01*
X148425000Y-126364678D01*
X148209362Y-126385916D01*
X148002012Y-126448816D01*
X147810916Y-126550958D01*
X147643419Y-126688419D01*
X147505958Y-126855916D01*
X147403816Y-127047012D01*
X147340916Y-127254362D01*
X147319678Y-127470000D01*
X142240322Y-127470000D01*
X142219084Y-127254362D01*
X142156184Y-127047012D01*
X142054042Y-126855916D01*
X141916581Y-126688419D01*
X141749084Y-126550958D01*
X141557988Y-126448816D01*
X141350638Y-126385916D01*
X141135000Y-126364678D01*
X139535000Y-126364678D01*
X139319362Y-126385916D01*
X139112012Y-126448816D01*
X138920916Y-126550958D01*
X138753419Y-126688419D01*
X138615958Y-126855916D01*
X138513816Y-127047012D01*
X138450916Y-127254362D01*
X138429678Y-127470000D01*
X134620322Y-127470000D01*
X134620322Y-126200000D01*
X134616203Y-126158168D01*
X157445000Y-126158168D01*
X157445000Y-126571832D01*
X157525702Y-126977547D01*
X157684004Y-127359723D01*
X157913823Y-127703672D01*
X158206328Y-127996177D01*
X158512501Y-128200755D01*
X158512500Y-130258509D01*
X158537098Y-130508257D01*
X158544678Y-130533245D01*
X158544678Y-130800002D01*
X158570720Y-131064412D01*
X158647846Y-131318661D01*
X158773091Y-131552977D01*
X158941642Y-131758358D01*
X159147023Y-131926909D01*
X159381339Y-132052154D01*
X159635588Y-132129280D01*
X159899998Y-132155322D01*
X160525002Y-132155322D01*
X160789412Y-132129280D01*
X161043661Y-132052154D01*
X161277977Y-131926909D01*
X161483358Y-131758358D01*
X161651909Y-131552977D01*
X161777154Y-131318661D01*
X161854280Y-131064412D01*
X161880322Y-130800002D01*
X161880322Y-130533246D01*
X161887902Y-130508258D01*
X161912500Y-130258510D01*
X161912500Y-127116002D01*
X161920724Y-127032500D01*
X161912500Y-126948998D01*
X161912500Y-126948990D01*
X161887902Y-126699242D01*
X161884619Y-126688419D01*
X161790694Y-126378790D01*
X161695128Y-126200000D01*
X161672769Y-126158168D01*
X167445000Y-126158168D01*
X167445000Y-126571832D01*
X167525702Y-126977547D01*
X167684004Y-127359723D01*
X167913823Y-127703672D01*
X168206328Y-127996177D01*
X168550277Y-128225996D01*
X168932453Y-128384298D01*
X169338168Y-128465000D01*
X169751832Y-128465000D01*
X170157547Y-128384298D01*
X170539723Y-128225996D01*
X170883672Y-127996177D01*
X171176177Y-127703672D01*
X171405996Y-127359723D01*
X171564298Y-126977547D01*
X171645000Y-126571832D01*
X171645000Y-126158168D01*
X173320000Y-126158168D01*
X173320000Y-126571832D01*
X173400702Y-126977547D01*
X173559004Y-127359723D01*
X173752501Y-127649312D01*
X173752500Y-130258509D01*
X173777098Y-130508257D01*
X173784678Y-130533245D01*
X173784678Y-130800002D01*
X173810720Y-131064412D01*
X173887846Y-131318661D01*
X174013091Y-131552977D01*
X174181642Y-131758358D01*
X174387023Y-131926909D01*
X174621339Y-132052154D01*
X174875588Y-132129280D01*
X175139998Y-132155322D01*
X175765002Y-132155322D01*
X176029412Y-132129280D01*
X176283661Y-132052154D01*
X176517977Y-131926909D01*
X176723358Y-131758358D01*
X176891909Y-131552977D01*
X177017154Y-131318661D01*
X177094280Y-131064412D01*
X177120322Y-130800002D01*
X177120322Y-130533246D01*
X177127902Y-130508258D01*
X177152500Y-130258510D01*
X177152500Y-127552031D01*
X177280996Y-127359723D01*
X177439298Y-126977547D01*
X177520000Y-126571832D01*
X177520000Y-126158168D01*
X183320000Y-126158168D01*
X183320000Y-126571832D01*
X183400702Y-126977547D01*
X183559004Y-127359723D01*
X183788823Y-127703672D01*
X184081328Y-127996177D01*
X184425277Y-128225996D01*
X184807453Y-128384298D01*
X185213168Y-128465000D01*
X185626832Y-128465000D01*
X186032547Y-128384298D01*
X186414723Y-128225996D01*
X186758672Y-127996177D01*
X187051177Y-127703672D01*
X187280996Y-127359723D01*
X187439298Y-126977547D01*
X187520000Y-126571832D01*
X187520000Y-126158168D01*
X187439298Y-125752453D01*
X187280996Y-125370277D01*
X187051177Y-125026328D01*
X186758672Y-124733823D01*
X186414723Y-124504004D01*
X186032547Y-124345702D01*
X185626832Y-124265000D01*
X185213168Y-124265000D01*
X184807453Y-124345702D01*
X184425277Y-124504004D01*
X184081328Y-124733823D01*
X183788823Y-125026328D01*
X183559004Y-125370277D01*
X183400702Y-125752453D01*
X183320000Y-126158168D01*
X177520000Y-126158168D01*
X177439298Y-125752453D01*
X177280996Y-125370277D01*
X177051177Y-125026328D01*
X176758672Y-124733823D01*
X176414723Y-124504004D01*
X176032547Y-124345702D01*
X175626832Y-124265000D01*
X175213168Y-124265000D01*
X174807453Y-124345702D01*
X174425277Y-124504004D01*
X174081328Y-124733823D01*
X173788823Y-125026328D01*
X173559004Y-125370277D01*
X173400702Y-125752453D01*
X173320000Y-126158168D01*
X171645000Y-126158168D01*
X171564298Y-125752453D01*
X171405996Y-125370277D01*
X171176177Y-125026328D01*
X170883672Y-124733823D01*
X170539723Y-124504004D01*
X170157547Y-124345702D01*
X169751832Y-124265000D01*
X169338168Y-124265000D01*
X168932453Y-124345702D01*
X168550277Y-124504004D01*
X168206328Y-124733823D01*
X167913823Y-125026328D01*
X167684004Y-125370277D01*
X167525702Y-125752453D01*
X167445000Y-126158168D01*
X161672769Y-126158168D01*
X161632837Y-126083461D01*
X161629277Y-126079123D01*
X161564298Y-125752453D01*
X161405996Y-125370277D01*
X161176177Y-125026328D01*
X160883672Y-124733823D01*
X160539723Y-124504004D01*
X160157547Y-124345702D01*
X159751832Y-124265000D01*
X159338168Y-124265000D01*
X158932453Y-124345702D01*
X158550277Y-124504004D01*
X158206328Y-124733823D01*
X157913823Y-125026328D01*
X157684004Y-125370277D01*
X157525702Y-125752453D01*
X157445000Y-126158168D01*
X134616203Y-126158168D01*
X134599084Y-125984362D01*
X134536184Y-125777012D01*
X134434042Y-125585916D01*
X134296581Y-125418419D01*
X134129084Y-125280958D01*
X133937988Y-125178816D01*
X133730638Y-125115916D01*
X133515000Y-125094678D01*
X131915000Y-125094678D01*
X131699362Y-125115916D01*
X131492012Y-125178816D01*
X131300916Y-125280958D01*
X131133419Y-125418419D01*
X130995958Y-125585916D01*
X130893816Y-125777012D01*
X130830916Y-125984362D01*
X130809678Y-126200000D01*
X125730322Y-126200000D01*
X125709084Y-125984362D01*
X125646184Y-125777012D01*
X125544042Y-125585916D01*
X125406581Y-125418419D01*
X125239084Y-125280958D01*
X125047988Y-125178816D01*
X124840638Y-125115916D01*
X124625000Y-125094678D01*
X123025000Y-125094678D01*
X122809362Y-125115916D01*
X122602012Y-125178816D01*
X122410916Y-125280958D01*
X122243419Y-125418419D01*
X122105958Y-125585916D01*
X122003816Y-125777012D01*
X121940916Y-125984362D01*
X121919678Y-126200000D01*
X115570322Y-126200000D01*
X115549084Y-125984362D01*
X115486184Y-125777012D01*
X115384042Y-125585916D01*
X115246581Y-125418419D01*
X115079084Y-125280958D01*
X114887988Y-125178816D01*
X114680638Y-125115916D01*
X114465000Y-125094678D01*
X112865000Y-125094678D01*
X112649362Y-125115916D01*
X112442012Y-125178816D01*
X112250916Y-125280958D01*
X112083419Y-125418419D01*
X111945958Y-125585916D01*
X111843816Y-125777012D01*
X111780916Y-125984362D01*
X111759678Y-126200000D01*
X106680322Y-126200000D01*
X106659084Y-125984362D01*
X106596184Y-125777012D01*
X106494042Y-125585916D01*
X106356581Y-125418419D01*
X106189084Y-125280958D01*
X105997988Y-125178816D01*
X105790638Y-125115916D01*
X105575000Y-125094678D01*
X103975000Y-125094678D01*
X103759362Y-125115916D01*
X103552012Y-125178816D01*
X103360916Y-125280958D01*
X103193419Y-125418419D01*
X103055958Y-125585916D01*
X102953816Y-125777012D01*
X102890916Y-125984362D01*
X102869678Y-126200000D01*
X25890000Y-126200000D01*
X25890000Y-114800000D01*
X41410000Y-114800000D01*
X41410000Y-119380000D01*
X41419607Y-119477545D01*
X41448060Y-119571342D01*
X41494265Y-119657785D01*
X41556447Y-119733553D01*
X41632215Y-119795735D01*
X41718658Y-119841940D01*
X41812455Y-119870393D01*
X41910000Y-119880000D01*
X59055000Y-119880000D01*
X59152545Y-119870393D01*
X59246342Y-119841940D01*
X59332785Y-119795735D01*
X59408553Y-119733553D01*
X59470735Y-119657785D01*
X59516940Y-119571342D01*
X59545393Y-119477545D01*
X59555000Y-119380000D01*
X59555000Y-111625000D01*
X80780000Y-111625000D01*
X80780000Y-116840000D01*
X80789607Y-116937545D01*
X80818060Y-117031342D01*
X80864265Y-117117785D01*
X80926447Y-117193553D01*
X81002215Y-117255735D01*
X81088658Y-117301940D01*
X81182455Y-117330393D01*
X81280000Y-117340000D01*
X100965000Y-117340000D01*
X101062545Y-117330393D01*
X101156342Y-117301940D01*
X101242785Y-117255735D01*
X101318553Y-117193553D01*
X101380735Y-117117785D01*
X101426940Y-117031342D01*
X101455393Y-116937545D01*
X101465000Y-116840000D01*
X101465000Y-110355000D01*
X116975000Y-110355000D01*
X116975000Y-117475000D01*
G37*
%TD.AperFunction*%
%TD*%
D24*
%TO.N,VDC*%
X193620001Y-119515000D02*
X172579594Y-119515000D01*
X172307919Y-94520860D01*
X172402436Y-94405691D01*
X172578864Y-94075617D01*
X172687508Y-93717465D01*
X172715000Y-93438337D01*
X172715000Y-93438329D01*
X172724192Y-93345000D01*
X172715000Y-93251671D01*
X172715000Y-90327047D01*
X172727868Y-90332377D01*
X173143243Y-90415000D01*
X173566757Y-90415000D01*
X173982132Y-90332377D01*
X174373407Y-90170305D01*
X174625000Y-90002196D01*
X174876593Y-90170305D01*
X175267868Y-90332377D01*
X175683243Y-90415000D01*
X176106757Y-90415000D01*
X176522132Y-90332377D01*
X176913407Y-90170305D01*
X177165000Y-90002196D01*
X177416593Y-90170305D01*
X177807868Y-90332377D01*
X178223243Y-90415000D01*
X178646757Y-90415000D01*
X179062132Y-90332377D01*
X179453407Y-90170305D01*
X179705000Y-90002196D01*
X179956593Y-90170305D01*
X180347868Y-90332377D01*
X180763243Y-90415000D01*
X181186757Y-90415000D01*
X181602132Y-90332377D01*
X181993407Y-90170305D01*
X182245000Y-90002196D01*
X182496593Y-90170305D01*
X182887868Y-90332377D01*
X183303243Y-90415000D01*
X183726757Y-90415000D01*
X184142132Y-90332377D01*
X184533407Y-90170305D01*
X184885545Y-89935014D01*
X185185014Y-89635545D01*
X185420305Y-89283407D01*
X185582377Y-88892132D01*
X185665000Y-88476757D01*
X185665000Y-88053243D01*
X185582377Y-87637868D01*
X185420305Y-87246593D01*
X185185014Y-86894455D01*
X184885545Y-86594986D01*
X184533407Y-86359695D01*
X184142132Y-86197623D01*
X183726757Y-86115000D01*
X183303243Y-86115000D01*
X182887868Y-86197623D01*
X182496593Y-86359695D01*
X182245000Y-86527804D01*
X181993407Y-86359695D01*
X181602132Y-86197623D01*
X181186757Y-86115000D01*
X180763243Y-86115000D01*
X180347868Y-86197623D01*
X179956593Y-86359695D01*
X179705000Y-86527804D01*
X179453407Y-86359695D01*
X179062132Y-86197623D01*
X178646757Y-86115000D01*
X178223243Y-86115000D01*
X177807868Y-86197623D01*
X177416593Y-86359695D01*
X177165000Y-86527804D01*
X176913407Y-86359695D01*
X176522132Y-86197623D01*
X176106757Y-86115000D01*
X175683243Y-86115000D01*
X175267868Y-86197623D01*
X174876593Y-86359695D01*
X174625000Y-86527804D01*
X174373407Y-86359695D01*
X173982132Y-86197623D01*
X173566757Y-86115000D01*
X173143243Y-86115000D01*
X172727868Y-86197623D01*
X172336593Y-86359695D01*
X172085000Y-86527804D01*
X171833407Y-86359695D01*
X171666462Y-86290544D01*
X172237006Y-85720000D01*
X181516671Y-85720000D01*
X181610000Y-85729192D01*
X181703329Y-85720000D01*
X181703337Y-85720000D01*
X181982465Y-85692508D01*
X182340617Y-85583864D01*
X182670691Y-85407436D01*
X182960003Y-85170003D01*
X183019504Y-85097501D01*
X185046506Y-83070500D01*
X185119003Y-83011003D01*
X185356436Y-82721691D01*
X185532864Y-82391617D01*
X185641508Y-82033465D01*
X185669000Y-81754337D01*
X185669000Y-81754330D01*
X185678192Y-81661001D01*
X185669000Y-81567672D01*
X185669000Y-80099338D01*
X185838250Y-79846037D01*
X186014267Y-79421094D01*
X186104000Y-78969977D01*
X186104000Y-78510023D01*
X186014267Y-78058906D01*
X185838250Y-77633963D01*
X185582713Y-77251524D01*
X185257476Y-76926287D01*
X184875037Y-76670750D01*
X184450094Y-76494733D01*
X183998977Y-76405000D01*
X183539023Y-76405000D01*
X183087906Y-76494733D01*
X182662963Y-76670750D01*
X182280524Y-76926287D01*
X181955287Y-77251524D01*
X181699750Y-77633963D01*
X181523733Y-78058906D01*
X181434000Y-78510023D01*
X181434000Y-78969977D01*
X181523733Y-79421094D01*
X181699750Y-79846037D01*
X181869000Y-80099339D01*
X181869001Y-80873994D01*
X180822995Y-81920000D01*
X171543328Y-81920000D01*
X171449999Y-81910808D01*
X171356670Y-81920000D01*
X171356663Y-81920000D01*
X171114604Y-81943841D01*
X171077534Y-81947492D01*
X170873095Y-82009508D01*
X170719383Y-82056136D01*
X170389309Y-82232564D01*
X170302869Y-82303504D01*
X170172496Y-82410498D01*
X170172494Y-82410500D01*
X170099997Y-82469997D01*
X170040500Y-82542494D01*
X166997499Y-85585496D01*
X166924997Y-85644997D01*
X166687564Y-85934309D01*
X166511136Y-86264384D01*
X166407693Y-86605390D01*
X166338860Y-86689264D01*
X166218145Y-86915104D01*
X166143810Y-87160155D01*
X166118710Y-87415000D01*
X166118710Y-89115000D01*
X166143810Y-89369845D01*
X166218145Y-89614896D01*
X166248001Y-89670752D01*
X166248000Y-90305000D01*
X163186623Y-90305000D01*
X163027130Y-77705000D01*
X176347710Y-77705000D01*
X176347710Y-79775000D01*
X176372810Y-80029845D01*
X176447145Y-80274896D01*
X176567860Y-80500736D01*
X176730313Y-80698687D01*
X176928264Y-80861140D01*
X177154104Y-80981855D01*
X177399155Y-81056190D01*
X177654000Y-81081290D01*
X179724000Y-81081290D01*
X179978845Y-81056190D01*
X180223896Y-80981855D01*
X180449736Y-80861140D01*
X180647687Y-80698687D01*
X180810140Y-80500736D01*
X180930855Y-80274896D01*
X181005190Y-80029845D01*
X181030290Y-79775000D01*
X181030290Y-77705000D01*
X181005190Y-77450155D01*
X180930855Y-77205104D01*
X180810140Y-76979264D01*
X180647687Y-76781313D01*
X180449736Y-76618860D01*
X180223896Y-76498145D01*
X179978845Y-76423810D01*
X179724000Y-76398710D01*
X177654000Y-76398710D01*
X177399155Y-76423810D01*
X177154104Y-76498145D01*
X176928264Y-76618860D01*
X176730313Y-76781313D01*
X176567860Y-76979264D01*
X176447145Y-77205104D01*
X176372810Y-77450155D01*
X176347710Y-77705000D01*
X163027130Y-77705000D01*
X162906561Y-68180000D01*
X176474710Y-68180000D01*
X176474710Y-70250000D01*
X176499810Y-70504845D01*
X176574145Y-70749896D01*
X176694860Y-70975736D01*
X176857313Y-71173687D01*
X177055264Y-71336140D01*
X177281104Y-71456855D01*
X177526155Y-71531190D01*
X177781000Y-71556290D01*
X179851000Y-71556290D01*
X180105845Y-71531190D01*
X180350896Y-71456855D01*
X180576736Y-71336140D01*
X180774687Y-71173687D01*
X180937140Y-70975736D01*
X181057855Y-70749896D01*
X181132190Y-70504845D01*
X181157290Y-70250000D01*
X181157290Y-68985023D01*
X181561000Y-68985023D01*
X181561000Y-69444977D01*
X181650733Y-69896094D01*
X181826750Y-70321037D01*
X182082287Y-70703476D01*
X182407524Y-71028713D01*
X182789963Y-71284250D01*
X183214906Y-71460267D01*
X183666023Y-71550000D01*
X184125977Y-71550000D01*
X184577094Y-71460267D01*
X185002037Y-71284250D01*
X185384476Y-71028713D01*
X185709713Y-70703476D01*
X185965250Y-70321037D01*
X186141267Y-69896094D01*
X186231000Y-69444977D01*
X186231000Y-68985023D01*
X186141267Y-68533906D01*
X185965250Y-68108963D01*
X185709713Y-67726524D01*
X185384476Y-67401287D01*
X185002037Y-67145750D01*
X184577094Y-66969733D01*
X184125977Y-66880000D01*
X183666023Y-66880000D01*
X183214906Y-66969733D01*
X182789963Y-67145750D01*
X182407524Y-67401287D01*
X182082287Y-67726524D01*
X181826750Y-68108963D01*
X181650733Y-68533906D01*
X181561000Y-68985023D01*
X181157290Y-68985023D01*
X181157290Y-68180000D01*
X181132190Y-67925155D01*
X181057855Y-67680104D01*
X180937140Y-67454264D01*
X180774687Y-67256313D01*
X180576736Y-67093860D01*
X180350896Y-66973145D01*
X180105845Y-66898810D01*
X179851000Y-66873710D01*
X177781000Y-66873710D01*
X177526155Y-66898810D01*
X177281104Y-66973145D01*
X177055264Y-67093860D01*
X176857313Y-67256313D01*
X176694860Y-67454264D01*
X176574145Y-67680104D01*
X176499810Y-67925155D01*
X176474710Y-68180000D01*
X162906561Y-68180000D01*
X162777953Y-58020000D01*
X176601710Y-58020000D01*
X176601710Y-60090000D01*
X176626810Y-60344845D01*
X176701145Y-60589896D01*
X176821860Y-60815736D01*
X176984313Y-61013687D01*
X177182264Y-61176140D01*
X177408104Y-61296855D01*
X177653155Y-61371190D01*
X177908000Y-61396290D01*
X179978000Y-61396290D01*
X180232845Y-61371190D01*
X180477896Y-61296855D01*
X180703736Y-61176140D01*
X180901687Y-61013687D01*
X181064140Y-60815736D01*
X181184855Y-60589896D01*
X181259190Y-60344845D01*
X181284290Y-60090000D01*
X181284290Y-58825023D01*
X181688000Y-58825023D01*
X181688000Y-59284977D01*
X181777733Y-59736094D01*
X181953750Y-60161037D01*
X182209287Y-60543476D01*
X182534524Y-60868713D01*
X182916963Y-61124250D01*
X183341906Y-61300267D01*
X183793023Y-61390000D01*
X184252977Y-61390000D01*
X184704094Y-61300267D01*
X185129037Y-61124250D01*
X185511476Y-60868713D01*
X185836713Y-60543476D01*
X186092250Y-60161037D01*
X186268267Y-59736094D01*
X186358000Y-59284977D01*
X186358000Y-58825023D01*
X186268267Y-58373906D01*
X186092250Y-57948963D01*
X185836713Y-57566524D01*
X185511476Y-57241287D01*
X185129037Y-56985750D01*
X184704094Y-56809733D01*
X184252977Y-56720000D01*
X183793023Y-56720000D01*
X183341906Y-56809733D01*
X182916963Y-56985750D01*
X182534524Y-57241287D01*
X182209287Y-57566524D01*
X181953750Y-57948963D01*
X181777733Y-58373906D01*
X181688000Y-58825023D01*
X181284290Y-58825023D01*
X181284290Y-58020000D01*
X181259190Y-57765155D01*
X181184855Y-57520104D01*
X181064140Y-57294264D01*
X180901687Y-57096313D01*
X180703736Y-56933860D01*
X180477896Y-56813145D01*
X180232845Y-56738810D01*
X179978000Y-56713710D01*
X177908000Y-56713710D01*
X177653155Y-56738810D01*
X177408104Y-56813145D01*
X177182264Y-56933860D01*
X176984313Y-57096313D01*
X176821860Y-57294264D01*
X176701145Y-57520104D01*
X176626810Y-57765155D01*
X176601710Y-58020000D01*
X162777953Y-58020000D01*
X162649345Y-47860000D01*
X176601710Y-47860000D01*
X176601710Y-49930000D01*
X176626810Y-50184845D01*
X176701145Y-50429896D01*
X176821860Y-50655736D01*
X176984313Y-50853687D01*
X177182264Y-51016140D01*
X177408104Y-51136855D01*
X177653155Y-51211190D01*
X177908000Y-51236290D01*
X179978000Y-51236290D01*
X180232845Y-51211190D01*
X180477896Y-51136855D01*
X180703736Y-51016140D01*
X180901687Y-50853687D01*
X181064140Y-50655736D01*
X181184855Y-50429896D01*
X181259190Y-50184845D01*
X181284290Y-49930000D01*
X181284290Y-48665023D01*
X181688000Y-48665023D01*
X181688000Y-49124977D01*
X181777733Y-49576094D01*
X181953750Y-50001037D01*
X182209287Y-50383476D01*
X182534524Y-50708713D01*
X182916963Y-50964250D01*
X183341906Y-51140267D01*
X183793023Y-51230000D01*
X184252977Y-51230000D01*
X184704094Y-51140267D01*
X185129037Y-50964250D01*
X185511476Y-50708713D01*
X185836713Y-50383476D01*
X186092250Y-50001037D01*
X186268267Y-49576094D01*
X186358000Y-49124977D01*
X186358000Y-48665023D01*
X186268267Y-48213906D01*
X186092250Y-47788963D01*
X185836713Y-47406524D01*
X185511476Y-47081287D01*
X185129037Y-46825750D01*
X184704094Y-46649733D01*
X184252977Y-46560000D01*
X183793023Y-46560000D01*
X183341906Y-46649733D01*
X182916963Y-46825750D01*
X182534524Y-47081287D01*
X182209287Y-47406524D01*
X181953750Y-47788963D01*
X181777733Y-48213906D01*
X181688000Y-48665023D01*
X181284290Y-48665023D01*
X181284290Y-47860000D01*
X181259190Y-47605155D01*
X181184855Y-47360104D01*
X181064140Y-47134264D01*
X180901687Y-46936313D01*
X180703736Y-46773860D01*
X180477896Y-46653145D01*
X180232845Y-46578810D01*
X179978000Y-46553710D01*
X177908000Y-46553710D01*
X177653155Y-46578810D01*
X177408104Y-46653145D01*
X177182264Y-46773860D01*
X176984313Y-46936313D01*
X176821860Y-47134264D01*
X176701145Y-47360104D01*
X176626810Y-47605155D01*
X176601710Y-47860000D01*
X162649345Y-47860000D01*
X162589896Y-43163546D01*
X162576934Y-42996152D01*
X162516339Y-42748616D01*
X162408617Y-42517658D01*
X162257906Y-42312154D01*
X162070000Y-42140000D01*
X159530000Y-40235000D01*
X159331378Y-40112245D01*
X155521378Y-38207245D01*
X155193617Y-38094979D01*
X154940000Y-38070000D01*
X142240000Y-38070000D01*
X141986383Y-38094979D01*
X141742512Y-38168957D01*
X141517759Y-38289090D01*
X141320761Y-38450761D01*
X141159090Y-38647759D01*
X141038957Y-38872512D01*
X140964979Y-39116383D01*
X140940000Y-39370000D01*
X140940000Y-90305000D01*
X131503226Y-90305000D01*
X131828407Y-90170305D01*
X132180545Y-89935014D01*
X132480014Y-89635545D01*
X132715305Y-89283407D01*
X132877377Y-88892132D01*
X132960000Y-88476757D01*
X132960000Y-88053243D01*
X132877377Y-87637868D01*
X132715305Y-87246593D01*
X132480014Y-86894455D01*
X132180545Y-86594986D01*
X131828407Y-86359695D01*
X131437132Y-86197623D01*
X131021757Y-86115000D01*
X130598243Y-86115000D01*
X130182868Y-86197623D01*
X129791593Y-86359695D01*
X129540000Y-86527804D01*
X129288407Y-86359695D01*
X128897132Y-86197623D01*
X128481757Y-86115000D01*
X128058243Y-86115000D01*
X127642868Y-86197623D01*
X127251593Y-86359695D01*
X127000000Y-86527804D01*
X126748407Y-86359695D01*
X126357132Y-86197623D01*
X125941757Y-86115000D01*
X125518243Y-86115000D01*
X125102868Y-86197623D01*
X124711593Y-86359695D01*
X124460000Y-86527804D01*
X124208407Y-86359695D01*
X123817132Y-86197623D01*
X123401757Y-86115000D01*
X122978243Y-86115000D01*
X122562868Y-86197623D01*
X122171593Y-86359695D01*
X121920000Y-86527804D01*
X121668407Y-86359695D01*
X121277132Y-86197623D01*
X120861757Y-86115000D01*
X120438243Y-86115000D01*
X120022868Y-86197623D01*
X119631593Y-86359695D01*
X119380000Y-86527804D01*
X119128407Y-86359695D01*
X118737132Y-86197623D01*
X118321757Y-86115000D01*
X117898243Y-86115000D01*
X117859249Y-86122756D01*
X118897005Y-85085000D01*
X127541671Y-85085000D01*
X127635000Y-85094192D01*
X127728329Y-85085000D01*
X127728337Y-85085000D01*
X128007465Y-85057508D01*
X128365617Y-84948864D01*
X128695691Y-84772436D01*
X128985003Y-84535003D01*
X129044504Y-84462501D01*
X131071506Y-82435500D01*
X131144003Y-82376003D01*
X131381436Y-82086691D01*
X131557864Y-81756617D01*
X131606112Y-81597564D01*
X131666508Y-81398466D01*
X131678589Y-81275808D01*
X131694000Y-81119337D01*
X131694000Y-81119330D01*
X131703192Y-81026001D01*
X131694000Y-80932672D01*
X131694000Y-79464338D01*
X131863250Y-79211037D01*
X132039267Y-78786094D01*
X132129000Y-78334977D01*
X132129000Y-77875023D01*
X132039267Y-77423906D01*
X131863250Y-76998963D01*
X131607713Y-76616524D01*
X131282476Y-76291287D01*
X130900037Y-76035750D01*
X130475094Y-75859733D01*
X130023977Y-75770000D01*
X129564023Y-75770000D01*
X129112906Y-75859733D01*
X128687963Y-76035750D01*
X128305524Y-76291287D01*
X127980287Y-76616524D01*
X127724750Y-76998963D01*
X127548733Y-77423906D01*
X127459000Y-77875023D01*
X127459000Y-78334977D01*
X127548733Y-78786094D01*
X127724750Y-79211037D01*
X127894000Y-79464339D01*
X127894001Y-80238994D01*
X126847995Y-81285000D01*
X118203328Y-81285000D01*
X118109999Y-81275808D01*
X118016670Y-81285000D01*
X118016663Y-81285000D01*
X117774604Y-81308841D01*
X117737534Y-81312492D01*
X117454119Y-81398465D01*
X117379383Y-81421136D01*
X117049309Y-81597564D01*
X116759997Y-81834997D01*
X116700498Y-81907497D01*
X114292499Y-84315496D01*
X114219997Y-84374997D01*
X113982564Y-84664309D01*
X113806136Y-84994384D01*
X113697492Y-85352536D01*
X113670000Y-85631664D01*
X113670000Y-85631671D01*
X113660808Y-85725000D01*
X113670000Y-85818330D01*
X113670000Y-86645227D01*
X113633860Y-86689264D01*
X113513145Y-86915104D01*
X113438810Y-87160155D01*
X113413710Y-87415000D01*
X113413710Y-89115000D01*
X113438810Y-89369845D01*
X113513145Y-89614896D01*
X113633860Y-89840736D01*
X113670001Y-89884774D01*
X113670000Y-90305000D01*
X113284975Y-90305000D01*
X113249629Y-90275992D01*
X112980568Y-90132175D01*
X112688619Y-90043614D01*
X112385002Y-90013710D01*
X112144722Y-90013710D01*
X112132465Y-90009992D01*
X111853337Y-89982500D01*
X107608097Y-89982500D01*
X107444648Y-77070000D01*
X122372710Y-77070000D01*
X122372710Y-79140000D01*
X122397810Y-79394845D01*
X122472145Y-79639896D01*
X122592860Y-79865736D01*
X122755313Y-80063687D01*
X122953264Y-80226140D01*
X123179104Y-80346855D01*
X123424155Y-80421190D01*
X123679000Y-80446290D01*
X125749000Y-80446290D01*
X126003845Y-80421190D01*
X126248896Y-80346855D01*
X126474736Y-80226140D01*
X126672687Y-80063687D01*
X126835140Y-79865736D01*
X126955855Y-79639896D01*
X127030190Y-79394845D01*
X127055290Y-79140000D01*
X127055290Y-77070000D01*
X127030190Y-76815155D01*
X126955855Y-76570104D01*
X126835140Y-76344264D01*
X126672687Y-76146313D01*
X126474736Y-75983860D01*
X126248896Y-75863145D01*
X126003845Y-75788810D01*
X125749000Y-75763710D01*
X123679000Y-75763710D01*
X123424155Y-75788810D01*
X123179104Y-75863145D01*
X122953264Y-75983860D01*
X122755313Y-76146313D01*
X122592860Y-76344264D01*
X122472145Y-76570104D01*
X122397810Y-76815155D01*
X122372710Y-77070000D01*
X107444648Y-77070000D01*
X107316041Y-66910000D01*
X122626710Y-66910000D01*
X122626710Y-68980000D01*
X122651810Y-69234845D01*
X122726145Y-69479896D01*
X122846860Y-69705736D01*
X123009313Y-69903687D01*
X123207264Y-70066140D01*
X123433104Y-70186855D01*
X123678155Y-70261190D01*
X123933000Y-70286290D01*
X126003000Y-70286290D01*
X126257845Y-70261190D01*
X126502896Y-70186855D01*
X126728736Y-70066140D01*
X126926687Y-69903687D01*
X127089140Y-69705736D01*
X127209855Y-69479896D01*
X127284190Y-69234845D01*
X127309290Y-68980000D01*
X127309290Y-67715023D01*
X127713000Y-67715023D01*
X127713000Y-68174977D01*
X127802733Y-68626094D01*
X127978750Y-69051037D01*
X128234287Y-69433476D01*
X128559524Y-69758713D01*
X128941963Y-70014250D01*
X129366906Y-70190267D01*
X129818023Y-70280000D01*
X130277977Y-70280000D01*
X130729094Y-70190267D01*
X131154037Y-70014250D01*
X131536476Y-69758713D01*
X131861713Y-69433476D01*
X132117250Y-69051037D01*
X132293267Y-68626094D01*
X132383000Y-68174977D01*
X132383000Y-67715023D01*
X132293267Y-67263906D01*
X132117250Y-66838963D01*
X131861713Y-66456524D01*
X131536476Y-66131287D01*
X131154037Y-65875750D01*
X130729094Y-65699733D01*
X130277977Y-65610000D01*
X129818023Y-65610000D01*
X129366906Y-65699733D01*
X128941963Y-65875750D01*
X128559524Y-66131287D01*
X128234287Y-66456524D01*
X127978750Y-66838963D01*
X127802733Y-67263906D01*
X127713000Y-67715023D01*
X127309290Y-67715023D01*
X127309290Y-66910000D01*
X127284190Y-66655155D01*
X127209855Y-66410104D01*
X127089140Y-66184264D01*
X126926687Y-65986313D01*
X126728736Y-65823860D01*
X126502896Y-65703145D01*
X126257845Y-65628810D01*
X126003000Y-65603710D01*
X123933000Y-65603710D01*
X123678155Y-65628810D01*
X123433104Y-65703145D01*
X123207264Y-65823860D01*
X123009313Y-65986313D01*
X122846860Y-66184264D01*
X122726145Y-66410104D01*
X122651810Y-66655155D01*
X122626710Y-66910000D01*
X107316041Y-66910000D01*
X107187433Y-56750000D01*
X122626710Y-56750000D01*
X122626710Y-58820000D01*
X122651810Y-59074845D01*
X122726145Y-59319896D01*
X122846860Y-59545736D01*
X123009313Y-59743687D01*
X123207264Y-59906140D01*
X123433104Y-60026855D01*
X123678155Y-60101190D01*
X123933000Y-60126290D01*
X126003000Y-60126290D01*
X126257845Y-60101190D01*
X126502896Y-60026855D01*
X126728736Y-59906140D01*
X126926687Y-59743687D01*
X127089140Y-59545736D01*
X127209855Y-59319896D01*
X127284190Y-59074845D01*
X127309290Y-58820000D01*
X127309290Y-57555023D01*
X127713000Y-57555023D01*
X127713000Y-58014977D01*
X127802733Y-58466094D01*
X127978750Y-58891037D01*
X128234287Y-59273476D01*
X128559524Y-59598713D01*
X128941963Y-59854250D01*
X129366906Y-60030267D01*
X129818023Y-60120000D01*
X130277977Y-60120000D01*
X130729094Y-60030267D01*
X131154037Y-59854250D01*
X131536476Y-59598713D01*
X131861713Y-59273476D01*
X132117250Y-58891037D01*
X132293267Y-58466094D01*
X132383000Y-58014977D01*
X132383000Y-57555023D01*
X132293267Y-57103906D01*
X132117250Y-56678963D01*
X131861713Y-56296524D01*
X131536476Y-55971287D01*
X131154037Y-55715750D01*
X130729094Y-55539733D01*
X130277977Y-55450000D01*
X129818023Y-55450000D01*
X129366906Y-55539733D01*
X128941963Y-55715750D01*
X128559524Y-55971287D01*
X128234287Y-56296524D01*
X127978750Y-56678963D01*
X127802733Y-57103906D01*
X127713000Y-57555023D01*
X127309290Y-57555023D01*
X127309290Y-56750000D01*
X127284190Y-56495155D01*
X127209855Y-56250104D01*
X127089140Y-56024264D01*
X126926687Y-55826313D01*
X126728736Y-55663860D01*
X126502896Y-55543145D01*
X126257845Y-55468810D01*
X126003000Y-55443710D01*
X123933000Y-55443710D01*
X123678155Y-55468810D01*
X123433104Y-55543145D01*
X123207264Y-55663860D01*
X123009313Y-55826313D01*
X122846860Y-56024264D01*
X122726145Y-56250104D01*
X122651810Y-56495155D01*
X122626710Y-56750000D01*
X107187433Y-56750000D01*
X107058825Y-46590000D01*
X122753710Y-46590000D01*
X122753710Y-48660000D01*
X122778810Y-48914845D01*
X122853145Y-49159896D01*
X122973860Y-49385736D01*
X123136313Y-49583687D01*
X123334264Y-49746140D01*
X123560104Y-49866855D01*
X123805155Y-49941190D01*
X124060000Y-49966290D01*
X126130000Y-49966290D01*
X126384845Y-49941190D01*
X126629896Y-49866855D01*
X126855736Y-49746140D01*
X127053687Y-49583687D01*
X127216140Y-49385736D01*
X127336855Y-49159896D01*
X127411190Y-48914845D01*
X127436290Y-48660000D01*
X127436290Y-47395023D01*
X127840000Y-47395023D01*
X127840000Y-47854977D01*
X127929733Y-48306094D01*
X128105750Y-48731037D01*
X128361287Y-49113476D01*
X128686524Y-49438713D01*
X129068963Y-49694250D01*
X129493906Y-49870267D01*
X129945023Y-49960000D01*
X130404977Y-49960000D01*
X130856094Y-49870267D01*
X131281037Y-49694250D01*
X131663476Y-49438713D01*
X131988713Y-49113476D01*
X132244250Y-48731037D01*
X132420267Y-48306094D01*
X132510000Y-47854977D01*
X132510000Y-47395023D01*
X132420267Y-46943906D01*
X132244250Y-46518963D01*
X131988713Y-46136524D01*
X131663476Y-45811287D01*
X131281037Y-45555750D01*
X130856094Y-45379733D01*
X130404977Y-45290000D01*
X129945023Y-45290000D01*
X129493906Y-45379733D01*
X129068963Y-45555750D01*
X128686524Y-45811287D01*
X128361287Y-46136524D01*
X128105750Y-46518963D01*
X127929733Y-46943906D01*
X127840000Y-47395023D01*
X127436290Y-47395023D01*
X127436290Y-46590000D01*
X127411190Y-46335155D01*
X127336855Y-46090104D01*
X127216140Y-45864264D01*
X127053687Y-45666313D01*
X126855736Y-45503860D01*
X126629896Y-45383145D01*
X126384845Y-45308810D01*
X126130000Y-45283710D01*
X124060000Y-45283710D01*
X123805155Y-45308810D01*
X123560104Y-45383145D01*
X123334264Y-45503860D01*
X123136313Y-45666313D01*
X122973860Y-45864264D01*
X122853145Y-46090104D01*
X122778810Y-46335155D01*
X122753710Y-46590000D01*
X107058825Y-46590000D01*
X107007414Y-42528546D01*
X106994452Y-42361152D01*
X106933857Y-42113616D01*
X106826135Y-41882658D01*
X106675424Y-41677154D01*
X106487518Y-41505000D01*
X103947518Y-39600000D01*
X103748896Y-39477245D01*
X99938896Y-37572245D01*
X99611135Y-37459979D01*
X99357518Y-37435000D01*
X86657518Y-37435000D01*
X86403901Y-37459979D01*
X86160030Y-37533957D01*
X85935277Y-37654090D01*
X85738279Y-37815761D01*
X85576608Y-38012759D01*
X85456475Y-38237512D01*
X85382497Y-38481383D01*
X85357518Y-38735000D01*
X85357518Y-90305000D01*
X78163226Y-90305000D01*
X78488407Y-90170305D01*
X78840545Y-89935014D01*
X79140014Y-89635545D01*
X79375305Y-89283407D01*
X79537377Y-88892132D01*
X79620000Y-88476757D01*
X79620000Y-88053243D01*
X79537377Y-87637868D01*
X79375305Y-87246593D01*
X79140014Y-86894455D01*
X78840545Y-86594986D01*
X78488407Y-86359695D01*
X78097132Y-86197623D01*
X77681757Y-86115000D01*
X77258243Y-86115000D01*
X76842868Y-86197623D01*
X76451593Y-86359695D01*
X76200000Y-86527804D01*
X75948407Y-86359695D01*
X75557132Y-86197623D01*
X75141757Y-86115000D01*
X74718243Y-86115000D01*
X74302868Y-86197623D01*
X73911593Y-86359695D01*
X73660000Y-86527804D01*
X73408407Y-86359695D01*
X73017132Y-86197623D01*
X72601757Y-86115000D01*
X72178243Y-86115000D01*
X71762868Y-86197623D01*
X71371593Y-86359695D01*
X71120000Y-86527804D01*
X70868407Y-86359695D01*
X70477132Y-86197623D01*
X70061757Y-86115000D01*
X69638243Y-86115000D01*
X69222868Y-86197623D01*
X68831593Y-86359695D01*
X68580000Y-86527804D01*
X68328407Y-86359695D01*
X67937132Y-86197623D01*
X67521757Y-86115000D01*
X67098243Y-86115000D01*
X66682868Y-86197623D01*
X66291593Y-86359695D01*
X66040000Y-86527804D01*
X65788407Y-86359695D01*
X65397132Y-86197623D01*
X65132100Y-86144905D01*
X66192006Y-85085000D01*
X72931671Y-85085000D01*
X73025000Y-85094192D01*
X73118329Y-85085000D01*
X73118337Y-85085000D01*
X73397465Y-85057508D01*
X73755617Y-84948864D01*
X74085691Y-84772436D01*
X74375003Y-84535003D01*
X74434504Y-84462501D01*
X77350506Y-81546500D01*
X77423003Y-81487003D01*
X77495665Y-81398465D01*
X77588783Y-81285000D01*
X77660436Y-81197691D01*
X77836864Y-80867617D01*
X77945508Y-80509465D01*
X77973000Y-80230337D01*
X77973000Y-80230329D01*
X77982192Y-80137000D01*
X77973000Y-80043671D01*
X77973000Y-79464338D01*
X78142250Y-79211037D01*
X78318267Y-78786094D01*
X78408000Y-78334977D01*
X78408000Y-77875023D01*
X78318267Y-77423906D01*
X78142250Y-76998963D01*
X77886713Y-76616524D01*
X77561476Y-76291287D01*
X77179037Y-76035750D01*
X76754094Y-75859733D01*
X76302977Y-75770000D01*
X75843023Y-75770000D01*
X75391906Y-75859733D01*
X74966963Y-76035750D01*
X74584524Y-76291287D01*
X74259287Y-76616524D01*
X74003750Y-76998963D01*
X73827733Y-77423906D01*
X73738000Y-77875023D01*
X73738000Y-78334977D01*
X73827733Y-78786094D01*
X74003750Y-79211037D01*
X74127200Y-79395794D01*
X72237995Y-81285000D01*
X65498328Y-81285000D01*
X65404999Y-81275808D01*
X65311670Y-81285000D01*
X65311663Y-81285000D01*
X65069604Y-81308841D01*
X65032534Y-81312492D01*
X64749119Y-81398465D01*
X64674383Y-81421136D01*
X64344309Y-81597564D01*
X64190918Y-81723449D01*
X64127496Y-81775498D01*
X64127495Y-81775499D01*
X64054997Y-81834997D01*
X63995500Y-81907494D01*
X60952499Y-84950496D01*
X60879997Y-85009997D01*
X60642564Y-85299309D01*
X60466136Y-85629384D01*
X60357492Y-85987536D01*
X60330000Y-86266664D01*
X60330000Y-86266671D01*
X60320808Y-86360000D01*
X60330000Y-86453330D01*
X60330000Y-86645227D01*
X60293860Y-86689264D01*
X60173145Y-86915104D01*
X60098810Y-87160155D01*
X60073710Y-87415000D01*
X60073710Y-87758711D01*
X60007565Y-87839309D01*
X59831137Y-88169383D01*
X59831136Y-88169385D01*
X59722492Y-88527536D01*
X59685808Y-88900000D01*
X59695001Y-88993339D01*
X59695001Y-90047209D01*
X59690000Y-90053302D01*
X59510464Y-89834536D01*
X59274629Y-89640992D01*
X59005568Y-89497175D01*
X58713619Y-89408614D01*
X58410002Y-89378710D01*
X58169722Y-89378710D01*
X58157465Y-89374992D01*
X57878337Y-89347500D01*
X55330326Y-89347500D01*
X55174915Y-77070000D01*
X68651710Y-77070000D01*
X68651710Y-79140000D01*
X68676810Y-79394845D01*
X68751145Y-79639896D01*
X68871860Y-79865736D01*
X69034313Y-80063687D01*
X69232264Y-80226140D01*
X69458104Y-80346855D01*
X69703155Y-80421190D01*
X69958000Y-80446290D01*
X72028000Y-80446290D01*
X72282845Y-80421190D01*
X72527896Y-80346855D01*
X72753736Y-80226140D01*
X72951687Y-80063687D01*
X73114140Y-79865736D01*
X73234855Y-79639896D01*
X73309190Y-79394845D01*
X73334290Y-79140000D01*
X73334290Y-77070000D01*
X73309190Y-76815155D01*
X73234855Y-76570104D01*
X73114140Y-76344264D01*
X72951687Y-76146313D01*
X72753736Y-75983860D01*
X72527896Y-75863145D01*
X72282845Y-75788810D01*
X72028000Y-75763710D01*
X69958000Y-75763710D01*
X69703155Y-75788810D01*
X69458104Y-75863145D01*
X69232264Y-75983860D01*
X69034313Y-76146313D01*
X68871860Y-76344264D01*
X68751145Y-76570104D01*
X68676810Y-76815155D01*
X68651710Y-77070000D01*
X55174915Y-77070000D01*
X55046308Y-66910000D01*
X68651710Y-66910000D01*
X68651710Y-68980000D01*
X68676810Y-69234845D01*
X68751145Y-69479896D01*
X68871860Y-69705736D01*
X69034313Y-69903687D01*
X69232264Y-70066140D01*
X69458104Y-70186855D01*
X69703155Y-70261190D01*
X69958000Y-70286290D01*
X72028000Y-70286290D01*
X72282845Y-70261190D01*
X72527896Y-70186855D01*
X72753736Y-70066140D01*
X72951687Y-69903687D01*
X73114140Y-69705736D01*
X73234855Y-69479896D01*
X73309190Y-69234845D01*
X73334290Y-68980000D01*
X73334290Y-67715023D01*
X73738000Y-67715023D01*
X73738000Y-68174977D01*
X73827733Y-68626094D01*
X74003750Y-69051037D01*
X74259287Y-69433476D01*
X74584524Y-69758713D01*
X74966963Y-70014250D01*
X75391906Y-70190267D01*
X75843023Y-70280000D01*
X76302977Y-70280000D01*
X76754094Y-70190267D01*
X77179037Y-70014250D01*
X77561476Y-69758713D01*
X77886713Y-69433476D01*
X78142250Y-69051037D01*
X78318267Y-68626094D01*
X78408000Y-68174977D01*
X78408000Y-67715023D01*
X78318267Y-67263906D01*
X78142250Y-66838963D01*
X77886713Y-66456524D01*
X77561476Y-66131287D01*
X77179037Y-65875750D01*
X76754094Y-65699733D01*
X76302977Y-65610000D01*
X75843023Y-65610000D01*
X75391906Y-65699733D01*
X74966963Y-65875750D01*
X74584524Y-66131287D01*
X74259287Y-66456524D01*
X74003750Y-66838963D01*
X73827733Y-67263906D01*
X73738000Y-67715023D01*
X73334290Y-67715023D01*
X73334290Y-66910000D01*
X73309190Y-66655155D01*
X73234855Y-66410104D01*
X73114140Y-66184264D01*
X72951687Y-65986313D01*
X72753736Y-65823860D01*
X72527896Y-65703145D01*
X72282845Y-65628810D01*
X72028000Y-65603710D01*
X69958000Y-65603710D01*
X69703155Y-65628810D01*
X69458104Y-65703145D01*
X69232264Y-65823860D01*
X69034313Y-65986313D01*
X68871860Y-66184264D01*
X68751145Y-66410104D01*
X68676810Y-66655155D01*
X68651710Y-66910000D01*
X55046308Y-66910000D01*
X54917700Y-56750000D01*
X68651710Y-56750000D01*
X68651710Y-58820000D01*
X68676810Y-59074845D01*
X68751145Y-59319896D01*
X68871860Y-59545736D01*
X69034313Y-59743687D01*
X69232264Y-59906140D01*
X69458104Y-60026855D01*
X69703155Y-60101190D01*
X69958000Y-60126290D01*
X72028000Y-60126290D01*
X72282845Y-60101190D01*
X72527896Y-60026855D01*
X72753736Y-59906140D01*
X72951687Y-59743687D01*
X73114140Y-59545736D01*
X73234855Y-59319896D01*
X73309190Y-59074845D01*
X73334290Y-58820000D01*
X73334290Y-57555023D01*
X73738000Y-57555023D01*
X73738000Y-58014977D01*
X73827733Y-58466094D01*
X74003750Y-58891037D01*
X74259287Y-59273476D01*
X74584524Y-59598713D01*
X74966963Y-59854250D01*
X75391906Y-60030267D01*
X75843023Y-60120000D01*
X76302977Y-60120000D01*
X76754094Y-60030267D01*
X77179037Y-59854250D01*
X77561476Y-59598713D01*
X77886713Y-59273476D01*
X78142250Y-58891037D01*
X78318267Y-58466094D01*
X78408000Y-58014977D01*
X78408000Y-57555023D01*
X78318267Y-57103906D01*
X78142250Y-56678963D01*
X77886713Y-56296524D01*
X77561476Y-55971287D01*
X77179037Y-55715750D01*
X76754094Y-55539733D01*
X76302977Y-55450000D01*
X75843023Y-55450000D01*
X75391906Y-55539733D01*
X74966963Y-55715750D01*
X74584524Y-55971287D01*
X74259287Y-56296524D01*
X74003750Y-56678963D01*
X73827733Y-57103906D01*
X73738000Y-57555023D01*
X73334290Y-57555023D01*
X73334290Y-56750000D01*
X73309190Y-56495155D01*
X73234855Y-56250104D01*
X73114140Y-56024264D01*
X72951687Y-55826313D01*
X72753736Y-55663860D01*
X72527896Y-55543145D01*
X72282845Y-55468810D01*
X72028000Y-55443710D01*
X69958000Y-55443710D01*
X69703155Y-55468810D01*
X69458104Y-55543145D01*
X69232264Y-55663860D01*
X69034313Y-55826313D01*
X68871860Y-56024264D01*
X68751145Y-56250104D01*
X68676810Y-56495155D01*
X68651710Y-56750000D01*
X54917700Y-56750000D01*
X54789092Y-46590000D01*
X68778710Y-46590000D01*
X68778710Y-48660000D01*
X68803810Y-48914845D01*
X68878145Y-49159896D01*
X68998860Y-49385736D01*
X69161313Y-49583687D01*
X69359264Y-49746140D01*
X69585104Y-49866855D01*
X69830155Y-49941190D01*
X70085000Y-49966290D01*
X72155000Y-49966290D01*
X72409845Y-49941190D01*
X72654896Y-49866855D01*
X72880736Y-49746140D01*
X73078687Y-49583687D01*
X73241140Y-49385736D01*
X73361855Y-49159896D01*
X73436190Y-48914845D01*
X73461290Y-48660000D01*
X73461290Y-47395023D01*
X73865000Y-47395023D01*
X73865000Y-47854977D01*
X73954733Y-48306094D01*
X74130750Y-48731037D01*
X74386287Y-49113476D01*
X74711524Y-49438713D01*
X75093963Y-49694250D01*
X75518906Y-49870267D01*
X75970023Y-49960000D01*
X76429977Y-49960000D01*
X76881094Y-49870267D01*
X77306037Y-49694250D01*
X77688476Y-49438713D01*
X78013713Y-49113476D01*
X78269250Y-48731037D01*
X78445267Y-48306094D01*
X78535000Y-47854977D01*
X78535000Y-47395023D01*
X78445267Y-46943906D01*
X78269250Y-46518963D01*
X78013713Y-46136524D01*
X77688476Y-45811287D01*
X77306037Y-45555750D01*
X76881094Y-45379733D01*
X76429977Y-45290000D01*
X75970023Y-45290000D01*
X75518906Y-45379733D01*
X75093963Y-45555750D01*
X74711524Y-45811287D01*
X74386287Y-46136524D01*
X74130750Y-46518963D01*
X73954733Y-46943906D01*
X73865000Y-47395023D01*
X73461290Y-47395023D01*
X73461290Y-46590000D01*
X73436190Y-46335155D01*
X73361855Y-46090104D01*
X73241140Y-45864264D01*
X73078687Y-45666313D01*
X72880736Y-45503860D01*
X72654896Y-45383145D01*
X72409845Y-45308810D01*
X72155000Y-45283710D01*
X70085000Y-45283710D01*
X69830155Y-45308810D01*
X69585104Y-45383145D01*
X69359264Y-45503860D01*
X69161313Y-45666313D01*
X68998860Y-45864264D01*
X68878145Y-46090104D01*
X68803810Y-46335155D01*
X68778710Y-46590000D01*
X54789092Y-46590000D01*
X54739896Y-42703546D01*
X54726934Y-42536152D01*
X54666339Y-42288616D01*
X54558617Y-42057658D01*
X54407906Y-41852154D01*
X54220000Y-41680000D01*
X51680000Y-39775000D01*
X51481378Y-39652245D01*
X47671378Y-37747245D01*
X47343617Y-37634979D01*
X47090000Y-37610000D01*
X34390000Y-37610000D01*
X34136383Y-37634979D01*
X33892512Y-37708957D01*
X33667759Y-37829090D01*
X33470761Y-37990761D01*
X33309090Y-38187759D01*
X33188957Y-38412512D01*
X33114979Y-38656383D01*
X33090000Y-38910000D01*
X33090000Y-90305000D01*
X26090000Y-90305000D01*
X26090000Y-31031013D01*
X50485000Y-31031013D01*
X50485000Y-32468987D01*
X50765535Y-33879332D01*
X51315824Y-35207847D01*
X52114719Y-36403479D01*
X53131521Y-37420281D01*
X54327153Y-38219176D01*
X55655668Y-38769465D01*
X57066013Y-39050000D01*
X58503987Y-39050000D01*
X59914332Y-38769465D01*
X61242847Y-38219176D01*
X62438479Y-37420281D01*
X63455281Y-36403479D01*
X64254176Y-35207847D01*
X64804465Y-33879332D01*
X65085000Y-32468987D01*
X65085000Y-31031013D01*
X107000000Y-31031013D01*
X107000000Y-32468987D01*
X107280535Y-33879332D01*
X107830824Y-35207847D01*
X108629719Y-36403479D01*
X109646521Y-37420281D01*
X110842153Y-38219176D01*
X112170668Y-38769465D01*
X113581013Y-39050000D01*
X115018987Y-39050000D01*
X116429332Y-38769465D01*
X117757847Y-38219176D01*
X118953479Y-37420281D01*
X119970281Y-36403479D01*
X120769176Y-35207847D01*
X121319465Y-33879332D01*
X121600000Y-32468987D01*
X121600000Y-31031013D01*
X157165000Y-31031013D01*
X157165000Y-32468987D01*
X157445535Y-33879332D01*
X157995824Y-35207847D01*
X158794719Y-36403479D01*
X159811521Y-37420281D01*
X161007153Y-38219176D01*
X162335668Y-38769465D01*
X163746013Y-39050000D01*
X165183987Y-39050000D01*
X166594332Y-38769465D01*
X167922847Y-38219176D01*
X169118479Y-37420281D01*
X170135281Y-36403479D01*
X170934176Y-35207847D01*
X171484465Y-33879332D01*
X171765000Y-32468987D01*
X171765000Y-31031013D01*
X171484465Y-29620668D01*
X170934176Y-28292153D01*
X170135281Y-27096521D01*
X169118479Y-26079719D01*
X167922847Y-25280824D01*
X166594332Y-24730535D01*
X165183987Y-24450000D01*
X163746013Y-24450000D01*
X162335668Y-24730535D01*
X161007153Y-25280824D01*
X159811521Y-26079719D01*
X158794719Y-27096521D01*
X157995824Y-28292153D01*
X157445535Y-29620668D01*
X157165000Y-31031013D01*
X121600000Y-31031013D01*
X121319465Y-29620668D01*
X120769176Y-28292153D01*
X119970281Y-27096521D01*
X118953479Y-26079719D01*
X117757847Y-25280824D01*
X116429332Y-24730535D01*
X115018987Y-24450000D01*
X113581013Y-24450000D01*
X112170668Y-24730535D01*
X110842153Y-25280824D01*
X109646521Y-26079719D01*
X108629719Y-27096521D01*
X107830824Y-28292153D01*
X107280535Y-29620668D01*
X107000000Y-31031013D01*
X65085000Y-31031013D01*
X64804465Y-29620668D01*
X64254176Y-28292153D01*
X63455281Y-27096521D01*
X62438479Y-26079719D01*
X61242847Y-25280824D01*
X59914332Y-24730535D01*
X58503987Y-24450000D01*
X57066013Y-24450000D01*
X55655668Y-24730535D01*
X54327153Y-25280824D01*
X53131521Y-26079719D01*
X52114719Y-27096521D01*
X51315824Y-28292153D01*
X50765535Y-29620668D01*
X50485000Y-31031013D01*
X26090000Y-31031013D01*
X26090000Y-24185000D01*
X193620000Y-24185000D01*
X193620001Y-119515000D01*
%TA.AperFunction,Conductor*%
D25*
G36*
X193620001Y-119515000D02*
G01*
X172579594Y-119515000D01*
X172307919Y-94520860D01*
X172402436Y-94405691D01*
X172578864Y-94075617D01*
X172687508Y-93717465D01*
X172715000Y-93438337D01*
X172715000Y-93438329D01*
X172724192Y-93345000D01*
X172715000Y-93251671D01*
X172715000Y-90327047D01*
X172727868Y-90332377D01*
X173143243Y-90415000D01*
X173566757Y-90415000D01*
X173982132Y-90332377D01*
X174373407Y-90170305D01*
X174625000Y-90002196D01*
X174876593Y-90170305D01*
X175267868Y-90332377D01*
X175683243Y-90415000D01*
X176106757Y-90415000D01*
X176522132Y-90332377D01*
X176913407Y-90170305D01*
X177165000Y-90002196D01*
X177416593Y-90170305D01*
X177807868Y-90332377D01*
X178223243Y-90415000D01*
X178646757Y-90415000D01*
X179062132Y-90332377D01*
X179453407Y-90170305D01*
X179705000Y-90002196D01*
X179956593Y-90170305D01*
X180347868Y-90332377D01*
X180763243Y-90415000D01*
X181186757Y-90415000D01*
X181602132Y-90332377D01*
X181993407Y-90170305D01*
X182245000Y-90002196D01*
X182496593Y-90170305D01*
X182887868Y-90332377D01*
X183303243Y-90415000D01*
X183726757Y-90415000D01*
X184142132Y-90332377D01*
X184533407Y-90170305D01*
X184885545Y-89935014D01*
X185185014Y-89635545D01*
X185420305Y-89283407D01*
X185582377Y-88892132D01*
X185665000Y-88476757D01*
X185665000Y-88053243D01*
X185582377Y-87637868D01*
X185420305Y-87246593D01*
X185185014Y-86894455D01*
X184885545Y-86594986D01*
X184533407Y-86359695D01*
X184142132Y-86197623D01*
X183726757Y-86115000D01*
X183303243Y-86115000D01*
X182887868Y-86197623D01*
X182496593Y-86359695D01*
X182245000Y-86527804D01*
X181993407Y-86359695D01*
X181602132Y-86197623D01*
X181186757Y-86115000D01*
X180763243Y-86115000D01*
X180347868Y-86197623D01*
X179956593Y-86359695D01*
X179705000Y-86527804D01*
X179453407Y-86359695D01*
X179062132Y-86197623D01*
X178646757Y-86115000D01*
X178223243Y-86115000D01*
X177807868Y-86197623D01*
X177416593Y-86359695D01*
X177165000Y-86527804D01*
X176913407Y-86359695D01*
X176522132Y-86197623D01*
X176106757Y-86115000D01*
X175683243Y-86115000D01*
X175267868Y-86197623D01*
X174876593Y-86359695D01*
X174625000Y-86527804D01*
X174373407Y-86359695D01*
X173982132Y-86197623D01*
X173566757Y-86115000D01*
X173143243Y-86115000D01*
X172727868Y-86197623D01*
X172336593Y-86359695D01*
X172085000Y-86527804D01*
X171833407Y-86359695D01*
X171666462Y-86290544D01*
X172237006Y-85720000D01*
X181516671Y-85720000D01*
X181610000Y-85729192D01*
X181703329Y-85720000D01*
X181703337Y-85720000D01*
X181982465Y-85692508D01*
X182340617Y-85583864D01*
X182670691Y-85407436D01*
X182960003Y-85170003D01*
X183019504Y-85097501D01*
X185046506Y-83070500D01*
X185119003Y-83011003D01*
X185356436Y-82721691D01*
X185532864Y-82391617D01*
X185641508Y-82033465D01*
X185669000Y-81754337D01*
X185669000Y-81754330D01*
X185678192Y-81661001D01*
X185669000Y-81567672D01*
X185669000Y-80099338D01*
X185838250Y-79846037D01*
X186014267Y-79421094D01*
X186104000Y-78969977D01*
X186104000Y-78510023D01*
X186014267Y-78058906D01*
X185838250Y-77633963D01*
X185582713Y-77251524D01*
X185257476Y-76926287D01*
X184875037Y-76670750D01*
X184450094Y-76494733D01*
X183998977Y-76405000D01*
X183539023Y-76405000D01*
X183087906Y-76494733D01*
X182662963Y-76670750D01*
X182280524Y-76926287D01*
X181955287Y-77251524D01*
X181699750Y-77633963D01*
X181523733Y-78058906D01*
X181434000Y-78510023D01*
X181434000Y-78969977D01*
X181523733Y-79421094D01*
X181699750Y-79846037D01*
X181869000Y-80099339D01*
X181869001Y-80873994D01*
X180822995Y-81920000D01*
X171543328Y-81920000D01*
X171449999Y-81910808D01*
X171356670Y-81920000D01*
X171356663Y-81920000D01*
X171114604Y-81943841D01*
X171077534Y-81947492D01*
X170873095Y-82009508D01*
X170719383Y-82056136D01*
X170389309Y-82232564D01*
X170302869Y-82303504D01*
X170172496Y-82410498D01*
X170172494Y-82410500D01*
X170099997Y-82469997D01*
X170040500Y-82542494D01*
X166997499Y-85585496D01*
X166924997Y-85644997D01*
X166687564Y-85934309D01*
X166511136Y-86264384D01*
X166407693Y-86605390D01*
X166338860Y-86689264D01*
X166218145Y-86915104D01*
X166143810Y-87160155D01*
X166118710Y-87415000D01*
X166118710Y-89115000D01*
X166143810Y-89369845D01*
X166218145Y-89614896D01*
X166248001Y-89670752D01*
X166248000Y-90305000D01*
X163186623Y-90305000D01*
X163027130Y-77705000D01*
X176347710Y-77705000D01*
X176347710Y-79775000D01*
X176372810Y-80029845D01*
X176447145Y-80274896D01*
X176567860Y-80500736D01*
X176730313Y-80698687D01*
X176928264Y-80861140D01*
X177154104Y-80981855D01*
X177399155Y-81056190D01*
X177654000Y-81081290D01*
X179724000Y-81081290D01*
X179978845Y-81056190D01*
X180223896Y-80981855D01*
X180449736Y-80861140D01*
X180647687Y-80698687D01*
X180810140Y-80500736D01*
X180930855Y-80274896D01*
X181005190Y-80029845D01*
X181030290Y-79775000D01*
X181030290Y-77705000D01*
X181005190Y-77450155D01*
X180930855Y-77205104D01*
X180810140Y-76979264D01*
X180647687Y-76781313D01*
X180449736Y-76618860D01*
X180223896Y-76498145D01*
X179978845Y-76423810D01*
X179724000Y-76398710D01*
X177654000Y-76398710D01*
X177399155Y-76423810D01*
X177154104Y-76498145D01*
X176928264Y-76618860D01*
X176730313Y-76781313D01*
X176567860Y-76979264D01*
X176447145Y-77205104D01*
X176372810Y-77450155D01*
X176347710Y-77705000D01*
X163027130Y-77705000D01*
X162906561Y-68180000D01*
X176474710Y-68180000D01*
X176474710Y-70250000D01*
X176499810Y-70504845D01*
X176574145Y-70749896D01*
X176694860Y-70975736D01*
X176857313Y-71173687D01*
X177055264Y-71336140D01*
X177281104Y-71456855D01*
X177526155Y-71531190D01*
X177781000Y-71556290D01*
X179851000Y-71556290D01*
X180105845Y-71531190D01*
X180350896Y-71456855D01*
X180576736Y-71336140D01*
X180774687Y-71173687D01*
X180937140Y-70975736D01*
X181057855Y-70749896D01*
X181132190Y-70504845D01*
X181157290Y-70250000D01*
X181157290Y-68985023D01*
X181561000Y-68985023D01*
X181561000Y-69444977D01*
X181650733Y-69896094D01*
X181826750Y-70321037D01*
X182082287Y-70703476D01*
X182407524Y-71028713D01*
X182789963Y-71284250D01*
X183214906Y-71460267D01*
X183666023Y-71550000D01*
X184125977Y-71550000D01*
X184577094Y-71460267D01*
X185002037Y-71284250D01*
X185384476Y-71028713D01*
X185709713Y-70703476D01*
X185965250Y-70321037D01*
X186141267Y-69896094D01*
X186231000Y-69444977D01*
X186231000Y-68985023D01*
X186141267Y-68533906D01*
X185965250Y-68108963D01*
X185709713Y-67726524D01*
X185384476Y-67401287D01*
X185002037Y-67145750D01*
X184577094Y-66969733D01*
X184125977Y-66880000D01*
X183666023Y-66880000D01*
X183214906Y-66969733D01*
X182789963Y-67145750D01*
X182407524Y-67401287D01*
X182082287Y-67726524D01*
X181826750Y-68108963D01*
X181650733Y-68533906D01*
X181561000Y-68985023D01*
X181157290Y-68985023D01*
X181157290Y-68180000D01*
X181132190Y-67925155D01*
X181057855Y-67680104D01*
X180937140Y-67454264D01*
X180774687Y-67256313D01*
X180576736Y-67093860D01*
X180350896Y-66973145D01*
X180105845Y-66898810D01*
X179851000Y-66873710D01*
X177781000Y-66873710D01*
X177526155Y-66898810D01*
X177281104Y-66973145D01*
X177055264Y-67093860D01*
X176857313Y-67256313D01*
X176694860Y-67454264D01*
X176574145Y-67680104D01*
X176499810Y-67925155D01*
X176474710Y-68180000D01*
X162906561Y-68180000D01*
X162777953Y-58020000D01*
X176601710Y-58020000D01*
X176601710Y-60090000D01*
X176626810Y-60344845D01*
X176701145Y-60589896D01*
X176821860Y-60815736D01*
X176984313Y-61013687D01*
X177182264Y-61176140D01*
X177408104Y-61296855D01*
X177653155Y-61371190D01*
X177908000Y-61396290D01*
X179978000Y-61396290D01*
X180232845Y-61371190D01*
X180477896Y-61296855D01*
X180703736Y-61176140D01*
X180901687Y-61013687D01*
X181064140Y-60815736D01*
X181184855Y-60589896D01*
X181259190Y-60344845D01*
X181284290Y-60090000D01*
X181284290Y-58825023D01*
X181688000Y-58825023D01*
X181688000Y-59284977D01*
X181777733Y-59736094D01*
X181953750Y-60161037D01*
X182209287Y-60543476D01*
X182534524Y-60868713D01*
X182916963Y-61124250D01*
X183341906Y-61300267D01*
X183793023Y-61390000D01*
X184252977Y-61390000D01*
X184704094Y-61300267D01*
X185129037Y-61124250D01*
X185511476Y-60868713D01*
X185836713Y-60543476D01*
X186092250Y-60161037D01*
X186268267Y-59736094D01*
X186358000Y-59284977D01*
X186358000Y-58825023D01*
X186268267Y-58373906D01*
X186092250Y-57948963D01*
X185836713Y-57566524D01*
X185511476Y-57241287D01*
X185129037Y-56985750D01*
X184704094Y-56809733D01*
X184252977Y-56720000D01*
X183793023Y-56720000D01*
X183341906Y-56809733D01*
X182916963Y-56985750D01*
X182534524Y-57241287D01*
X182209287Y-57566524D01*
X181953750Y-57948963D01*
X181777733Y-58373906D01*
X181688000Y-58825023D01*
X181284290Y-58825023D01*
X181284290Y-58020000D01*
X181259190Y-57765155D01*
X181184855Y-57520104D01*
X181064140Y-57294264D01*
X180901687Y-57096313D01*
X180703736Y-56933860D01*
X180477896Y-56813145D01*
X180232845Y-56738810D01*
X179978000Y-56713710D01*
X177908000Y-56713710D01*
X177653155Y-56738810D01*
X177408104Y-56813145D01*
X177182264Y-56933860D01*
X176984313Y-57096313D01*
X176821860Y-57294264D01*
X176701145Y-57520104D01*
X176626810Y-57765155D01*
X176601710Y-58020000D01*
X162777953Y-58020000D01*
X162649345Y-47860000D01*
X176601710Y-47860000D01*
X176601710Y-49930000D01*
X176626810Y-50184845D01*
X176701145Y-50429896D01*
X176821860Y-50655736D01*
X176984313Y-50853687D01*
X177182264Y-51016140D01*
X177408104Y-51136855D01*
X177653155Y-51211190D01*
X177908000Y-51236290D01*
X179978000Y-51236290D01*
X180232845Y-51211190D01*
X180477896Y-51136855D01*
X180703736Y-51016140D01*
X180901687Y-50853687D01*
X181064140Y-50655736D01*
X181184855Y-50429896D01*
X181259190Y-50184845D01*
X181284290Y-49930000D01*
X181284290Y-48665023D01*
X181688000Y-48665023D01*
X181688000Y-49124977D01*
X181777733Y-49576094D01*
X181953750Y-50001037D01*
X182209287Y-50383476D01*
X182534524Y-50708713D01*
X182916963Y-50964250D01*
X183341906Y-51140267D01*
X183793023Y-51230000D01*
X184252977Y-51230000D01*
X184704094Y-51140267D01*
X185129037Y-50964250D01*
X185511476Y-50708713D01*
X185836713Y-50383476D01*
X186092250Y-50001037D01*
X186268267Y-49576094D01*
X186358000Y-49124977D01*
X186358000Y-48665023D01*
X186268267Y-48213906D01*
X186092250Y-47788963D01*
X185836713Y-47406524D01*
X185511476Y-47081287D01*
X185129037Y-46825750D01*
X184704094Y-46649733D01*
X184252977Y-46560000D01*
X183793023Y-46560000D01*
X183341906Y-46649733D01*
X182916963Y-46825750D01*
X182534524Y-47081287D01*
X182209287Y-47406524D01*
X181953750Y-47788963D01*
X181777733Y-48213906D01*
X181688000Y-48665023D01*
X181284290Y-48665023D01*
X181284290Y-47860000D01*
X181259190Y-47605155D01*
X181184855Y-47360104D01*
X181064140Y-47134264D01*
X180901687Y-46936313D01*
X180703736Y-46773860D01*
X180477896Y-46653145D01*
X180232845Y-46578810D01*
X179978000Y-46553710D01*
X177908000Y-46553710D01*
X177653155Y-46578810D01*
X177408104Y-46653145D01*
X177182264Y-46773860D01*
X176984313Y-46936313D01*
X176821860Y-47134264D01*
X176701145Y-47360104D01*
X176626810Y-47605155D01*
X176601710Y-47860000D01*
X162649345Y-47860000D01*
X162589896Y-43163546D01*
X162576934Y-42996152D01*
X162516339Y-42748616D01*
X162408617Y-42517658D01*
X162257906Y-42312154D01*
X162070000Y-42140000D01*
X159530000Y-40235000D01*
X159331378Y-40112245D01*
X155521378Y-38207245D01*
X155193617Y-38094979D01*
X154940000Y-38070000D01*
X142240000Y-38070000D01*
X141986383Y-38094979D01*
X141742512Y-38168957D01*
X141517759Y-38289090D01*
X141320761Y-38450761D01*
X141159090Y-38647759D01*
X141038957Y-38872512D01*
X140964979Y-39116383D01*
X140940000Y-39370000D01*
X140940000Y-90305000D01*
X131503226Y-90305000D01*
X131828407Y-90170305D01*
X132180545Y-89935014D01*
X132480014Y-89635545D01*
X132715305Y-89283407D01*
X132877377Y-88892132D01*
X132960000Y-88476757D01*
X132960000Y-88053243D01*
X132877377Y-87637868D01*
X132715305Y-87246593D01*
X132480014Y-86894455D01*
X132180545Y-86594986D01*
X131828407Y-86359695D01*
X131437132Y-86197623D01*
X131021757Y-86115000D01*
X130598243Y-86115000D01*
X130182868Y-86197623D01*
X129791593Y-86359695D01*
X129540000Y-86527804D01*
X129288407Y-86359695D01*
X128897132Y-86197623D01*
X128481757Y-86115000D01*
X128058243Y-86115000D01*
X127642868Y-86197623D01*
X127251593Y-86359695D01*
X127000000Y-86527804D01*
X126748407Y-86359695D01*
X126357132Y-86197623D01*
X125941757Y-86115000D01*
X125518243Y-86115000D01*
X125102868Y-86197623D01*
X124711593Y-86359695D01*
X124460000Y-86527804D01*
X124208407Y-86359695D01*
X123817132Y-86197623D01*
X123401757Y-86115000D01*
X122978243Y-86115000D01*
X122562868Y-86197623D01*
X122171593Y-86359695D01*
X121920000Y-86527804D01*
X121668407Y-86359695D01*
X121277132Y-86197623D01*
X120861757Y-86115000D01*
X120438243Y-86115000D01*
X120022868Y-86197623D01*
X119631593Y-86359695D01*
X119380000Y-86527804D01*
X119128407Y-86359695D01*
X118737132Y-86197623D01*
X118321757Y-86115000D01*
X117898243Y-86115000D01*
X117859249Y-86122756D01*
X118897005Y-85085000D01*
X127541671Y-85085000D01*
X127635000Y-85094192D01*
X127728329Y-85085000D01*
X127728337Y-85085000D01*
X128007465Y-85057508D01*
X128365617Y-84948864D01*
X128695691Y-84772436D01*
X128985003Y-84535003D01*
X129044504Y-84462501D01*
X131071506Y-82435500D01*
X131144003Y-82376003D01*
X131381436Y-82086691D01*
X131557864Y-81756617D01*
X131606112Y-81597564D01*
X131666508Y-81398466D01*
X131678589Y-81275808D01*
X131694000Y-81119337D01*
X131694000Y-81119330D01*
X131703192Y-81026001D01*
X131694000Y-80932672D01*
X131694000Y-79464338D01*
X131863250Y-79211037D01*
X132039267Y-78786094D01*
X132129000Y-78334977D01*
X132129000Y-77875023D01*
X132039267Y-77423906D01*
X131863250Y-76998963D01*
X131607713Y-76616524D01*
X131282476Y-76291287D01*
X130900037Y-76035750D01*
X130475094Y-75859733D01*
X130023977Y-75770000D01*
X129564023Y-75770000D01*
X129112906Y-75859733D01*
X128687963Y-76035750D01*
X128305524Y-76291287D01*
X127980287Y-76616524D01*
X127724750Y-76998963D01*
X127548733Y-77423906D01*
X127459000Y-77875023D01*
X127459000Y-78334977D01*
X127548733Y-78786094D01*
X127724750Y-79211037D01*
X127894000Y-79464339D01*
X127894001Y-80238994D01*
X126847995Y-81285000D01*
X118203328Y-81285000D01*
X118109999Y-81275808D01*
X118016670Y-81285000D01*
X118016663Y-81285000D01*
X117774604Y-81308841D01*
X117737534Y-81312492D01*
X117454119Y-81398465D01*
X117379383Y-81421136D01*
X117049309Y-81597564D01*
X116759997Y-81834997D01*
X116700498Y-81907497D01*
X114292499Y-84315496D01*
X114219997Y-84374997D01*
X113982564Y-84664309D01*
X113806136Y-84994384D01*
X113697492Y-85352536D01*
X113670000Y-85631664D01*
X113670000Y-85631671D01*
X113660808Y-85725000D01*
X113670000Y-85818330D01*
X113670000Y-86645227D01*
X113633860Y-86689264D01*
X113513145Y-86915104D01*
X113438810Y-87160155D01*
X113413710Y-87415000D01*
X113413710Y-89115000D01*
X113438810Y-89369845D01*
X113513145Y-89614896D01*
X113633860Y-89840736D01*
X113670001Y-89884774D01*
X113670000Y-90305000D01*
X113284975Y-90305000D01*
X113249629Y-90275992D01*
X112980568Y-90132175D01*
X112688619Y-90043614D01*
X112385002Y-90013710D01*
X112144722Y-90013710D01*
X112132465Y-90009992D01*
X111853337Y-89982500D01*
X107608097Y-89982500D01*
X107444648Y-77070000D01*
X122372710Y-77070000D01*
X122372710Y-79140000D01*
X122397810Y-79394845D01*
X122472145Y-79639896D01*
X122592860Y-79865736D01*
X122755313Y-80063687D01*
X122953264Y-80226140D01*
X123179104Y-80346855D01*
X123424155Y-80421190D01*
X123679000Y-80446290D01*
X125749000Y-80446290D01*
X126003845Y-80421190D01*
X126248896Y-80346855D01*
X126474736Y-80226140D01*
X126672687Y-80063687D01*
X126835140Y-79865736D01*
X126955855Y-79639896D01*
X127030190Y-79394845D01*
X127055290Y-79140000D01*
X127055290Y-77070000D01*
X127030190Y-76815155D01*
X126955855Y-76570104D01*
X126835140Y-76344264D01*
X126672687Y-76146313D01*
X126474736Y-75983860D01*
X126248896Y-75863145D01*
X126003845Y-75788810D01*
X125749000Y-75763710D01*
X123679000Y-75763710D01*
X123424155Y-75788810D01*
X123179104Y-75863145D01*
X122953264Y-75983860D01*
X122755313Y-76146313D01*
X122592860Y-76344264D01*
X122472145Y-76570104D01*
X122397810Y-76815155D01*
X122372710Y-77070000D01*
X107444648Y-77070000D01*
X107316041Y-66910000D01*
X122626710Y-66910000D01*
X122626710Y-68980000D01*
X122651810Y-69234845D01*
X122726145Y-69479896D01*
X122846860Y-69705736D01*
X123009313Y-69903687D01*
X123207264Y-70066140D01*
X123433104Y-70186855D01*
X123678155Y-70261190D01*
X123933000Y-70286290D01*
X126003000Y-70286290D01*
X126257845Y-70261190D01*
X126502896Y-70186855D01*
X126728736Y-70066140D01*
X126926687Y-69903687D01*
X127089140Y-69705736D01*
X127209855Y-69479896D01*
X127284190Y-69234845D01*
X127309290Y-68980000D01*
X127309290Y-67715023D01*
X127713000Y-67715023D01*
X127713000Y-68174977D01*
X127802733Y-68626094D01*
X127978750Y-69051037D01*
X128234287Y-69433476D01*
X128559524Y-69758713D01*
X128941963Y-70014250D01*
X129366906Y-70190267D01*
X129818023Y-70280000D01*
X130277977Y-70280000D01*
X130729094Y-70190267D01*
X131154037Y-70014250D01*
X131536476Y-69758713D01*
X131861713Y-69433476D01*
X132117250Y-69051037D01*
X132293267Y-68626094D01*
X132383000Y-68174977D01*
X132383000Y-67715023D01*
X132293267Y-67263906D01*
X132117250Y-66838963D01*
X131861713Y-66456524D01*
X131536476Y-66131287D01*
X131154037Y-65875750D01*
X130729094Y-65699733D01*
X130277977Y-65610000D01*
X129818023Y-65610000D01*
X129366906Y-65699733D01*
X128941963Y-65875750D01*
X128559524Y-66131287D01*
X128234287Y-66456524D01*
X127978750Y-66838963D01*
X127802733Y-67263906D01*
X127713000Y-67715023D01*
X127309290Y-67715023D01*
X127309290Y-66910000D01*
X127284190Y-66655155D01*
X127209855Y-66410104D01*
X127089140Y-66184264D01*
X126926687Y-65986313D01*
X126728736Y-65823860D01*
X126502896Y-65703145D01*
X126257845Y-65628810D01*
X126003000Y-65603710D01*
X123933000Y-65603710D01*
X123678155Y-65628810D01*
X123433104Y-65703145D01*
X123207264Y-65823860D01*
X123009313Y-65986313D01*
X122846860Y-66184264D01*
X122726145Y-66410104D01*
X122651810Y-66655155D01*
X122626710Y-66910000D01*
X107316041Y-66910000D01*
X107187433Y-56750000D01*
X122626710Y-56750000D01*
X122626710Y-58820000D01*
X122651810Y-59074845D01*
X122726145Y-59319896D01*
X122846860Y-59545736D01*
X123009313Y-59743687D01*
X123207264Y-59906140D01*
X123433104Y-60026855D01*
X123678155Y-60101190D01*
X123933000Y-60126290D01*
X126003000Y-60126290D01*
X126257845Y-60101190D01*
X126502896Y-60026855D01*
X126728736Y-59906140D01*
X126926687Y-59743687D01*
X127089140Y-59545736D01*
X127209855Y-59319896D01*
X127284190Y-59074845D01*
X127309290Y-58820000D01*
X127309290Y-57555023D01*
X127713000Y-57555023D01*
X127713000Y-58014977D01*
X127802733Y-58466094D01*
X127978750Y-58891037D01*
X128234287Y-59273476D01*
X128559524Y-59598713D01*
X128941963Y-59854250D01*
X129366906Y-60030267D01*
X129818023Y-60120000D01*
X130277977Y-60120000D01*
X130729094Y-60030267D01*
X131154037Y-59854250D01*
X131536476Y-59598713D01*
X131861713Y-59273476D01*
X132117250Y-58891037D01*
X132293267Y-58466094D01*
X132383000Y-58014977D01*
X132383000Y-57555023D01*
X132293267Y-57103906D01*
X132117250Y-56678963D01*
X131861713Y-56296524D01*
X131536476Y-55971287D01*
X131154037Y-55715750D01*
X130729094Y-55539733D01*
X130277977Y-55450000D01*
X129818023Y-55450000D01*
X129366906Y-55539733D01*
X128941963Y-55715750D01*
X128559524Y-55971287D01*
X128234287Y-56296524D01*
X127978750Y-56678963D01*
X127802733Y-57103906D01*
X127713000Y-57555023D01*
X127309290Y-57555023D01*
X127309290Y-56750000D01*
X127284190Y-56495155D01*
X127209855Y-56250104D01*
X127089140Y-56024264D01*
X126926687Y-55826313D01*
X126728736Y-55663860D01*
X126502896Y-55543145D01*
X126257845Y-55468810D01*
X126003000Y-55443710D01*
X123933000Y-55443710D01*
X123678155Y-55468810D01*
X123433104Y-55543145D01*
X123207264Y-55663860D01*
X123009313Y-55826313D01*
X122846860Y-56024264D01*
X122726145Y-56250104D01*
X122651810Y-56495155D01*
X122626710Y-56750000D01*
X107187433Y-56750000D01*
X107058825Y-46590000D01*
X122753710Y-46590000D01*
X122753710Y-48660000D01*
X122778810Y-48914845D01*
X122853145Y-49159896D01*
X122973860Y-49385736D01*
X123136313Y-49583687D01*
X123334264Y-49746140D01*
X123560104Y-49866855D01*
X123805155Y-49941190D01*
X124060000Y-49966290D01*
X126130000Y-49966290D01*
X126384845Y-49941190D01*
X126629896Y-49866855D01*
X126855736Y-49746140D01*
X127053687Y-49583687D01*
X127216140Y-49385736D01*
X127336855Y-49159896D01*
X127411190Y-48914845D01*
X127436290Y-48660000D01*
X127436290Y-47395023D01*
X127840000Y-47395023D01*
X127840000Y-47854977D01*
X127929733Y-48306094D01*
X128105750Y-48731037D01*
X128361287Y-49113476D01*
X128686524Y-49438713D01*
X129068963Y-49694250D01*
X129493906Y-49870267D01*
X129945023Y-49960000D01*
X130404977Y-49960000D01*
X130856094Y-49870267D01*
X131281037Y-49694250D01*
X131663476Y-49438713D01*
X131988713Y-49113476D01*
X132244250Y-48731037D01*
X132420267Y-48306094D01*
X132510000Y-47854977D01*
X132510000Y-47395023D01*
X132420267Y-46943906D01*
X132244250Y-46518963D01*
X131988713Y-46136524D01*
X131663476Y-45811287D01*
X131281037Y-45555750D01*
X130856094Y-45379733D01*
X130404977Y-45290000D01*
X129945023Y-45290000D01*
X129493906Y-45379733D01*
X129068963Y-45555750D01*
X128686524Y-45811287D01*
X128361287Y-46136524D01*
X128105750Y-46518963D01*
X127929733Y-46943906D01*
X127840000Y-47395023D01*
X127436290Y-47395023D01*
X127436290Y-46590000D01*
X127411190Y-46335155D01*
X127336855Y-46090104D01*
X127216140Y-45864264D01*
X127053687Y-45666313D01*
X126855736Y-45503860D01*
X126629896Y-45383145D01*
X126384845Y-45308810D01*
X126130000Y-45283710D01*
X124060000Y-45283710D01*
X123805155Y-45308810D01*
X123560104Y-45383145D01*
X123334264Y-45503860D01*
X123136313Y-45666313D01*
X122973860Y-45864264D01*
X122853145Y-46090104D01*
X122778810Y-46335155D01*
X122753710Y-46590000D01*
X107058825Y-46590000D01*
X107007414Y-42528546D01*
X106994452Y-42361152D01*
X106933857Y-42113616D01*
X106826135Y-41882658D01*
X106675424Y-41677154D01*
X106487518Y-41505000D01*
X103947518Y-39600000D01*
X103748896Y-39477245D01*
X99938896Y-37572245D01*
X99611135Y-37459979D01*
X99357518Y-37435000D01*
X86657518Y-37435000D01*
X86403901Y-37459979D01*
X86160030Y-37533957D01*
X85935277Y-37654090D01*
X85738279Y-37815761D01*
X85576608Y-38012759D01*
X85456475Y-38237512D01*
X85382497Y-38481383D01*
X85357518Y-38735000D01*
X85357518Y-90305000D01*
X78163226Y-90305000D01*
X78488407Y-90170305D01*
X78840545Y-89935014D01*
X79140014Y-89635545D01*
X79375305Y-89283407D01*
X79537377Y-88892132D01*
X79620000Y-88476757D01*
X79620000Y-88053243D01*
X79537377Y-87637868D01*
X79375305Y-87246593D01*
X79140014Y-86894455D01*
X78840545Y-86594986D01*
X78488407Y-86359695D01*
X78097132Y-86197623D01*
X77681757Y-86115000D01*
X77258243Y-86115000D01*
X76842868Y-86197623D01*
X76451593Y-86359695D01*
X76200000Y-86527804D01*
X75948407Y-86359695D01*
X75557132Y-86197623D01*
X75141757Y-86115000D01*
X74718243Y-86115000D01*
X74302868Y-86197623D01*
X73911593Y-86359695D01*
X73660000Y-86527804D01*
X73408407Y-86359695D01*
X73017132Y-86197623D01*
X72601757Y-86115000D01*
X72178243Y-86115000D01*
X71762868Y-86197623D01*
X71371593Y-86359695D01*
X71120000Y-86527804D01*
X70868407Y-86359695D01*
X70477132Y-86197623D01*
X70061757Y-86115000D01*
X69638243Y-86115000D01*
X69222868Y-86197623D01*
X68831593Y-86359695D01*
X68580000Y-86527804D01*
X68328407Y-86359695D01*
X67937132Y-86197623D01*
X67521757Y-86115000D01*
X67098243Y-86115000D01*
X66682868Y-86197623D01*
X66291593Y-86359695D01*
X66040000Y-86527804D01*
X65788407Y-86359695D01*
X65397132Y-86197623D01*
X65132100Y-86144905D01*
X66192006Y-85085000D01*
X72931671Y-85085000D01*
X73025000Y-85094192D01*
X73118329Y-85085000D01*
X73118337Y-85085000D01*
X73397465Y-85057508D01*
X73755617Y-84948864D01*
X74085691Y-84772436D01*
X74375003Y-84535003D01*
X74434504Y-84462501D01*
X77350506Y-81546500D01*
X77423003Y-81487003D01*
X77495665Y-81398465D01*
X77588783Y-81285000D01*
X77660436Y-81197691D01*
X77836864Y-80867617D01*
X77945508Y-80509465D01*
X77973000Y-80230337D01*
X77973000Y-80230329D01*
X77982192Y-80137000D01*
X77973000Y-80043671D01*
X77973000Y-79464338D01*
X78142250Y-79211037D01*
X78318267Y-78786094D01*
X78408000Y-78334977D01*
X78408000Y-77875023D01*
X78318267Y-77423906D01*
X78142250Y-76998963D01*
X77886713Y-76616524D01*
X77561476Y-76291287D01*
X77179037Y-76035750D01*
X76754094Y-75859733D01*
X76302977Y-75770000D01*
X75843023Y-75770000D01*
X75391906Y-75859733D01*
X74966963Y-76035750D01*
X74584524Y-76291287D01*
X74259287Y-76616524D01*
X74003750Y-76998963D01*
X73827733Y-77423906D01*
X73738000Y-77875023D01*
X73738000Y-78334977D01*
X73827733Y-78786094D01*
X74003750Y-79211037D01*
X74127200Y-79395794D01*
X72237995Y-81285000D01*
X65498328Y-81285000D01*
X65404999Y-81275808D01*
X65311670Y-81285000D01*
X65311663Y-81285000D01*
X65069604Y-81308841D01*
X65032534Y-81312492D01*
X64749119Y-81398465D01*
X64674383Y-81421136D01*
X64344309Y-81597564D01*
X64190918Y-81723449D01*
X64127496Y-81775498D01*
X64127495Y-81775499D01*
X64054997Y-81834997D01*
X63995500Y-81907494D01*
X60952499Y-84950496D01*
X60879997Y-85009997D01*
X60642564Y-85299309D01*
X60466136Y-85629384D01*
X60357492Y-85987536D01*
X60330000Y-86266664D01*
X60330000Y-86266671D01*
X60320808Y-86360000D01*
X60330000Y-86453330D01*
X60330000Y-86645227D01*
X60293860Y-86689264D01*
X60173145Y-86915104D01*
X60098810Y-87160155D01*
X60073710Y-87415000D01*
X60073710Y-87758711D01*
X60007565Y-87839309D01*
X59831137Y-88169383D01*
X59831136Y-88169385D01*
X59722492Y-88527536D01*
X59685808Y-88900000D01*
X59695001Y-88993339D01*
X59695001Y-90047209D01*
X59690000Y-90053302D01*
X59510464Y-89834536D01*
X59274629Y-89640992D01*
X59005568Y-89497175D01*
X58713619Y-89408614D01*
X58410002Y-89378710D01*
X58169722Y-89378710D01*
X58157465Y-89374992D01*
X57878337Y-89347500D01*
X55330326Y-89347500D01*
X55174915Y-77070000D01*
X68651710Y-77070000D01*
X68651710Y-79140000D01*
X68676810Y-79394845D01*
X68751145Y-79639896D01*
X68871860Y-79865736D01*
X69034313Y-80063687D01*
X69232264Y-80226140D01*
X69458104Y-80346855D01*
X69703155Y-80421190D01*
X69958000Y-80446290D01*
X72028000Y-80446290D01*
X72282845Y-80421190D01*
X72527896Y-80346855D01*
X72753736Y-80226140D01*
X72951687Y-80063687D01*
X73114140Y-79865736D01*
X73234855Y-79639896D01*
X73309190Y-79394845D01*
X73334290Y-79140000D01*
X73334290Y-77070000D01*
X73309190Y-76815155D01*
X73234855Y-76570104D01*
X73114140Y-76344264D01*
X72951687Y-76146313D01*
X72753736Y-75983860D01*
X72527896Y-75863145D01*
X72282845Y-75788810D01*
X72028000Y-75763710D01*
X69958000Y-75763710D01*
X69703155Y-75788810D01*
X69458104Y-75863145D01*
X69232264Y-75983860D01*
X69034313Y-76146313D01*
X68871860Y-76344264D01*
X68751145Y-76570104D01*
X68676810Y-76815155D01*
X68651710Y-77070000D01*
X55174915Y-77070000D01*
X55046308Y-66910000D01*
X68651710Y-66910000D01*
X68651710Y-68980000D01*
X68676810Y-69234845D01*
X68751145Y-69479896D01*
X68871860Y-69705736D01*
X69034313Y-69903687D01*
X69232264Y-70066140D01*
X69458104Y-70186855D01*
X69703155Y-70261190D01*
X69958000Y-70286290D01*
X72028000Y-70286290D01*
X72282845Y-70261190D01*
X72527896Y-70186855D01*
X72753736Y-70066140D01*
X72951687Y-69903687D01*
X73114140Y-69705736D01*
X73234855Y-69479896D01*
X73309190Y-69234845D01*
X73334290Y-68980000D01*
X73334290Y-67715023D01*
X73738000Y-67715023D01*
X73738000Y-68174977D01*
X73827733Y-68626094D01*
X74003750Y-69051037D01*
X74259287Y-69433476D01*
X74584524Y-69758713D01*
X74966963Y-70014250D01*
X75391906Y-70190267D01*
X75843023Y-70280000D01*
X76302977Y-70280000D01*
X76754094Y-70190267D01*
X77179037Y-70014250D01*
X77561476Y-69758713D01*
X77886713Y-69433476D01*
X78142250Y-69051037D01*
X78318267Y-68626094D01*
X78408000Y-68174977D01*
X78408000Y-67715023D01*
X78318267Y-67263906D01*
X78142250Y-66838963D01*
X77886713Y-66456524D01*
X77561476Y-66131287D01*
X77179037Y-65875750D01*
X76754094Y-65699733D01*
X76302977Y-65610000D01*
X75843023Y-65610000D01*
X75391906Y-65699733D01*
X74966963Y-65875750D01*
X74584524Y-66131287D01*
X74259287Y-66456524D01*
X74003750Y-66838963D01*
X73827733Y-67263906D01*
X73738000Y-67715023D01*
X73334290Y-67715023D01*
X73334290Y-66910000D01*
X73309190Y-66655155D01*
X73234855Y-66410104D01*
X73114140Y-66184264D01*
X72951687Y-65986313D01*
X72753736Y-65823860D01*
X72527896Y-65703145D01*
X72282845Y-65628810D01*
X72028000Y-65603710D01*
X69958000Y-65603710D01*
X69703155Y-65628810D01*
X69458104Y-65703145D01*
X69232264Y-65823860D01*
X69034313Y-65986313D01*
X68871860Y-66184264D01*
X68751145Y-66410104D01*
X68676810Y-66655155D01*
X68651710Y-66910000D01*
X55046308Y-66910000D01*
X54917700Y-56750000D01*
X68651710Y-56750000D01*
X68651710Y-58820000D01*
X68676810Y-59074845D01*
X68751145Y-59319896D01*
X68871860Y-59545736D01*
X69034313Y-59743687D01*
X69232264Y-59906140D01*
X69458104Y-60026855D01*
X69703155Y-60101190D01*
X69958000Y-60126290D01*
X72028000Y-60126290D01*
X72282845Y-60101190D01*
X72527896Y-60026855D01*
X72753736Y-59906140D01*
X72951687Y-59743687D01*
X73114140Y-59545736D01*
X73234855Y-59319896D01*
X73309190Y-59074845D01*
X73334290Y-58820000D01*
X73334290Y-57555023D01*
X73738000Y-57555023D01*
X73738000Y-58014977D01*
X73827733Y-58466094D01*
X74003750Y-58891037D01*
X74259287Y-59273476D01*
X74584524Y-59598713D01*
X74966963Y-59854250D01*
X75391906Y-60030267D01*
X75843023Y-60120000D01*
X76302977Y-60120000D01*
X76754094Y-60030267D01*
X77179037Y-59854250D01*
X77561476Y-59598713D01*
X77886713Y-59273476D01*
X78142250Y-58891037D01*
X78318267Y-58466094D01*
X78408000Y-58014977D01*
X78408000Y-57555023D01*
X78318267Y-57103906D01*
X78142250Y-56678963D01*
X77886713Y-56296524D01*
X77561476Y-55971287D01*
X77179037Y-55715750D01*
X76754094Y-55539733D01*
X76302977Y-55450000D01*
X75843023Y-55450000D01*
X75391906Y-55539733D01*
X74966963Y-55715750D01*
X74584524Y-55971287D01*
X74259287Y-56296524D01*
X74003750Y-56678963D01*
X73827733Y-57103906D01*
X73738000Y-57555023D01*
X73334290Y-57555023D01*
X73334290Y-56750000D01*
X73309190Y-56495155D01*
X73234855Y-56250104D01*
X73114140Y-56024264D01*
X72951687Y-55826313D01*
X72753736Y-55663860D01*
X72527896Y-55543145D01*
X72282845Y-55468810D01*
X72028000Y-55443710D01*
X69958000Y-55443710D01*
X69703155Y-55468810D01*
X69458104Y-55543145D01*
X69232264Y-55663860D01*
X69034313Y-55826313D01*
X68871860Y-56024264D01*
X68751145Y-56250104D01*
X68676810Y-56495155D01*
X68651710Y-56750000D01*
X54917700Y-56750000D01*
X54789092Y-46590000D01*
X68778710Y-46590000D01*
X68778710Y-48660000D01*
X68803810Y-48914845D01*
X68878145Y-49159896D01*
X68998860Y-49385736D01*
X69161313Y-49583687D01*
X69359264Y-49746140D01*
X69585104Y-49866855D01*
X69830155Y-49941190D01*
X70085000Y-49966290D01*
X72155000Y-49966290D01*
X72409845Y-49941190D01*
X72654896Y-49866855D01*
X72880736Y-49746140D01*
X73078687Y-49583687D01*
X73241140Y-49385736D01*
X73361855Y-49159896D01*
X73436190Y-48914845D01*
X73461290Y-48660000D01*
X73461290Y-47395023D01*
X73865000Y-47395023D01*
X73865000Y-47854977D01*
X73954733Y-48306094D01*
X74130750Y-48731037D01*
X74386287Y-49113476D01*
X74711524Y-49438713D01*
X75093963Y-49694250D01*
X75518906Y-49870267D01*
X75970023Y-49960000D01*
X76429977Y-49960000D01*
X76881094Y-49870267D01*
X77306037Y-49694250D01*
X77688476Y-49438713D01*
X78013713Y-49113476D01*
X78269250Y-48731037D01*
X78445267Y-48306094D01*
X78535000Y-47854977D01*
X78535000Y-47395023D01*
X78445267Y-46943906D01*
X78269250Y-46518963D01*
X78013713Y-46136524D01*
X77688476Y-45811287D01*
X77306037Y-45555750D01*
X76881094Y-45379733D01*
X76429977Y-45290000D01*
X75970023Y-45290000D01*
X75518906Y-45379733D01*
X75093963Y-45555750D01*
X74711524Y-45811287D01*
X74386287Y-46136524D01*
X74130750Y-46518963D01*
X73954733Y-46943906D01*
X73865000Y-47395023D01*
X73461290Y-47395023D01*
X73461290Y-46590000D01*
X73436190Y-46335155D01*
X73361855Y-46090104D01*
X73241140Y-45864264D01*
X73078687Y-45666313D01*
X72880736Y-45503860D01*
X72654896Y-45383145D01*
X72409845Y-45308810D01*
X72155000Y-45283710D01*
X70085000Y-45283710D01*
X69830155Y-45308810D01*
X69585104Y-45383145D01*
X69359264Y-45503860D01*
X69161313Y-45666313D01*
X68998860Y-45864264D01*
X68878145Y-46090104D01*
X68803810Y-46335155D01*
X68778710Y-46590000D01*
X54789092Y-46590000D01*
X54739896Y-42703546D01*
X54726934Y-42536152D01*
X54666339Y-42288616D01*
X54558617Y-42057658D01*
X54407906Y-41852154D01*
X54220000Y-41680000D01*
X51680000Y-39775000D01*
X51481378Y-39652245D01*
X47671378Y-37747245D01*
X47343617Y-37634979D01*
X47090000Y-37610000D01*
X34390000Y-37610000D01*
X34136383Y-37634979D01*
X33892512Y-37708957D01*
X33667759Y-37829090D01*
X33470761Y-37990761D01*
X33309090Y-38187759D01*
X33188957Y-38412512D01*
X33114979Y-38656383D01*
X33090000Y-38910000D01*
X33090000Y-90305000D01*
X26090000Y-90305000D01*
X26090000Y-31031013D01*
X50485000Y-31031013D01*
X50485000Y-32468987D01*
X50765535Y-33879332D01*
X51315824Y-35207847D01*
X52114719Y-36403479D01*
X53131521Y-37420281D01*
X54327153Y-38219176D01*
X55655668Y-38769465D01*
X57066013Y-39050000D01*
X58503987Y-39050000D01*
X59914332Y-38769465D01*
X61242847Y-38219176D01*
X62438479Y-37420281D01*
X63455281Y-36403479D01*
X64254176Y-35207847D01*
X64804465Y-33879332D01*
X65085000Y-32468987D01*
X65085000Y-31031013D01*
X107000000Y-31031013D01*
X107000000Y-32468987D01*
X107280535Y-33879332D01*
X107830824Y-35207847D01*
X108629719Y-36403479D01*
X109646521Y-37420281D01*
X110842153Y-38219176D01*
X112170668Y-38769465D01*
X113581013Y-39050000D01*
X115018987Y-39050000D01*
X116429332Y-38769465D01*
X117757847Y-38219176D01*
X118953479Y-37420281D01*
X119970281Y-36403479D01*
X120769176Y-35207847D01*
X121319465Y-33879332D01*
X121600000Y-32468987D01*
X121600000Y-31031013D01*
X157165000Y-31031013D01*
X157165000Y-32468987D01*
X157445535Y-33879332D01*
X157995824Y-35207847D01*
X158794719Y-36403479D01*
X159811521Y-37420281D01*
X161007153Y-38219176D01*
X162335668Y-38769465D01*
X163746013Y-39050000D01*
X165183987Y-39050000D01*
X166594332Y-38769465D01*
X167922847Y-38219176D01*
X169118479Y-37420281D01*
X170135281Y-36403479D01*
X170934176Y-35207847D01*
X171484465Y-33879332D01*
X171765000Y-32468987D01*
X171765000Y-31031013D01*
X171484465Y-29620668D01*
X170934176Y-28292153D01*
X170135281Y-27096521D01*
X169118479Y-26079719D01*
X167922847Y-25280824D01*
X166594332Y-24730535D01*
X165183987Y-24450000D01*
X163746013Y-24450000D01*
X162335668Y-24730535D01*
X161007153Y-25280824D01*
X159811521Y-26079719D01*
X158794719Y-27096521D01*
X157995824Y-28292153D01*
X157445535Y-29620668D01*
X157165000Y-31031013D01*
X121600000Y-31031013D01*
X121319465Y-29620668D01*
X120769176Y-28292153D01*
X119970281Y-27096521D01*
X118953479Y-26079719D01*
X117757847Y-25280824D01*
X116429332Y-24730535D01*
X115018987Y-24450000D01*
X113581013Y-24450000D01*
X112170668Y-24730535D01*
X110842153Y-25280824D01*
X109646521Y-26079719D01*
X108629719Y-27096521D01*
X107830824Y-28292153D01*
X107280535Y-29620668D01*
X107000000Y-31031013D01*
X65085000Y-31031013D01*
X64804465Y-29620668D01*
X64254176Y-28292153D01*
X63455281Y-27096521D01*
X62438479Y-26079719D01*
X61242847Y-25280824D01*
X59914332Y-24730535D01*
X58503987Y-24450000D01*
X57066013Y-24450000D01*
X55655668Y-24730535D01*
X54327153Y-25280824D01*
X53131521Y-26079719D01*
X52114719Y-27096521D01*
X51315824Y-28292153D01*
X50765535Y-29620668D01*
X50485000Y-31031013D01*
X26090000Y-31031013D01*
X26090000Y-24185000D01*
X193620000Y-24185000D01*
X193620001Y-119515000D01*
G37*
%TD.AperFunction*%
%TD*%
M02*
