%TF.GenerationSoftware,KiCad,Pcbnew,(5.1.10)-1*%
%TF.CreationDate,2022-02-15T22:07:18+02:00*%
%TF.ProjectId,SEM,53454d2e-6b69-4636-9164-5f7063625858,rev?*%
%TF.SameCoordinates,Original*%
%TF.FileFunction,Soldermask,Bot*%
%TF.FilePolarity,Negative*%
%FSLAX46Y46*%
G04 Gerber Fmt 4.6, Leading zero omitted, Abs format (unit mm)*
G04 Created by KiCad (PCBNEW (5.1.10)-1) date 2022-02-15 22:07:18*
%MOMM*%
%LPD*%
G01*
G04 APERTURE LIST*
%ADD10R,1.700000X1.700000*%
%ADD11O,1.700000X1.700000*%
%ADD12C,2.070000*%
%ADD13R,2.070000X2.070000*%
%ADD14C,1.600000*%
%ADD15R,1.600000X1.600000*%
%ADD16C,2.000000*%
%ADD17C,2.400000*%
%ADD18C,12.000000*%
%ADD19C,6.400000*%
%ADD20R,12.000000X5.500000*%
%ADD21R,1.500000X1.500000*%
%ADD22C,1.500000*%
G04 APERTURE END LIST*
%TO.C,R53*%
G36*
G01*
X57159998Y-93610000D02*
X58410002Y-93610000D01*
G75*
G02*
X58660000Y-93859998I0J-249998D01*
G01*
X58660000Y-94485002D01*
G75*
G02*
X58410002Y-94735000I-249998J0D01*
G01*
X57159998Y-94735000D01*
G75*
G02*
X56910000Y-94485002I0J249998D01*
G01*
X56910000Y-93859998D01*
G75*
G02*
X57159998Y-93610000I249998J0D01*
G01*
G37*
G36*
G01*
X57159998Y-90685000D02*
X58410002Y-90685000D01*
G75*
G02*
X58660000Y-90934998I0J-249998D01*
G01*
X58660000Y-91560002D01*
G75*
G02*
X58410002Y-91810000I-249998J0D01*
G01*
X57159998Y-91810000D01*
G75*
G02*
X56910000Y-91560002I0J249998D01*
G01*
X56910000Y-90934998D01*
G75*
G02*
X57159998Y-90685000I249998J0D01*
G01*
G37*
%TD*%
%TO.C,R81*%
G36*
G01*
X168773002Y-92699000D02*
X167522998Y-92699000D01*
G75*
G02*
X167273000Y-92449002I0J249998D01*
G01*
X167273000Y-91823998D01*
G75*
G02*
X167522998Y-91574000I249998J0D01*
G01*
X168773002Y-91574000D01*
G75*
G02*
X169023000Y-91823998I0J-249998D01*
G01*
X169023000Y-92449002D01*
G75*
G02*
X168773002Y-92699000I-249998J0D01*
G01*
G37*
G36*
G01*
X168773002Y-95624000D02*
X167522998Y-95624000D01*
G75*
G02*
X167273000Y-95374002I0J249998D01*
G01*
X167273000Y-94748998D01*
G75*
G02*
X167522998Y-94499000I249998J0D01*
G01*
X168773002Y-94499000D01*
G75*
G02*
X169023000Y-94748998I0J-249998D01*
G01*
X169023000Y-95374002D01*
G75*
G02*
X168773002Y-95624000I-249998J0D01*
G01*
G37*
%TD*%
D10*
%TO.C,J12*%
X168275000Y-88265000D03*
D11*
X170815000Y-88265000D03*
X173355000Y-88265000D03*
X175895000Y-88265000D03*
X178435000Y-88265000D03*
X180975000Y-88265000D03*
X183515000Y-88265000D03*
%TD*%
%TO.C,J11*%
X77470000Y-88265000D03*
X74930000Y-88265000D03*
X72390000Y-88265000D03*
X69850000Y-88265000D03*
X67310000Y-88265000D03*
X64770000Y-88265000D03*
D10*
X62230000Y-88265000D03*
%TD*%
D12*
%TO.C,Q16*%
X145288000Y-67056000D03*
X147828000Y-67056000D03*
D13*
X150368000Y-67056000D03*
%TD*%
D12*
%TO.C,Q15*%
X183896000Y-69215000D03*
X181356000Y-69215000D03*
D13*
X178816000Y-69215000D03*
%TD*%
D12*
%TO.C,Q18*%
X91313000Y-66421000D03*
X93853000Y-66421000D03*
D13*
X96393000Y-66421000D03*
%TD*%
D12*
%TO.C,Q23*%
X129794000Y-78105000D03*
X127254000Y-78105000D03*
D13*
X124714000Y-78105000D03*
%TD*%
D12*
%TO.C,Q19*%
X76073000Y-78105000D03*
X73533000Y-78105000D03*
D13*
X70993000Y-78105000D03*
%TD*%
D12*
%TO.C,Q20*%
X37338000Y-77851000D03*
X39878000Y-77851000D03*
D13*
X42418000Y-77851000D03*
%TD*%
D12*
%TO.C,Q22*%
X145288000Y-76581000D03*
X147828000Y-76581000D03*
D13*
X150368000Y-76581000D03*
%TD*%
D12*
%TO.C,Q17*%
X130048000Y-67945000D03*
X127508000Y-67945000D03*
D13*
X124968000Y-67945000D03*
%TD*%
D12*
%TO.C,Q24*%
X91313000Y-77216000D03*
X93853000Y-77216000D03*
D13*
X96393000Y-77216000D03*
%TD*%
D12*
%TO.C,Q21*%
X183769000Y-78740000D03*
X181229000Y-78740000D03*
D13*
X178689000Y-78740000D03*
%TD*%
D14*
%TO.C,C59*%
X113665000Y-129500000D03*
D15*
X113665000Y-127000000D03*
%TD*%
%TO.C,R84*%
G36*
G01*
X111134998Y-94245000D02*
X112385002Y-94245000D01*
G75*
G02*
X112635000Y-94494998I0J-249998D01*
G01*
X112635000Y-95120002D01*
G75*
G02*
X112385002Y-95370000I-249998J0D01*
G01*
X111134998Y-95370000D01*
G75*
G02*
X110885000Y-95120002I0J249998D01*
G01*
X110885000Y-94494998D01*
G75*
G02*
X111134998Y-94245000I249998J0D01*
G01*
G37*
G36*
G01*
X111134998Y-91320000D02*
X112385002Y-91320000D01*
G75*
G02*
X112635000Y-91569998I0J-249998D01*
G01*
X112635000Y-92195002D01*
G75*
G02*
X112385002Y-92445000I-249998J0D01*
G01*
X111134998Y-92445000D01*
G75*
G02*
X110885000Y-92195002I0J249998D01*
G01*
X110885000Y-91569998D01*
G75*
G02*
X111134998Y-91320000I249998J0D01*
G01*
G37*
%TD*%
D16*
%TO.C,C48*%
X175420000Y-126365000D03*
X185420000Y-126365000D03*
%TD*%
D14*
%TO.C,C43*%
X132715000Y-129500000D03*
D15*
X132715000Y-127000000D03*
%TD*%
D17*
%TO.C,C47*%
X128665000Y-139700000D03*
X113665000Y-139700000D03*
%TD*%
D18*
%TO.C,J2*%
X164465000Y-31750000D03*
D19*
X164465000Y-31750000D03*
%TD*%
D17*
%TO.C,C41*%
X148985000Y-139700000D03*
X133985000Y-139700000D03*
%TD*%
D14*
%TO.C,C58*%
X67985000Y-128270000D03*
D15*
X70485000Y-128270000D03*
%TD*%
D18*
%TO.C,J7*%
X36830000Y-137160000D03*
D19*
X36830000Y-137160000D03*
%TD*%
D16*
%TO.C,C51*%
X159545000Y-126365000D03*
X169545000Y-126365000D03*
%TD*%
%TO.C,R61*%
G36*
G01*
X174890000Y-130800002D02*
X174890000Y-129549998D01*
G75*
G02*
X175139998Y-129300000I249998J0D01*
G01*
X175765002Y-129300000D01*
G75*
G02*
X176015000Y-129549998I0J-249998D01*
G01*
X176015000Y-130800002D01*
G75*
G02*
X175765002Y-131050000I-249998J0D01*
G01*
X175139998Y-131050000D01*
G75*
G02*
X174890000Y-130800002I0J249998D01*
G01*
G37*
G36*
G01*
X171965000Y-130800002D02*
X171965000Y-129549998D01*
G75*
G02*
X172214998Y-129300000I249998J0D01*
G01*
X172840002Y-129300000D01*
G75*
G02*
X173090000Y-129549998I0J-249998D01*
G01*
X173090000Y-130800002D01*
G75*
G02*
X172840002Y-131050000I-249998J0D01*
G01*
X172214998Y-131050000D01*
G75*
G02*
X171965000Y-130800002I0J249998D01*
G01*
G37*
%TD*%
D18*
%TO.C,J3*%
X114300000Y-31750000D03*
D19*
X114300000Y-31750000D03*
%TD*%
D14*
%TO.C,C46*%
X97115000Y-128270000D03*
D15*
X94615000Y-128270000D03*
%TD*%
D17*
%TO.C,C44*%
X52945000Y-139700000D03*
X67945000Y-139700000D03*
%TD*%
D14*
%TO.C,C56*%
X79335000Y-128270000D03*
D15*
X76835000Y-128270000D03*
%TD*%
%TO.C,R83*%
G36*
G01*
X116195002Y-92445000D02*
X114944998Y-92445000D01*
G75*
G02*
X114695000Y-92195002I0J249998D01*
G01*
X114695000Y-91569998D01*
G75*
G02*
X114944998Y-91320000I249998J0D01*
G01*
X116195002Y-91320000D01*
G75*
G02*
X116445000Y-91569998I0J-249998D01*
G01*
X116445000Y-92195002D01*
G75*
G02*
X116195002Y-92445000I-249998J0D01*
G01*
G37*
G36*
G01*
X116195002Y-95370000D02*
X114944998Y-95370000D01*
G75*
G02*
X114695000Y-95120002I0J249998D01*
G01*
X114695000Y-94494998D01*
G75*
G02*
X114944998Y-94245000I249998J0D01*
G01*
X116195002Y-94245000D01*
G75*
G02*
X116445000Y-94494998I0J-249998D01*
G01*
X116445000Y-95120002D01*
G75*
G02*
X116195002Y-95370000I-249998J0D01*
G01*
G37*
%TD*%
%TO.C,R82*%
G36*
G01*
X163839998Y-94691500D02*
X165090002Y-94691500D01*
G75*
G02*
X165340000Y-94941498I0J-249998D01*
G01*
X165340000Y-95566502D01*
G75*
G02*
X165090002Y-95816500I-249998J0D01*
G01*
X163839998Y-95816500D01*
G75*
G02*
X163590000Y-95566502I0J249998D01*
G01*
X163590000Y-94941498D01*
G75*
G02*
X163839998Y-94691500I249998J0D01*
G01*
G37*
G36*
G01*
X163839998Y-91766500D02*
X165090002Y-91766500D01*
G75*
G02*
X165340000Y-92016498I0J-249998D01*
G01*
X165340000Y-92641502D01*
G75*
G02*
X165090002Y-92891500I-249998J0D01*
G01*
X163839998Y-92891500D01*
G75*
G02*
X163590000Y-92641502I0J249998D01*
G01*
X163590000Y-92016498D01*
G75*
G02*
X163839998Y-91766500I249998J0D01*
G01*
G37*
%TD*%
%TO.C,R59*%
G36*
G01*
X183780000Y-131435002D02*
X183780000Y-130184998D01*
G75*
G02*
X184029998Y-129935000I249998J0D01*
G01*
X184655002Y-129935000D01*
G75*
G02*
X184905000Y-130184998I0J-249998D01*
G01*
X184905000Y-131435002D01*
G75*
G02*
X184655002Y-131685000I-249998J0D01*
G01*
X184029998Y-131685000D01*
G75*
G02*
X183780000Y-131435002I0J249998D01*
G01*
G37*
G36*
G01*
X180855000Y-131435002D02*
X180855000Y-130184998D01*
G75*
G02*
X181104998Y-129935000I249998J0D01*
G01*
X181730002Y-129935000D01*
G75*
G02*
X181980000Y-130184998I0J-249998D01*
G01*
X181980000Y-131435002D01*
G75*
G02*
X181730002Y-131685000I-249998J0D01*
G01*
X181104998Y-131685000D01*
G75*
G02*
X180855000Y-131435002I0J249998D01*
G01*
G37*
%TD*%
D20*
%TO.C,U4*%
X66040000Y-114935000D03*
X66040000Y-104935000D03*
D21*
X41440000Y-111845000D03*
D22*
X41440000Y-108025000D03*
X41440000Y-109935000D03*
%TD*%
D18*
%TO.C,J1*%
X57785000Y-31750000D03*
D19*
X57785000Y-31750000D03*
%TD*%
D14*
%TO.C,C57*%
X104775000Y-129500000D03*
D15*
X104775000Y-127000000D03*
%TD*%
D14*
%TO.C,C52*%
X151725000Y-128270000D03*
D15*
X149225000Y-128270000D03*
%TD*%
D14*
%TO.C,C49*%
X123825000Y-129500000D03*
D15*
X123825000Y-127000000D03*
%TD*%
D12*
%TO.C,Q4*%
X145288000Y-46736000D03*
X147828000Y-46736000D03*
D13*
X150368000Y-46736000D03*
%TD*%
D14*
%TO.C,C60*%
X88225000Y-128270000D03*
D15*
X85725000Y-128270000D03*
%TD*%
D20*
%TO.C,U5*%
X161925000Y-115570000D03*
X161925000Y-105570000D03*
D21*
X137325000Y-112480000D03*
D22*
X137325000Y-108660000D03*
X137325000Y-110570000D03*
%TD*%
D17*
%TO.C,C55*%
X73265000Y-139700000D03*
X88265000Y-139700000D03*
%TD*%
%TO.C,C53*%
X169305000Y-139700000D03*
X154305000Y-139700000D03*
%TD*%
%TO.C,C50*%
X108345000Y-139700000D03*
X93345000Y-139700000D03*
%TD*%
D20*
%TO.C,U6*%
X109055000Y-114215000D03*
X109055000Y-104215000D03*
D21*
X84455000Y-111125000D03*
D22*
X84455000Y-107305000D03*
X84455000Y-109215000D03*
%TD*%
D11*
%TO.C,J13*%
X130810000Y-88265000D03*
X128270000Y-88265000D03*
X125730000Y-88265000D03*
X123190000Y-88265000D03*
X120650000Y-88265000D03*
X118110000Y-88265000D03*
D10*
X115570000Y-88265000D03*
%TD*%
D14*
%TO.C,C40*%
X142835000Y-128270000D03*
D15*
X140335000Y-128270000D03*
%TD*%
D12*
%TO.C,Q14*%
X37338000Y-67056000D03*
X39878000Y-67056000D03*
D13*
X42418000Y-67056000D03*
%TD*%
D12*
%TO.C,Q6*%
X91313000Y-46101000D03*
X93853000Y-46101000D03*
D13*
X96393000Y-46101000D03*
%TD*%
D12*
%TO.C,Q11*%
X130048000Y-57785000D03*
X127508000Y-57785000D03*
D13*
X124968000Y-57785000D03*
%TD*%
D12*
%TO.C,Q10*%
X145288000Y-56896000D03*
X147828000Y-56896000D03*
D13*
X150368000Y-56896000D03*
%TD*%
%TO.C,R62*%
G36*
G01*
X159650000Y-130800002D02*
X159650000Y-129549998D01*
G75*
G02*
X159899998Y-129300000I249998J0D01*
G01*
X160525002Y-129300000D01*
G75*
G02*
X160775000Y-129549998I0J-249998D01*
G01*
X160775000Y-130800002D01*
G75*
G02*
X160525002Y-131050000I-249998J0D01*
G01*
X159899998Y-131050000D01*
G75*
G02*
X159650000Y-130800002I0J249998D01*
G01*
G37*
G36*
G01*
X156725000Y-130800002D02*
X156725000Y-129549998D01*
G75*
G02*
X156974998Y-129300000I249998J0D01*
G01*
X157600002Y-129300000D01*
G75*
G02*
X157850000Y-129549998I0J-249998D01*
G01*
X157850000Y-130800002D01*
G75*
G02*
X157600002Y-131050000I-249998J0D01*
G01*
X156974998Y-131050000D01*
G75*
G02*
X156725000Y-130800002I0J249998D01*
G01*
G37*
%TD*%
%TO.C,R52*%
G36*
G01*
X62220002Y-91810000D02*
X60969998Y-91810000D01*
G75*
G02*
X60720000Y-91560002I0J249998D01*
G01*
X60720000Y-90934998D01*
G75*
G02*
X60969998Y-90685000I249998J0D01*
G01*
X62220002Y-90685000D01*
G75*
G02*
X62470000Y-90934998I0J-249998D01*
G01*
X62470000Y-91560002D01*
G75*
G02*
X62220002Y-91810000I-249998J0D01*
G01*
G37*
G36*
G01*
X62220002Y-94735000D02*
X60969998Y-94735000D01*
G75*
G02*
X60720000Y-94485002I0J249998D01*
G01*
X60720000Y-93859998D01*
G75*
G02*
X60969998Y-93610000I249998J0D01*
G01*
X62220002Y-93610000D01*
G75*
G02*
X62470000Y-93859998I0J-249998D01*
G01*
X62470000Y-94485002D01*
G75*
G02*
X62220002Y-94735000I-249998J0D01*
G01*
G37*
%TD*%
D12*
%TO.C,Q2*%
X37338000Y-45466000D03*
X39878000Y-45466000D03*
D13*
X42418000Y-45466000D03*
%TD*%
D18*
%TO.C,J6*%
X186055000Y-113030000D03*
D19*
X186055000Y-113030000D03*
%TD*%
D16*
%TO.C,C45*%
X184150000Y-134780000D03*
X184150000Y-144780000D03*
%TD*%
D12*
%TO.C,Q12*%
X91313000Y-56261000D03*
X93853000Y-56261000D03*
D13*
X96393000Y-56261000D03*
%TD*%
D12*
%TO.C,Q3*%
X184023000Y-48895000D03*
X181483000Y-48895000D03*
D13*
X178943000Y-48895000D03*
%TD*%
D12*
%TO.C,Q8*%
X37338000Y-56261000D03*
X39878000Y-56261000D03*
D13*
X42418000Y-56261000D03*
%TD*%
D12*
%TO.C,Q13*%
X76073000Y-67945000D03*
X73533000Y-67945000D03*
D13*
X70993000Y-67945000D03*
%TD*%
D12*
%TO.C,Q1*%
X76200000Y-47625000D03*
X73660000Y-47625000D03*
D13*
X71120000Y-47625000D03*
%TD*%
D12*
%TO.C,Q9*%
X184023000Y-59055000D03*
X181483000Y-59055000D03*
D13*
X178943000Y-59055000D03*
%TD*%
D16*
%TO.C,C42*%
X177165000Y-134780000D03*
X177165000Y-144780000D03*
%TD*%
D12*
%TO.C,Q5*%
X130175000Y-47625000D03*
X127635000Y-47625000D03*
D13*
X125095000Y-47625000D03*
%TD*%
D12*
%TO.C,Q7*%
X76073000Y-57785000D03*
X73533000Y-57785000D03*
D13*
X70993000Y-57785000D03*
%TD*%
%TO.C,R58*%
G36*
G01*
X173980002Y-135432500D02*
X172729998Y-135432500D01*
G75*
G02*
X172480000Y-135182502I0J249998D01*
G01*
X172480000Y-134557498D01*
G75*
G02*
X172729998Y-134307500I249998J0D01*
G01*
X173980002Y-134307500D01*
G75*
G02*
X174230000Y-134557498I0J-249998D01*
G01*
X174230000Y-135182502D01*
G75*
G02*
X173980002Y-135432500I-249998J0D01*
G01*
G37*
G36*
G01*
X173980002Y-138357500D02*
X172729998Y-138357500D01*
G75*
G02*
X172480000Y-138107502I0J249998D01*
G01*
X172480000Y-137482498D01*
G75*
G02*
X172729998Y-137232500I249998J0D01*
G01*
X173980002Y-137232500D01*
G75*
G02*
X174230000Y-137482498I0J-249998D01*
G01*
X174230000Y-138107502D01*
G75*
G02*
X173980002Y-138357500I-249998J0D01*
G01*
G37*
%TD*%
M02*
