%TF.GenerationSoftware,KiCad,Pcbnew,(5.1.10)-1*%
%TF.CreationDate,2022-02-15T22:08:32+02:00*%
%TF.ProjectId,SEM,53454d2e-6b69-4636-9164-5f7063625858,rev?*%
%TF.SameCoordinates,Original*%
%TF.FileFunction,Copper,L1,Top*%
%TF.FilePolarity,Positive*%
%FSLAX46Y46*%
G04 Gerber Fmt 4.6, Leading zero omitted, Abs format (unit mm)*
G04 Created by KiCad (PCBNEW (5.1.10)-1) date 2022-02-15 22:08:32*
%MOMM*%
%LPD*%
G01*
G04 APERTURE LIST*
%TA.AperFunction,SMDPad,CuDef*%
%ADD10R,1.800000X2.500000*%
%TD*%
%TA.AperFunction,ComponentPad*%
%ADD11C,1.600000*%
%TD*%
%TA.AperFunction,ComponentPad*%
%ADD12O,1.700000X1.700000*%
%TD*%
%TA.AperFunction,ComponentPad*%
%ADD13R,1.700000X1.700000*%
%TD*%
%TA.AperFunction,ComponentPad*%
%ADD14R,2.600000X2.600000*%
%TD*%
%TA.AperFunction,ComponentPad*%
%ADD15C,2.600000*%
%TD*%
%TA.AperFunction,ComponentPad*%
%ADD16R,1.600000X1.600000*%
%TD*%
%TA.AperFunction,ComponentPad*%
%ADD17O,1.600000X1.600000*%
%TD*%
%TA.AperFunction,Conductor*%
%ADD18C,1.000000*%
%TD*%
G04 APERTURE END LIST*
%TO.P,R11,1*%
%TO.N,Net-(D2-Pad2)*%
%TA.AperFunction,SMDPad,CuDef*%
G36*
G01*
X166078500Y-198764997D02*
X166078500Y-200015003D01*
G75*
G02*
X165828503Y-200265000I-249997J0D01*
G01*
X165203497Y-200265000D01*
G75*
G02*
X164953500Y-200015003I0J249997D01*
G01*
X164953500Y-198764997D01*
G75*
G02*
X165203497Y-198515000I249997J0D01*
G01*
X165828503Y-198515000D01*
G75*
G02*
X166078500Y-198764997I0J-249997D01*
G01*
G37*
%TD.AperFunction*%
%TO.P,R11,2*%
%TO.N,+12V*%
%TA.AperFunction,SMDPad,CuDef*%
G36*
G01*
X163153500Y-198764997D02*
X163153500Y-200015003D01*
G75*
G02*
X162903503Y-200265000I-249997J0D01*
G01*
X162278497Y-200265000D01*
G75*
G02*
X162028500Y-200015003I0J249997D01*
G01*
X162028500Y-198764997D01*
G75*
G02*
X162278497Y-198515000I249997J0D01*
G01*
X162903503Y-198515000D01*
G75*
G02*
X163153500Y-198764997I0J-249997D01*
G01*
G37*
%TD.AperFunction*%
%TD*%
%TO.P,R4,1*%
%TO.N,Net-(C11-Pad2)*%
%TA.AperFunction,SMDPad,CuDef*%
G36*
G01*
X165121003Y-177714500D02*
X163870997Y-177714500D01*
G75*
G02*
X163621000Y-177464503I0J249997D01*
G01*
X163621000Y-176839497D01*
G75*
G02*
X163870997Y-176589500I249997J0D01*
G01*
X165121003Y-176589500D01*
G75*
G02*
X165371000Y-176839497I0J-249997D01*
G01*
X165371000Y-177464503D01*
G75*
G02*
X165121003Y-177714500I-249997J0D01*
G01*
G37*
%TD.AperFunction*%
%TO.P,R4,2*%
%TO.N,/W_HIGH*%
%TA.AperFunction,SMDPad,CuDef*%
G36*
G01*
X165121003Y-174789500D02*
X163870997Y-174789500D01*
G75*
G02*
X163621000Y-174539503I0J249997D01*
G01*
X163621000Y-173914497D01*
G75*
G02*
X163870997Y-173664500I249997J0D01*
G01*
X165121003Y-173664500D01*
G75*
G02*
X165371000Y-173914497I0J-249997D01*
G01*
X165371000Y-174539503D01*
G75*
G02*
X165121003Y-174789500I-249997J0D01*
G01*
G37*
%TD.AperFunction*%
%TD*%
D10*
%TO.P,D1,2*%
%TO.N,Net-(D1-Pad2)*%
X84486000Y-195599000D03*
%TO.P,D1,1*%
%TO.N,/VBOOT_U*%
X84486000Y-199599000D03*
%TD*%
D11*
%TO.P,C4,1*%
%TO.N,GND1*%
X90201000Y-175247000D03*
%TO.P,C4,2*%
%TO.N,Net-(C4-Pad2)*%
X85201000Y-175247000D03*
%TD*%
%TO.P,R6,1*%
%TO.N,Net-(C21-Pad2)*%
%TA.AperFunction,SMDPad,CuDef*%
G36*
G01*
X152421003Y-177907000D02*
X151170997Y-177907000D01*
G75*
G02*
X150921000Y-177657003I0J249997D01*
G01*
X150921000Y-177031997D01*
G75*
G02*
X151170997Y-176782000I249997J0D01*
G01*
X152421003Y-176782000D01*
G75*
G02*
X152671000Y-177031997I0J-249997D01*
G01*
X152671000Y-177657003D01*
G75*
G02*
X152421003Y-177907000I-249997J0D01*
G01*
G37*
%TD.AperFunction*%
%TO.P,R6,2*%
%TO.N,/W_DIS*%
%TA.AperFunction,SMDPad,CuDef*%
G36*
G01*
X152421003Y-174982000D02*
X151170997Y-174982000D01*
G75*
G02*
X150921000Y-174732003I0J249997D01*
G01*
X150921000Y-174106997D01*
G75*
G02*
X151170997Y-173857000I249997J0D01*
G01*
X152421003Y-173857000D01*
G75*
G02*
X152671000Y-174106997I0J-249997D01*
G01*
X152671000Y-174732003D01*
G75*
G02*
X152421003Y-174982000I-249997J0D01*
G01*
G37*
%TD.AperFunction*%
%TD*%
%TO.P,C22,2*%
%TO.N,GND1*%
X56546000Y-196837000D03*
%TO.P,C22,1*%
%TO.N,+12V*%
X56546000Y-201837000D03*
%TD*%
%TO.P,C5,1*%
%TO.N,+5V*%
X97821000Y-186042000D03*
%TO.P,C5,2*%
%TO.N,GND1*%
X97821000Y-191042000D03*
%TD*%
%TO.P,C31,1*%
%TO.N,+12V*%
X92741000Y-199377000D03*
%TO.P,C31,2*%
%TO.N,GND1*%
X92741000Y-194377000D03*
%TD*%
D12*
%TO.P,J10,5*%
%TO.N,Net-(J10-Pad5)*%
X83820000Y-167640000D03*
%TO.P,J10,4*%
%TO.N,Net-(J10-Pad4)*%
X81280000Y-167640000D03*
%TO.P,J10,3*%
%TO.N,/U_HIGH*%
X78740000Y-167640000D03*
%TO.P,J10,2*%
%TO.N,/U_DIS*%
X76200000Y-167640000D03*
D13*
%TO.P,J10,1*%
%TO.N,/U_LOW*%
X73660000Y-167640000D03*
%TD*%
D11*
%TO.P,C17,1*%
%TO.N,GND1*%
X107346000Y-175882000D03*
%TO.P,C17,2*%
%TO.N,Net-(C17-Pad2)*%
X102346000Y-175882000D03*
%TD*%
%TO.P,R5,1*%
%TO.N,Net-(C16-Pad2)*%
%TA.AperFunction,SMDPad,CuDef*%
G36*
G01*
X139721003Y-177907000D02*
X138470997Y-177907000D01*
G75*
G02*
X138221000Y-177657003I0J249997D01*
G01*
X138221000Y-177031997D01*
G75*
G02*
X138470997Y-176782000I249997J0D01*
G01*
X139721003Y-176782000D01*
G75*
G02*
X139971000Y-177031997I0J-249997D01*
G01*
X139971000Y-177657003D01*
G75*
G02*
X139721003Y-177907000I-249997J0D01*
G01*
G37*
%TD.AperFunction*%
%TO.P,R5,2*%
%TO.N,/W_LOW*%
%TA.AperFunction,SMDPad,CuDef*%
G36*
G01*
X139721003Y-174982000D02*
X138470997Y-174982000D01*
G75*
G02*
X138221000Y-174732003I0J249997D01*
G01*
X138221000Y-174106997D01*
G75*
G02*
X138470997Y-173857000I249997J0D01*
G01*
X139721003Y-173857000D01*
G75*
G02*
X139971000Y-174106997I0J-249997D01*
G01*
X139971000Y-174732003D01*
G75*
G02*
X139721003Y-174982000I-249997J0D01*
G01*
G37*
%TD.AperFunction*%
%TD*%
%TO.P,C6,2*%
%TO.N,GND1*%
X50831000Y-192947000D03*
%TO.P,C6,1*%
%TO.N,+5V*%
X50831000Y-187947000D03*
%TD*%
D10*
%TO.P,D2,1*%
%TO.N,/VBOOT_W*%
X170211000Y-201282000D03*
%TO.P,D2,2*%
%TO.N,Net-(D2-Pad2)*%
X170211000Y-197282000D03*
%TD*%
D11*
%TO.P,C30,1*%
%TO.N,+12V*%
X135286000Y-201282000D03*
%TO.P,C30,2*%
%TO.N,GND1*%
X135286000Y-196282000D03*
%TD*%
%TO.P,R10,2*%
%TO.N,+12V*%
%TA.AperFunction,SMDPad,CuDef*%
G36*
G01*
X77236000Y-195068997D02*
X77236000Y-196319003D01*
G75*
G02*
X76986003Y-196569000I-249997J0D01*
G01*
X76360997Y-196569000D01*
G75*
G02*
X76111000Y-196319003I0J249997D01*
G01*
X76111000Y-195068997D01*
G75*
G02*
X76360997Y-194819000I249997J0D01*
G01*
X76986003Y-194819000D01*
G75*
G02*
X77236000Y-195068997I0J-249997D01*
G01*
G37*
%TD.AperFunction*%
%TO.P,R10,1*%
%TO.N,Net-(D1-Pad2)*%
%TA.AperFunction,SMDPad,CuDef*%
G36*
G01*
X80161000Y-195068997D02*
X80161000Y-196319003D01*
G75*
G02*
X79911003Y-196569000I-249997J0D01*
G01*
X79285997Y-196569000D01*
G75*
G02*
X79036000Y-196319003I0J249997D01*
G01*
X79036000Y-195068997D01*
G75*
G02*
X79285997Y-194819000I249997J0D01*
G01*
X79911003Y-194819000D01*
G75*
G02*
X80161000Y-195068997I0J-249997D01*
G01*
G37*
%TD.AperFunction*%
%TD*%
D14*
%TO.P,J5,1*%
%TO.N,+5V*%
X128270000Y-210820000D03*
D15*
%TO.P,J5,2*%
%TO.N,GND1*%
X133270000Y-210820000D03*
%TO.P,J5,3*%
%TO.N,+5V*%
X138270000Y-210820000D03*
%TO.P,J5,4*%
%TO.N,GND1*%
X143270000Y-210820000D03*
%TD*%
D11*
%TO.P,C33,1*%
%TO.N,/VBOOT_V*%
X126396000Y-187312000D03*
%TO.P,C33,2*%
%TO.N,/PHASE_V*%
X126396000Y-192312000D03*
%TD*%
%TO.P,C32,1*%
%TO.N,/VBOOT_W*%
X170846000Y-187312000D03*
%TO.P,C32,2*%
%TO.N,/PHASE_W*%
X170846000Y-192312000D03*
%TD*%
%TO.P,R7,1*%
%TO.N,Net-(C12-Pad2)*%
%TA.AperFunction,SMDPad,CuDef*%
G36*
G01*
X124481003Y-177907000D02*
X123230997Y-177907000D01*
G75*
G02*
X122981000Y-177657003I0J249997D01*
G01*
X122981000Y-177031997D01*
G75*
G02*
X123230997Y-176782000I249997J0D01*
G01*
X124481003Y-176782000D01*
G75*
G02*
X124731000Y-177031997I0J-249997D01*
G01*
X124731000Y-177657003D01*
G75*
G02*
X124481003Y-177907000I-249997J0D01*
G01*
G37*
%TD.AperFunction*%
%TO.P,R7,2*%
%TO.N,/V_HIGH*%
%TA.AperFunction,SMDPad,CuDef*%
G36*
G01*
X124481003Y-174982000D02*
X123230997Y-174982000D01*
G75*
G02*
X122981000Y-174732003I0J249997D01*
G01*
X122981000Y-174106997D01*
G75*
G02*
X123230997Y-173857000I249997J0D01*
G01*
X124481003Y-173857000D01*
G75*
G02*
X124731000Y-174106997I0J-249997D01*
G01*
X124731000Y-174732003D01*
G75*
G02*
X124481003Y-174982000I-249997J0D01*
G01*
G37*
%TD.AperFunction*%
%TD*%
%TO.P,R19,1*%
%TO.N,Net-(C21-Pad2)*%
%TA.AperFunction,SMDPad,CuDef*%
G36*
G01*
X155486000Y-182222003D02*
X155486000Y-180971997D01*
G75*
G02*
X155735997Y-180722000I249997J0D01*
G01*
X156361003Y-180722000D01*
G75*
G02*
X156611000Y-180971997I0J-249997D01*
G01*
X156611000Y-182222003D01*
G75*
G02*
X156361003Y-182472000I-249997J0D01*
G01*
X155735997Y-182472000D01*
G75*
G02*
X155486000Y-182222003I0J249997D01*
G01*
G37*
%TD.AperFunction*%
%TO.P,R19,2*%
%TO.N,GND1*%
%TA.AperFunction,SMDPad,CuDef*%
G36*
G01*
X158411000Y-182222003D02*
X158411000Y-180971997D01*
G75*
G02*
X158660997Y-180722000I249997J0D01*
G01*
X159286003Y-180722000D01*
G75*
G02*
X159536000Y-180971997I0J-249997D01*
G01*
X159536000Y-182222003D01*
G75*
G02*
X159286003Y-182472000I-249997J0D01*
G01*
X158660997Y-182472000D01*
G75*
G02*
X158411000Y-182222003I0J249997D01*
G01*
G37*
%TD.AperFunction*%
%TD*%
D12*
%TO.P,J12,7*%
%TO.N,GND1*%
X151161000Y-168262000D03*
%TO.P,J12,6*%
%TO.N,+5V*%
X148621000Y-168262000D03*
%TO.P,J12,5*%
%TO.N,/W_ISENSE*%
X146081000Y-168262000D03*
%TO.P,J12,4*%
%TO.N,/HIGH_GATE_W*%
X143541000Y-168262000D03*
%TO.P,J12,3*%
%TO.N,/LOW_GATE_W*%
X141001000Y-168262000D03*
%TO.P,J12,2*%
%TO.N,/W_USENSE*%
X138461000Y-168262000D03*
D13*
%TO.P,J12,1*%
%TO.N,/PHASE_W*%
X135921000Y-168262000D03*
%TD*%
%TO.P,R14,1*%
%TO.N,Net-(C11-Pad2)*%
%TA.AperFunction,SMDPad,CuDef*%
G36*
G01*
X168821000Y-182222003D02*
X168821000Y-180971997D01*
G75*
G02*
X169070997Y-180722000I249997J0D01*
G01*
X169696003Y-180722000D01*
G75*
G02*
X169946000Y-180971997I0J-249997D01*
G01*
X169946000Y-182222003D01*
G75*
G02*
X169696003Y-182472000I-249997J0D01*
G01*
X169070997Y-182472000D01*
G75*
G02*
X168821000Y-182222003I0J249997D01*
G01*
G37*
%TD.AperFunction*%
%TO.P,R14,2*%
%TO.N,GND1*%
%TA.AperFunction,SMDPad,CuDef*%
G36*
G01*
X171746000Y-182222003D02*
X171746000Y-180971997D01*
G75*
G02*
X171995997Y-180722000I249997J0D01*
G01*
X172621003Y-180722000D01*
G75*
G02*
X172871000Y-180971997I0J-249997D01*
G01*
X172871000Y-182222003D01*
G75*
G02*
X172621003Y-182472000I-249997J0D01*
G01*
X171995997Y-182472000D01*
G75*
G02*
X171746000Y-182222003I0J249997D01*
G01*
G37*
%TD.AperFunction*%
%TD*%
D11*
%TO.P,C7,1*%
%TO.N,GND1*%
X66071000Y-175247000D03*
%TO.P,C7,2*%
%TO.N,Net-(C7-Pad2)*%
X61071000Y-175247000D03*
%TD*%
%TO.P,R12,1*%
%TO.N,Net-(D4-Pad2)*%
%TA.AperFunction,SMDPad,CuDef*%
G36*
G01*
X123341000Y-196211997D02*
X123341000Y-197462003D01*
G75*
G02*
X123091003Y-197712000I-249997J0D01*
G01*
X122465997Y-197712000D01*
G75*
G02*
X122216000Y-197462003I0J249997D01*
G01*
X122216000Y-196211997D01*
G75*
G02*
X122465997Y-195962000I249997J0D01*
G01*
X123091003Y-195962000D01*
G75*
G02*
X123341000Y-196211997I0J-249997D01*
G01*
G37*
%TD.AperFunction*%
%TO.P,R12,2*%
%TO.N,+12V*%
%TA.AperFunction,SMDPad,CuDef*%
G36*
G01*
X120416000Y-196211997D02*
X120416000Y-197462003D01*
G75*
G02*
X120166003Y-197712000I-249997J0D01*
G01*
X119540997Y-197712000D01*
G75*
G02*
X119291000Y-197462003I0J249997D01*
G01*
X119291000Y-196211997D01*
G75*
G02*
X119540997Y-195962000I249997J0D01*
G01*
X120166003Y-195962000D01*
G75*
G02*
X120416000Y-196211997I0J-249997D01*
G01*
G37*
%TD.AperFunction*%
%TD*%
%TO.P,C16,1*%
%TO.N,GND1*%
X147351000Y-175882000D03*
%TO.P,C16,2*%
%TO.N,Net-(C16-Pad2)*%
X142351000Y-175882000D03*
%TD*%
%TO.P,R22,1*%
%TO.N,Net-(C13-Pad2)*%
%TA.AperFunction,SMDPad,CuDef*%
G36*
G01*
X73571000Y-180317003D02*
X73571000Y-179066997D01*
G75*
G02*
X73820997Y-178817000I249997J0D01*
G01*
X74446003Y-178817000D01*
G75*
G02*
X74696000Y-179066997I0J-249997D01*
G01*
X74696000Y-180317003D01*
G75*
G02*
X74446003Y-180567000I-249997J0D01*
G01*
X73820997Y-180567000D01*
G75*
G02*
X73571000Y-180317003I0J249997D01*
G01*
G37*
%TD.AperFunction*%
%TO.P,R22,2*%
%TO.N,GND1*%
%TA.AperFunction,SMDPad,CuDef*%
G36*
G01*
X76496000Y-180317003D02*
X76496000Y-179066997D01*
G75*
G02*
X76745997Y-178817000I249997J0D01*
G01*
X77371003Y-178817000D01*
G75*
G02*
X77621000Y-179066997I0J-249997D01*
G01*
X77621000Y-180317003D01*
G75*
G02*
X77371003Y-180567000I-249997J0D01*
G01*
X76745997Y-180567000D01*
G75*
G02*
X76496000Y-180317003I0J249997D01*
G01*
G37*
%TD.AperFunction*%
%TD*%
%TO.P,R2,1*%
%TO.N,Net-(C7-Pad2)*%
%TA.AperFunction,SMDPad,CuDef*%
G36*
G01*
X58441003Y-177272000D02*
X57190997Y-177272000D01*
G75*
G02*
X56941000Y-177022003I0J249997D01*
G01*
X56941000Y-176396997D01*
G75*
G02*
X57190997Y-176147000I249997J0D01*
G01*
X58441003Y-176147000D01*
G75*
G02*
X58691000Y-176396997I0J-249997D01*
G01*
X58691000Y-177022003D01*
G75*
G02*
X58441003Y-177272000I-249997J0D01*
G01*
G37*
%TD.AperFunction*%
%TO.P,R2,2*%
%TO.N,/U_LOW*%
%TA.AperFunction,SMDPad,CuDef*%
G36*
G01*
X58441003Y-174347000D02*
X57190997Y-174347000D01*
G75*
G02*
X56941000Y-174097003I0J249997D01*
G01*
X56941000Y-173471997D01*
G75*
G02*
X57190997Y-173222000I249997J0D01*
G01*
X58441003Y-173222000D01*
G75*
G02*
X58691000Y-173471997I0J-249997D01*
G01*
X58691000Y-174097003D01*
G75*
G02*
X58441003Y-174347000I-249997J0D01*
G01*
G37*
%TD.AperFunction*%
%TD*%
%TO.P,C29,1*%
%TO.N,/VBOOT_V*%
X120681000Y-187312000D03*
%TO.P,C29,2*%
%TO.N,/PHASE_V*%
X120681000Y-192312000D03*
%TD*%
%TO.P,R20,1*%
%TO.N,Net-(C23-Pad2)*%
%TA.AperFunction,SMDPad,CuDef*%
G36*
G01*
X114846000Y-182222003D02*
X114846000Y-180971997D01*
G75*
G02*
X115095997Y-180722000I249997J0D01*
G01*
X115721003Y-180722000D01*
G75*
G02*
X115971000Y-180971997I0J-249997D01*
G01*
X115971000Y-182222003D01*
G75*
G02*
X115721003Y-182472000I-249997J0D01*
G01*
X115095997Y-182472000D01*
G75*
G02*
X114846000Y-182222003I0J249997D01*
G01*
G37*
%TD.AperFunction*%
%TO.P,R20,2*%
%TO.N,GND1*%
%TA.AperFunction,SMDPad,CuDef*%
G36*
G01*
X117771000Y-182222003D02*
X117771000Y-180971997D01*
G75*
G02*
X118020997Y-180722000I249997J0D01*
G01*
X118646003Y-180722000D01*
G75*
G02*
X118896000Y-180971997I0J-249997D01*
G01*
X118896000Y-182222003D01*
G75*
G02*
X118646003Y-182472000I-249997J0D01*
G01*
X118020997Y-182472000D01*
G75*
G02*
X117771000Y-182222003I0J249997D01*
G01*
G37*
%TD.AperFunction*%
%TD*%
%TO.P,C23,1*%
%TO.N,GND1*%
X119411000Y-175882000D03*
%TO.P,C23,2*%
%TO.N,Net-(C23-Pad2)*%
X114411000Y-175882000D03*
%TD*%
D16*
%TO.P,U2,1*%
%TO.N,/LOW_GATE_W*%
X158750000Y-205740000D03*
D17*
%TO.P,U2,8*%
%TO.N,Net-(U2-Pad8)*%
X151130000Y-190500000D03*
%TO.P,U2,2*%
%TO.N,GND1*%
X158750000Y-203200000D03*
%TO.P,U2,9*%
%TO.N,+5V*%
X151130000Y-193040000D03*
%TO.P,U2,3*%
%TO.N,+12V*%
X158750000Y-200660000D03*
%TO.P,U2,10*%
%TO.N,Net-(C11-Pad2)*%
X151130000Y-195580000D03*
%TO.P,U2,4*%
%TO.N,Net-(U2-Pad4)*%
X158750000Y-198120000D03*
%TO.P,U2,11*%
%TO.N,Net-(C21-Pad2)*%
X151130000Y-198120000D03*
%TO.P,U2,5*%
%TO.N,/PHASE_W*%
X158750000Y-195580000D03*
%TO.P,U2,12*%
%TO.N,Net-(C16-Pad2)*%
X151130000Y-200660000D03*
%TO.P,U2,6*%
%TO.N,/VBOOT_W*%
X158750000Y-193040000D03*
%TO.P,U2,13*%
%TO.N,GND1*%
X151130000Y-203200000D03*
%TO.P,U2,7*%
%TO.N,/HIGH_GATE_W*%
X158750000Y-190500000D03*
%TO.P,U2,14*%
%TO.N,Net-(U2-Pad14)*%
X151130000Y-205740000D03*
%TD*%
D13*
%TO.P,J13,1*%
%TO.N,/PHASE_V*%
X92106000Y-167627000D03*
D12*
%TO.P,J13,2*%
%TO.N,/V_USENSE*%
X94646000Y-167627000D03*
%TO.P,J13,3*%
%TO.N,/LOW_GATE_V*%
X97186000Y-167627000D03*
%TO.P,J13,4*%
%TO.N,/HIGH_GATE_V*%
X99726000Y-167627000D03*
%TO.P,J13,5*%
%TO.N,/V_ISENSE*%
X102266000Y-167627000D03*
%TO.P,J13,6*%
%TO.N,+5V*%
X104806000Y-167627000D03*
%TO.P,J13,7*%
%TO.N,GND1*%
X107346000Y-167627000D03*
%TD*%
D11*
%TO.P,C25,2*%
%TO.N,/PHASE_U*%
X83851000Y-191169000D03*
%TO.P,C25,1*%
%TO.N,/VBOOT_U*%
X83851000Y-186169000D03*
%TD*%
D13*
%TO.P,J9,1*%
%TO.N,/V_LOW*%
X116205000Y-168275000D03*
D12*
%TO.P,J9,2*%
%TO.N,/V_DIS*%
X118745000Y-168275000D03*
%TO.P,J9,3*%
%TO.N,/V_HIGH*%
X121285000Y-168275000D03*
%TO.P,J9,4*%
%TO.N,Net-(J9-Pad4)*%
X123825000Y-168275000D03*
%TO.P,J9,5*%
%TO.N,Net-(J9-Pad5)*%
X126365000Y-168275000D03*
%TD*%
%TO.P,R16,1*%
%TO.N,Net-(C7-Pad2)*%
%TA.AperFunction,SMDPad,CuDef*%
G36*
G01*
X61696000Y-180317003D02*
X61696000Y-179066997D01*
G75*
G02*
X61945997Y-178817000I249997J0D01*
G01*
X62571003Y-178817000D01*
G75*
G02*
X62821000Y-179066997I0J-249997D01*
G01*
X62821000Y-180317003D01*
G75*
G02*
X62571003Y-180567000I-249997J0D01*
G01*
X61945997Y-180567000D01*
G75*
G02*
X61696000Y-180317003I0J249997D01*
G01*
G37*
%TD.AperFunction*%
%TO.P,R16,2*%
%TO.N,GND1*%
%TA.AperFunction,SMDPad,CuDef*%
G36*
G01*
X64621000Y-180317003D02*
X64621000Y-179066997D01*
G75*
G02*
X64870997Y-178817000I249997J0D01*
G01*
X65496003Y-178817000D01*
G75*
G02*
X65746000Y-179066997I0J-249997D01*
G01*
X65746000Y-180317003D01*
G75*
G02*
X65496003Y-180567000I-249997J0D01*
G01*
X64870997Y-180567000D01*
G75*
G02*
X64621000Y-180317003I0J249997D01*
G01*
G37*
%TD.AperFunction*%
%TD*%
%TO.P,R17,1*%
%TO.N,Net-(C16-Pad2)*%
%TA.AperFunction,SMDPad,CuDef*%
G36*
G01*
X140215000Y-182222003D02*
X140215000Y-180971997D01*
G75*
G02*
X140464997Y-180722000I249997J0D01*
G01*
X141090003Y-180722000D01*
G75*
G02*
X141340000Y-180971997I0J-249997D01*
G01*
X141340000Y-182222003D01*
G75*
G02*
X141090003Y-182472000I-249997J0D01*
G01*
X140464997Y-182472000D01*
G75*
G02*
X140215000Y-182222003I0J249997D01*
G01*
G37*
%TD.AperFunction*%
%TO.P,R17,2*%
%TO.N,GND1*%
%TA.AperFunction,SMDPad,CuDef*%
G36*
G01*
X143140000Y-182222003D02*
X143140000Y-180971997D01*
G75*
G02*
X143389997Y-180722000I249997J0D01*
G01*
X144015003Y-180722000D01*
G75*
G02*
X144265000Y-180971997I0J-249997D01*
G01*
X144265000Y-182222003D01*
G75*
G02*
X144015003Y-182472000I-249997J0D01*
G01*
X143389997Y-182472000D01*
G75*
G02*
X143140000Y-182222003I0J249997D01*
G01*
G37*
%TD.AperFunction*%
%TD*%
%TO.P,R15,1*%
%TO.N,Net-(C12-Pad2)*%
%TA.AperFunction,SMDPad,CuDef*%
G36*
G01*
X127546000Y-182222003D02*
X127546000Y-180971997D01*
G75*
G02*
X127795997Y-180722000I249997J0D01*
G01*
X128421003Y-180722000D01*
G75*
G02*
X128671000Y-180971997I0J-249997D01*
G01*
X128671000Y-182222003D01*
G75*
G02*
X128421003Y-182472000I-249997J0D01*
G01*
X127795997Y-182472000D01*
G75*
G02*
X127546000Y-182222003I0J249997D01*
G01*
G37*
%TD.AperFunction*%
%TO.P,R15,2*%
%TO.N,GND1*%
%TA.AperFunction,SMDPad,CuDef*%
G36*
G01*
X130471000Y-182222003D02*
X130471000Y-180971997D01*
G75*
G02*
X130720997Y-180722000I249997J0D01*
G01*
X131346003Y-180722000D01*
G75*
G02*
X131596000Y-180971997I0J-249997D01*
G01*
X131596000Y-182222003D01*
G75*
G02*
X131346003Y-182472000I-249997J0D01*
G01*
X130720997Y-182472000D01*
G75*
G02*
X130471000Y-182222003I0J249997D01*
G01*
G37*
%TD.AperFunction*%
%TD*%
D14*
%TO.P,J8,1*%
%TO.N,+12V*%
X81280000Y-210820000D03*
D15*
%TO.P,J8,2*%
%TO.N,GND1*%
X86280000Y-210820000D03*
%TO.P,J8,3*%
%TO.N,+12V*%
X91280000Y-210820000D03*
%TO.P,J8,4*%
%TO.N,GND1*%
X96280000Y-210820000D03*
%TD*%
D16*
%TO.P,U3,1*%
%TO.N,/LOW_GATE_V*%
X114331000Y-202552000D03*
D17*
%TO.P,U3,8*%
%TO.N,Net-(U3-Pad8)*%
X106711000Y-187312000D03*
%TO.P,U3,2*%
%TO.N,GND1*%
X114331000Y-200012000D03*
%TO.P,U3,9*%
%TO.N,+5V*%
X106711000Y-189852000D03*
%TO.P,U3,3*%
%TO.N,+12V*%
X114331000Y-197472000D03*
%TO.P,U3,10*%
%TO.N,Net-(C12-Pad2)*%
X106711000Y-192392000D03*
%TO.P,U3,4*%
%TO.N,Net-(U3-Pad4)*%
X114331000Y-194932000D03*
%TO.P,U3,11*%
%TO.N,Net-(C23-Pad2)*%
X106711000Y-194932000D03*
%TO.P,U3,5*%
%TO.N,/PHASE_V*%
X114331000Y-192392000D03*
%TO.P,U3,12*%
%TO.N,Net-(C17-Pad2)*%
X106711000Y-197472000D03*
%TO.P,U3,6*%
%TO.N,/VBOOT_V*%
X114331000Y-189852000D03*
%TO.P,U3,13*%
%TO.N,GND1*%
X106711000Y-200012000D03*
%TO.P,U3,7*%
%TO.N,/HIGH_GATE_V*%
X114331000Y-187312000D03*
%TO.P,U3,14*%
%TO.N,Net-(U3-Pad14)*%
X106711000Y-202552000D03*
%TD*%
D11*
%TO.P,C9,1*%
%TO.N,+5V*%
X92741000Y-186042000D03*
%TO.P,C9,2*%
%TO.N,GND1*%
X92741000Y-191042000D03*
%TD*%
D13*
%TO.P,J11,1*%
%TO.N,/PHASE_U*%
X50800000Y-167627000D03*
D12*
%TO.P,J11,2*%
%TO.N,/U_USENSE*%
X53340000Y-167627000D03*
%TO.P,J11,3*%
%TO.N,/LOW_GATE_U*%
X55880000Y-167627000D03*
%TO.P,J11,4*%
%TO.N,/HIGH_GATE_U*%
X58420000Y-167627000D03*
%TO.P,J11,5*%
%TO.N,/U_ISENSE*%
X60960000Y-167627000D03*
%TO.P,J11,6*%
%TO.N,+5V*%
X63500000Y-167627000D03*
%TO.P,J11,7*%
%TO.N,GND1*%
X66040000Y-167627000D03*
%TD*%
D11*
%TO.P,C3,1*%
%TO.N,+5V*%
X140366000Y-187312000D03*
%TO.P,C3,2*%
%TO.N,GND1*%
X140366000Y-192312000D03*
%TD*%
%TO.P,C21,1*%
%TO.N,GND1*%
X160051000Y-175882000D03*
%TO.P,C21,2*%
%TO.N,Net-(C21-Pad2)*%
X155051000Y-175882000D03*
%TD*%
%TO.P,C2,2*%
%TO.N,GND1*%
X56546000Y-192947000D03*
%TO.P,C2,1*%
%TO.N,+5V*%
X56546000Y-187947000D03*
%TD*%
D13*
%TO.P,J4,1*%
%TO.N,/W_LOW*%
X160655000Y-168275000D03*
D12*
%TO.P,J4,2*%
%TO.N,/W_DIS*%
X163195000Y-168275000D03*
%TO.P,J4,3*%
%TO.N,/W_HIGH*%
X165735000Y-168275000D03*
%TO.P,J4,4*%
%TO.N,Net-(J4-Pad4)*%
X168275000Y-168275000D03*
%TO.P,J4,5*%
%TO.N,Net-(J4-Pad5)*%
X170815000Y-168275000D03*
%TD*%
D10*
%TO.P,D4,1*%
%TO.N,/VBOOT_V*%
X127031000Y-201377000D03*
%TO.P,D4,2*%
%TO.N,Net-(D4-Pad2)*%
X127031000Y-197377000D03*
%TD*%
D11*
%TO.P,C28,2*%
%TO.N,GND1*%
X50831000Y-196917000D03*
%TO.P,C28,1*%
%TO.N,+12V*%
X50831000Y-201917000D03*
%TD*%
%TO.P,C11,1*%
%TO.N,GND1*%
X172085000Y-175895000D03*
%TO.P,C11,2*%
%TO.N,Net-(C11-Pad2)*%
X167085000Y-175895000D03*
%TD*%
%TO.P,C19,2*%
%TO.N,/PHASE_U*%
X78136000Y-191169000D03*
%TO.P,C19,1*%
%TO.N,/VBOOT_U*%
X78136000Y-186169000D03*
%TD*%
%TO.P,C12,1*%
%TO.N,GND1*%
X132111000Y-175882000D03*
%TO.P,C12,2*%
%TO.N,Net-(C12-Pad2)*%
X127111000Y-175882000D03*
%TD*%
%TO.P,C26,1*%
%TO.N,+12V*%
X97821000Y-199377000D03*
%TO.P,C26,2*%
%TO.N,GND1*%
X97821000Y-194377000D03*
%TD*%
%TO.P,C8,1*%
%TO.N,+5V*%
X135286000Y-187312000D03*
%TO.P,C8,2*%
%TO.N,GND1*%
X135286000Y-192312000D03*
%TD*%
%TO.P,C13,1*%
%TO.N,GND1*%
X78136000Y-175247000D03*
%TO.P,C13,2*%
%TO.N,Net-(C13-Pad2)*%
X73136000Y-175247000D03*
%TD*%
%TO.P,R18,1*%
%TO.N,Net-(C17-Pad2)*%
%TA.AperFunction,SMDPad,CuDef*%
G36*
G01*
X98940000Y-181600003D02*
X98940000Y-180349997D01*
G75*
G02*
X99189997Y-180100000I249997J0D01*
G01*
X99815003Y-180100000D01*
G75*
G02*
X100065000Y-180349997I0J-249997D01*
G01*
X100065000Y-181600003D01*
G75*
G02*
X99815003Y-181850000I-249997J0D01*
G01*
X99189997Y-181850000D01*
G75*
G02*
X98940000Y-181600003I0J249997D01*
G01*
G37*
%TD.AperFunction*%
%TO.P,R18,2*%
%TO.N,GND1*%
%TA.AperFunction,SMDPad,CuDef*%
G36*
G01*
X101865000Y-181600003D02*
X101865000Y-180349997D01*
G75*
G02*
X102114997Y-180100000I249997J0D01*
G01*
X102740003Y-180100000D01*
G75*
G02*
X102990000Y-180349997I0J-249997D01*
G01*
X102990000Y-181600003D01*
G75*
G02*
X102740003Y-181850000I-249997J0D01*
G01*
X102114997Y-181850000D01*
G75*
G02*
X101865000Y-181600003I0J249997D01*
G01*
G37*
%TD.AperFunction*%
%TD*%
%TO.P,R1,1*%
%TO.N,Net-(C4-Pad2)*%
%TA.AperFunction,SMDPad,CuDef*%
G36*
G01*
X82571003Y-177272000D02*
X81320997Y-177272000D01*
G75*
G02*
X81071000Y-177022003I0J249997D01*
G01*
X81071000Y-176396997D01*
G75*
G02*
X81320997Y-176147000I249997J0D01*
G01*
X82571003Y-176147000D01*
G75*
G02*
X82821000Y-176396997I0J-249997D01*
G01*
X82821000Y-177022003D01*
G75*
G02*
X82571003Y-177272000I-249997J0D01*
G01*
G37*
%TD.AperFunction*%
%TO.P,R1,2*%
%TO.N,/U_HIGH*%
%TA.AperFunction,SMDPad,CuDef*%
G36*
G01*
X82571003Y-174347000D02*
X81320997Y-174347000D01*
G75*
G02*
X81071000Y-174097003I0J249997D01*
G01*
X81071000Y-173471997D01*
G75*
G02*
X81320997Y-173222000I249997J0D01*
G01*
X82571003Y-173222000D01*
G75*
G02*
X82821000Y-173471997I0J-249997D01*
G01*
X82821000Y-174097003D01*
G75*
G02*
X82571003Y-174347000I-249997J0D01*
G01*
G37*
%TD.AperFunction*%
%TD*%
%TO.P,R9,1*%
%TO.N,Net-(C23-Pad2)*%
%TA.AperFunction,SMDPad,CuDef*%
G36*
G01*
X111781003Y-177907000D02*
X110530997Y-177907000D01*
G75*
G02*
X110281000Y-177657003I0J249997D01*
G01*
X110281000Y-177031997D01*
G75*
G02*
X110530997Y-176782000I249997J0D01*
G01*
X111781003Y-176782000D01*
G75*
G02*
X112031000Y-177031997I0J-249997D01*
G01*
X112031000Y-177657003D01*
G75*
G02*
X111781003Y-177907000I-249997J0D01*
G01*
G37*
%TD.AperFunction*%
%TO.P,R9,2*%
%TO.N,/V_DIS*%
%TA.AperFunction,SMDPad,CuDef*%
G36*
G01*
X111781003Y-174982000D02*
X110530997Y-174982000D01*
G75*
G02*
X110281000Y-174732003I0J249997D01*
G01*
X110281000Y-174106997D01*
G75*
G02*
X110530997Y-173857000I249997J0D01*
G01*
X111781003Y-173857000D01*
G75*
G02*
X112031000Y-174106997I0J-249997D01*
G01*
X112031000Y-174732003D01*
G75*
G02*
X111781003Y-174982000I-249997J0D01*
G01*
G37*
%TD.AperFunction*%
%TD*%
%TO.P,R8,1*%
%TO.N,Net-(C17-Pad2)*%
%TA.AperFunction,SMDPad,CuDef*%
G36*
G01*
X99716003Y-177907000D02*
X98465997Y-177907000D01*
G75*
G02*
X98216000Y-177657003I0J249997D01*
G01*
X98216000Y-177031997D01*
G75*
G02*
X98465997Y-176782000I249997J0D01*
G01*
X99716003Y-176782000D01*
G75*
G02*
X99966000Y-177031997I0J-249997D01*
G01*
X99966000Y-177657003D01*
G75*
G02*
X99716003Y-177907000I-249997J0D01*
G01*
G37*
%TD.AperFunction*%
%TO.P,R8,2*%
%TO.N,/V_LOW*%
%TA.AperFunction,SMDPad,CuDef*%
G36*
G01*
X99716003Y-174982000D02*
X98465997Y-174982000D01*
G75*
G02*
X98216000Y-174732003I0J249997D01*
G01*
X98216000Y-174106997D01*
G75*
G02*
X98465997Y-173857000I249997J0D01*
G01*
X99716003Y-173857000D01*
G75*
G02*
X99966000Y-174106997I0J-249997D01*
G01*
X99966000Y-174732003D01*
G75*
G02*
X99716003Y-174982000I-249997J0D01*
G01*
G37*
%TD.AperFunction*%
%TD*%
%TO.P,R13,1*%
%TO.N,Net-(C4-Pad2)*%
%TA.AperFunction,SMDPad,CuDef*%
G36*
G01*
X85636000Y-180317003D02*
X85636000Y-179066997D01*
G75*
G02*
X85885997Y-178817000I249997J0D01*
G01*
X86511003Y-178817000D01*
G75*
G02*
X86761000Y-179066997I0J-249997D01*
G01*
X86761000Y-180317003D01*
G75*
G02*
X86511003Y-180567000I-249997J0D01*
G01*
X85885997Y-180567000D01*
G75*
G02*
X85636000Y-180317003I0J249997D01*
G01*
G37*
%TD.AperFunction*%
%TO.P,R13,2*%
%TO.N,GND1*%
%TA.AperFunction,SMDPad,CuDef*%
G36*
G01*
X88561000Y-180317003D02*
X88561000Y-179066997D01*
G75*
G02*
X88810997Y-178817000I249997J0D01*
G01*
X89436003Y-178817000D01*
G75*
G02*
X89686000Y-179066997I0J-249997D01*
G01*
X89686000Y-180317003D01*
G75*
G02*
X89436003Y-180567000I-249997J0D01*
G01*
X88810997Y-180567000D01*
G75*
G02*
X88561000Y-180317003I0J249997D01*
G01*
G37*
%TD.AperFunction*%
%TD*%
%TO.P,C27,1*%
%TO.N,/VBOOT_W*%
X165131000Y-187312000D03*
%TO.P,C27,2*%
%TO.N,/PHASE_W*%
X165131000Y-192312000D03*
%TD*%
%TO.P,C24,1*%
%TO.N,+12V*%
X140366000Y-201282000D03*
%TO.P,C24,2*%
%TO.N,GND1*%
X140366000Y-196282000D03*
%TD*%
%TO.P,R3,1*%
%TO.N,Net-(C13-Pad2)*%
%TA.AperFunction,SMDPad,CuDef*%
G36*
G01*
X70506003Y-177462000D02*
X69255997Y-177462000D01*
G75*
G02*
X69006000Y-177212003I0J249997D01*
G01*
X69006000Y-176586997D01*
G75*
G02*
X69255997Y-176337000I249997J0D01*
G01*
X70506003Y-176337000D01*
G75*
G02*
X70756000Y-176586997I0J-249997D01*
G01*
X70756000Y-177212003D01*
G75*
G02*
X70506003Y-177462000I-249997J0D01*
G01*
G37*
%TD.AperFunction*%
%TO.P,R3,2*%
%TO.N,/U_DIS*%
%TA.AperFunction,SMDPad,CuDef*%
G36*
G01*
X70506003Y-174537000D02*
X69255997Y-174537000D01*
G75*
G02*
X69006000Y-174287003I0J249997D01*
G01*
X69006000Y-173661997D01*
G75*
G02*
X69255997Y-173412000I249997J0D01*
G01*
X70506003Y-173412000D01*
G75*
G02*
X70756000Y-173661997I0J-249997D01*
G01*
X70756000Y-174287003D01*
G75*
G02*
X70506003Y-174537000I-249997J0D01*
G01*
G37*
%TD.AperFunction*%
%TD*%
D17*
%TO.P,U1,14*%
%TO.N,Net-(U1-Pad14)*%
X64801000Y-202552000D03*
%TO.P,U1,7*%
%TO.N,/HIGH_GATE_U*%
X72421000Y-187312000D03*
%TO.P,U1,13*%
%TO.N,GND1*%
X64801000Y-200012000D03*
%TO.P,U1,6*%
%TO.N,/VBOOT_U*%
X72421000Y-189852000D03*
%TO.P,U1,12*%
%TO.N,Net-(C7-Pad2)*%
X64801000Y-197472000D03*
%TO.P,U1,5*%
%TO.N,/PHASE_U*%
X72421000Y-192392000D03*
%TO.P,U1,11*%
%TO.N,Net-(C13-Pad2)*%
X64801000Y-194932000D03*
%TO.P,U1,4*%
%TO.N,Net-(U1-Pad4)*%
X72421000Y-194932000D03*
%TO.P,U1,10*%
%TO.N,Net-(C4-Pad2)*%
X64801000Y-192392000D03*
%TO.P,U1,3*%
%TO.N,+12V*%
X72421000Y-197472000D03*
%TO.P,U1,9*%
%TO.N,+5V*%
X64801000Y-189852000D03*
%TO.P,U1,2*%
%TO.N,GND1*%
X72421000Y-200012000D03*
%TO.P,U1,8*%
%TO.N,Net-(U1-Pad8)*%
X64801000Y-187312000D03*
D16*
%TO.P,U1,1*%
%TO.N,/LOW_GATE_U*%
X72421000Y-202552000D03*
%TD*%
D18*
%TO.N,+5V*%
X65754998Y-165100000D02*
X63500000Y-167354998D01*
X63500000Y-167354998D02*
X63500000Y-167627000D01*
X104775000Y-165100000D02*
X65754998Y-165100000D01*
X105401999Y-165726999D02*
X104775000Y-165100000D01*
X173990000Y-165100000D02*
X150495000Y-165100000D01*
X175895000Y-186055000D02*
X175895000Y-167005000D01*
X175895000Y-167005000D02*
X173990000Y-165100000D01*
X150495000Y-165100000D02*
X149868001Y-165726999D01*
X106028998Y-165100000D02*
X105401999Y-165726999D01*
X149241002Y-165100000D02*
X106028998Y-165100000D01*
X149868001Y-165726999D02*
X149241002Y-165100000D01*
X139700000Y-214630000D02*
X138270000Y-213200000D01*
X175895000Y-186055000D02*
X175895000Y-210185000D01*
X138270000Y-213200000D02*
X138270000Y-210820000D01*
X171450000Y-214630000D02*
X139700000Y-214630000D01*
X175895000Y-210185000D02*
X171450000Y-214630000D01*
X149860000Y-193040000D02*
X149279999Y-192459999D01*
X149279999Y-187270001D02*
X151130000Y-185420000D01*
X149279999Y-192459999D02*
X149279999Y-187270001D01*
X151130000Y-193040000D02*
X149860000Y-193040000D01*
X151130000Y-185420000D02*
X175260000Y-185420000D01*
X175260000Y-185420000D02*
X175895000Y-186055000D01*
X148621000Y-166974000D02*
X149868001Y-165726999D01*
X148621000Y-168262000D02*
X148621000Y-166974000D01*
X56546000Y-187947000D02*
X50831000Y-187947000D01*
X104806000Y-167627000D02*
X104806000Y-166322998D01*
X104806000Y-166322998D02*
X105401999Y-165726999D01*
X95615980Y-183836980D02*
X95615980Y-172926479D01*
X134460000Y-214630000D02*
X138270000Y-210820000D01*
X128270000Y-213120000D02*
X129780000Y-214630000D01*
X95615980Y-172926479D02*
X99015458Y-169527001D01*
X104806000Y-168244000D02*
X104806000Y-167627000D01*
X58700010Y-169899990D02*
X55890990Y-172709010D01*
X55890990Y-172709010D02*
X55890990Y-187291990D01*
X63500000Y-167627000D02*
X63500000Y-168910000D01*
X63500000Y-168910000D02*
X62510010Y-169899990D01*
X99015458Y-169527001D02*
X103522999Y-169527001D01*
X103522999Y-169527001D02*
X104806000Y-168244000D01*
X129780000Y-214630000D02*
X134460000Y-214630000D01*
X128270000Y-210820000D02*
X128270000Y-213120000D01*
X135286000Y-187312000D02*
X140366000Y-187312000D01*
X55890990Y-187291990D02*
X56546000Y-187947000D01*
X62510010Y-169899990D02*
X58700010Y-169899990D01*
X92741000Y-186042000D02*
X97821000Y-186042000D01*
X97821000Y-186042000D02*
X95615980Y-183836980D01*
%TO.N,/PHASE_U*%
X78136000Y-191169000D02*
X83851000Y-191169000D01*
X78136000Y-191169000D02*
X76913000Y-192392000D01*
X76913000Y-192392000D02*
X72421000Y-192392000D01*
%TO.N,/PHASE_W*%
X163999630Y-192312000D02*
X160731630Y-195580000D01*
X165131000Y-192312000D02*
X163999630Y-192312000D01*
X160731630Y-195580000D02*
X158750000Y-195580000D01*
X165131000Y-192312000D02*
X170846000Y-192312000D01*
%TO.N,/PHASE_V*%
X120681000Y-192312000D02*
X114411000Y-192312000D01*
X114411000Y-192312000D02*
X114331000Y-192392000D01*
X120681000Y-192312000D02*
X126396000Y-192312000D01*
%TO.N,GND1*%
X90201000Y-175247000D02*
X90201000Y-178614500D01*
X56546000Y-192947000D02*
X56546000Y-196837000D01*
X66071000Y-178804500D02*
X65183500Y-179692000D01*
X66071000Y-175247000D02*
X66071000Y-178804500D01*
X100397000Y-194377000D02*
X106032000Y-200012000D01*
X75472000Y-200012000D02*
X86280000Y-210820000D01*
X56546000Y-196837000D02*
X59721000Y-200012000D01*
X59721000Y-200012000D02*
X64801000Y-200012000D01*
X97821000Y-194377000D02*
X100397000Y-194377000D01*
X78136000Y-178614500D02*
X77058500Y-179692000D01*
X106032000Y-200012000D02*
X106711000Y-200012000D01*
X106711000Y-200012000D02*
X114331000Y-200012000D01*
X50831000Y-192947000D02*
X50831000Y-196917000D01*
X90201000Y-178614500D02*
X89123500Y-179692000D01*
X64801000Y-200012000D02*
X72421000Y-200012000D01*
X50831000Y-192947000D02*
X56546000Y-192947000D01*
X92741000Y-191042000D02*
X92741000Y-194377000D01*
X72421000Y-200012000D02*
X75472000Y-200012000D01*
X78136000Y-175247000D02*
X78136000Y-178614500D01*
X160051000Y-180519500D02*
X158973500Y-181597000D01*
X99643951Y-171674504D02*
X100148465Y-171169990D01*
X100148465Y-171169990D02*
X105005091Y-171169990D01*
X141672000Y-196282000D02*
X148590000Y-203200000D01*
X163830000Y-203200000D02*
X158750000Y-203200000D01*
X107346000Y-176056500D02*
X102427500Y-180975000D01*
X119411000Y-175882000D02*
X119411000Y-180519500D01*
X147351000Y-177948500D02*
X143702500Y-181597000D01*
X172085000Y-181373500D02*
X172308500Y-181597000D01*
X151130000Y-203200000D02*
X158750000Y-203200000D01*
X148590000Y-203200000D02*
X151130000Y-203200000D01*
X119411000Y-180519500D02*
X118333500Y-181597000D01*
X105005091Y-171169990D02*
X107346000Y-168829081D01*
X100330000Y-184578496D02*
X97165990Y-181414486D01*
X162560000Y-212090000D02*
X166370000Y-208280000D01*
X107346000Y-168829081D02*
X107346000Y-167627000D01*
X135286000Y-192312000D02*
X140366000Y-192312000D01*
X140366000Y-196282000D02*
X141672000Y-196282000D01*
X100330000Y-188533000D02*
X100330000Y-184578496D01*
X97821000Y-191042000D02*
X100330000Y-188533000D01*
X143270000Y-210820000D02*
X139460000Y-207010000D01*
X139460000Y-207010000D02*
X124460000Y-207010000D01*
X166370000Y-205740000D02*
X163830000Y-203200000D01*
X140366000Y-192312000D02*
X140366000Y-196282000D01*
X135286000Y-192312000D02*
X135286000Y-196282000D01*
X97165990Y-173568514D02*
X99060000Y-171674504D01*
X107346000Y-175882000D02*
X107346000Y-176056500D01*
X97165990Y-181414486D02*
X97165990Y-173568514D01*
X146050000Y-210820000D02*
X147320000Y-212090000D01*
X92741000Y-191042000D02*
X97821000Y-191042000D01*
X97821000Y-191042000D02*
X97821000Y-194377000D01*
X172085000Y-175895000D02*
X172085000Y-181373500D01*
X124460000Y-207010000D02*
X117462000Y-200012000D01*
X117462000Y-200012000D02*
X114331000Y-200012000D01*
X132111000Y-175882000D02*
X132111000Y-180519500D01*
X147320000Y-212090000D02*
X162560000Y-212090000D01*
X147351000Y-175882000D02*
X147351000Y-177948500D01*
X99060000Y-171674504D02*
X99643951Y-171674504D01*
X132111000Y-180519500D02*
X131033500Y-181597000D01*
X166370000Y-208280000D02*
X166370000Y-205740000D01*
X160051000Y-175882000D02*
X160051000Y-180519500D01*
X143270000Y-210820000D02*
X146050000Y-210820000D01*
%TO.N,/LOW_GATE_U*%
X53185998Y-207010000D02*
X67963000Y-207010000D01*
X55880000Y-167627000D02*
X55880000Y-168829081D01*
X51989081Y-172720000D02*
X51989081Y-179150919D01*
X67963000Y-207010000D02*
X72421000Y-202552000D01*
X51989081Y-179150919D02*
X48260000Y-182880000D01*
X48260000Y-182880000D02*
X48260000Y-202084002D01*
X55880000Y-168829081D02*
X51989081Y-172720000D01*
X48260000Y-202084002D02*
X53185998Y-207010000D01*
%TO.N,/LOW_GATE_V*%
X97186000Y-169164415D02*
X93980000Y-172370415D01*
X90170000Y-184150000D02*
X90170000Y-199544002D01*
X93980000Y-172370415D02*
X93980000Y-180340000D01*
X112413000Y-204470000D02*
X114331000Y-202552000D01*
X95095998Y-204470000D02*
X112413000Y-204470000D01*
X93980000Y-180340000D02*
X90170000Y-184150000D01*
X90170000Y-199544002D02*
X95095998Y-204470000D01*
X97186000Y-167627000D02*
X97186000Y-169164415D01*
%TO.N,/LOW_GATE_W*%
X135890000Y-181610000D02*
X132080000Y-185420000D01*
X141001000Y-169464081D02*
X135890000Y-174575081D01*
X147320000Y-204470000D02*
X149279999Y-206429999D01*
X157290001Y-208469999D02*
X158750000Y-207010000D01*
X158750000Y-207010000D02*
X158750000Y-205740000D01*
X149279999Y-206429999D02*
X149279999Y-206628001D01*
X134620000Y-204470000D02*
X147320000Y-204470000D01*
X132080000Y-201930000D02*
X134620000Y-204470000D01*
X135890000Y-174575081D02*
X135890000Y-181610000D01*
X132080000Y-185420000D02*
X132080000Y-201930000D01*
X149279999Y-206628001D02*
X151121997Y-208469999D01*
X151121997Y-208469999D02*
X157290001Y-208469999D01*
X141001000Y-168262000D02*
X141001000Y-169464081D01*
%TO.N,Net-(C4-Pad2)*%
X85201000Y-178694500D02*
X86198500Y-179692000D01*
X86198500Y-179692000D02*
X82398958Y-183491542D01*
X85201000Y-175247000D02*
X83408500Y-175247000D01*
X62950999Y-184365065D02*
X62950999Y-191673369D01*
X63824522Y-183491542D02*
X62950999Y-184365065D01*
X63669630Y-192392000D02*
X64801000Y-192392000D01*
X62950999Y-191673369D02*
X63669630Y-192392000D01*
X85201000Y-175247000D02*
X85201000Y-178694500D01*
X82398958Y-183491542D02*
X63824522Y-183491542D01*
X83408500Y-175247000D02*
X81946000Y-176709500D01*
%TO.N,Net-(C7-Pad2)*%
X61071000Y-178504500D02*
X62258500Y-179692000D01*
X59278500Y-175247000D02*
X57816000Y-176709500D01*
X61071000Y-175247000D02*
X61071000Y-178504500D01*
X63669630Y-197472000D02*
X64801000Y-197472000D01*
X62258500Y-179692000D02*
X59690000Y-182260500D01*
X59690000Y-182260500D02*
X59690000Y-193492370D01*
X61071000Y-175247000D02*
X59278500Y-175247000D01*
X59690000Y-193492370D02*
X63669630Y-197472000D01*
%TO.N,Net-(C11-Pad2)*%
X147729989Y-193311359D02*
X149998630Y-195580000D01*
X167110510Y-183869990D02*
X148870010Y-183869990D01*
X167085000Y-175895000D02*
X167085000Y-179298500D01*
X167085000Y-175895000D02*
X165753000Y-175895000D01*
X169370500Y-181610000D02*
X169383500Y-181597000D01*
X167085000Y-179298500D02*
X169383500Y-181597000D01*
X149998630Y-195580000D02*
X151130000Y-195580000D01*
X147729989Y-185010011D02*
X147729989Y-193311359D01*
X165753000Y-175895000D02*
X164496000Y-177152000D01*
X148870010Y-183869990D02*
X147729989Y-185010011D01*
X169383500Y-181597000D02*
X167110510Y-183869990D01*
%TO.N,Net-(C12-Pad2)*%
X110490000Y-190500000D02*
X108598000Y-192392000D01*
X127111000Y-180599500D02*
X128108500Y-181597000D01*
X127111000Y-175882000D02*
X125318500Y-175882000D01*
X125555500Y-184150000D02*
X114754998Y-184150000D01*
X110490000Y-188414998D02*
X110490000Y-190500000D01*
X114754998Y-184150000D02*
X110490000Y-188414998D01*
X125318500Y-175882000D02*
X123856000Y-177344500D01*
X108598000Y-192392000D02*
X106711000Y-192392000D01*
X127111000Y-175882000D02*
X127111000Y-180599500D01*
X128108500Y-181597000D02*
X125555500Y-184150000D01*
%TO.N,Net-(C13-Pad2)*%
X63669630Y-194932000D02*
X64801000Y-194932000D01*
X71533500Y-175247000D02*
X69881000Y-176899500D01*
X73136000Y-178694500D02*
X74133500Y-179692000D01*
X74133500Y-179692000D02*
X72208490Y-181617010D01*
X72208490Y-181617010D02*
X63507010Y-181617010D01*
X73136000Y-175247000D02*
X73136000Y-178694500D01*
X61240010Y-183869990D02*
X61240010Y-192502380D01*
X61240010Y-192502380D02*
X63669630Y-194932000D01*
X63507010Y-181617010D02*
X62244020Y-182880000D01*
X62244020Y-182880000D02*
X62230000Y-182880000D01*
X73136000Y-175247000D02*
X71533500Y-175247000D01*
X62230000Y-182880000D02*
X61240010Y-183869990D01*
%TO.N,Net-(C16-Pad2)*%
X144629969Y-186539969D02*
X144629969Y-196699969D01*
X144629969Y-196699969D02*
X148590000Y-200660000D01*
X148590000Y-200660000D02*
X151130000Y-200660000D01*
X140777500Y-182687500D02*
X144629969Y-186539969D01*
X140777500Y-181597000D02*
X140777500Y-182687500D01*
X140888500Y-177344500D02*
X142351000Y-175882000D01*
X139096000Y-177344500D02*
X140888500Y-177344500D01*
X142351000Y-180023500D02*
X140777500Y-181597000D01*
X142351000Y-175882000D02*
X142351000Y-180023500D01*
%TO.N,Net-(C17-Pad2)*%
X99502500Y-180975000D02*
X102589990Y-184062490D01*
X102346000Y-178131500D02*
X99502500Y-180975000D01*
X102346000Y-175882000D02*
X102346000Y-178131500D01*
X100553500Y-175882000D02*
X99091000Y-177344500D01*
X102589990Y-184062490D02*
X102589990Y-194134405D01*
X102589990Y-194134405D02*
X105927585Y-197472000D01*
X105927585Y-197472000D02*
X106711000Y-197472000D01*
X102346000Y-175882000D02*
X100553500Y-175882000D01*
%TO.N,/VBOOT_U*%
X87630000Y-196455000D02*
X87630000Y-189948000D01*
X74453000Y-189852000D02*
X72421000Y-189852000D01*
X78136000Y-186169000D02*
X83851000Y-186169000D01*
X87630000Y-189948000D02*
X83851000Y-186169000D01*
X84486000Y-199599000D02*
X87630000Y-196455000D01*
X78136000Y-186169000D02*
X74453000Y-189852000D01*
%TO.N,Net-(C21-Pad2)*%
X146179979Y-184020021D02*
X146179979Y-194301349D01*
X155051000Y-180599500D02*
X156048500Y-181597000D01*
X148603000Y-181597000D02*
X146179979Y-184020021D01*
X155051000Y-175882000D02*
X155051000Y-180599500D01*
X146179979Y-194301349D02*
X149998630Y-198120000D01*
X153588500Y-177344500D02*
X155051000Y-175882000D01*
X156048500Y-181597000D02*
X148603000Y-181597000D01*
X149998630Y-198120000D02*
X151130000Y-198120000D01*
X151796000Y-177344500D02*
X153588500Y-177344500D01*
%TO.N,+12V*%
X81520000Y-213360000D02*
X88740000Y-213360000D01*
X81280000Y-210820000D02*
X81280000Y-213120000D01*
X81280000Y-213120000D02*
X81520000Y-213360000D01*
X88740000Y-213360000D02*
X91280000Y-210820000D01*
X114966000Y-196837000D02*
X114331000Y-197472000D01*
X74895500Y-197472000D02*
X72421000Y-197472000D01*
X159643000Y-200660000D02*
X158750000Y-200660000D01*
X161321000Y-200660000D02*
X158750000Y-200660000D01*
X119853500Y-196837000D02*
X114966000Y-196837000D01*
X162591000Y-199390000D02*
X161321000Y-200660000D01*
X92741000Y-199377000D02*
X97821000Y-199377000D01*
X135286000Y-201282000D02*
X140366000Y-201282000D01*
X76673500Y-195694000D02*
X74895500Y-197472000D01*
%TO.N,Net-(C23-Pad2)*%
X114411000Y-175882000D02*
X114411000Y-180599500D01*
X105579630Y-194932000D02*
X106711000Y-194932000D01*
X115408500Y-181597000D02*
X109687998Y-181597000D01*
X109687998Y-181597000D02*
X104140000Y-187144998D01*
X114411000Y-175882000D02*
X112618500Y-175882000D01*
X112618500Y-175882000D02*
X111156000Y-177344500D01*
X114411000Y-180599500D02*
X115408500Y-181597000D01*
X104140000Y-187144998D02*
X104140000Y-193492370D01*
X104140000Y-193492370D02*
X105579630Y-194932000D01*
%TO.N,/VBOOT_W*%
X173990000Y-189230000D02*
X173990000Y-197503000D01*
X173990000Y-197503000D02*
X170211000Y-201282000D01*
X172072000Y-187312000D02*
X173990000Y-189230000D01*
X165131000Y-187312000D02*
X170846000Y-187312000D01*
X170846000Y-187312000D02*
X172072000Y-187312000D01*
X159403000Y-193040000D02*
X158750000Y-193040000D01*
X165131000Y-187312000D02*
X159403000Y-193040000D01*
%TO.N,/VBOOT_V*%
X129540000Y-198868000D02*
X127031000Y-201377000D01*
X126396000Y-187312000D02*
X127622000Y-187312000D01*
X127622000Y-187312000D02*
X129540000Y-189230000D01*
X118141000Y-189852000D02*
X114331000Y-189852000D01*
X120681000Y-187312000D02*
X118141000Y-189852000D01*
X129540000Y-189230000D02*
X129540000Y-198868000D01*
X120681000Y-187312000D02*
X126396000Y-187312000D01*
%TO.N,Net-(D1-Pad2)*%
X79598500Y-195694000D02*
X84391000Y-195694000D01*
X84391000Y-195694000D02*
X84486000Y-195599000D01*
%TO.N,Net-(D2-Pad2)*%
X170211000Y-197282000D02*
X167624000Y-197282000D01*
X167624000Y-197282000D02*
X165516000Y-199390000D01*
X169766000Y-196837000D02*
X170211000Y-197282000D01*
%TO.N,Net-(D4-Pad2)*%
X122778500Y-196837000D02*
X126491000Y-196837000D01*
X126491000Y-196837000D02*
X127031000Y-197377000D01*
%TO.N,/W_LOW*%
X154478455Y-169545000D02*
X152573455Y-171450000D01*
X152573455Y-171450000D02*
X142065500Y-171450000D01*
X160655000Y-168275000D02*
X160655000Y-169545000D01*
X160655000Y-169545000D02*
X154478455Y-169545000D01*
X142065500Y-171450000D02*
X139096000Y-174419500D01*
%TO.N,/W_DIS*%
X151796000Y-174419500D02*
X153495500Y-172720000D01*
X159800002Y-172720000D02*
X163195000Y-169325002D01*
X163195000Y-169325002D02*
X163195000Y-168275000D01*
X153495500Y-172720000D02*
X159800002Y-172720000D01*
%TO.N,/W_HIGH*%
X165735000Y-168275000D02*
X165735000Y-173355000D01*
X164863000Y-174227000D02*
X164496000Y-174227000D01*
X165735000Y-173355000D02*
X164863000Y-174227000D01*
%TO.N,/V_LOW*%
X110663456Y-172720000D02*
X115108456Y-168275000D01*
X100790500Y-172720000D02*
X110663456Y-172720000D01*
X115108456Y-168275000D02*
X116205000Y-168275000D01*
X99091000Y-174419500D02*
X100790500Y-172720000D01*
%TO.N,/V_DIS*%
X115350002Y-172720000D02*
X118745000Y-169325002D01*
X111156000Y-174419500D02*
X112855500Y-172720000D01*
X118745000Y-169325002D02*
X118745000Y-168275000D01*
X112855500Y-172720000D02*
X115350002Y-172720000D01*
%TO.N,/V_HIGH*%
X121285000Y-171848500D02*
X123856000Y-174419500D01*
X121285000Y-168275000D02*
X121285000Y-171848500D01*
%TO.N,/U_HIGH*%
X78740000Y-170578500D02*
X81946000Y-173784500D01*
X78740000Y-167640000D02*
X78740000Y-170578500D01*
%TO.N,/U_DIS*%
X76200000Y-168842081D02*
X76200000Y-167640000D01*
X70443500Y-173412000D02*
X71630081Y-173412000D01*
X69881000Y-173974500D02*
X70443500Y-173412000D01*
X71630081Y-173412000D02*
X76200000Y-168842081D01*
%TO.N,/U_LOW*%
X60150500Y-171450000D02*
X69850000Y-171450000D01*
X69850000Y-171450000D02*
X73660000Y-167640000D01*
X57816000Y-173784500D02*
X60150500Y-171450000D01*
%TD*%
M02*
