M48
; DRILL file {KiCad (5.1.10)-1} date 02/15/22 22:09:17
; FORMAT={-:-/ absolute / metric / decimal}
; #@! TF.CreationDate,2022-02-15T22:09:17+02:00
; #@! TF.GenerationSoftware,Kicad,Pcbnew,(5.1.10)-1
; #@! TF.FileFunction,Plated,1,2,PTH
FMAT,2
METRIC
T1C0.800
T2C1.000
T3C1.300
%
G90
G05
T1
X50.831Y-187.947
X50.831Y-192.947
X50.831Y-196.917
X50.831Y-201.917
X56.546Y-187.947
X56.546Y-192.947
X56.546Y-196.837
X56.546Y-201.837
X61.071Y-175.247
X64.801Y-187.312
X64.801Y-189.852
X64.801Y-192.392
X64.801Y-194.932
X64.801Y-197.472
X64.801Y-200.012
X64.801Y-202.552
X66.071Y-175.247
X72.421Y-187.312
X72.421Y-189.852
X72.421Y-192.392
X72.421Y-194.932
X72.421Y-197.472
X72.421Y-200.012
X72.421Y-202.552
X73.136Y-175.247
X78.136Y-175.247
X78.136Y-186.169
X78.136Y-191.169
X83.851Y-186.169
X83.851Y-191.169
X85.201Y-175.247
X90.201Y-175.247
X92.741Y-186.042
X92.741Y-191.042
X92.741Y-194.377
X92.741Y-199.377
X97.821Y-186.042
X97.821Y-191.042
X97.821Y-194.377
X97.821Y-199.377
X102.346Y-175.882
X106.711Y-187.312
X106.711Y-189.852
X106.711Y-192.392
X106.711Y-194.932
X106.711Y-197.472
X106.711Y-200.012
X106.711Y-202.552
X107.346Y-175.882
X114.331Y-187.312
X114.331Y-189.852
X114.331Y-192.392
X114.331Y-194.932
X114.331Y-197.472
X114.331Y-200.012
X114.331Y-202.552
X114.411Y-175.882
X119.411Y-175.882
X120.681Y-187.312
X120.681Y-192.312
X126.396Y-187.312
X126.396Y-192.312
X127.111Y-175.882
X132.111Y-175.882
X135.286Y-187.312
X135.286Y-192.312
X135.286Y-196.282
X135.286Y-201.282
X140.366Y-187.312
X140.366Y-192.312
X140.366Y-196.282
X140.366Y-201.282
X142.351Y-175.882
X147.351Y-175.882
X151.13Y-190.5
X151.13Y-193.04
X151.13Y-195.58
X151.13Y-198.12
X151.13Y-200.66
X151.13Y-203.2
X151.13Y-205.74
X155.051Y-175.882
X158.75Y-190.5
X158.75Y-193.04
X158.75Y-195.58
X158.75Y-198.12
X158.75Y-200.66
X158.75Y-203.2
X158.75Y-205.74
X160.051Y-175.882
X165.131Y-187.312
X165.131Y-192.312
X167.085Y-175.895
X170.846Y-187.312
X170.846Y-192.312
X172.085Y-175.895
T2
X50.8Y-167.627
X53.34Y-167.627
X55.88Y-167.627
X58.42Y-167.627
X60.96Y-167.627
X63.5Y-167.627
X66.04Y-167.627
X73.66Y-167.64
X76.2Y-167.64
X78.74Y-167.64
X81.28Y-167.64
X83.82Y-167.64
X92.106Y-167.627
X94.646Y-167.627
X97.186Y-167.627
X99.726Y-167.627
X102.266Y-167.627
X104.806Y-167.627
X107.346Y-167.627
X116.205Y-168.275
X118.745Y-168.275
X121.285Y-168.275
X123.825Y-168.275
X126.365Y-168.275
X135.921Y-168.262
X138.461Y-168.262
X141.001Y-168.262
X143.541Y-168.262
X146.081Y-168.262
X148.621Y-168.262
X151.161Y-168.262
X160.655Y-168.275
X163.195Y-168.275
X165.735Y-168.275
X168.275Y-168.275
X170.815Y-168.275
T3
X81.28Y-210.82
X86.28Y-210.82
X91.28Y-210.82
X96.28Y-210.82
X128.27Y-210.82
X133.27Y-210.82
X138.27Y-210.82
X143.27Y-210.82
T0
M30
