%TF.GenerationSoftware,KiCad,Pcbnew,(5.1.10)-1*%
%TF.CreationDate,2022-02-15T22:08:32+02:00*%
%TF.ProjectId,SEM,53454d2e-6b69-4636-9164-5f7063625858,rev?*%
%TF.SameCoordinates,Original*%
%TF.FileFunction,Soldermask,Bot*%
%TF.FilePolarity,Negative*%
%FSLAX46Y46*%
G04 Gerber Fmt 4.6, Leading zero omitted, Abs format (unit mm)*
G04 Created by KiCad (PCBNEW (5.1.10)-1) date 2022-02-15 22:08:32*
%MOMM*%
%LPD*%
G01*
G04 APERTURE LIST*
%ADD10C,1.600000*%
%ADD11O,1.700000X1.700000*%
%ADD12R,1.700000X1.700000*%
%ADD13R,2.600000X2.600000*%
%ADD14C,2.600000*%
%ADD15R,1.600000X1.600000*%
%ADD16O,1.600000X1.600000*%
G04 APERTURE END LIST*
D10*
%TO.C,C4*%
X90201000Y-175247000D03*
X85201000Y-175247000D03*
%TD*%
%TO.C,C22*%
X56546000Y-196837000D03*
X56546000Y-201837000D03*
%TD*%
%TO.C,C5*%
X97821000Y-186042000D03*
X97821000Y-191042000D03*
%TD*%
%TO.C,C31*%
X92741000Y-199377000D03*
X92741000Y-194377000D03*
%TD*%
D11*
%TO.C,J10*%
X83820000Y-167640000D03*
X81280000Y-167640000D03*
X78740000Y-167640000D03*
X76200000Y-167640000D03*
D12*
X73660000Y-167640000D03*
%TD*%
D10*
%TO.C,C17*%
X107346000Y-175882000D03*
X102346000Y-175882000D03*
%TD*%
%TO.C,C6*%
X50831000Y-192947000D03*
X50831000Y-187947000D03*
%TD*%
%TO.C,C30*%
X135286000Y-201282000D03*
X135286000Y-196282000D03*
%TD*%
D13*
%TO.C,J5*%
X128270000Y-210820000D03*
D14*
X133270000Y-210820000D03*
X138270000Y-210820000D03*
X143270000Y-210820000D03*
%TD*%
D10*
%TO.C,C33*%
X126396000Y-187312000D03*
X126396000Y-192312000D03*
%TD*%
%TO.C,C32*%
X170846000Y-187312000D03*
X170846000Y-192312000D03*
%TD*%
D11*
%TO.C,J12*%
X151161000Y-168262000D03*
X148621000Y-168262000D03*
X146081000Y-168262000D03*
X143541000Y-168262000D03*
X141001000Y-168262000D03*
X138461000Y-168262000D03*
D12*
X135921000Y-168262000D03*
%TD*%
D10*
%TO.C,C7*%
X66071000Y-175247000D03*
X61071000Y-175247000D03*
%TD*%
%TO.C,C16*%
X147351000Y-175882000D03*
X142351000Y-175882000D03*
%TD*%
%TO.C,C29*%
X120681000Y-187312000D03*
X120681000Y-192312000D03*
%TD*%
%TO.C,C23*%
X119411000Y-175882000D03*
X114411000Y-175882000D03*
%TD*%
D15*
%TO.C,U2*%
X158750000Y-205740000D03*
D16*
X151130000Y-190500000D03*
X158750000Y-203200000D03*
X151130000Y-193040000D03*
X158750000Y-200660000D03*
X151130000Y-195580000D03*
X158750000Y-198120000D03*
X151130000Y-198120000D03*
X158750000Y-195580000D03*
X151130000Y-200660000D03*
X158750000Y-193040000D03*
X151130000Y-203200000D03*
X158750000Y-190500000D03*
X151130000Y-205740000D03*
%TD*%
D12*
%TO.C,J13*%
X92106000Y-167627000D03*
D11*
X94646000Y-167627000D03*
X97186000Y-167627000D03*
X99726000Y-167627000D03*
X102266000Y-167627000D03*
X104806000Y-167627000D03*
X107346000Y-167627000D03*
%TD*%
D10*
%TO.C,C25*%
X83851000Y-191169000D03*
X83851000Y-186169000D03*
%TD*%
D12*
%TO.C,J9*%
X116205000Y-168275000D03*
D11*
X118745000Y-168275000D03*
X121285000Y-168275000D03*
X123825000Y-168275000D03*
X126365000Y-168275000D03*
%TD*%
D13*
%TO.C,J8*%
X81280000Y-210820000D03*
D14*
X86280000Y-210820000D03*
X91280000Y-210820000D03*
X96280000Y-210820000D03*
%TD*%
D15*
%TO.C,U3*%
X114331000Y-202552000D03*
D16*
X106711000Y-187312000D03*
X114331000Y-200012000D03*
X106711000Y-189852000D03*
X114331000Y-197472000D03*
X106711000Y-192392000D03*
X114331000Y-194932000D03*
X106711000Y-194932000D03*
X114331000Y-192392000D03*
X106711000Y-197472000D03*
X114331000Y-189852000D03*
X106711000Y-200012000D03*
X114331000Y-187312000D03*
X106711000Y-202552000D03*
%TD*%
D10*
%TO.C,C9*%
X92741000Y-186042000D03*
X92741000Y-191042000D03*
%TD*%
D12*
%TO.C,J11*%
X50800000Y-167627000D03*
D11*
X53340000Y-167627000D03*
X55880000Y-167627000D03*
X58420000Y-167627000D03*
X60960000Y-167627000D03*
X63500000Y-167627000D03*
X66040000Y-167627000D03*
%TD*%
D10*
%TO.C,C3*%
X140366000Y-187312000D03*
X140366000Y-192312000D03*
%TD*%
%TO.C,C21*%
X160051000Y-175882000D03*
X155051000Y-175882000D03*
%TD*%
%TO.C,C2*%
X56546000Y-192947000D03*
X56546000Y-187947000D03*
%TD*%
D12*
%TO.C,J4*%
X160655000Y-168275000D03*
D11*
X163195000Y-168275000D03*
X165735000Y-168275000D03*
X168275000Y-168275000D03*
X170815000Y-168275000D03*
%TD*%
D10*
%TO.C,C28*%
X50831000Y-196917000D03*
X50831000Y-201917000D03*
%TD*%
%TO.C,C11*%
X172085000Y-175895000D03*
X167085000Y-175895000D03*
%TD*%
%TO.C,C19*%
X78136000Y-191169000D03*
X78136000Y-186169000D03*
%TD*%
%TO.C,C12*%
X132111000Y-175882000D03*
X127111000Y-175882000D03*
%TD*%
%TO.C,C26*%
X97821000Y-199377000D03*
X97821000Y-194377000D03*
%TD*%
%TO.C,C8*%
X135286000Y-187312000D03*
X135286000Y-192312000D03*
%TD*%
%TO.C,C13*%
X78136000Y-175247000D03*
X73136000Y-175247000D03*
%TD*%
%TO.C,C27*%
X165131000Y-187312000D03*
X165131000Y-192312000D03*
%TD*%
%TO.C,C24*%
X140366000Y-201282000D03*
X140366000Y-196282000D03*
%TD*%
D16*
%TO.C,U1*%
X64801000Y-202552000D03*
X72421000Y-187312000D03*
X64801000Y-200012000D03*
X72421000Y-189852000D03*
X64801000Y-197472000D03*
X72421000Y-192392000D03*
X64801000Y-194932000D03*
X72421000Y-194932000D03*
X64801000Y-192392000D03*
X72421000Y-197472000D03*
X64801000Y-189852000D03*
X72421000Y-200012000D03*
X64801000Y-187312000D03*
D15*
X72421000Y-202552000D03*
%TD*%
M02*
