%TF.GenerationSoftware,KiCad,Pcbnew,(5.1.10)-1*%
%TF.CreationDate,2022-02-15T22:08:32+02:00*%
%TF.ProjectId,SEM,53454d2e-6b69-4636-9164-5f7063625858,rev?*%
%TF.SameCoordinates,Original*%
%TF.FileFunction,Copper,L2,Bot*%
%TF.FilePolarity,Positive*%
%FSLAX46Y46*%
G04 Gerber Fmt 4.6, Leading zero omitted, Abs format (unit mm)*
G04 Created by KiCad (PCBNEW (5.1.10)-1) date 2022-02-15 22:08:32*
%MOMM*%
%LPD*%
G01*
G04 APERTURE LIST*
%TA.AperFunction,ComponentPad*%
%ADD10C,1.600000*%
%TD*%
%TA.AperFunction,ComponentPad*%
%ADD11O,1.700000X1.700000*%
%TD*%
%TA.AperFunction,ComponentPad*%
%ADD12R,1.700000X1.700000*%
%TD*%
%TA.AperFunction,ComponentPad*%
%ADD13R,2.600000X2.600000*%
%TD*%
%TA.AperFunction,ComponentPad*%
%ADD14C,2.600000*%
%TD*%
%TA.AperFunction,ComponentPad*%
%ADD15R,1.600000X1.600000*%
%TD*%
%TA.AperFunction,ComponentPad*%
%ADD16O,1.600000X1.600000*%
%TD*%
%TA.AperFunction,Conductor*%
%ADD17C,1.000000*%
%TD*%
G04 APERTURE END LIST*
D10*
%TO.P,C4,1*%
%TO.N,GND1*%
X90201000Y-175247000D03*
%TO.P,C4,2*%
%TO.N,Net-(C4-Pad2)*%
X85201000Y-175247000D03*
%TD*%
%TO.P,C22,2*%
%TO.N,GND1*%
X56546000Y-196837000D03*
%TO.P,C22,1*%
%TO.N,+12V*%
X56546000Y-201837000D03*
%TD*%
%TO.P,C5,1*%
%TO.N,+5V*%
X97821000Y-186042000D03*
%TO.P,C5,2*%
%TO.N,GND1*%
X97821000Y-191042000D03*
%TD*%
%TO.P,C31,1*%
%TO.N,+12V*%
X92741000Y-199377000D03*
%TO.P,C31,2*%
%TO.N,GND1*%
X92741000Y-194377000D03*
%TD*%
D11*
%TO.P,J10,5*%
%TO.N,Net-(J10-Pad5)*%
X83820000Y-167640000D03*
%TO.P,J10,4*%
%TO.N,Net-(J10-Pad4)*%
X81280000Y-167640000D03*
%TO.P,J10,3*%
%TO.N,/U_HIGH*%
X78740000Y-167640000D03*
%TO.P,J10,2*%
%TO.N,/U_DIS*%
X76200000Y-167640000D03*
D12*
%TO.P,J10,1*%
%TO.N,/U_LOW*%
X73660000Y-167640000D03*
%TD*%
D10*
%TO.P,C17,1*%
%TO.N,GND1*%
X107346000Y-175882000D03*
%TO.P,C17,2*%
%TO.N,Net-(C17-Pad2)*%
X102346000Y-175882000D03*
%TD*%
%TO.P,C6,2*%
%TO.N,GND1*%
X50831000Y-192947000D03*
%TO.P,C6,1*%
%TO.N,+5V*%
X50831000Y-187947000D03*
%TD*%
%TO.P,C30,1*%
%TO.N,+12V*%
X135286000Y-201282000D03*
%TO.P,C30,2*%
%TO.N,GND1*%
X135286000Y-196282000D03*
%TD*%
D13*
%TO.P,J5,1*%
%TO.N,+5V*%
X128270000Y-210820000D03*
D14*
%TO.P,J5,2*%
%TO.N,GND1*%
X133270000Y-210820000D03*
%TO.P,J5,3*%
%TO.N,+5V*%
X138270000Y-210820000D03*
%TO.P,J5,4*%
%TO.N,GND1*%
X143270000Y-210820000D03*
%TD*%
D10*
%TO.P,C33,1*%
%TO.N,/VBOOT_V*%
X126396000Y-187312000D03*
%TO.P,C33,2*%
%TO.N,/PHASE_V*%
X126396000Y-192312000D03*
%TD*%
%TO.P,C32,1*%
%TO.N,/VBOOT_W*%
X170846000Y-187312000D03*
%TO.P,C32,2*%
%TO.N,/PHASE_W*%
X170846000Y-192312000D03*
%TD*%
D11*
%TO.P,J12,7*%
%TO.N,GND1*%
X151161000Y-168262000D03*
%TO.P,J12,6*%
%TO.N,+5V*%
X148621000Y-168262000D03*
%TO.P,J12,5*%
%TO.N,/W_ISENSE*%
X146081000Y-168262000D03*
%TO.P,J12,4*%
%TO.N,/HIGH_GATE_W*%
X143541000Y-168262000D03*
%TO.P,J12,3*%
%TO.N,/LOW_GATE_W*%
X141001000Y-168262000D03*
%TO.P,J12,2*%
%TO.N,/W_USENSE*%
X138461000Y-168262000D03*
D12*
%TO.P,J12,1*%
%TO.N,/PHASE_W*%
X135921000Y-168262000D03*
%TD*%
D10*
%TO.P,C7,1*%
%TO.N,GND1*%
X66071000Y-175247000D03*
%TO.P,C7,2*%
%TO.N,Net-(C7-Pad2)*%
X61071000Y-175247000D03*
%TD*%
%TO.P,C16,1*%
%TO.N,GND1*%
X147351000Y-175882000D03*
%TO.P,C16,2*%
%TO.N,Net-(C16-Pad2)*%
X142351000Y-175882000D03*
%TD*%
%TO.P,C29,1*%
%TO.N,/VBOOT_V*%
X120681000Y-187312000D03*
%TO.P,C29,2*%
%TO.N,/PHASE_V*%
X120681000Y-192312000D03*
%TD*%
%TO.P,C23,1*%
%TO.N,GND1*%
X119411000Y-175882000D03*
%TO.P,C23,2*%
%TO.N,Net-(C23-Pad2)*%
X114411000Y-175882000D03*
%TD*%
D15*
%TO.P,U2,1*%
%TO.N,/LOW_GATE_W*%
X158750000Y-205740000D03*
D16*
%TO.P,U2,8*%
%TO.N,Net-(U2-Pad8)*%
X151130000Y-190500000D03*
%TO.P,U2,2*%
%TO.N,GND1*%
X158750000Y-203200000D03*
%TO.P,U2,9*%
%TO.N,+5V*%
X151130000Y-193040000D03*
%TO.P,U2,3*%
%TO.N,+12V*%
X158750000Y-200660000D03*
%TO.P,U2,10*%
%TO.N,Net-(C11-Pad2)*%
X151130000Y-195580000D03*
%TO.P,U2,4*%
%TO.N,Net-(U2-Pad4)*%
X158750000Y-198120000D03*
%TO.P,U2,11*%
%TO.N,Net-(C21-Pad2)*%
X151130000Y-198120000D03*
%TO.P,U2,5*%
%TO.N,/PHASE_W*%
X158750000Y-195580000D03*
%TO.P,U2,12*%
%TO.N,Net-(C16-Pad2)*%
X151130000Y-200660000D03*
%TO.P,U2,6*%
%TO.N,/VBOOT_W*%
X158750000Y-193040000D03*
%TO.P,U2,13*%
%TO.N,GND1*%
X151130000Y-203200000D03*
%TO.P,U2,7*%
%TO.N,/HIGH_GATE_W*%
X158750000Y-190500000D03*
%TO.P,U2,14*%
%TO.N,Net-(U2-Pad14)*%
X151130000Y-205740000D03*
%TD*%
D12*
%TO.P,J13,1*%
%TO.N,/PHASE_V*%
X92106000Y-167627000D03*
D11*
%TO.P,J13,2*%
%TO.N,/V_USENSE*%
X94646000Y-167627000D03*
%TO.P,J13,3*%
%TO.N,/LOW_GATE_V*%
X97186000Y-167627000D03*
%TO.P,J13,4*%
%TO.N,/HIGH_GATE_V*%
X99726000Y-167627000D03*
%TO.P,J13,5*%
%TO.N,/V_ISENSE*%
X102266000Y-167627000D03*
%TO.P,J13,6*%
%TO.N,+5V*%
X104806000Y-167627000D03*
%TO.P,J13,7*%
%TO.N,GND1*%
X107346000Y-167627000D03*
%TD*%
D10*
%TO.P,C25,2*%
%TO.N,/PHASE_U*%
X83851000Y-191169000D03*
%TO.P,C25,1*%
%TO.N,/VBOOT_U*%
X83851000Y-186169000D03*
%TD*%
D12*
%TO.P,J9,1*%
%TO.N,/V_LOW*%
X116205000Y-168275000D03*
D11*
%TO.P,J9,2*%
%TO.N,/V_DIS*%
X118745000Y-168275000D03*
%TO.P,J9,3*%
%TO.N,/V_HIGH*%
X121285000Y-168275000D03*
%TO.P,J9,4*%
%TO.N,Net-(J9-Pad4)*%
X123825000Y-168275000D03*
%TO.P,J9,5*%
%TO.N,Net-(J9-Pad5)*%
X126365000Y-168275000D03*
%TD*%
D13*
%TO.P,J8,1*%
%TO.N,+12V*%
X81280000Y-210820000D03*
D14*
%TO.P,J8,2*%
%TO.N,GND1*%
X86280000Y-210820000D03*
%TO.P,J8,3*%
%TO.N,+12V*%
X91280000Y-210820000D03*
%TO.P,J8,4*%
%TO.N,GND1*%
X96280000Y-210820000D03*
%TD*%
D15*
%TO.P,U3,1*%
%TO.N,/LOW_GATE_V*%
X114331000Y-202552000D03*
D16*
%TO.P,U3,8*%
%TO.N,Net-(U3-Pad8)*%
X106711000Y-187312000D03*
%TO.P,U3,2*%
%TO.N,GND1*%
X114331000Y-200012000D03*
%TO.P,U3,9*%
%TO.N,+5V*%
X106711000Y-189852000D03*
%TO.P,U3,3*%
%TO.N,+12V*%
X114331000Y-197472000D03*
%TO.P,U3,10*%
%TO.N,Net-(C12-Pad2)*%
X106711000Y-192392000D03*
%TO.P,U3,4*%
%TO.N,Net-(U3-Pad4)*%
X114331000Y-194932000D03*
%TO.P,U3,11*%
%TO.N,Net-(C23-Pad2)*%
X106711000Y-194932000D03*
%TO.P,U3,5*%
%TO.N,/PHASE_V*%
X114331000Y-192392000D03*
%TO.P,U3,12*%
%TO.N,Net-(C17-Pad2)*%
X106711000Y-197472000D03*
%TO.P,U3,6*%
%TO.N,/VBOOT_V*%
X114331000Y-189852000D03*
%TO.P,U3,13*%
%TO.N,GND1*%
X106711000Y-200012000D03*
%TO.P,U3,7*%
%TO.N,/HIGH_GATE_V*%
X114331000Y-187312000D03*
%TO.P,U3,14*%
%TO.N,Net-(U3-Pad14)*%
X106711000Y-202552000D03*
%TD*%
D10*
%TO.P,C9,1*%
%TO.N,+5V*%
X92741000Y-186042000D03*
%TO.P,C9,2*%
%TO.N,GND1*%
X92741000Y-191042000D03*
%TD*%
D12*
%TO.P,J11,1*%
%TO.N,/PHASE_U*%
X50800000Y-167627000D03*
D11*
%TO.P,J11,2*%
%TO.N,/U_USENSE*%
X53340000Y-167627000D03*
%TO.P,J11,3*%
%TO.N,/LOW_GATE_U*%
X55880000Y-167627000D03*
%TO.P,J11,4*%
%TO.N,/HIGH_GATE_U*%
X58420000Y-167627000D03*
%TO.P,J11,5*%
%TO.N,/U_ISENSE*%
X60960000Y-167627000D03*
%TO.P,J11,6*%
%TO.N,+5V*%
X63500000Y-167627000D03*
%TO.P,J11,7*%
%TO.N,GND1*%
X66040000Y-167627000D03*
%TD*%
D10*
%TO.P,C3,1*%
%TO.N,+5V*%
X140366000Y-187312000D03*
%TO.P,C3,2*%
%TO.N,GND1*%
X140366000Y-192312000D03*
%TD*%
%TO.P,C21,1*%
%TO.N,GND1*%
X160051000Y-175882000D03*
%TO.P,C21,2*%
%TO.N,Net-(C21-Pad2)*%
X155051000Y-175882000D03*
%TD*%
%TO.P,C2,2*%
%TO.N,GND1*%
X56546000Y-192947000D03*
%TO.P,C2,1*%
%TO.N,+5V*%
X56546000Y-187947000D03*
%TD*%
D12*
%TO.P,J4,1*%
%TO.N,/W_LOW*%
X160655000Y-168275000D03*
D11*
%TO.P,J4,2*%
%TO.N,/W_DIS*%
X163195000Y-168275000D03*
%TO.P,J4,3*%
%TO.N,/W_HIGH*%
X165735000Y-168275000D03*
%TO.P,J4,4*%
%TO.N,Net-(J4-Pad4)*%
X168275000Y-168275000D03*
%TO.P,J4,5*%
%TO.N,Net-(J4-Pad5)*%
X170815000Y-168275000D03*
%TD*%
D10*
%TO.P,C28,2*%
%TO.N,GND1*%
X50831000Y-196917000D03*
%TO.P,C28,1*%
%TO.N,+12V*%
X50831000Y-201917000D03*
%TD*%
%TO.P,C11,1*%
%TO.N,GND1*%
X172085000Y-175895000D03*
%TO.P,C11,2*%
%TO.N,Net-(C11-Pad2)*%
X167085000Y-175895000D03*
%TD*%
%TO.P,C19,2*%
%TO.N,/PHASE_U*%
X78136000Y-191169000D03*
%TO.P,C19,1*%
%TO.N,/VBOOT_U*%
X78136000Y-186169000D03*
%TD*%
%TO.P,C12,1*%
%TO.N,GND1*%
X132111000Y-175882000D03*
%TO.P,C12,2*%
%TO.N,Net-(C12-Pad2)*%
X127111000Y-175882000D03*
%TD*%
%TO.P,C26,1*%
%TO.N,+12V*%
X97821000Y-199377000D03*
%TO.P,C26,2*%
%TO.N,GND1*%
X97821000Y-194377000D03*
%TD*%
%TO.P,C8,1*%
%TO.N,+5V*%
X135286000Y-187312000D03*
%TO.P,C8,2*%
%TO.N,GND1*%
X135286000Y-192312000D03*
%TD*%
%TO.P,C13,1*%
%TO.N,GND1*%
X78136000Y-175247000D03*
%TO.P,C13,2*%
%TO.N,Net-(C13-Pad2)*%
X73136000Y-175247000D03*
%TD*%
%TO.P,C27,1*%
%TO.N,/VBOOT_W*%
X165131000Y-187312000D03*
%TO.P,C27,2*%
%TO.N,/PHASE_W*%
X165131000Y-192312000D03*
%TD*%
%TO.P,C24,1*%
%TO.N,+12V*%
X140366000Y-201282000D03*
%TO.P,C24,2*%
%TO.N,GND1*%
X140366000Y-196282000D03*
%TD*%
D16*
%TO.P,U1,14*%
%TO.N,Net-(U1-Pad14)*%
X64801000Y-202552000D03*
%TO.P,U1,7*%
%TO.N,/HIGH_GATE_U*%
X72421000Y-187312000D03*
%TO.P,U1,13*%
%TO.N,GND1*%
X64801000Y-200012000D03*
%TO.P,U1,6*%
%TO.N,/VBOOT_U*%
X72421000Y-189852000D03*
%TO.P,U1,12*%
%TO.N,Net-(C7-Pad2)*%
X64801000Y-197472000D03*
%TO.P,U1,5*%
%TO.N,/PHASE_U*%
X72421000Y-192392000D03*
%TO.P,U1,11*%
%TO.N,Net-(C13-Pad2)*%
X64801000Y-194932000D03*
%TO.P,U1,4*%
%TO.N,Net-(U1-Pad4)*%
X72421000Y-194932000D03*
%TO.P,U1,10*%
%TO.N,Net-(C4-Pad2)*%
X64801000Y-192392000D03*
%TO.P,U1,3*%
%TO.N,+12V*%
X72421000Y-197472000D03*
%TO.P,U1,9*%
%TO.N,+5V*%
X64801000Y-189852000D03*
%TO.P,U1,2*%
%TO.N,GND1*%
X72421000Y-200012000D03*
%TO.P,U1,8*%
%TO.N,Net-(U1-Pad8)*%
X64801000Y-187312000D03*
D15*
%TO.P,U1,1*%
%TO.N,/LOW_GATE_U*%
X72421000Y-202552000D03*
%TD*%
D17*
%TO.N,+5V*%
X64801000Y-189852000D02*
X60312000Y-189852000D01*
X60312000Y-189852000D02*
X58407000Y-187947000D01*
X58407000Y-187947000D02*
X56546000Y-187947000D01*
X147320000Y-193040000D02*
X141592000Y-187312000D01*
X141592000Y-187312000D02*
X140366000Y-187312000D01*
X151130000Y-193040000D02*
X147320000Y-193040000D01*
X101631000Y-189852000D02*
X106711000Y-189852000D01*
X97821000Y-186042000D02*
X101631000Y-189852000D01*
%TO.N,/PHASE_U*%
X55880000Y-184150000D02*
X64377002Y-184150000D01*
X64377002Y-184150000D02*
X68580000Y-188352998D01*
X50800000Y-179070000D02*
X55880000Y-184150000D01*
X68580000Y-189682370D02*
X71289630Y-192392000D01*
X68580000Y-188352998D02*
X68580000Y-189682370D01*
X71289630Y-192392000D02*
X72421000Y-192392000D01*
X50800000Y-167627000D02*
X50800000Y-179070000D01*
%TO.N,/PHASE_W*%
X135921000Y-168262000D02*
X135921000Y-177831000D01*
X135921000Y-177831000D02*
X146050000Y-187960000D01*
X152400000Y-187960000D02*
X156899999Y-192459999D01*
X157618630Y-195580000D02*
X158750000Y-195580000D01*
X146050000Y-187960000D02*
X152400000Y-187960000D01*
X156899999Y-194861369D02*
X157618630Y-195580000D01*
X156899999Y-192459999D02*
X156899999Y-194861369D01*
%TO.N,/PHASE_V*%
X103217955Y-182880000D02*
X107950000Y-182880000D01*
X95349000Y-175011045D02*
X103217955Y-182880000D01*
X112480999Y-187410999D02*
X112480999Y-191673369D01*
X107950000Y-182880000D02*
X112480999Y-187410999D01*
X92106000Y-169477000D02*
X95349000Y-172720000D01*
X112480999Y-191673369D02*
X113199630Y-192392000D01*
X95349000Y-172720000D02*
X95349000Y-175011045D01*
X92106000Y-167627000D02*
X92106000Y-169477000D01*
X113199630Y-192392000D02*
X114331000Y-192392000D01*
%TO.N,GND1*%
X89495000Y-214035000D02*
X86280000Y-210820000D01*
X107346000Y-175882000D02*
X111760000Y-171468000D01*
X111760000Y-171468000D02*
X123172000Y-171468000D01*
X119411000Y-175882000D02*
X123172000Y-172121000D01*
X66040000Y-175216000D02*
X66071000Y-175247000D01*
X66040000Y-171450000D02*
X66040000Y-175216000D01*
X74339000Y-171450000D02*
X86404000Y-171450000D01*
X137080000Y-214630000D02*
X136485000Y-214035000D01*
X127697000Y-171468000D02*
X132111000Y-175882000D01*
X107346000Y-175882000D02*
X107346000Y-174594000D01*
X90201000Y-175247000D02*
X90201000Y-188502000D01*
X74339000Y-171450000D02*
X78136000Y-175247000D01*
X68126990Y-165540010D02*
X66040000Y-167627000D01*
X66040000Y-167627000D02*
X66040000Y-171450000D01*
X123172000Y-172121000D02*
X123172000Y-171468000D01*
X86404000Y-171450000D02*
X90201000Y-175247000D01*
X66040000Y-171450000D02*
X74339000Y-171450000D01*
X99495000Y-214035000D02*
X96280000Y-210820000D01*
X123172000Y-171468000D02*
X127697000Y-171468000D01*
X107346000Y-167627000D02*
X107346000Y-175882000D01*
X90201000Y-188502000D02*
X92741000Y-191042000D01*
X109432990Y-165540010D02*
X68126990Y-165540010D01*
X99495000Y-214035000D02*
X89495000Y-214035000D01*
X136485000Y-214035000D02*
X133270000Y-210820000D01*
X136485000Y-214035000D02*
X99495000Y-214035000D01*
X109432990Y-165540010D02*
X107346000Y-167627000D01*
X175260000Y-171450000D02*
X175260000Y-167640000D01*
X160051000Y-175882000D02*
X160051000Y-177831000D01*
X147080000Y-214630000D02*
X171450000Y-214630000D01*
X132111000Y-175882000D02*
X132111000Y-189137000D01*
X151130000Y-181610000D02*
X163830000Y-181610000D01*
X151161000Y-172072000D02*
X147351000Y-175882000D01*
X163830000Y-181610000D02*
X175260000Y-181610000D01*
X175260000Y-210820000D02*
X175260000Y-181610000D01*
X172085000Y-174625000D02*
X175260000Y-171450000D01*
X147351000Y-175882000D02*
X147351000Y-177831000D01*
X132111000Y-189137000D02*
X135286000Y-192312000D01*
X175260000Y-181610000D02*
X175260000Y-171450000D01*
X175260000Y-167640000D02*
X173160010Y-165540010D01*
X171450000Y-214630000D02*
X175260000Y-210820000D01*
X173160010Y-165540010D02*
X153882990Y-165540010D01*
X147351000Y-177831000D02*
X151130000Y-181610000D01*
X172085000Y-175895000D02*
X172085000Y-174625000D01*
X151161000Y-168262000D02*
X151161000Y-172072000D01*
X153882990Y-165540010D02*
X151161000Y-168262000D01*
X153882990Y-165540010D02*
X109432990Y-165540010D01*
X160051000Y-177831000D02*
X163830000Y-181610000D01*
X143270000Y-210820000D02*
X147080000Y-214630000D01*
X140970000Y-214630000D02*
X137080000Y-214630000D01*
X143270000Y-212330000D02*
X140970000Y-214630000D01*
X143270000Y-210820000D02*
X143270000Y-212330000D01*
%TO.N,/HIGH_GATE_U*%
X58420000Y-170180000D02*
X55880000Y-172720000D01*
X55880000Y-172720000D02*
X55880000Y-179070000D01*
X58420000Y-181610000D02*
X66719000Y-181610000D01*
X58420000Y-167627000D02*
X58420000Y-170180000D01*
X66719000Y-181610000D02*
X72421000Y-187312000D01*
X55880000Y-179070000D02*
X58420000Y-181610000D01*
%TO.N,/HIGH_GATE_V*%
X99726000Y-167627000D02*
X99726000Y-170784000D01*
X114300000Y-187281000D02*
X114331000Y-187312000D01*
X114300000Y-184150000D02*
X114300000Y-187281000D01*
X110490000Y-180340000D02*
X114300000Y-184150000D01*
X102870000Y-180340000D02*
X110490000Y-180340000D01*
X97790000Y-172720000D02*
X97790000Y-175260000D01*
X97790000Y-175260000D02*
X102870000Y-180340000D01*
X99726000Y-170784000D02*
X97790000Y-172720000D01*
%TO.N,/HIGH_GATE_W*%
X158781000Y-190469000D02*
X158750000Y-190500000D01*
X140970000Y-171450000D02*
X140500999Y-171919001D01*
X140500999Y-171919001D02*
X140500999Y-178600999D01*
X141555081Y-171450000D02*
X140970000Y-171450000D01*
X143541000Y-169464081D02*
X141555081Y-171450000D01*
X143541000Y-168262000D02*
X143541000Y-169464081D01*
X158781000Y-186677000D02*
X158781000Y-190469000D01*
X146050000Y-184150000D02*
X156254000Y-184150000D01*
X140500999Y-178600999D02*
X146050000Y-184150000D01*
X156254000Y-184150000D02*
X158781000Y-186677000D01*
%TO.N,+12V*%
X156899999Y-201378631D02*
X157618630Y-200660000D01*
X81298000Y-210820000D02*
X92741000Y-199377000D01*
X81280000Y-210820000D02*
X81280000Y-206132998D01*
X111760000Y-203112000D02*
X111760000Y-198911630D01*
X97821000Y-199377000D02*
X104140000Y-205696000D01*
X118732000Y-197472000D02*
X125730000Y-204470000D01*
X114331000Y-197472000D02*
X118732000Y-197472000D01*
X157618630Y-200660000D02*
X158750000Y-200660000D01*
X156899999Y-203780001D02*
X156899999Y-201378631D01*
X81280000Y-206132998D02*
X72619002Y-197472000D01*
X81280000Y-210820000D02*
X81298000Y-210820000D01*
X142862000Y-201282000D02*
X149860000Y-208280000D01*
X113199630Y-197472000D02*
X114331000Y-197472000D01*
X109176000Y-205696000D02*
X111760000Y-203112000D01*
X104140000Y-205696000D02*
X109176000Y-205696000D01*
X60449000Y-205740000D02*
X65731000Y-205740000D01*
X65731000Y-205740000D02*
X70570999Y-200900001D01*
X70570999Y-199123999D02*
X72222998Y-197472000D01*
X70570999Y-200900001D02*
X70570999Y-199123999D01*
X111760000Y-198911630D02*
X113199630Y-197472000D01*
X72619002Y-197472000D02*
X72421000Y-197472000D01*
X149860000Y-208280000D02*
X152400000Y-208280000D01*
X72222998Y-197472000D02*
X72421000Y-197472000D01*
X132098000Y-204470000D02*
X135286000Y-201282000D01*
X56546000Y-201837000D02*
X60449000Y-205740000D01*
X152400000Y-208280000D02*
X156899999Y-203780001D01*
X140366000Y-201282000D02*
X142862000Y-201282000D01*
X125730000Y-204470000D02*
X132098000Y-204470000D01*
%TD*%
M02*
